<?xml version="1.0" encoding="utf-8"?>
<!-- Generator: Adobe Illustrator 26.5.0, SVG Export Plug-In . SVG Version: 6.00 Build 0)  -->
<svg version="1.1" id="Layer_1" xmlns="http://www.w3.org/2000/svg" xmlns:xlink="http://www.w3.org/1999/xlink" x="0px" y="0px"
	 viewBox="0 0 117.7 101.8" style="enable-background:new 0 0 117.7 101.8;" xml:space="preserve">
<style type="text/css">
	.st0{fill:#2571B8;}
	.st1{fill:#F3911B;}
</style>
<g>
	<path class="st0" d="M33.6,81.9h3.5l-7.3-35.5c0-0.3-0.2-0.5-0.4-0.7c-0.2-0.2-0.5-0.3-0.8-0.3h-4c-0.7,0-1.2,0.3-1.4,0.9L5.9,81.9
		h3.7l5.7-12.1h16L33.6,81.9L33.6,81.9z M16.8,66.7l7.4-15.6c0.2-0.4,0.4-0.9,0.8-1.6c0.3-0.7,0.6-1.2,0.7-1.4h1.6
		c0,0.4,0.1,0.9,0.2,1.5c0.1,0.7,0.2,1.2,0.3,1.5l3,15.6H16.8L16.8,66.7z M64.1,56.6c-4.2-0.7-8.1-1.1-11.5-1.1
		c-2.1,0-3.7,0.2-5,0.5c-1.3,0.3-2.5,1-3.6,1.9c-1.1,1-1.9,2.3-2.6,4c-0.6,1.7-1.2,4-1.6,6.8c-0.7,5-0.6,8.5,0.4,10.6
		c1,2.1,3,3.1,6,3.1c2.3,0,4.5-0.7,6.8-2c2.3-1.3,4.3-3.1,6-5.3c-0.7,1.2-1.3,3.5-1.9,6.9c-0.9,5.1-4.3,7.8-10.3,8.2
		c-2.9,0.1-5.8,0.1-8.8,0l-0.4,2.3c2.7,0.6,5.8,0.8,9.3,0.6c8.1-0.3,12.6-4.2,13.6-11.6l3.8-25.1H64.1L64.1,56.6z M46.9,79.6
		c-2.1,0-3.3-0.7-3.8-2.2c-0.5-1.5-0.4-4.2,0.2-8.2c0.7-4.6,1.6-7.5,2.9-8.8c1.3-1.3,3.8-1.9,7.6-1.9c0.7,0,3,0.1,6.8,0.2l-2.2,14.5
		C54.2,77.4,50.4,79.6,46.9,79.6L46.9,79.6L46.9,79.6z M71.4,46.4L71,49.6c-0.1,0.8,0.2,1.2,1.1,1.2h1.5c0.7,0,1.1-0.3,1.2-1
		l0.4-3.1c0.1-0.8-0.2-1.2-1-1.2h-1.5C71.9,45.4,71.5,45.8,71.4,46.4L71.4,46.4L71.4,46.4z M73.6,56.3h-3.3l-3.6,25.7H70L73.6,56.3
		L73.6,56.3z M81.2,44.8l-4.4,31.3c-0.2,2,0.1,3.5,1,4.6c0.9,1.1,2.3,1.6,4.2,1.6c2,0,3.4-0.2,4.2-0.5l-0.2-2.5h-2.8
		c-1.3,0-2.2-0.3-2.7-0.9c-0.5-0.6-0.7-1.5-0.5-2.8l4.3-30.8H81.2L81.2,44.8z M99.3,79.7c-2.9,0-4.9-0.6-6.1-1.7
		c-1.2-1.1-1.6-3.3-1.4-6.5l10.6-1c3-0.3,5.2-0.9,6.5-1.9c1.4-1,2.3-2.6,2.8-4.9c0.6-2.8,0.1-4.9-1.4-6.2c-1.5-1.3-4.1-1.9-7.8-1.9
		c-4.5,0-7.7,0.9-9.7,2.7c-2,1.8-3.4,5.2-4.1,10.3c-0.7,4.9-0.3,8.5,1.2,10.7c1.5,2.2,4.5,3.3,8.8,3.3c4.5,0,7.9-0.4,10.3-1.3
		l-0.3-2.3C105,79.5,101.8,79.7,99.3,79.7L99.3,79.7L99.3,79.7z M92.1,68.7c0.4-2.2,0.8-4,1.2-5.3c0.5-1.3,1.1-2.4,2-3.1
		c0.8-0.7,1.8-1.2,2.8-1.5c1-0.2,2.4-0.4,4.1-0.4c2.5,0,4.3,0.3,5.3,0.9c1,0.6,1.3,2,0.8,4.1c-0.3,1.6-0.9,2.6-1.7,3.3
		c-0.8,0.6-2.2,1-4.2,1.2l-10.2,1V68.7L92.1,68.7z"/>
	<path class="st0" d="M68.1,84.3c-0.3,0-0.8-0.1-1.4-0.1c-0.9,0-1.5,0.5-1.6,1.4L65,86.5l-0.9,0.1L64,87.3h0.9l-0.6,4.5
		c0,0.3-0.1,0.5-0.3,0.6c-0.1,0.1-0.4,0.2-0.7,0.2h-0.8l-0.2,0.7c0.4,0.1,0.9,0.1,1.2,0.1c0.9,0,1.5-0.5,1.6-1.4l0.7-4.7h1.5
		l0.1-0.8h-1.5l0.1-0.7c0-0.3,0.1-0.5,0.3-0.6c0.1-0.1,0.4-0.2,0.7-0.2h1L68.1,84.3L68.1,84.3z"/>
	<path class="st0" d="M76.2,86.7c-0.8-0.2-1.6-0.3-2.4-0.3c-0.4,0-0.7,0-0.9,0.1c-0.2,0.1-0.5,0.2-0.7,0.3c-0.2,0.2-0.4,0.4-0.5,0.8
		c-0.1,0.3-0.2,0.8-0.3,1.3c-0.1,1-0.1,1.7,0.1,2c0.2,0.4,0.6,0.6,1.2,0.6c0.8,0,1.5-0.3,2.1-1l0,0.9h0.8L76.2,86.7L76.2,86.7z
		 M73.8,90.4c-0.3,0.2-0.6,0.3-0.9,0.3c-0.3,0-0.5-0.1-0.6-0.3c-0.1-0.2-0.1-0.7,0-1.4c0.1-0.4,0.1-0.7,0.2-0.9
		c0.1-0.2,0.2-0.4,0.3-0.5c0.1-0.1,0.3-0.2,0.5-0.3c0.2,0,0.4-0.1,0.8-0.1c0.1,0,0.4,0,1,0l-0.4,2.4C74.4,90,74.1,90.3,73.8,90.4
		L73.8,90.4z M82.8,90.7c-0.6,0-0.9-0.1-1.1-0.3c-0.2-0.2-0.2-0.7-0.1-1.4c0.1-0.7,0.3-1.2,0.5-1.4c0.3-0.2,0.7-0.4,1.3-0.4
		c0.5,0,0.9,0,1.3,0l0.2-0.6c-0.4-0.2-0.9-0.3-1.6-0.3c-0.8,0-1.5,0.2-1.9,0.6c-0.4,0.4-0.7,1-0.8,2c-0.1,0.9,0,1.6,0.3,2
		c0.3,0.4,0.9,0.6,1.8,0.6c0.6,0,1.2-0.1,1.7-0.3l-0.1-0.7C83.9,90.7,83.4,90.7,82.8,90.7L82.8,90.7L82.8,90.7z M92.3,87.3l0.1-0.8
		h-1.5l0.2-1.4h-1L90,86.5l-0.9,0.1L89,87.3h0.9l-0.4,2.8c-0.1,0.4,0,0.8,0.2,1c0.2,0.2,0.5,0.4,0.9,0.4c0.5,0,0.8,0,1.1-0.1l0-0.8
		H91c-0.2,0-0.4,0-0.5-0.1c-0.1-0.1-0.1-0.2-0.1-0.5l0.4-2.7H92.3L92.3,87.3z M97.2,87c-0.4,0.4-0.7,1-0.8,2c-0.1,0.9,0,1.6,0.3,2
		c0.3,0.4,0.9,0.6,1.7,0.6c0.8,0,1.4-0.2,1.8-0.6c0.4-0.4,0.7-1,0.8-2c0.1-0.9,0-1.6-0.3-2c-0.3-0.4-0.9-0.6-1.7-0.6
		C98.2,86.4,97.6,86.6,97.2,87L97.2,87z M100,87.6c0.1,0.2,0.2,0.7,0.1,1.4c-0.1,0.7-0.3,1.2-0.5,1.4c-0.2,0.3-0.6,0.4-1.1,0.4
		c-0.5,0-0.8-0.1-1-0.4c-0.1-0.2-0.2-0.7-0.1-1.4c0.1-0.7,0.3-1.2,0.5-1.4c0.2-0.2,0.6-0.4,1.1-0.4C99.5,87.2,99.9,87.3,100,87.6
		L100,87.6z M109.1,86.4c-0.7,0-1.4,0.4-2.2,1.3l0.1-1.1h-0.7l-0.7,4.9h1l0.4-3.1c0.5-0.4,0.9-0.6,1.2-0.8c0.3-0.2,0.5-0.2,0.8-0.2
		h0.3l0.2-0.9H109.1L109.1,86.4z"/>
	<path class="st1" d="M100.3,28.6c-0.2-7.1-26.7-20.2-26.7-20.2s14.7,17.5,13.3,23.1s-23,6.1-27,7.1c-4,1,11.6-1.5,15.1,0.2
		c3.6,1.7-15.6,5.7-15.7,5.7c0,0,0,0,0,0s24.7-3.9,28.8-3c4.2,0.9-1,18.5-3.4,21.4c-2.4,2.9,17.9-18.2,17-25.5
		c-0.1-0.4-0.1-0.8-0.1-1.2c1.5-0.7,2.6-2.6,3.7-3.1c0.2-0.1,0.3-0.2,0.4-0.2c0,0,0,0,0,0c0.6-0.4-0.4-0.4-0.4-0.4l0,0
		c-0.2-0.2-0.4-0.4-0.7-0.7c-1.3-1.3-2.8-1.7-3.8-1.9C100.7,29.2,100.6,28.9,100.3,28.6L100.3,28.6z M100.3,28.6"/>
</g>
</svg>
