<?xml version="1.0" encoding="utf-8"?>
<!-- Generator: Adobe Illustrator 26.5.0, SVG Export Plug-In . SVG Version: 6.00 Build 0)  -->
<svg version="1.1" id="Layer_1" xmlns="http://www.w3.org/2000/svg" xmlns:xlink="http://www.w3.org/1999/xlink" x="0px" y="0px"
	 viewBox="0 0 240.2 182.9" style="enable-background:new 0 0 240.2 182.9;" xml:space="preserve">
<style type="text/css">
	.st0{fill:#145396;}
	.st1{fill:#AFD393;}
	.st2{fill:#AFD393;stroke:#FFFFFF;stroke-width:1.8357;stroke-miterlimit:10;}
</style>
<g>
	<path class="st0" d="M88.1,40.6c-2-3.7-4.8-6.6-8.4-8.7c-3.6-2-7.7-3-12.3-3c-5.5,0-10.3,1.5-14,4.3c-3.1,2.4-5.5,5.3-7,8.8V11.9
		h-2.6v66.8h2.6v-13c1.5,3.5,3.8,6.4,6.9,8.7c3.8,2.9,8.6,4.3,14.1,4.3c4.6,0,8.7-1,12.3-3c3.6-2,6.4-4.9,8.4-8.7
		c2-3.7,3-8.2,3-13.2C91,48.7,90,44.3,88.1,40.6z M67.4,76.2c-4,0-7.7-0.9-10.8-2.8c-3.2-1.9-5.7-4.5-7.5-7.9
		c-1.8-3.4-2.7-7.3-2.7-11.7c0-4.4,0.9-8.4,2.7-11.7c1.8-3.3,4.3-6,7.5-7.9c3.2-1.9,6.8-2.8,10.8-2.8c4.2,0,8,0.9,11.1,2.7
		c3.1,1.8,5.6,4.4,7.3,7.7c1.7,3.4,2.6,7.4,2.6,12c0,4.6-0.9,8.6-2.6,12c-1.7,3.3-4.2,5.9-7.3,7.7C75.4,75.3,71.6,76.2,67.4,76.2z"
		/>
	<path class="st0" d="M142.5,61l-0.1,0.4c-0.7,4.6-2.9,8.2-6.4,10.8c-3.6,2.6-8,4-13.2,4c-3.7,0-7.1-0.8-10.2-2.4
		c-3.1-1.6-5.6-4-7.5-7.2c-1.9-3.1-2.9-7-3-11.6H145l0-0.4c0.1-1.1,0.1-2.7,0.1-4.8c0-3.5-0.9-6.9-2.6-10.1
		c-1.7-3.2-4.3-5.8-7.6-7.8c-3.4-2-7.4-3-12.1-3c-4.5,0-8.5,1-12,3c-3.5,2-6.3,4.9-8.3,8.7c-2,3.8-3,8.2-3,13.3c0,5.1,1,9.5,3,13.3
		c2,3.8,4.8,6.7,8.3,8.7c3.5,2,7.6,3,12,3c6.1,0,11.2-1.6,15.2-4.7c3.9-3.1,6.3-7.3,7.2-12.4l0.1-0.5H142.5z M122.8,31.4
		c3.6,0,7,0.8,10.2,2.4c3.1,1.6,5.6,4,7.4,7.2c1.7,3.1,2.5,7,2.3,11.6H102c0.1-4.6,1.1-8.5,3-11.6c1.9-3.2,4.4-5.6,7.5-7.2
		C115.6,32.2,119.1,31.4,122.8,31.4z"/>
	<polygon class="st0" points="83.2,84.8 65.7,129.8 46.6,85.1 46.5,84.8 43.7,84.8 64.4,133.2 55.6,155.8 58.4,155.8 85.9,84.8 	"/>
	<path class="st0" d="M135.3,95.8c-2-3.7-4.9-6.6-8.5-8.6c-3.6-2-7.7-3-12.1-3c-4.5,0-8.6,1-12.1,3c-3.6,2-6.5,4.9-8.5,8.6
		c-2.1,3.7-3.1,8.2-3.1,13.2c0,5.1,1,9.5,3.1,13.2c2.1,3.7,4.9,6.6,8.5,8.6c3.6,2,7.7,3,12.1,3c4.5,0,8.6-1,12.1-3
		c3.6-2,6.4-4.9,8.5-8.7c2-3.7,3.1-8.2,3.1-13.2S137.3,99.6,135.3,95.8z M114.7,131.5c-3.7,0-7.2-0.8-10.4-2.5
		c-3.2-1.6-5.8-4.2-7.7-7.5c-1.9-3.4-2.9-7.5-2.9-12.4s1-9.1,2.9-12.4c1.9-3.3,4.5-5.9,7.7-7.5c3.2-1.6,6.7-2.5,10.4-2.5
		c3.7,0,7.2,0.8,10.4,2.5c3.1,1.6,5.7,4.1,7.7,7.5c1.9,3.3,2.9,7.5,2.9,12.5s-1,9.1-2.9,12.5c-1.9,3.3-4.5,5.8-7.7,7.5
		C121.9,130.6,118.4,131.5,114.7,131.5z"/>
	<path class="st0" d="M188.6,84.8v25.6c0,7-1.7,12.4-5,16c-3.3,3.6-7.8,5.4-13.2,5.4c-5.3,0-9.4-1.6-12.5-4.8
		c-3-3.2-4.5-7.8-4.5-13.9V84.8h-2.6v28.1c0,7.1,1.9,12.5,5.5,16c3.7,3.5,8.4,5.3,14.1,5.3c4.7,0,8.9-1.2,12.3-3.6
		c2.7-1.9,4.7-4.4,5.9-7.7v10.4h2.7V84.8H188.6z"/>
	<circle class="st0" cx="182.9" cy="146.8" r="11.6"/>
	<g>
		<path class="st1" d="M204.8,93.1c8.4,4.4,19.2,11.3,19.9,21.8c0.4,5.9-2.9,11.1-7,15c-5.7,5.5-13.1,9.2-20.3,12.2
			c-10.7,4.4-22,6.9-33.5,8.7c-25.9,3.9-52.7,4.1-78.7,0.5c-11.3-1.5-22.6-3.8-33.5-7.3c-8.4-2.7-16.8-6.1-24.1-11.2
			c-5.4-3.8-10.9-9-12.1-15.8c-1.9-11,8.6-19.1,17.2-23.9c0.3-0.2-1.3,0.1-2.5,0.3c-0.7,0.1-1.3,0.3-1.9,0.6
			c-8.4,4.6-19.2,12.3-18.3,23.2c0.5,6.1,4.8,11.2,9.4,14.9c6.9,5.6,15.3,9.3,23.7,12.2c11,3.9,22.5,6.3,34.1,8.1
			c27.2,4,55.3,3.9,82.4-0.3c11-1.7,22-4.3,32.7-7.6c8.7-2.7,17.4-6.2,25-11.3c5.2-3.5,10.4-8.3,12.1-14.5c2.5-9-4.1-16.8-11-21.8
			c-2.7-2-5.7-3.7-8.7-5.2c-0.4-0.2-2.2,0.6-2.7,0.7C206.7,92.3,204.7,93,204.8,93.1z"/>
	</g>
	<path class="st0" d="M194.5,146.8c0,6.4-5.2,11.6-11.6,11.6c-6.4,0-6.4-23.1,0-23.1C189.3,135.3,194.5,140.4,194.5,146.8z"/>
	<circle class="st2" cx="193.1" cy="160.8" r="10.2"/>
	<polygon class="st1" points="198,59.4 191.2,59.4 191.2,11.9 188.6,11.9 188.6,59.4 186.3,59.4 157.2,59.4 185.1,24.5 181.7,24.5 
		153.6,59.8 153.5,59.9 153.5,61.9 188.6,61.9 188.6,78.7 191.2,78.7 191.2,61.9 198,61.9 	"/>
</g>
</svg>
