<?xml version="1.0" encoding="utf-8"?>
<!-- Generator: Adobe Illustrator 26.5.0, SVG Export Plug-In . SVG Version: 6.00 Build 0)  -->
<svg version="1.1" id="Layer_1" xmlns="http://www.w3.org/2000/svg" xmlns:xlink="http://www.w3.org/1999/xlink" x="0px" y="0px"
	 viewBox="0 0 219 242.8" style="enable-background:new 0 0 219 242.8;" xml:space="preserve">
<style type="text/css">
	.st0{opacity:0.4;}
	.st1{fill:#A4A3A3;}
	.st2{opacity:0.5;fill:#A4A3A3;}
	.st3{fill:#FFFFFF;}
	.st4{opacity:0.5;fill:#FFFFFF;}
	.st5{fill:url(#SVGID_1_);}
	.st6{opacity:0.3;fill:url(#SVGID_00000167365558176616915180000004206809376452487042_);}
	.st7{fill:url(#SVGID_00000057112549119719640950000004843893351930831037_);}
	.st8{fill:url(#SVGID_00000049944395531985406770000013571900291185310095_);}
	.st9{opacity:0.3;fill:url(#SVGID_00000165934252171438577610000000796344361031787139_);}
	.st10{fill:url(#SVGID_00000161601838373722707190000010320105629264386710_);}
	.st11{fill:url(#SVGID_00000090294637028454020800000016728765119923753624_);}
	.st12{opacity:0.3;fill:url(#SVGID_00000067193887279648877340000007465738004022268086_);}
	.st13{fill:url(#SVGID_00000163032037349962009490000017899824241695403187_);}
	.st14{fill:url(#SVGID_00000123427506281039223450000000172358577989140398_);}
	.st15{opacity:0.3;fill:url(#SVGID_00000159465733366941040540000006903546382620909202_);}
	.st16{fill:url(#SVGID_00000145029617852387797190000006951994095060362933_);}
	.st17{fill:url(#SVGID_00000183221425082917307400000010579324039755367060_);}
	.st18{fill:url(#SVGID_00000033351598014285814740000007863437987895287438_);}
	.st19{fill:url(#SVGID_00000106139391412371645490000013953971999738364310_);}
	.st20{fill:url(#SVGID_00000031189308334075814620000007222789585066370980_);}
	.st21{fill:url(#SVGID_00000129887122810847498280000003120577751587268786_);}
	.st22{fill:url(#SVGID_00000183225012267717664680000012149438030226734978_);}
	.st23{opacity:0.3;fill:url(#SVGID_00000151507712444838375210000012585191122160702392_);}
	.st24{fill:url(#SVGID_00000039836743460008058830000013544928287048716984_);}
	.st25{fill:url(#SVGID_00000148628845720182807320000013242590813132117397_);}
	.st26{opacity:0.5;fill:url(#SVGID_00000015347920072588142700000001290273358417761685_);}
	.st27{opacity:0.72;fill:url(#SVGID_00000105417028627400179490000002116433833539509425_);}
	.st28{opacity:0.72;fill:url(#SVGID_00000183217295959672748960000014645829962056843908_);}
	.st29{fill:url(#SVGID_00000073687384128462557240000015699992786251949220_);}
	.st30{fill:url(#SVGID_00000056396983671942752210000011859380468931841670_);}
	.st31{fill:url(#SVGID_00000013174126873695943690000004908087349089619634_);}
	.st32{fill:url(#SVGID_00000021813087667575371360000004209631797106732961_);}
	.st33{fill:#2F95CD;}
	.st34{fill:url(#SVGID_00000079482638136883935420000016242832781453564059_);}
	.st35{fill:url(#SVGID_00000041292283729390360140000009968327248569262473_);}
	.st36{fill:url(#SVGID_00000100357037098181224270000010576633750106219961_);}
	.st37{fill:url(#SVGID_00000034783956412213655370000012895416682856642237_);}
	.st38{fill:url(#SVGID_00000141457709187168862990000013905834854925186748_);}
	.st39{opacity:0.5;fill:url(#SVGID_00000072252452383855704890000001503445241967529403_);}
	.st40{fill:url(#SVGID_00000025419697594025223380000010896704695731632789_);}
	.st41{opacity:0.5;fill:url(#SVGID_00000060004139968969448540000015156338624353668004_);}
	.st42{opacity:0.5;fill:url(#SVGID_00000178885429525794027950000013018410296996333704_);}
	.st43{fill:url(#SVGID_00000064324035333613145140000016332884410443762314_);}
	.st44{opacity:0.5;fill:url(#SVGID_00000017514990882888963060000000600446184644495265_);}
	.st45{fill:url(#SVGID_00000143613371799316563190000016977497845501142705_);}
	.st46{fill:url(#SVGID_00000035506670384069692520000013795983688233256106_);}
	.st47{opacity:0.5;fill:#D9D2EC;}
	.st48{opacity:0.5;fill:url(#SVGID_00000076597354136878019930000017401390805363091883_);}
	.st49{opacity:0.5;fill:url(#SVGID_00000111185075813572895260000011167311769149735610_);}
	.st50{opacity:0.2;fill:url(#SVGID_00000105423004165944688410000009085516987183068598_);}
	.st51{opacity:0.5;fill:url(#SVGID_00000057863788092571195710000014520956790598782624_);}
	.st52{fill:url(#SVGID_00000078039588976688940220000013122846128497869697_);}
	.st53{fill:url(#SVGID_00000183232222686573815980000003494983265246790272_);}
	.st54{fill:url(#SVGID_00000107562902961031278240000000374443128583729280_);}
	.st55{opacity:0.72;fill:url(#SVGID_00000168117747727660942460000018287881523001132987_);}
	.st56{opacity:0.72;fill:url(#SVGID_00000012457320063807764930000016682089679337027235_);}
	.st57{opacity:0.5;fill:url(#SVGID_00000018201300139921020040000014097279873459925903_);}
	.st58{fill:url(#SVGID_00000035517862934814024210000005121393341477236400_);}
	.st59{fill:url(#SVGID_00000098929957484750227260000013619430533656909733_);}
	.st60{opacity:0.5;fill:url(#SVGID_00000137123226411682890950000017515737298521167027_);}
</style>
<g>
	<g class="st0">
		<path class="st1" d="M198.9,185.2c-3.4,6.7-7.3,10.8-11.5,12.9c-6.5,3.3-13.8,2-21.3-0.8c-0.2-0.1-0.5-0.2-0.7-0.2
			c-1-0.4-2.1-0.8-3.1-1.3c-11.8-5-24.1-12.6-34.6-11.6c-4.8,0.5-10.1,2.5-15.7,5.1c-5.1,2.4-10.4,5.3-16.1,8c-1,0.5-2,1-3,1.5
			c-2.6,1.2-5.3,2.4-8,3.5c-15.3,6-32.3,8.7-50.6-2.5c-12.8-7.8-38.4-52.2-9.1-96.1c32.5-48.7,119.5-48,144.6-34.1
			C214.2,94,213,157.2,198.9,185.2z"/>
		<g>
			<path class="st1" d="M163.7,42.1c-1.1,3.4-1.3,7.1-0.8,10.7c0.1,0.6,0.2,1.2,0.5,1.6c0.6,0.9,1.9,1.3,3,1.3
				c2.8-0.1,5.2-2.2,6.1-4.8c0.9-2.6,0.2-5.6-1.5-7.8c-0.9-1.2-2.2-2.2-3.7-2.4c-1.5-0.2-3.2,0.7-3.5,2.2c0.3,0.4,1,0.3,1.2-0.2
				L163.7,42.1z"/>
			<path class="st1" d="M14,199.1c-1.1,3.4-1.3,7.1-0.8,10.7c0.1,0.6,0.2,1.2,0.5,1.6c0.6,0.9,1.9,1.3,3,1.3
				c2.8-0.1,5.2-2.2,6.1-4.8c0.9-2.6,0.2-5.6-1.5-7.8c-0.9-1.2-2.2-2.2-3.7-2.4c-1.5-0.2-3.2,0.7-3.5,2.2c0.3,0.4,1,0.3,1.2-0.2
				L14,199.1z"/>
			<path class="st1" d="M169.3,51.7c-1.2,0.8-1.9,2.4-1.8,3.8c1.3,0.6,3,0.8,4.2,0c1.3-0.8,1.9-2.6,1-3.8c-0.9-1.2-3.2-0.9-3.4,0.6
				L169.3,51.7z"/>
			<path class="st1" d="M168.1,64.8c-0.7,0-1.4,0.3-1.8,0.9c0.2,0.2,0.5,0.4,0.8,0.5c0.3,0.1,0.7,0.1,0.9-0.2c0.3-0.3,0.1-0.8,0-1.2
				c0.1,0,0.2,0.1,0.3,0.1L168.1,64.8z"/>
			<path class="st1" d="M167.8,62.1c0-0.2,0-0.4,0.2-0.6c0.4,0.4,0.4,1,0.4,1.5c0,0.3-0.1,0.7-0.4,0.7c-0.2,0.1-0.4-0.1-0.6-0.1
				c-0.4,0-0.9,0.3-1.2-0.1c-0.2-0.2-0.1-0.5,0.1-0.6c0.2-0.2,0.4-0.3,0.6-0.3c0.5-0.2,1-0.4,1.4-0.6L167.8,62.1z"/>
			<path class="st2" d="M168.3,96.9c-0.3,0.3,0.2,0.9,0.6,0.8c0.4-0.1,0.7-0.5,0.9-0.9c-0.5-0.4-1.2-0.4-1.7-0.1L168.3,96.9z"/>
			<path class="st1" d="M183.6,98.4c0.2-0.1,0.4-0.1,0.5,0.1c0.1,0.2,0.1,0.4,0.1,0.6c0,0.1-0.1,0.2-0.1,0.3c-0.2,0.2-0.5,0.2-0.7,0
				c-0.2-0.2-0.2-0.6,0-0.7c0.2-0.2,0.5-0.2,0.8,0L183.6,98.4z"/>
			<path class="st1" d="M173,69.1c-0.1-0.4-0.8-0.5-1-0.1c0.1,0.2,0.2,0.4,0.4,0.5c0.2,0.1,0.5,0.1,0.6,0c0.2-0.2,0.1-0.5-0.1-0.5
				L173,69.1z"/>
			<path class="st1" d="M168.8,60.3c-0.5-0.2-1.1-0.1-1.5,0.2c0.3,0.3,0.5,0.7,0.8,1c0.1,0.2,0.3,0.3,0.4,0.4
				c0.4,0.1,0.8-0.2,0.8-0.6C169.5,60.9,169.2,60.5,168.8,60.3L168.8,60.3z"/>
			<path class="st2" d="M180.3,93.5c0.1,0.1,0.2,0.2,0.2,0.4c0.2,0,0.4-0.2,0.4-0.5c0-0.2-0.2-0.5-0.5-0.4S180.2,93.3,180.3,93.5
				L180.3,93.5z"/>
			<path class="st1" d="M171.1,66.5c0.3,0,0.4-0.4,0.3-0.7s-0.4-0.4-0.5-0.7c-0.2-0.2-0.2-0.6-0.1-0.8c0.1-0.2,0.2-0.3,0.3-0.4
				c0.1,0,0.2,0,0.3,0.1c0.5,0.2,1,0.5,1.4,0.9s0.5,1.1,0.2,1.6c-0.2,0.3-0.6,0.5-1,0.5C171.6,67,171.2,66.8,171.1,66.5L171.1,66.5z
				"/>
			<path class="st1" d="M163.8,64.8c-0.3-0.1-0.7,0.2-0.8,0.5c-0.1,0.3,0.1,0.7,0.4,0.9c0.1,0.1,0.3,0.2,0.4,0.1
				c0.1-0.1,0.1-0.2,0.1-0.3c0-0.4,0-0.9,0-1.3L163.8,64.8z"/>
			<path class="st1" d="M165.8,81.2c0.7-0.2,1.5,0.5,1.4,1.2c-0.5,0.1-1.1,0.1-1.6-0.1c-0.5-0.2-0.8-0.9-0.5-1.4
				c0.3-0.1,0.6-0.1,0.9-0.2L165.8,81.2z"/>
			<path class="st1" d="M166.9,25.8c0-0.2,0.1-0.3,0.3-0.3c0.2,0,0.3,0.1,0.4,0.1c0.1,0.1,0.2,0.2,0.3,0.3c0.1,0.2,0,0.5-0.2,0.7
				c-0.2,0.2-0.5,0.2-0.7,0.1c-0.1,0-0.2-0.1-0.3-0.3c0-0.1,0-0.3,0.1-0.3L166.9,25.8z"/>
			<path class="st1" d="M170.7,72.3c-0.1,0.1-0.2,0.2-0.4,0.3c0.1,0.2,0.2,0.4,0.5,0.5c0.2,0.1,0.5-0.1,0.4-0.3
				c0-0.1-0.1-0.1-0.2-0.2c-0.2-0.2-0.4-0.4-0.6-0.5L170.7,72.3z"/>
			<path class="st1" d="M172.3,80.2c-0.2,0.3-0.5,0.6-0.6,0.9c-0.1,0.4,0,0.8,0.2,1c0.1,0.1,0.3,0.2,0.5,0.2c0.6,0,1-0.5,1-1.1
				C173.4,80.6,172.8,80.1,172.3,80.2L172.3,80.2z"/>
			<path class="st1" d="M169.8,83.2c0,0.2-0.1,0.5-0.1,0.7c0.2,0.1,0.4,0.1,0.6,0.1c0.2-0.3,0-0.8-0.3-0.9L169.8,83.2z"/>
			<path class="st1" d="M151.8,67.6c0.2,1.4,0.7,2.8,1.5,4c0.1,0.2,0.3,0.4,0.5,0.5c0.4,0.2,0.9,0.2,1.3,0c1-0.5,1.5-1.7,1.4-2.8
				c-0.1-1.1-0.9-2.1-1.9-2.6c-0.5-0.3-1.2-0.4-1.8-0.2c-0.6,0.2-1,0.8-0.9,1.4c0.2,0.1,0.4-0.1,0.4-0.3L151.8,67.6z"/>
			<path class="st1" d="M179.4,56.2c-0.5,0.4-0.9,1.1-0.9,1.8c0.3,0,0.6,0,0.9,0c0.3-0.1,0.6-0.3,0.6-0.7c0-0.4-0.4-0.7-0.8-0.9
				c0.1,0,0.2-0.1,0.3-0.1L179.4,56.2z"/>
			<path class="st1" d="M181.3,60.7c-0.1,0.2-0.2,0.4-0.1,0.5c0,0.2,0.2,0.3,0.3,0.5c0.4,0.4,0.7,0.7,1,1.2c0.1-0.8,0.1-1.7,0.2-2.5
				c0-0.1,0-0.1,0-0.2c0.1-0.2,0.4-0.2,0.6-0.3c0.3-0.2,0.3-0.6,0.2-0.9C182.8,56.6,181.8,59.8,181.3,60.7z"/>
			<path class="st1" d="M177.3,52.1c-0.5,0.2-0.9,0.6-1.1,1.1c0.4,0.1,0.8,0.2,1.2,0.3c0.2,0,0.4,0.1,0.6,0c0.4-0.1,0.5-0.6,0.3-1
				C178.2,52.2,177.7,52,177.3,52.1L177.3,52.1z"/>
			<path class="st1" d="M176,58.7c-0.3,0.1-0.5,0.6-0.3,0.9c0.1,0.3,0.5,0.5,0.8,0.5c0.2,0,0.3,0,0.4-0.2c0-0.1,0-0.2-0.1-0.3
				c-0.3-0.3-0.5-0.7-0.8-1L176,58.7z"/>
			<path class="st1" d="M170.2,56.8c-0.2,0.3-0.5,0.6-0.6,0.9c-0.1,0.4,0,0.8,0.2,1c0.1,0.1,0.3,0.2,0.5,0.2c0.6,0,1-0.5,1-1.1
				C171.3,57.2,170.7,56.8,170.2,56.8L170.2,56.8z"/>
			<path class="st1" d="M163.8,74.3c0.2,0.3,0.6,0.4,1,0.3c0.4,0,0.8-0.1,1,0.2c0.1,0.1,0.1,0.2,0.1,0.3c-0.1,0.3-0.4,0.2-0.7,0.2
				c-0.2,0-0.4,0.2-0.6,0.2c-0.5,0.2-1,0.1-1.4-0.3c-0.1-0.3,0-0.6,0.2-0.7c0.2-0.2,0.5-0.2,0.8-0.1L163.8,74.3z"/>
			<path class="st1" d="M169.8,81.2c0.2,0.3,0.6,0.4,1,0.3c0.4,0,0.8-0.1,1,0.2c0.1,0.1,0.1,0.2,0.1,0.3c-0.1,0.3-0.4,0.2-0.7,0.2
				c-0.2,0-0.4,0.2-0.6,0.2c-0.5,0.2-1,0.1-1.4-0.3c-0.1-0.3,0-0.6,0.2-0.7c0.2-0.2,0.5-0.2,0.8-0.1L169.8,81.2z"/>
			<path class="st1" d="M168.9,88.1c-0.1,0.3-0.1,0.6,0,0.9c0,0,0,0.1,0,0.1c0.1,0.1,0.2,0.1,0.3,0.1c0.2,0,0.4-0.2,0.5-0.4
				c0.1-0.2,0-0.5-0.2-0.6c-0.1-0.1-0.2-0.2-0.3-0.2C169,87.9,168.9,88,168.9,88.1c0,0.1,0.1,0.1,0.1,0.1L168.9,88.1z"/>
			<path class="st1" d="M170.2,44.2c-0.5,0.4-0.9,1.1-0.9,1.8c0.3,0,0.6,0,0.9,0c0.3-0.1,0.6-0.3,0.6-0.7c0-0.4-0.4-0.7-0.8-0.9
				c0.1,0,0.2-0.1,0.3-0.1L170.2,44.2z"/>
			<path class="st1" d="M176.7,44.7c-0.4-0.3-0.9,0.1-0.9,0.5c0.2,0.1,0.4,0.2,0.6,0.2c0.2,0,0.4-0.2,0.5-0.4c0-0.2-0.2-0.5-0.4-0.4
				L176.7,44.7z"/>
			<path class="st1" d="M171.7,55c-0.4-0.3-0.9,0.1-0.9,0.5c0.2,0.1,0.4,0.2,0.6,0.2c0.2,0,0.4-0.2,0.5-0.4c0-0.2-0.2-0.5-0.4-0.4
				L171.7,55z"/>
			<path class="st1" d="M173.7,43.7c0.2-0.2,0.1-0.6-0.2-0.7c-0.3-0.1-0.5-0.1-0.8-0.2c-0.3-0.1-0.5-0.3-0.6-0.6
				c-0.1-0.2-0.1-0.4,0-0.5c0.1-0.1,0.2-0.1,0.3-0.2c0.5-0.2,1.1-0.2,1.6-0.1c0.5,0.1,1,0.6,1.1,1.1c0,0.4-0.1,0.8-0.5,1
				c-0.3,0.2-0.8,0.3-1.1,0.1L173.7,43.7z"/>
			<path class="st1" d="M167.3,75.7c0.2-0.2,0.1-0.6-0.2-0.7c-0.3-0.1-0.5-0.1-0.8-0.2c-0.3-0.1-0.5-0.3-0.6-0.6
				c-0.1-0.2-0.1-0.4,0-0.5c0.1-0.1,0.2-0.1,0.3-0.2c0.5-0.2,1.1-0.2,1.6-0.1c0.5,0.1,1,0.6,1.1,1.1c0,0.4-0.1,0.8-0.5,1
				s-0.8,0.3-1.1,0.1L167.3,75.7z"/>
			<path class="st1" d="M163.7,75.6c0.2-0.2,0.1-0.6-0.2-0.7c-0.3-0.1-0.5-0.1-0.8-0.2c-0.3-0.1-0.5-0.3-0.6-0.6
				c-0.1-0.2-0.1-0.4,0-0.5c0.1-0.1,0.2-0.1,0.3-0.2c0.5-0.2,1.1-0.2,1.6-0.1c0.5,0.1,1,0.6,1.1,1.1c0,0.4-0.1,0.8-0.5,1
				c-0.3,0.2-0.8,0.3-1.1,0.1L163.7,75.6z"/>
			<path class="st1" d="M165.1,70.1c0.2-0.2,0.1-0.6-0.2-0.7c-0.3-0.1-0.5-0.1-0.8-0.2c-0.3-0.1-0.5-0.3-0.6-0.6
				c-0.1-0.2-0.1-0.4,0-0.5c0.1-0.1,0.2-0.1,0.3-0.2c0.5-0.2,1.1-0.2,1.6-0.1c0.5,0.1,1,0.6,1.1,1.1c0,0.4-0.1,0.8-0.5,1
				c-0.3,0.2-0.8,0.3-1.1,0.1L165.1,70.1z"/>
			<path class="st1" d="M200.3,87.5c0.2-0.2,0.1-0.6-0.2-0.7c-0.3-0.1-0.5-0.1-0.8-0.2c-0.3-0.1-0.5-0.3-0.6-0.6
				c-0.1-0.2-0.1-0.4,0-0.5c0.1-0.1,0.2-0.1,0.3-0.2c0.5-0.2,1.1-0.2,1.6-0.1c0.5,0.1,1,0.6,1.1,1.1c0,0.4-0.1,0.8-0.5,1
				c-0.3,0.2-0.8,0.3-1.1,0.1L200.3,87.5z"/>
			<path class="st1" d="M176.9,48.6c0,0.1-0.1,0.3-0.1,0.4c0.2,0.1,0.4,0.2,0.7,0.1c0.2-0.1,0.3-0.4,0.2-0.5c-0.1,0-0.2-0.1-0.3-0.1
				c-0.3,0-0.6,0-0.8,0L176.9,48.6z"/>
			<path class="st1" d="M185.5,76.8c-0.2,0.3-0.5,0.6-0.6,0.9c-0.1,0.4,0,0.8,0.2,1c0.1,0.1,0.3,0.2,0.5,0.2c0.6,0,1-0.5,1-1.1
				C186.6,77.2,186,76.8,185.5,76.8L185.5,76.8z"/>
			<path class="st1" d="M166.3,52.7c0-0.5,0.7-0.9,1.1-0.6c0.1,0.3,0.1,0.6,0.1,0.9c-0.3,0-0.7,0-0.9-0.2L166.3,52.7z"/>
			<path class="st2" d="M182.9,80.7c-0.1,0.2-0.2,0.4-0.2,0.6c0,0.2,0.1,0.4,0.2,0.5c0.3,0.2,0.7-0.1,1-0.2c0.3,0,0.7,0.3,1,0.2
				c0.3-0.1,0.4-0.6,0.2-0.9c-0.2-0.3-0.6-0.4-0.9-0.5c-0.3-0.1-0.6-0.1-0.9,0c-0.3,0.1-0.5,0.4-0.5,0.7L182.9,80.7z"/>
			<path class="st1" d="M168.9,67.9c-1.5,0-3,0.7-3.8,2c0.7,1.3,1.9,2.4,3.4,2.5c1.5,0.1,3.1-1,3.1-2.4c0-1.5-2-2.6-3.1-1.6
				L168.9,67.9z"/>
			<path class="st1" d="M162.9,52.4c0.2,0,0.4,0.2,0.4,0.4c0,0.2-0.1,0.4-0.3,0.5c-0.1,0.1-0.2,0.1-0.3,0.2
				c-0.3,0.1-0.6-0.2-0.6-0.4c0-0.3,0.2-0.5,0.5-0.6c0.3,0,0.5,0.2,0.6,0.5L162.9,52.4z"/>
			<path class="st1" d="M165.9,59.9c0.3,0.3,0.7,0.1,1,0c0.3-0.2,0.7-0.3,1.1-0.1c0.1,0.1,0.2,0.1,0.2,0.2c0,0.3-0.4,0.3-0.6,0.5
				c-0.2,0.1-0.3,0.3-0.5,0.4c-0.4,0.3-1,0.4-1.4,0.2c-0.2-0.2-0.2-0.5,0-0.8c0.1-0.2,0.4-0.4,0.7-0.3L165.9,59.9z"/>
			<path class="st1" d="M174.1,68.5c0,0.1,0,0.3,0,0.4c0.2,0.1,0.5,0.1,0.6-0.1c0.1-0.2,0.1-0.5-0.1-0.6
				C174.4,68.1,174.1,68.2,174.1,68.5L174.1,68.5z"/>
			<path class="st1" d="M170.8,61c0.1-0.1,0.3-0.2,0.4-0.1c0.1,0.1,0.2,0.2,0.3,0.4c0,0.1,0.1,0.3,0.1,0.4c0,0.3-0.3,0.5-0.5,0.5
				c-0.3,0-0.5-0.1-0.6-0.4c-0.1-0.1-0.1-0.2-0.1-0.4c0-0.1,0.2-0.2,0.3-0.2L170.8,61z"/>
			<path class="st1" d="M182.9,58.5c-1.1-1-2.7-1.4-4.1-1c-0.3,1.4-0.1,3.1,0.9,4.1s3,1.3,3.9,0.2c1-1.1,0.2-3.3-1.3-3.2L182.9,58.5
				z"/>
			<path class="st1" d="M175.1,50c-0.3,0.3,0.2,0.9,0.6,0.8c0.4-0.1,0.7-0.5,0.9-0.9c-0.5-0.4-1.2-0.4-1.7-0.1L175.1,50z"/>
			<path class="st1" d="M161,56.8c0,0.1,0,0.3,0,0.4c0.2,0.1,0.5,0.1,0.6-0.1c0.1-0.2,0.1-0.5-0.1-0.6C161.3,56.4,161,56.5,161,56.8
				L161,56.8z"/>
			<path class="st1" d="M168.7,58.3c-0.5,1.5-0.7,3.1-0.5,4.6c0,0.3,0.1,0.5,0.2,0.7c0.3,0.4,0.8,0.6,1.3,0.6c1.2,0,2.3-0.9,2.7-2
				c0.4-1.1,0.1-2.4-0.6-3.4c-0.4-0.5-0.9-1-1.6-1.1c-0.6-0.1-1.4,0.3-1.6,0.9c0.1,0.2,0.4,0.1,0.5-0.1L168.7,58.3z"/>
			<path class="st1" d="M192.6,68c-1.2,0.8-1.9,2.4-1.8,3.8c1.3,0.6,3,0.8,4.2,0c1.3-0.8,1.9-2.6,1-3.8c-0.9-1.2-3.2-0.9-3.4,0.6
				L192.6,68z"/>
			<path class="st1" d="M28.2,204c-1.2,0.8-1.9,2.4-1.8,3.8c1.3,0.6,3,0.8,4.2,0c1.3-0.8,1.9-2.6,1-3.8c-0.9-1.2-3.2-0.9-3.4,0.6
				L28.2,204z"/>
			<path class="st1" d="M171.2,86c-0.5,0.4-0.9,1.1-0.9,1.8c0.3,0,0.6,0,0.9,0c0.3-0.1,0.6-0.3,0.6-0.7c0-0.4-0.4-0.7-0.8-0.9
				c0.1,0,0.2-0.1,0.3-0.1L171.2,86z"/>
			<path class="st1" d="M173.1,90.5c-0.1,0.2-0.2,0.4-0.1,0.5c0,0.2,0.2,0.3,0.3,0.5c0.4,0.4,0.7,0.7,1,1.2c0.1-0.8,0.1-1.7,0.2-2.5
				c0-0.1,0-0.1,0-0.2c0.1-0.2,0.4-0.2,0.6-0.3c0.3-0.2,0.3-0.6,0.2-0.9C174.6,86.4,173.6,89.6,173.1,90.5z"/>
			<path class="st1" d="M165.4,61.5c0,0.2-0.1,0.5-0.1,0.7c0.5,0,1-0.2,1.2-0.7c0.2-0.5-0.3-1.1-0.7-0.9c-0.3,0.1-0.7,0.3-0.8,0
				L165.4,61.5z"/>
			<path class="st1" d="M176.6,79.6c0-0.2,0-0.4,0.2-0.6c0.4,0.4,0.4,1,0.4,1.5c0,0.3-0.1,0.7-0.4,0.7c-0.2,0.1-0.4-0.1-0.6-0.1
				c-0.4,0-0.9,0.3-1.2-0.1c-0.2-0.2-0.1-0.5,0.1-0.6c0.2-0.2,0.4-0.3,0.6-0.3c0.5-0.2,1-0.4,1.4-0.6L176.6,79.6z"/>
			<path class="st1" d="M184.7,79.5c-0.3,0.3,0.2,0.9,0.6,0.8c0.4-0.1,0.7-0.5,0.9-0.9c-0.5-0.4-1.2-0.4-1.7-0.1L184.7,79.5z"/>
			<path class="st2" d="M180.1,87.5c0.2-0.1,0.4-0.1,0.5,0.1c0.1,0.2,0.1,0.4,0.1,0.6c0,0.1-0.1,0.2-0.1,0.3c-0.2,0.2-0.5,0.2-0.7,0
				c-0.2-0.2-0.2-0.6,0-0.7c0.2-0.2,0.5-0.2,0.8,0L180.1,87.5z"/>
			<path class="st1" d="M177.6,86.4c-0.4-0.3-0.9,0.1-0.9,0.5c0.2,0.1,0.4,0.2,0.6,0.2c0.2,0,0.4-0.2,0.5-0.4c0-0.2-0.2-0.5-0.4-0.4
				L177.6,86.4z"/>
			<path class="st1" d="M169.1,81.9c-0.5,0.2-0.9,0.6-1.1,1.1c0.4,0.1,0.8,0.2,1.2,0.3c0.2,0,0.4,0.1,0.6,0c0.4-0.1,0.5-0.6,0.3-1
				C170,82,169.5,81.8,169.1,81.9L169.1,81.9z"/>
			<path class="st2" d="M185.6,84.8c0.2-0.2,0.6-0.2,0.8-0.1c0.3,0.1,0.4,0.5,0.4,0.8c0,0.2-0.2,0.4-0.4,0.4c-0.1,0-0.1-0.1-0.2-0.2
				c-0.3-0.3-0.5-0.6-0.8-0.8C185.5,84.8,185.5,84.8,185.6,84.8L185.6,84.8z"/>
			<path class="st2" d="M190.8,87.5c0.2,0.3,0.6,0.4,1,0.3c0.4,0,0.8-0.1,1,0.2c0.1,0.1,0.1,0.2,0.1,0.3c-0.1,0.3-0.4,0.2-0.7,0.2
				c-0.2,0-0.4,0.2-0.6,0.2c-0.5,0.2-1,0.1-1.4-0.3c-0.1-0.3,0-0.6,0.2-0.7c0.2-0.2,0.5-0.2,0.8-0.1L190.8,87.5z"/>
			<path class="st2" d="M160.2,73.1c0.2,0.3,0.6,0.4,1,0.3c0.4,0,0.8-0.1,1,0.2c0.1,0.1,0.1,0.2,0.1,0.3c-0.1,0.3-0.4,0.2-0.7,0.2
				c-0.2,0-0.4,0.2-0.6,0.2c-0.5,0.2-1,0.1-1.4-0.3c-0.1-0.3,0-0.6,0.2-0.7c0.2-0.2,0.5-0.2,0.8-0.1L160.2,73.1z"/>
			<path class="st2" d="M189,90.8c-0.1,0.1-0.1,0.3-0.2,0.4c0.2,0.2,0.4,0.2,0.6,0.1c0.2-0.1,0.3-0.4,0.1-0.6
				C189.5,90.5,189.1,90.5,189,90.8L189,90.8z"/>
			<path class="st1" d="M174.6,85.5c0.2-0.2,0.1-0.6-0.2-0.7c-0.3-0.1-0.5-0.1-0.8-0.2c-0.3-0.1-0.5-0.3-0.6-0.6
				c-0.1-0.2-0.1-0.4,0-0.5c0.1-0.1,0.2-0.1,0.3-0.2c0.5-0.2,1.1-0.2,1.6-0.1c0.5,0.1,1,0.6,1.1,1.1c0,0.4-0.1,0.8-0.5,1
				c-0.3,0.2-0.8,0.3-1.1,0.1L174.6,85.5z"/>
			<path class="st1" d="M167.8,88.5c-0.3,0.1-0.5,0.6-0.3,0.9c0.1,0.3,0.5,0.5,0.8,0.5c0.2,0,0.3,0,0.4-0.2c0-0.1,0-0.2-0.1-0.3
				c-0.3-0.3-0.5-0.7-0.8-1L167.8,88.5z"/>
			<path class="st1" d="M181.2,74.6c0.7-0.2,1.5,0.5,1.4,1.2c-0.5,0.1-1.1,0.1-1.6-0.1c-0.5-0.2-0.8-0.9-0.5-1.4
				c0.3-0.1,0.6-0.1,0.9-0.2L181.2,74.6z"/>
			<path class="st2" d="M177.8,90.4c0,0.1-0.1,0.3-0.1,0.4c0.2,0.1,0.4,0.2,0.7,0.1c0.2-0.1,0.3-0.4,0.2-0.5c-0.1,0-0.2-0.1-0.3-0.1
				c-0.3,0-0.6,0-0.8,0L177.8,90.4z"/>
			<path class="st1" d="M169.6,51.7c-0.2,0.3-0.5,0.6-0.6,0.9c-0.1,0.4,0,0.8,0.2,1c0.1,0.1,0.3,0.2,0.5,0.2c0.6,0,1-0.5,1-1.1
				C170.7,52.1,170.2,51.7,169.6,51.7L169.6,51.7z"/>
			<path class="st1" d="M186.3,65.8c0,0.2-0.1,0.5-0.1,0.7c0.2,0.1,0.4,0.1,0.6,0.1c0.2-0.3,0-0.8-0.3-0.9L186.3,65.8z"/>
			<path class="st1" d="M170.9,32.4c0.2-0.1,0.4-0.1,0.5,0.1c0.1,0.2,0.1,0.4,0.1,0.6c0,0.1-0.1,0.2-0.1,0.3c-0.2,0.2-0.5,0.2-0.7,0
				s-0.2-0.6,0-0.7c0.2-0.2,0.5-0.2,0.8,0L170.9,32.4z"/>
			<path class="st1" d="M182,70.2c0,0.2-0.1,0.5-0.1,0.7c0.2,0.1,0.4,0.1,0.6,0.1c0.2-0.3,0-0.8-0.3-0.9L182,70.2z"/>
			<path class="st1" d="M161.6,68.3c-0.3,0.1-0.2,0.5,0,0.7c0.2,0.2,0.5,0.3,0.7,0.4c0.2,0.2,0.4,0.5,0.4,0.7c0,0.2,0,0.4-0.2,0.4
				c-0.1,0.1-0.2,0.1-0.3,0.1c-0.6,0-1.1-0.1-1.6-0.4c-0.5-0.3-0.8-0.9-0.7-1.4c0.1-0.4,0.4-0.7,0.7-0.8c0.4-0.1,0.8,0,1.1,0.2
				L161.6,68.3z"/>
			<path class="st1" d="M172.4,58.1c0.2-0.1,0.3-0.3,0.4-0.5c0.1-0.2,0.1-0.4-0.1-0.6c-0.3-0.2-0.7-0.1-1-0.2
				c-0.3-0.1-0.6-0.5-0.9-0.5c-0.3,0-0.5,0.5-0.4,0.8c0.1,0.3,0.4,0.5,0.7,0.7c0.3,0.2,0.5,0.3,0.9,0.3s0.6-0.2,0.7-0.5L172.4,58.1z
				"/>
			<path class="st1" d="M170.4,74.2c0-1.3-0.2-2.6-0.8-3.7c-0.1-0.2-0.2-0.4-0.3-0.5c-0.3-0.3-0.8-0.3-1.1-0.1
				c-0.9,0.3-1.6,1.2-1.6,2.2c0,1,0.5,1.9,1.3,2.5c0.4,0.3,1,0.5,1.5,0.4c0.5-0.1,1-0.5,1-1.1c-0.1-0.1-0.4,0-0.4,0.2L170.4,74.2z"
				/>
			<path class="st1" d="M161.7,71c-0.2,0-0.4,0-0.5,0.2c-0.1,0.1-0.2,0.3-0.2,0.5c-0.1,0.5-0.3,1-0.5,1.4c0.8-0.4,1.5-0.7,2.3-1.1
				c0.1,0,0.1-0.1,0.2-0.1c0.2,0,0.4,0.3,0.6,0.4c0.3,0.2,0.7-0.1,0.9-0.3C166,70.3,162.7,71,161.7,71z"/>
			<path class="st1" d="M170.1,74.2c-0.1,0.1-0.1,0.3-0.2,0.4c0.1,0.2,0.4,0.3,0.6,0.1c0.2-0.1,0.3-0.4,0.1-0.6
				C170.6,74,170.2,74,170.1,74.2L170.1,74.2z"/>
			<path class="st1" d="M163.2,74.8c-0.3-0.2-0.7-0.1-0.9,0.2c-0.2,0.3-0.2,0.7,0,1c0.1,0.1,0.2,0.3,0.4,0.2c0.1,0,0.2-0.1,0.2-0.2
				c0.2-0.4,0.4-0.8,0.5-1.2L163.2,74.8z"/>
			<path class="st1" d="M167.8,75.5c-0.6-0.3-1.4-0.2-2,0.1c0.1,0.3,0.3,0.6,0.5,0.8c0.2,0.2,0.6,0.3,0.9,0.2
				c0.4-0.2,0.4-0.7,0.4-1.1c0.1,0.1,0.2,0.2,0.2,0.2L167.8,75.5z"/>
			<path class="st1" d="M170.2,77.4c0.2-0.1,0.4-0.2,0.6-0.2c-0.1,0.5-0.6,0.8-1.1,1.1c-0.3,0.1-0.6,0.2-0.8,0
				c-0.1-0.1-0.2-0.4-0.2-0.6c-0.2-0.4-0.7-0.7-0.5-1.1c0.1-0.2,0.4-0.3,0.6-0.3c0.2,0,0.4,0.2,0.6,0.4c0.4,0.3,0.8,0.6,1.2,1
				L170.2,77.4z"/>
			<path class="st1" d="M164.6,72c-0.4-0.3-0.9-0.5-1.4-0.4c0.1,0.4,0.2,0.8,0.3,1.2c0.1,0.2,0.1,0.4,0.3,0.5c0.3,0.3,0.8,0.2,1-0.2
				C164.9,72.8,164.8,72.4,164.6,72L164.6,72z"/>
			<path class="st1" d="M164.2,78.6c0.3,0.1,0.5-0.2,0.5-0.5s-0.2-0.5-0.2-0.8c0-0.3,0-0.6,0.2-0.8c0.1-0.1,0.3-0.2,0.4-0.2
				c0.1,0,0.2,0.1,0.3,0.2c0.4,0.4,0.8,0.8,0.9,1.4c0.1,0.5,0,1.2-0.5,1.5c-0.3,0.2-0.7,0.3-1.1,0.1
				C164.4,79.3,164.1,78.9,164.2,78.6L164.2,78.6z"/>
			<path class="st1" d="M175.7,64.6c-0.4-0.1-0.7-0.1-1.1-0.1c-0.4,0.1-0.7,0.3-0.8,0.7c0,0.2,0,0.4,0.1,0.5c0.3,0.5,1,0.6,1.4,0.3
				C175.9,65.8,176,65.1,175.7,64.6L175.7,64.6z"/>
			<path class="st1" d="M167.9,62c-0.6-0.3-1.4-0.2-2,0.1c0.1,0.3,0.3,0.6,0.5,0.8c0.2,0.2,0.6,0.3,0.9,0.2c0.4-0.2,0.4-0.7,0.4-1.1
				c0.1,0.1,0.2,0.2,0.2,0.2L167.9,62z"/>
			<path class="st1" d="M170.8,78.6c0.1,0.3,0.6,0.4,1,0.4c0.4,0,0.8,0,1,0.3c0.1,0.1,0.1,0.2,0.1,0.3c-0.1,0.2-0.5,0.2-0.7,0.2
				c-0.2,0-0.4,0.1-0.6,0.2c-0.5,0.2-1,0-1.3-0.4c-0.1-0.3,0.1-0.5,0.3-0.7c0.2-0.2,0.5-0.2,0.8,0L170.8,78.6z"/>
			<path class="st1" d="M179.8,51.3c0,0.1,0.1,0.3,0.1,0.4c0.2,0.1,0.5-0.1,0.6-0.3c0.1-0.2,0-0.5-0.2-0.6
				C180.1,50.8,179.8,51,179.8,51.3L179.8,51.3z"/>
			<path class="st1" d="M167.4,69.9c-0.1,0-0.3,0.1-0.4,0.1c0,0.2,0.1,0.5,0.2,0.6c0.2,0.2,0.5,0.1,0.5-0.1c0-0.1,0-0.2-0.1-0.2
				c-0.1-0.2-0.3-0.5-0.4-0.7L167.4,69.9z"/>
		</g>
		<g>
			<path class="st3" d="M41.2,181.8c0.9-2.3,1.2-4.8,0.9-7.3c0-0.4-0.1-0.8-0.3-1.1c-0.4-0.7-1.2-1-2-1c-1.9,0-3.7,1.3-4.3,3
				s-0.3,3.8,0.7,5.4c0.6,0.8,1.4,1.6,2.5,1.8c1,0.2,2.2-0.4,2.5-1.3c-0.2-0.3-0.7-0.2-0.8,0.1L41.2,181.8z"/>
			<path class="st3" d="M37.7,175c0.9-0.5,1.4-1.5,1.4-2.5c-0.9-0.5-2-0.6-2.9-0.2c-0.9,0.5-1.4,1.7-0.8,2.6
				c0.5,0.8,2.1,0.7,2.4-0.2L37.7,175z"/>
			<path class="st3" d="M39.1,166.1c0.5,0,0.9-0.2,1.2-0.5c-0.1-0.1-0.3-0.3-0.5-0.4c-0.2-0.1-0.4-0.1-0.6,0.1
				c-0.2,0.2-0.1,0.5,0,0.8c-0.1,0-0.1-0.1-0.2-0.1L39.1,166.1z"/>
			<path class="st3" d="M39.2,168c0,0.1,0,0.3-0.1,0.4c-0.3-0.3-0.2-0.7-0.2-1c0-0.2,0.1-0.4,0.3-0.5c0.1,0,0.3,0.1,0.4,0.1
				c0.3,0,0.6-0.1,0.8,0.1c0.1,0.1,0,0.3-0.1,0.4c-0.1,0.1-0.3,0.2-0.4,0.2c-0.3,0.1-0.7,0.2-1,0.3L39.2,168z"/>
			<path class="st4" d="M40.2,144.3c0.2-0.2-0.1-0.6-0.4-0.5c-0.3,0-0.5,0.3-0.7,0.5c0.3,0.3,0.8,0.3,1.1,0.1L40.2,144.3z"/>
			<path class="st3" d="M29.8,142.6c-0.1,0.1-0.3,0-0.4-0.1c-0.1-0.1-0.1-0.3,0-0.4c0-0.1,0.1-0.2,0.1-0.2c0.1-0.1,0.4-0.1,0.5,0
				c0.1,0.1,0.1,0.4-0.1,0.5c-0.1,0.1-0.4,0.1-0.5,0L29.8,142.6z"/>
			<path class="st3" d="M36,163c0.1,0.3,0.5,0.4,0.7,0.1c0-0.1-0.1-0.3-0.2-0.4c-0.1-0.1-0.3-0.1-0.4,0c-0.1,0.1-0.1,0.3,0.1,0.4
				L36,163z"/>
			<path class="st3" d="M38.4,169.2c0.3,0.1,0.7,0.1,1-0.1c-0.2-0.2-0.3-0.5-0.5-0.7c-0.1-0.1-0.2-0.2-0.3-0.3
				c-0.2-0.1-0.6,0.1-0.6,0.4C38,168.7,38.2,169,38.4,169.2L38.4,169.2z"/>
			<path class="st4" d="M31.9,146.1c-0.1-0.1-0.1-0.2-0.2-0.2c-0.2,0-0.3,0.2-0.3,0.3s0.1,0.3,0.3,0.3S32,146.3,31.9,146.1
				L31.9,146.1z"/>
			<path class="st3" d="M37.1,164.8c-0.2,0-0.3,0.3-0.2,0.4c0.1,0.2,0.2,0.3,0.3,0.5c0.1,0.2,0.1,0.4,0,0.6c0,0.1-0.1,0.2-0.2,0.2
				c-0.1,0-0.2,0-0.2-0.1c-0.3-0.2-0.7-0.4-0.9-0.7s-0.3-0.8-0.1-1.1c0.1-0.2,0.4-0.3,0.7-0.3C36.8,164.5,37.1,164.6,37.1,164.8
				L37.1,164.8z"/>
			<path class="st3" d="M42,166.3c0.2,0.1,0.5-0.1,0.6-0.3c0.1-0.2,0-0.5-0.2-0.6c-0.1-0.1-0.2-0.1-0.3-0.1c-0.1,0-0.1,0.1-0.1,0.2
				C42,165.7,41.9,166,42,166.3L42,166.3z"/>
			<path class="st3" d="M41.3,155.1c-0.5,0.1-1-0.4-0.9-0.9c0.4,0,0.8,0,1.1,0.1c0.3,0.2,0.5,0.7,0.3,0.9c-0.2,0-0.4,0.1-0.7,0.1
				L41.3,155.1z"/>
			<path class="st3" d="M38.4,192.7c0,0.1-0.1,0.2-0.2,0.2c-0.1,0-0.2-0.1-0.3-0.1c-0.1-0.1-0.1-0.1-0.2-0.2c-0.1-0.2,0-0.4,0.1-0.5
				c0.1-0.1,0.3-0.1,0.5,0c0.1,0,0.1,0.1,0.2,0.2c0,0.1,0,0.2-0.1,0.2L38.4,192.7z"/>
			<path class="st3" d="M37.6,160.9c0.1-0.1,0.2-0.1,0.3-0.2c-0.1-0.1-0.1-0.3-0.3-0.4c-0.1-0.1-0.4,0.1-0.3,0.2
				c0,0.1,0.1,0.1,0.1,0.1c0.1,0.1,0.3,0.3,0.4,0.4L37.6,160.9z"/>
			<path class="st3" d="M36.8,155.5c0.2-0.2,0.4-0.4,0.4-0.6c0.1-0.2,0.1-0.5-0.1-0.7c-0.1-0.1-0.2-0.1-0.3-0.1
				c-0.4,0-0.7,0.3-0.7,0.7C36.1,155.2,36.5,155.5,36.8,155.5L36.8,155.5z"/>
			<path class="st3" d="M38.6,153.5c0-0.2,0.1-0.3,0.1-0.5c-0.1-0.1-0.2-0.1-0.4-0.1c-0.1,0.2-0.1,0.5,0.2,0.7L38.6,153.5z"/>
			<path class="st3" d="M50.3,164.8c-0.1-1-0.4-1.9-0.9-2.8c-0.1-0.1-0.2-0.3-0.3-0.4c-0.3-0.2-0.6-0.1-0.9,0
				c-0.7,0.3-1.1,1.1-1.1,1.8c0,0.7,0.5,1.4,1.2,1.8c0.4,0.2,0.8,0.3,1.2,0.2s0.7-0.5,0.7-0.9c-0.1-0.1-0.3,0-0.3,0.2L50.3,164.8z"
				/>
			<path class="st3" d="M31.1,171.6c0.4-0.3,0.6-0.7,0.7-1.2c-0.2,0-0.4-0.1-0.6,0c-0.2,0.1-0.4,0.2-0.4,0.4c0,0.3,0.2,0.5,0.5,0.7
				c-0.1,0-0.2,0-0.2,0L31.1,171.6z"/>
			<path class="st3" d="M30,168.4c0.1-0.1,0.1-0.2,0.1-0.4c0-0.1-0.1-0.2-0.2-0.3c-0.2-0.3-0.4-0.5-0.6-0.8
				c-0.1,0.6-0.2,1.1-0.2,1.7c0,0,0,0.1,0,0.1c-0.1,0.1-0.3,0.1-0.4,0.2c-0.2,0.1-0.2,0.4-0.2,0.6C28.8,171.1,29.6,169,30,168.4z"/>
			<path class="st3" d="M32.4,174.4c0.3-0.1,0.6-0.3,0.8-0.7c-0.3-0.1-0.6-0.2-0.8-0.3c-0.1,0-0.3-0.1-0.4-0.1
				c-0.3,0.1-0.4,0.4-0.3,0.6C31.8,174.3,32.1,174.4,32.4,174.4L32.4,174.4z"/>
			<path class="st3" d="M32.8,191.7c-0.1-0.1-0.1-0.2-0.2-0.2c-0.2,0-0.3,0.2-0.3,0.3s0.1,0.3,0.3,0.3
				C32.7,192.1,32.9,191.9,32.8,191.7L32.8,191.7z"/>
			<path class="st3" d="M33.5,170c0.2-0.1,0.3-0.4,0.2-0.6c-0.1-0.2-0.3-0.4-0.6-0.4c-0.1,0-0.2,0-0.3,0.1c0,0.1,0,0.1,0.1,0.2
				C33.1,169.6,33.3,169.8,33.5,170L33.5,170z"/>
			<path class="st3" d="M37.4,171.5c0.2-0.2,0.4-0.4,0.4-0.6c0.1-0.2,0.1-0.5-0.1-0.7c-0.1-0.1-0.2-0.1-0.3-0.1
				c-0.4,0-0.7,0.3-0.7,0.7C36.6,171.1,37,171.5,37.4,171.5L37.4,171.5z"/>
			<path class="st3" d="M42.4,159.8c-0.1-0.2-0.4-0.3-0.7-0.3c-0.3,0-0.6,0-0.7-0.2c0-0.1-0.1-0.1,0-0.2c0.1-0.2,0.3-0.1,0.5-0.1
				c0.1,0,0.3-0.1,0.4-0.1c0.3-0.1,0.7,0,0.9,0.3c0,0.2,0,0.4-0.2,0.5c-0.1,0.1-0.4,0.1-0.5,0L42.4,159.8z"/>
			<path class="st3" d="M38.6,154.9c-0.1-0.2-0.4-0.3-0.7-0.3c-0.3,0-0.6,0-0.7-0.2c0-0.1-0.1-0.1,0-0.2c0.1-0.2,0.3-0.1,0.5-0.1
				c0.1,0,0.3-0.1,0.4-0.1c0.3-0.1,0.7,0,0.9,0.3c0,0.2,0,0.4-0.2,0.5c-0.1,0.1-0.4,0.1-0.5,0L38.6,154.9z"/>
			<path class="st3" d="M39.5,150.3c0.1-0.2,0.1-0.4,0.1-0.6c0,0,0-0.1,0-0.1c0-0.1-0.1-0.1-0.2-0.1c-0.2,0-0.3,0.1-0.4,0.3
				c-0.1,0.1,0,0.3,0.1,0.4c0.1,0.1,0.1,0.1,0.2,0.1C39.4,150.3,39.5,150.3,39.5,150.3C39.5,150.2,39.4,150.2,39.5,150.3L39.5,150.3
				z"/>
			<path class="st3" d="M36.8,180.1c0.4-0.3,0.6-0.7,0.7-1.2c-0.2,0-0.4-0.1-0.6,0c-0.2,0.1-0.4,0.2-0.4,0.4c0,0.3,0.2,0.5,0.5,0.7
				c-0.1,0-0.2,0-0.2,0L36.8,180.1z"/>
			<path class="st3" d="M32.5,179.5c0.2,0.2,0.6,0,0.6-0.3c-0.1-0.1-0.3-0.2-0.4-0.2c-0.2,0-0.3,0.1-0.3,0.3c0,0.2,0.1,0.3,0.3,0.3
				L32.5,179.5z"/>
			<path class="st3" d="M36.3,172.7c0.2,0.2,0.6,0,0.6-0.3c-0.1-0.1-0.3-0.2-0.4-0.2c-0.2,0-0.3,0.1-0.3,0.3s0.1,0.3,0.3,0.3
				L36.3,172.7z"/>
			<path class="st3" d="M34.5,180.3c-0.2,0.1-0.1,0.4,0.1,0.5c0.2,0.1,0.4,0.1,0.5,0.2c0.2,0.1,0.3,0.2,0.4,0.4c0,0.1,0,0.2-0.1,0.3
				c-0.1,0.1-0.1,0.1-0.2,0.1c-0.4,0.1-0.8,0.1-1.1,0c-0.4-0.1-0.7-0.4-0.7-0.8c0-0.3,0.1-0.5,0.4-0.7
				C34,180.1,34.3,180.1,34.5,180.3L34.5,180.3z"/>
			<path class="st3" d="M40.1,158.7c-0.2,0.1-0.1,0.4,0.1,0.5c0.2,0.1,0.4,0.1,0.5,0.2c0.2,0.1,0.3,0.2,0.4,0.4c0,0.1,0,0.2-0.1,0.3
				c-0.1,0.1-0.1,0.1-0.2,0.1c-0.4,0.1-0.8,0.1-1.1,0c-0.4-0.1-0.7-0.4-0.7-0.8c0-0.3,0.1-0.5,0.4-0.7
				C39.6,158.6,39.9,158.6,40.1,158.7L40.1,158.7z"/>
			<path class="st3" d="M42.5,159c-0.2,0.1-0.1,0.4,0.1,0.5c0.2,0.1,0.4,0.1,0.5,0.2c0.2,0.1,0.3,0.2,0.4,0.4c0,0.1,0,0.2-0.1,0.3
				c-0.1,0.1-0.1,0.1-0.2,0.1c-0.4,0.1-0.8,0.1-1.1,0c-0.4-0.1-0.7-0.4-0.7-0.8c0-0.3,0.1-0.5,0.4-0.7
				C42.1,158.8,42.4,158.8,42.5,159L42.5,159z"/>
			<path class="st3" d="M41.4,162.6c-0.2,0.1-0.1,0.4,0.1,0.5c0.2,0.1,0.4,0.1,0.5,0.2c0.2,0.1,0.3,0.2,0.4,0.4c0,0.1,0,0.2-0.1,0.3
				c-0.1,0.1-0.1,0.1-0.2,0.1c-0.4,0.1-0.8,0.1-1.1,0c-0.4-0.1-0.7-0.4-0.7-0.8c0-0.3,0.1-0.5,0.4-0.7
				C40.9,162.5,41.2,162.5,41.4,162.6L41.4,162.6z"/>
			<path class="st3" d="M18.1,149.4c-0.2,0.1-0.1,0.4,0.1,0.5c0.2,0.1,0.4,0.1,0.5,0.2c0.2,0.1,0.3,0.2,0.4,0.4c0,0.1,0,0.2-0.1,0.3
				c-0.1,0.1-0.1,0.1-0.2,0.1c-0.4,0.1-0.8,0.1-1.1,0c-0.4-0.1-0.7-0.4-0.7-0.8c0-0.3,0.1-0.5,0.4-0.7
				C17.6,149.3,17.9,149.3,18.1,149.4L18.1,149.4z"/>
			<path class="st3" d="M32.5,176.8c0-0.1,0.1-0.2,0.1-0.3c-0.1-0.1-0.3-0.2-0.4-0.1c-0.2,0-0.3,0.3-0.1,0.4c0,0,0.1,0,0.2,0
				c0.2,0,0.4,0,0.6,0.1L32.5,176.8z"/>
			<path class="st3" d="M27.7,157.3c0.2-0.2,0.4-0.4,0.4-0.6c0.1-0.2,0.1-0.5-0.1-0.7c-0.1-0.1-0.2-0.1-0.3-0.1
				c-0.4,0-0.7,0.3-0.7,0.7C27,156.9,27.3,157.3,27.7,157.3L27.7,157.3z"/>
			<path class="st3" d="M39.9,174.4c0,0.4-0.5,0.6-0.8,0.3c0-0.2,0-0.4,0-0.6c0.2,0,0.4,0.1,0.6,0.2L39.9,174.4z"/>
			<path class="st4" d="M29.6,154.7c0.1-0.1,0.2-0.2,0.2-0.4c0-0.1,0-0.3-0.1-0.4c-0.2-0.1-0.5,0.1-0.7,0.1c-0.2,0-0.5-0.2-0.7-0.2
				c-0.2,0.1-0.3,0.4-0.2,0.6c0.1,0.2,0.4,0.3,0.6,0.4c0.2,0.1,0.4,0.1,0.6,0.1c0.2-0.1,0.4-0.2,0.4-0.4L29.6,154.7z"/>
			<path class="st3" d="M38.7,163.9c1,0.1,2-0.4,2.6-1.2c-0.4-0.9-1.2-1.7-2.2-1.9c-1-0.2-2.1,0.5-2.2,1.5c-0.1,1,1.3,1.9,2,1.2
				L38.7,163.9z"/>
			<path class="st3" d="M42.1,174.8c-0.1,0-0.2-0.1-0.2-0.3c0-0.1,0.1-0.3,0.2-0.3c0.1,0,0.1-0.1,0.2-0.1c0.2,0,0.4,0.1,0.4,0.3
				c0,0.2-0.2,0.4-0.4,0.4c-0.2,0-0.4-0.1-0.4-0.3L42.1,174.8z"/>
			<path class="st3" d="M40.4,169.5c-0.2-0.2-0.5-0.1-0.7,0c-0.2,0.1-0.5,0.2-0.7,0c-0.1,0-0.1-0.1-0.1-0.2c0-0.2,0.3-0.2,0.4-0.3
				c0.1-0.1,0.2-0.2,0.3-0.3c0.3-0.2,0.7-0.2,1-0.1c0.1,0.2,0.1,0.4,0,0.5c-0.1,0.1-0.3,0.2-0.5,0.2L40.4,169.5z"/>
			<path class="st3" d="M35.2,163.4c0-0.1,0-0.2,0-0.3c-0.1-0.1-0.3-0.1-0.4,0.1c-0.1,0.1-0.1,0.3,0,0.4
				C34.9,163.6,35.1,163.6,35.2,163.4L35.2,163.4z"/>
			<path class="st3" d="M37.1,168.6c0,0.1-0.2,0.1-0.3,0.1c-0.1-0.1-0.1-0.2-0.2-0.3c0-0.1,0-0.2,0-0.3c0-0.2,0.2-0.3,0.4-0.3
				c0.2,0,0.3,0.1,0.4,0.3c0,0.1,0.1,0.2,0,0.2c0,0.1-0.1,0.1-0.2,0.1L37.1,168.6z"/>
			<path class="st3" d="M28.8,169.8c0.7,0.7,1.8,1,2.8,0.8c0.3-1,0.2-2.1-0.5-2.9c-0.7-0.8-2-1-2.7-0.3c-0.7,0.7-0.3,2.2,0.7,2.3
				L28.8,169.8z"/>
			<path class="st3" d="M33.8,176c0.2-0.2-0.1-0.6-0.4-0.5c-0.3,0-0.5,0.3-0.7,0.5c0.3,0.3,0.8,0.3,1.1,0.1L33.8,176z"/>
			<path class="st3" d="M43.6,171.8c0-0.1,0-0.2,0-0.3c-0.1-0.1-0.3-0.1-0.4,0.1c-0.1,0.1-0.1,0.3,0,0.4
				C43.4,172.1,43.6,172,43.6,171.8L43.6,171.8z"/>
			<path class="st3" d="M38.5,170.5c0.4-1,0.6-2.1,0.5-3.1c0-0.2,0-0.3-0.1-0.5c-0.2-0.3-0.5-0.4-0.8-0.4c-0.8,0-1.6,0.5-1.9,1.3
				c-0.3,0.7-0.2,1.7,0.3,2.3c0.2,0.4,0.6,0.7,1,0.8c0.4,0.1,1-0.1,1.1-0.6c-0.1-0.1-0.3-0.1-0.3,0L38.5,170.5z"/>
			<path class="st3" d="M22.6,163c0.9-0.5,1.4-1.5,1.4-2.5c-0.9-0.5-2-0.6-2.9-0.2c-0.9,0.5-1.4,1.7-0.8,2.6
				c0.5,0.8,2.1,0.7,2.4-0.2L22.6,163z"/>
			<path class="st3" d="M37.8,151.6c0.4-0.3,0.6-0.7,0.7-1.2c-0.2,0-0.4-0.1-0.6,0c-0.2,0.1-0.4,0.2-0.4,0.4c0,0.3,0.2,0.5,0.5,0.7
				c-0.1,0-0.2,0-0.2,0L37.8,151.6z"/>
			<path class="st3" d="M36.7,148.4c0.1-0.1,0.1-0.2,0.1-0.4c0-0.1-0.1-0.2-0.2-0.3c-0.2-0.3-0.4-0.5-0.6-0.8
				c-0.1,0.6-0.2,1.1-0.2,1.7c0,0,0,0.1,0,0.1c-0.1,0.1-0.3,0.1-0.4,0.2c-0.2,0.1-0.2,0.4-0.2,0.6C35.5,151.1,36.3,149,36.7,148.4z"
				/>
			<path class="st3" d="M40.8,168.5c0-0.2,0.1-0.3,0.1-0.5c-0.3,0-0.7,0.1-0.9,0.4c-0.1,0.3,0.1,0.7,0.5,0.7c0.2,0,0.5-0.2,0.5,0
				L40.8,168.5z"/>
			<path class="st3" d="M33.9,155.7c0,0.1,0,0.3-0.1,0.4c-0.3-0.3-0.2-0.7-0.2-1c0-0.2,0.1-0.4,0.3-0.5c0.1,0,0.3,0.1,0.4,0.1
				c0.3,0,0.6-0.1,0.8,0.1c0.1,0.1,0,0.3-0.1,0.4c-0.1,0.1-0.3,0.2-0.4,0.2c-0.3,0.1-0.7,0.2-1,0.3L33.9,155.7z"/>
			<path class="st3" d="M28.3,155.5c0.2-0.2-0.1-0.6-0.4-0.5c-0.3,0-0.5,0.3-0.7,0.5c0.3,0.3,0.8,0.3,1.1,0.1L28.3,155.5z"/>
			<path class="st4" d="M31.8,150.2c-0.1,0.1-0.3,0-0.4-0.1c-0.1-0.1-0.1-0.3,0-0.4c0-0.1,0.1-0.2,0.1-0.2c0.1-0.1,0.4-0.1,0.5,0
				c0.1,0.1,0.1,0.4-0.1,0.5c-0.1,0.1-0.4,0.1-0.5,0L31.8,150.2z"/>
			<path class="st3" d="M33.5,151c0.2,0.2,0.6,0,0.6-0.3c-0.1-0.1-0.3-0.2-0.4-0.2c-0.2,0-0.3,0.1-0.3,0.3c0,0.2,0.1,0.3,0.3,0.3
				L33.5,151z"/>
			<path class="st3" d="M39.1,154.5c0.3-0.1,0.6-0.3,0.8-0.7c-0.3-0.1-0.6-0.2-0.8-0.3c-0.1,0-0.3-0.1-0.4-0.1
				c-0.3,0.1-0.4,0.4-0.3,0.6C38.5,154.4,38.8,154.5,39.1,154.5L39.1,154.5z"/>
			<path class="st4" d="M28,151.8c-0.2,0.1-0.4,0.1-0.6,0c-0.2-0.1-0.3-0.3-0.2-0.5c0-0.1,0.2-0.3,0.3-0.2c0.1,0,0.1,0.1,0.1,0.1
				C27.7,151.4,27.9,151.6,28,151.8C28,151.8,28,151.9,28,151.8L28,151.8z"/>
			<path class="st4" d="M24.5,149.8c-0.1-0.2-0.4-0.3-0.7-0.3c-0.3,0-0.6,0-0.7-0.2c0-0.1-0.1-0.1,0-0.2c0.1-0.2,0.3-0.1,0.5-0.1
				c0.1,0,0.3-0.1,0.4-0.1c0.3-0.1,0.7,0,0.9,0.3c0,0.2,0,0.4-0.2,0.5c-0.1,0.1-0.4,0.1-0.5,0L24.5,149.8z"/>
			<path class="st4" d="M44.8,160.8c-0.1-0.2-0.4-0.3-0.7-0.3c-0.3,0-0.6,0-0.7-0.2c0-0.1-0.1-0.1,0-0.2c0.1-0.2,0.3-0.1,0.5-0.1
				c0.1,0,0.3-0.1,0.4-0.1c0.3-0.1,0.7,0,0.9,0.3c0,0.2,0,0.4-0.2,0.5c-0.1,0.1-0.4,0.1-0.5,0L44.8,160.8z"/>
			<path class="st4" d="M25.8,147.6c0-0.1,0.1-0.2,0.1-0.3c-0.1-0.1-0.3-0.2-0.4-0.1c-0.1,0.1-0.2,0.3-0.1,0.4
				C25.5,147.8,25.8,147.8,25.8,147.6L25.8,147.6z"/>
			<path class="st3" d="M35.4,151.8c-0.2,0.1-0.1,0.4,0.1,0.5c0.2,0.1,0.4,0.1,0.5,0.2c0.2,0.1,0.3,0.2,0.4,0.4c0,0.1,0,0.2-0.1,0.3
				c-0.1,0.1-0.1,0.1-0.2,0.1c-0.4,0.1-0.8,0.1-1.1,0c-0.4-0.1-0.7-0.4-0.7-0.8c0-0.3,0.1-0.5,0.4-0.7
				C35,151.7,35.3,151.7,35.4,151.8L35.4,151.8z"/>
			<path class="st3" d="M40.2,150c0.2-0.1,0.3-0.4,0.2-0.6c-0.1-0.2-0.3-0.4-0.6-0.4c-0.1,0-0.2,0-0.3,0.1c0,0.1,0,0.1,0.1,0.2
				C39.9,149.6,40,149.8,40.2,150L40.2,150z"/>
			<path class="st3" d="M30.6,159c-0.5,0.1-1-0.4-0.9-0.9c0.4,0,0.8,0,1.1,0.1c0.3,0.2,0.5,0.7,0.3,0.9c-0.2,0-0.4,0.1-0.7,0.1
				L30.6,159z"/>
			<path class="st4" d="M33.5,148.3c0-0.1,0.1-0.2,0.1-0.3c-0.1-0.1-0.3-0.2-0.4-0.1c-0.2,0-0.3,0.3-0.1,0.4c0,0,0.1,0,0.2,0
				c0.2,0,0.4,0,0.6,0.1L33.5,148.3z"/>
			<path class="st3" d="M37.6,175c0.2-0.2,0.4-0.4,0.4-0.6c0.1-0.2,0.1-0.5-0.1-0.7c-0.1-0.1-0.2-0.1-0.3-0.1
				c-0.4,0-0.7,0.3-0.7,0.7C36.8,174.6,37.2,175,37.6,175L37.6,175z"/>
			<path class="st3" d="M26.8,164.7c0-0.2,0.1-0.3,0.1-0.5c-0.1-0.1-0.2-0.1-0.4-0.1c-0.1,0.2-0.1,0.5,0.2,0.7L26.8,164.7z"/>
			<path class="st3" d="M35.9,188.1c-0.1,0.1-0.3,0-0.4-0.1c-0.1-0.1-0.1-0.3,0-0.4c0-0.1,0.1-0.2,0.1-0.2c0.1-0.1,0.4-0.1,0.5,0
				c0.1,0.1,0.1,0.4-0.1,0.5c-0.1,0.1-0.4,0.1-0.5,0L35.9,188.1z"/>
			<path class="st3" d="M29.9,161.9c0-0.2,0.1-0.3,0.1-0.5c-0.1-0.1-0.2-0.1-0.4-0.1c-0.1,0.2-0.1,0.5,0.2,0.7L29.9,161.9z"/>
			<path class="st3" d="M43.7,164c0.2-0.1,0.2-0.3,0-0.5c-0.1-0.1-0.3-0.2-0.5-0.3c-0.1-0.1-0.2-0.3-0.2-0.5c0-0.1,0-0.2,0.1-0.3
				c0.1,0,0.1,0,0.2,0c0.4,0,0.8,0.1,1.1,0.3c0.3,0.2,0.5,0.6,0.4,1c-0.1,0.3-0.3,0.5-0.5,0.5C44.1,164.2,43.8,164.1,43.7,164
				L43.7,164z"/>
			<path class="st3" d="M35.9,170.5c-0.1,0.1-0.2,0.2-0.3,0.3c-0.1,0.1-0.1,0.3,0,0.4c0.2,0.2,0.5,0.1,0.7,0.1
				c0.2,0.1,0.4,0.3,0.6,0.3c0.2,0,0.4-0.3,0.3-0.5c-0.1-0.2-0.3-0.4-0.5-0.5c-0.2-0.1-0.4-0.2-0.6-0.2c-0.2,0-0.4,0.1-0.5,0.3
				L35.9,170.5z"/>
			<path class="st3" d="M37.9,159.7c-0.1,0.9,0.1,1.7,0.4,2.6c0.1,0.1,0.1,0.3,0.2,0.4c0.2,0.2,0.5,0.2,0.8,0.1
				c0.6-0.2,1.1-0.8,1.2-1.4c0.1-0.7-0.3-1.3-0.8-1.7c-0.3-0.2-0.6-0.4-1-0.4c-0.4,0-0.7,0.3-0.7,0.7c0.1,0.1,0.3,0,0.3-0.1
				L37.9,159.7z"/>
			<path class="st3" d="M43.7,162.1c0.1,0,0.3,0,0.4-0.1c0.1-0.1,0.1-0.2,0.2-0.3c0.1-0.3,0.2-0.7,0.4-1c-0.5,0.2-1.1,0.4-1.6,0.6
				c0,0-0.1,0-0.1,0c-0.2,0-0.2-0.2-0.4-0.3c-0.2-0.1-0.5,0-0.6,0.2C40.7,162.5,43,162.1,43.7,162.1z"/>
			<path class="st3" d="M38.1,159.6c0-0.1,0.1-0.2,0.1-0.3c-0.1-0.1-0.3-0.2-0.4-0.1c-0.1,0.1-0.2,0.3-0.1,0.4
				C37.8,159.8,38,159.8,38.1,159.6L38.1,159.6z"/>
			<path class="st3" d="M42.8,159.5c0.2,0.2,0.5,0.1,0.6-0.1s0.2-0.5,0.1-0.7c0-0.1-0.1-0.2-0.2-0.2c-0.1,0-0.1,0.1-0.1,0.2
				C43,159,42.8,159.3,42.8,159.5L42.8,159.5z"/>
			<path class="st3" d="M39.7,158.9c0.4,0.2,0.9,0.2,1.4,0c-0.1-0.2-0.2-0.4-0.3-0.5c-0.1-0.1-0.4-0.2-0.6-0.2
				c-0.3,0.1-0.3,0.5-0.3,0.7c-0.1-0.1-0.1-0.1-0.2-0.2L39.7,158.9z"/>
			<path class="st3" d="M38.1,157.4c-0.1,0.1-0.3,0.1-0.4,0.1c0.1-0.4,0.5-0.5,0.8-0.7c0.2-0.1,0.4-0.1,0.6,0
				c0.1,0.1,0.1,0.3,0.1,0.4c0.1,0.3,0.4,0.5,0.3,0.7c-0.1,0.1-0.3,0.2-0.4,0.2c-0.2,0-0.3-0.2-0.4-0.3c-0.3-0.2-0.5-0.5-0.8-0.7
				L38.1,157.4z"/>
			<path class="st3" d="M41.8,161.4c0.2,0.3,0.6,0.4,1,0.3c-0.1-0.3-0.1-0.6-0.2-0.8c0-0.1-0.1-0.3-0.2-0.4
				c-0.2-0.2-0.5-0.1-0.7,0.1C41.6,160.8,41.6,161.1,41.8,161.4L41.8,161.4z"/>
			<path class="st3" d="M42.3,156.9c-0.2-0.1-0.4,0.1-0.4,0.3c0,0.2,0.1,0.4,0.1,0.6c0,0.2-0.1,0.4-0.2,0.5
				c-0.1,0.1-0.2,0.1-0.3,0.1c-0.1,0-0.1-0.1-0.2-0.1c-0.3-0.3-0.5-0.6-0.6-1c-0.1-0.4,0.1-0.8,0.4-1c0.2-0.1,0.5-0.1,0.8,0
				C42.2,156.4,42.3,156.7,42.3,156.9L42.3,156.9z"/>
			<path class="st3" d="M33.9,166c0.2,0.1,0.5,0.1,0.7,0.1c0.2,0,0.5-0.2,0.5-0.5c0-0.1,0-0.3-0.1-0.4c-0.2-0.3-0.6-0.5-1-0.3
				C33.8,165.2,33.7,165.6,33.9,166L33.9,166z"/>
			<path class="st3" d="M39.1,168.1c0.4,0.2,0.9,0.2,1.4,0c-0.1-0.2-0.2-0.4-0.3-0.5c-0.1-0.1-0.4-0.2-0.6-0.2
				c-0.3,0.1-0.3,0.5-0.3,0.7c-0.1-0.1-0.1-0.1-0.2-0.2L39.1,168.1z"/>
			<path class="st3" d="M37.8,156.6c-0.1-0.2-0.4-0.3-0.6-0.3c-0.3,0-0.6,0-0.7-0.2c0-0.1-0.1-0.1,0-0.2c0.1-0.2,0.3-0.1,0.5-0.1
				c0.1,0,0.3-0.1,0.4-0.1c0.3-0.1,0.7,0,0.9,0.3c0,0.2-0.1,0.4-0.2,0.5c-0.2,0.1-0.4,0.1-0.5,0L37.8,156.6z"/>
			<path class="st3" d="M30.6,174.8c0-0.1,0-0.2,0-0.3c-0.2,0-0.3,0-0.4,0.2c-0.1,0.1,0,0.3,0.1,0.4C30.4,175.2,30.6,175,30.6,174.8
				L30.6,174.8z"/>
			<path class="st3" d="M39.8,162.7c0.1,0,0.2,0,0.3,0c0-0.2,0-0.3-0.1-0.4c-0.1-0.1-0.4-0.1-0.4,0.1c0,0.1,0,0.1,0,0.2
				c0.1,0.2,0.2,0.3,0.2,0.5L39.8,162.7z"/>
		</g>
	</g>
	<g>
		<linearGradient id="SVGID_1_" gradientUnits="userSpaceOnUse" x1="145.2832" y1="158.3727" x2="149.9419" y2="121.28">
			<stop  offset="0" style="stop-color:#FF9200"/>
			<stop  offset="1" style="stop-color:#FFC400"/>
		</linearGradient>
		<path class="st5" d="M166.6,140.2c0,0,0,8.3-3.3,13.5c-1.9,3-5.2,4.7-9.1,5.2c-2.9,0.4-6.1,0.1-9.3-0.9
			c-7.2-2.2-11.9-13.4-14.5-24.5c-2.5-11.1,3.6-14.4,4.4-14.1c1.6,0.6,5.6,5.8,10.2,10.5c2.3,2.4,4.8,4.6,7.2,6.1
			C159.5,140.3,166.6,140.2,166.6,140.2z"/>
		
			<linearGradient id="SVGID_00000136380080770313482270000016056588136879066540_" gradientUnits="userSpaceOnUse" x1="142.0649" y1="159.0115" x2="142.0649" y2="119.3834">
			<stop  offset="0" style="stop-color:#2370B9"/>
			<stop  offset="1" style="stop-color:#CCEDFF"/>
		</linearGradient>
		<path style="opacity:0.3;fill:url(#SVGID_00000136380080770313482270000016056588136879066540_);" d="M154.2,158.8
			c-2.9,0.4-6.1,0.1-9.3-0.9c-7.2-2.2-11.9-13.4-14.5-24.5c-2.5-11.1,3.6-14.4,4.4-14.1c1.6,0.6,5.6,5.8,10.2,10.5
			c0,0-3.7,7.9-2.1,18.7C144.6,159.3,154.2,158.8,154.2,158.8z"/>
		
			<linearGradient id="SVGID_00000041281041135561089070000001339045944993375368_" gradientUnits="userSpaceOnUse" x1="102.8923" y1="189.3957" x2="107.3569" y2="153.8484" gradientTransform="matrix(0.9852 -0.1714 0.1714 0.9852 -30.7002 42.7288)">
			<stop  offset="0" style="stop-color:#FF9200"/>
			<stop  offset="1" style="stop-color:#FFC400"/>
		</linearGradient>
		<path style="fill:url(#SVGID_00000041281041135561089070000001339045944993375368_);" d="M114.7,188.1c0,7.2-2.5,24.2-7.5,23.3
			c-1.1-0.2-2.4-1.3-3.8-3c-4.3-5.2-9.4-16.1-12.4-23.6c-1.6-4.1-2.5-7.1-2.3-7.7c1.6-3.5,24.1,6.6,25.5,7.9
			C114.6,185.3,114.7,186.4,114.7,188.1z"/>
		
			<linearGradient id="SVGID_00000109713066831547636000000010267479069947773616_" gradientUnits="userSpaceOnUse" x1="106.5601" y1="166.3299" x2="106.5601" y2="152.3207" gradientTransform="matrix(0.9852 -0.1714 0.1714 0.9852 -30.7002 42.7288)">
			<stop  offset="0" style="stop-color:#2370B9"/>
			<stop  offset="1" style="stop-color:#0053A4"/>
		</linearGradient>
		<path style="fill:url(#SVGID_00000109713066831547636000000010267479069947773616_);" d="M88.8,177.2c-1.7,3.3,18.7,13.3,25.8,8.5
			C114.6,185.7,91.1,172.8,88.8,177.2z"/>
		
			<linearGradient id="SVGID_00000087395300740614564490000016089316868809708729_" gradientUnits="userSpaceOnUse" x1="106.5943" y1="189.8549" x2="106.5943" y2="152.4385" gradientTransform="matrix(0.9852 -0.1714 0.1714 0.9852 -30.7002 42.7288)">
			<stop  offset="0" style="stop-color:#2370B9"/>
			<stop  offset="1" style="stop-color:#CCEDFF"/>
		</linearGradient>
		<path style="opacity:0.3;fill:url(#SVGID_00000087395300740614564490000016089316868809708729_);" d="M98.9,188
			c-0.8,1.4,3.3,17.5,8.4,23.4c-1.1-0.2-2.4-1.3-3.8-3c-1.1-2.7-2.8-6.8-4.4-10.9c-2.1-5.2-6-10.3-7.9-12.7
			c-1.6-4.1-2.5-7.1-2.3-7.7c1.6-3.5,24.1,6.6,25.5,7.9c0.3,0.3,0.4,1.4,0.4,3.1C114.7,188.1,99.7,186.6,98.9,188z"/>
		
			<linearGradient id="SVGID_00000124842172732457547900000016950322104216321459_" gradientUnits="userSpaceOnUse" x1="121.7272" y1="234.7942" x2="127.4861" y2="188.942" gradientTransform="matrix(0.9878 0.1555 -0.1555 0.9878 34.1314 -37.5678)">
			<stop  offset="0" style="stop-color:#FF9200"/>
			<stop  offset="1" style="stop-color:#FFC400"/>
		</linearGradient>
		<path style="fill:url(#SVGID_00000124842172732457547900000016950322104216321459_);" d="M139.1,180.4c-0.2,0.6-0.4,1.3-0.6,2
			c-3.1,10.4-8.5,25.5-12.6,30.7c-1,1.2-1.9,1.9-2.6,1.8c-0.2,0-0.4-0.1-0.6-0.2c-0.7-0.3-1.3-1-2-2l0,0c-4-6.2-6.8-23.4-6.2-28.3
			c0.1-0.6,0.2-1,0.4-1.2c3.3-3.3,25.2-12.9,26-11.2C141.2,172.4,140.4,175.7,139.1,180.4z"/>
		
			<linearGradient id="SVGID_00000034084647241858125850000001656330694860732046_" gradientUnits="userSpaceOnUse" x1="126.0191" y1="207.0301" x2="126.0191" y2="190.3673" gradientTransform="matrix(0.9878 0.1555 -0.1555 0.9878 34.1314 -37.5678)">
			<stop  offset="0" style="stop-color:#2370B9"/>
			<stop  offset="1" style="stop-color:#0053A4"/>
		</linearGradient>
		<path style="fill:url(#SVGID_00000034084647241858125850000001656330694860732046_);" d="M114.5,184.3
			c-0.8,1.4,20.7,1.3,26.4-12.4C141,172,122.4,171.2,114.5,184.3z"/>
		<path class="st3" d="M125.3,191.1c-0.9,0.1-2.2,6.9-0.8,7.5C125.9,199.3,127.4,190.8,125.3,191.1z"/>
		
			<linearGradient id="SVGID_00000110470703677223801790000017876022538567990185_" gradientUnits="userSpaceOnUse" x1="126.0893" y1="233.7106" x2="126.0893" y2="190.2391" gradientTransform="matrix(0.9878 0.1555 -0.1555 0.9878 34.1314 -37.5678)">
			<stop  offset="0" style="stop-color:#2370B9"/>
			<stop  offset="1" style="stop-color:#CCEDFF"/>
		</linearGradient>
		<path style="opacity:0.3;fill:url(#SVGID_00000110470703677223801790000017876022538567990185_);" d="M139.1,180.4
			c0,0-12,1.6-15.5,6.6c-3.5,5-4.6,18.1-2.8,25.6c-4-6.2-6.8-23.4-6.2-28.3c0.1-0.6,0.2-1,0.4-1.2c3.3-3.3,25.2-12.9,26-11.2
			C141.2,172.4,140.4,175.7,139.1,180.4z"/>
		
			<linearGradient id="SVGID_00000179608236482361001420000010104230250911159180_" gradientUnits="userSpaceOnUse" x1="74.1415" y1="175.4372" x2="81.8386" y2="114.1528">
			<stop  offset="0" style="stop-color:#FF9200"/>
			<stop  offset="1" style="stop-color:#FFC400"/>
		</linearGradient>
		<path style="fill:url(#SVGID_00000179608236482361001420000010104230250911159180_);" d="M92.9,122.8c0,6.1-0.9,15-3.7,22.2
			c-4.6,11.9-11.5,26.8-11.8,27.3l0,0c-4.2,2.6-9.3,2.4-12.5,2c-2-0.3-3.2-0.7-3.2-0.7s1.4-13.6,8.9-29c3.8-7.7,8.5-15,12.7-20.3
			c0,0,0-0.1,0.1-0.1c0-0.1,0.1-0.1,0.2-0.2c0,0,0.1-0.1,0.1-0.1c0,0,0.1-0.1,0.1-0.1c0-0.1,0.1-0.1,0.1-0.1c0,0,0,0,0,0
			c0,0,0,0,0,0c4.2-5.3,7.6-8.5,8.3-8.2C92.5,115.7,92.9,118.6,92.9,122.8z"/>
		
			<linearGradient id="SVGID_00000176023977288899756630000008868076973679492229_" gradientUnits="userSpaceOnUse" x1="69.6327" y1="174.85" x2="69.6327" y2="165.1096">
			<stop  offset="0" style="stop-color:#2370B9"/>
			<stop  offset="1" style="stop-color:#0053A4"/>
		</linearGradient>
		<path style="fill:url(#SVGID_00000176023977288899756630000008868076973679492229_);" d="M61.7,173c0,0,5.5-9,11.1-7.8
			c5.6,1.2,4.6,7.1,4.6,7.1S70.3,177.5,61.7,173z"/>
		
			<linearGradient id="SVGID_00000177443853467374972650000008229376022470242741_" gradientUnits="userSpaceOnUse" x1="77.2861" y1="174.2738" x2="77.2861" y2="122.7783">
			<stop  offset="0" style="stop-color:#2370B9"/>
			<stop  offset="1" style="stop-color:#CCEDFF"/>
		</linearGradient>
		<path style="opacity:0.3;fill:url(#SVGID_00000177443853467374972650000008229376022470242741_);" d="M92.9,122.8
			c0,6.1-0.9,15-3.7,22.2c-4.6,11.9-11.5,26.8-11.8,27.3l0,0l-12.5,2c-2-0.3-3.2-0.7-3.2-0.7s1.4-13.6,8.9-29
			c3.8-7.7,8.5-15,12.7-20.3c-2.4,3.1-12.2,16.7-14.9,28.2c-3,13.1,9.2,8.1,14.2,0c5-8.1,10.2-29.7,10.2-29.7H92.9z"/>
		<path class="st3" d="M79.3,143.7c-1-0.4,4.1-12,5.7-12.1C86.6,131.5,80.1,144.1,79.3,143.7z"/>
		<path class="st3" d="M78.7,145c-0.8-0.4-1.5,1.8-0.8,2.1C78.6,147.4,79.6,145.5,78.7,145z"/>
		
			<linearGradient id="SVGID_00000027577891428898297410000006544804769264548774_" gradientUnits="userSpaceOnUse" x1="149.7767" y1="65.4747" x2="149.7767" y2="30.1277">
			<stop  offset="0" style="stop-color:#FF9200"/>
			<stop  offset="1" style="stop-color:#FFD300"/>
		</linearGradient>
		<path style="fill:url(#SVGID_00000027577891428898297410000006544804769264548774_);" d="M139.7,36.6c0,0,6.4-5.5,14.2-6.5
			c0,0,2.4,1.2,5.1,9.8c2.8,8.6-2.3,25.6-2.3,25.6L139.7,36.6z"/>
		
			<linearGradient id="SVGID_00000085973226369899097060000001953373374524503201_" gradientUnits="userSpaceOnUse" x1="152.3437" y1="49.3404" x2="152.3437" y2="30.125">
			<stop  offset="0" style="stop-color:#2370B9"/>
			<stop  offset="1" style="stop-color:#0053A4"/>
		</linearGradient>
		<path style="fill:url(#SVGID_00000085973226369899097060000001953373374524503201_);" d="M153.9,30.1c0,0-6.3,6.8-6.3,17.7
			l2.4,1.5l7.1-14.7C157.1,34.6,154.8,30,153.9,30.1z"/>
		
			<linearGradient id="SVGID_00000145041316440499302100000005170216689940277176_" gradientUnits="userSpaceOnUse" x1="157.1207" y1="67.1659" x2="157.1207" y2="32.4364">
			<stop  offset="0" style="stop-color:#45FFCD"/>
			<stop  offset="1" style="stop-color:#22E0FF"/>
		</linearGradient>
		<path style="fill:url(#SVGID_00000145041316440499302100000005170216689940277176_);" d="M149.8,48.6c0,0-1.7-9.3,4.5-16.2
			c0,0,6.9,3.3,9.8,15.4s-4.6,19.4-4.6,19.4L149.8,48.6z"/>
		<path class="st3" d="M146.2,32.8c-1.2,0.6-1.1,1.9,1.4,1.6s3.8-2.2,3.5-2.6C150.8,31.5,147.5,32.1,146.2,32.8z"/>
		
			<linearGradient id="SVGID_00000058580538048032602400000009303578494761164441_" gradientUnits="userSpaceOnUse" x1="208.2821" y1="66.8532" x2="208.2821" y2="31.5062" gradientTransform="matrix(-1 0 0 1 284.4203 0)">
			<stop  offset="0" style="stop-color:#FF9200"/>
			<stop  offset="1" style="stop-color:#FFD300"/>
		</linearGradient>
		<path style="fill:url(#SVGID_00000058580538048032602400000009303578494761164441_);" d="M86.2,38c0,0-6.4-5.5-14.2-6.5
			c0,0-2.4,1.2-5.1,9.8c-2.8,8.6,2.3,25.6,2.3,25.6L86.2,38z"/>
		
			<linearGradient id="SVGID_00000080891058018381302810000003711279180185562300_" gradientUnits="userSpaceOnUse" x1="210.8491" y1="50.7188" x2="210.8491" y2="31.5035" gradientTransform="matrix(-1 0 0 1 284.4203 0)">
			<stop  offset="0" style="stop-color:#2370B9"/>
			<stop  offset="1" style="stop-color:#0053A4"/>
		</linearGradient>
		<path style="fill:url(#SVGID_00000080891058018381302810000003711279180185562300_);" d="M72,31.5c0,0,6.3,6.8,6.3,17.7l-2.4,1.5
			L68.8,36C68.8,36,71.2,31.4,72,31.5z"/>
		
			<linearGradient id="SVGID_00000012461164860258919190000010293747088006104743_" gradientUnits="userSpaceOnUse" x1="215.6004" y1="69.3283" x2="215.6004" y2="33.8148" gradientTransform="matrix(-1 0 0 1 284.4203 0)">
			<stop  offset="0" style="stop-color:#45FFCD"/>
			<stop  offset="1" style="stop-color:#22E0FF"/>
		</linearGradient>
		<path style="fill:url(#SVGID_00000012461164860258919190000010293747088006104743_);" d="M76.1,50c0,0,1.7-9.3-4.5-16.2
			c0,0-6.9,3.3-9.8,15.4s5.4,20.1,5.4,20.1L76.1,50z"/>
		<path class="st3" d="M79.7,34.2c1.2,0.6,1.1,1.9-1.4,1.6c-2.4-0.3-3.8-2.2-3.5-2.6C75.1,32.8,78.4,33.5,79.7,34.2z"/>
		
			<linearGradient id="SVGID_00000076588504125670890840000008649056978256421273_" gradientUnits="userSpaceOnUse" x1="109.6767" y1="184.2267" x2="119.4392" y2="106.4965">
			<stop  offset="0" style="stop-color:#FF9200"/>
			<stop  offset="1" style="stop-color:#FFC400"/>
		</linearGradient>
		<path style="fill:url(#SVGID_00000076588504125670890840000008649056978256421273_);" d="M140.7,165.3
			c-1.9,11.5-12.2,19.1-26.9,19.1c-12.8,0-23.7-4.8-26.5-15.3c-2.9-10.5-1.8-29.9,2.1-42c0.6-1.8,1.3-3.5,2.1-5.2l0,0
			c0.7-1.5,1.5-2.9,2.4-4.3c0,0,0,0,0,0c4.7-7,11.5-11.6,19.2-11.6c8.1,0,14.2,3.3,18.4,8.2c1.9,2.3,3.5,4.9,4.6,7.7
			c1.3,3.2,2.3,6.6,3.2,10.1c0,0,0,0.1,0,0.1C141.8,143,142.4,155,140.7,165.3z"/>
		
			<linearGradient id="SVGID_00000143617627287091737170000010668278669629222583_" gradientUnits="userSpaceOnUse" x1="113.6447" y1="184.3596" x2="113.6447" y2="121.8221">
			<stop  offset="0" style="stop-color:#2370B9"/>
			<stop  offset="1" style="stop-color:#CCEDFF"/>
		</linearGradient>
		<path style="opacity:0.3;fill:url(#SVGID_00000143617627287091737170000010668278669629222583_);" d="M140.7,165.3
			c-1.9,11.5-12.2,19.1-26.9,19.1c-12.8,0-23.7-4.8-26.5-15.3c-2.9-10.5-1.8-29.9,2.1-42c0.6-1.8,1.3-3.5,2.1-5.2l0,0
			c0,0-7.7,25.7-1.6,42.1c6.2,16.4,35.1,16,44.8,5.1c9.3-10.3,5-34.6,4.6-37C141.8,143,142.4,155,140.7,165.3z"/>
		
			<linearGradient id="SVGID_00000076606166154667616280000007997455358836979622_" gradientUnits="userSpaceOnUse" x1="113.0457" y1="183.088" x2="113.0457" y2="133.8337">
			<stop  offset="0" style="stop-color:#2370B9"/>
			<stop  offset="1" style="stop-color:#0053A4"/>
		</linearGradient>
		<path style="fill:url(#SVGID_00000076606166154667616280000007997455358836979622_);" d="M87.8,158.5
			c2.2-15.4,14.5-25.8,28.2-24.5c14.8,1.4,22.7,15.5,22.5,27.6c-0.2,12.1-9.1,21.5-24.9,21.5S85.7,172.8,87.8,158.5z"/>
		
			<radialGradient id="SVGID_00000050657293110909208350000003740861050546227859_" cx="114.033" cy="176.7182" r="37.5854" gradientUnits="userSpaceOnUse">
			<stop  offset="0" style="stop-color:#45FFCD"/>
			<stop  offset="1" style="stop-color:#2370B9"/>
		</radialGradient>
		<path style="fill:url(#SVGID_00000050657293110909208350000003740861050546227859_);" d="M87.9,159.7
			c2.2-15.4,14.5-25.8,28.2-24.5c14.8,1.4,22.7,15.5,22.5,27.6c-0.2,12.1-9.1,21.5-24.9,21.5C97.9,184.4,85.9,174.1,87.9,159.7z"/>
		
			<linearGradient id="SVGID_00000140005502532130916110000007758523760226921405_" gradientUnits="userSpaceOnUse" x1="112.5655" y1="121.1599" x2="112.5655" y2="105.9146">
			<stop  offset="0" style="stop-color:#8DA4E5"/>
			<stop  offset="1" style="stop-color:#755CBB"/>
		</linearGradient>
		<path style="opacity:0.5;fill:url(#SVGID_00000140005502532130916110000007758523760226921405_);" d="M131.4,114.1
			c-3.1,4.9-20.4,7.8-30.4,6.9c-8.7-0.8-7.4-3.1-7.3-3.4c0,0,0,0,0,0c4.7-7,11.5-11.6,19.2-11.6
			C121.1,105.9,127.3,109.2,131.4,114.1z"/>
		<path class="st3" d="M125.3,122.6c-0.8,0.3-0.8,6.7,0,7.8c0.8,1,2.2,0.7,2.6-0.8C128.4,128.1,126.5,122.2,125.3,122.6z"/>
		<path class="st3" d="M126.8,132.1c-0.7,0.2-0.7,1.8-0.4,2.3c0.3,0.6,1.5,0.4,1.7-0.2C128.2,133.5,127.5,132,126.8,132.1z"/>
		
			<linearGradient id="SVGID_00000005230263324911949060000005335695833796713659_" gradientUnits="userSpaceOnUse" x1="114.2418" y1="181.6147" x2="114.2418" y2="173.0829">
			<stop  offset="0" style="stop-color:#D4E2FF"/>
			<stop  offset="1" style="stop-color:#000000"/>
		</linearGradient>
		<path style="opacity:0.72;fill:url(#SVGID_00000005230263324911949060000005335695833796713659_);" d="M96.6,175.4
			c0,0,3.5,6.2,16.7,6.2c13.2,0.1,18.5-7.8,18.5-7.8s-6.1,4-14.8,1.6C108.4,173,99.8,171.7,96.6,175.4z"/>
		
			<linearGradient id="SVGID_00000110468437295278873850000012449268508105413026_" gradientUnits="userSpaceOnUse" x1="93.1129" y1="147.3089" x2="135.9438" y2="147.3089">
			<stop  offset="0" style="stop-color:#000000"/>
			<stop  offset="1" style="stop-color:#D4E2FF"/>
		</linearGradient>
		<path style="opacity:0.72;fill:url(#SVGID_00000110468437295278873850000012449268508105413026_);" d="M93.2,150
			c2.6,4.2,13.3,1.9,25.4,3.1c12.1,1.2,14.1,5.1,16.7,4.3c2.5-0.8-1.5-19-19.5-20.2C97.7,136,92.5,148.9,93.2,150z"/>
		
			<linearGradient id="SVGID_00000116201455310173874660000004932210408866165174_" gradientUnits="userSpaceOnUse" x1="109.7909" y1="112.1501" x2="120.5723" y2="26.3073">
			<stop  offset="0" style="stop-color:#FF9200"/>
			<stop  offset="1" style="stop-color:#FFC400"/>
		</linearGradient>
		<path style="fill:url(#SVGID_00000116201455310173874660000004932210408866165174_);" d="M68.3,96.9c9.8,22.5,82.9,15.5,91.6-3
			c9.6-20.2-12.4-70.3-47.4-67.9C82.9,27.9,55.7,67.9,68.3,96.9z"/>
		
			<linearGradient id="SVGID_00000178923693436020749500000009757457220680228774_" gradientUnits="userSpaceOnUse" x1="113.2623" y1="106.2725" x2="113.2623" y2="35.3088">
			<stop  offset="0" style="stop-color:#2370B9"/>
			<stop  offset="1" style="stop-color:#233050"/>
		</linearGradient>
		<path style="fill:url(#SVGID_00000178923693436020749500000009757457220680228774_);" d="M72.3,93.7c9.3,18.5,73.1,15.4,82.5-1.6
			c7.9-14.4-10.8-58.4-42.8-56.8C79.9,36.9,63.4,76,72.3,93.7z"/>
		
			<linearGradient id="SVGID_00000075161466037446651260000009786680229718455702_" gradientUnits="userSpaceOnUse" x1="389.534" y1="92.579" x2="389.534" y2="75.4112" gradientTransform="matrix(-0.9911 -0.1329 -0.1329 0.9911 530.7035 35.2432)">
			<stop  offset="0" style="stop-color:#45FFCD"/>
			<stop  offset="1" style="stop-color:#22E0FF"/>
		</linearGradient>
		<path style="fill:url(#SVGID_00000075161466037446651260000009786680229718455702_);" d="M141.6,71.9c-1.3,3.4-18.1,3-18.1,1.8
			c0.1-6.7,3.7-15.5,10.4-15.5C140.9,58.3,144,65.7,141.6,71.9z"/>
		
			<linearGradient id="SVGID_00000005244928672647170250000002684061938182157988_" gradientUnits="userSpaceOnUse" x1="187.3123" y1="52.5944" x2="187.3123" y2="35.4261" gradientTransform="matrix(0.9821 -0.1882 0.1882 0.9821 -99.509 58.7516)">
			<stop  offset="0" style="stop-color:#45FFCD"/>
			<stop  offset="1" style="stop-color:#22E0FF"/>
		</linearGradient>
		<path style="fill:url(#SVGID_00000005244928672647170250000002684061938182157988_);" d="M84.9,72.4c1.4,3.3,18.2,2,18.1,0.7
			c-0.5-6.7-4.6-15.3-11.3-14.9C84.9,58.7,82.2,66.2,84.9,72.4z"/>
		<path class="st33" d="M103.3,84.8c-2.5,0.6,2.8,9.1,11.3,9.1c7.5,0,11.8-8.7,10.8-9.1c-1-0.4-5.5,2-11.8,2
			C107.4,86.8,104.4,84.6,103.3,84.8z"/>
		
			<linearGradient id="SVGID_00000093166157433336260930000015814291971427428031_" gradientUnits="userSpaceOnUse" x1="65.5069" y1="197.9228" x2="69.3146" y2="167.6056">
			<stop  offset="0" style="stop-color:#FF9200"/>
			<stop  offset="1" style="stop-color:#FFC400"/>
		</linearGradient>
		<path style="fill:url(#SVGID_00000093166157433336260930000015814291971427428031_);" d="M61.7,173.6c0,0,3.4-4.8,8.2-5.4
			c4.9-0.6,6.6,0.7,7.5,4.1c0.9,3.4-6,15.8-14.5,25.2c-3.7,0.3-4.8-4.2-5.3-7.1C57.6,187.8,60,177.6,61.7,173.6z"/>
		
			<linearGradient id="SVGID_00000173134438618295340360000013363132700209363102_" gradientUnits="userSpaceOnUse" x1="69.3931" y1="196.8929" x2="66.5228" y2="168.7164">
			<stop  offset="0" style="stop-color:#2370B9"/>
			<stop  offset="1" style="stop-color:#0053A4"/>
		</linearGradient>
		<path style="fill:url(#SVGID_00000173134438618295340360000013363132700209363102_);" d="M73.5,168.1c0,0-9.1,12.7-12,20
			c-1.6,3.9-2.5,6.5-2.5,6.5s2.4,6,6.3,1c5.6-7.1,13-17.8,11.7-23C75.9,168.3,75.1,167.4,73.5,168.1z"/>
		
			<linearGradient id="SVGID_00000037676052825684983630000011614441524015395987_" gradientUnits="userSpaceOnUse" x1="162.8107" y1="156.3424" x2="161.0347" y2="138.9075">
			<stop  offset="0" style="stop-color:#2370B9"/>
			<stop  offset="1" style="stop-color:#0053A4"/>
		</linearGradient>
		<path style="fill:url(#SVGID_00000037676052825684983630000011614441524015395987_);" d="M159.9,139.1c-4.2,1.3-4.7,15.5-0.7,17.3
			c4,1.8,9.6-10.6,7.5-16.3C166.6,140.2,162.9,138.2,159.9,139.1z"/>
		
			<linearGradient id="SVGID_00000168796265426419607810000006697457196176758156_" gradientUnits="userSpaceOnUse" x1="171.988" y1="156.4365" x2="173.9154" y2="141.0906">
			<stop  offset="0" style="stop-color:#FF9200"/>
			<stop  offset="1" style="stop-color:#FFC400"/>
		</linearGradient>
		<path style="fill:url(#SVGID_00000168796265426419607810000006697457196176758156_);" d="M160.2,140.8c0,0-3,2.9-1.7,7.7
			c1.3,4.8,7.6,8,15.6,7.9c8-0.1,13.1-5.8,14.2-9.3c0,0-1.4-2.9-9.2-4.7c-5.3-1.2-12.4-2.2-12.4-2.2S162.9,139.6,160.2,140.8z"/>
		
			<linearGradient id="SVGID_00000149350593131489993520000013754774368892694664_" gradientUnits="userSpaceOnUse" x1="169.6077" y1="150.7876" x2="168.4298" y2="139.2255">
			<stop  offset="0" style="stop-color:#2370B9"/>
			<stop  offset="1" style="stop-color:#0053A4"/>
		</linearGradient>
		<path style="fill:url(#SVGID_00000149350593131489993520000013754774368892694664_);" d="M158.8,149.4c0,0,7,2.3,15.3,0.8
			c8.3-1.5,5.8-7.4,5.8-7.4s-4.1-2-7.8-2.8c-3.7-0.7-11.8,0-11.8,0S155.9,143.9,158.8,149.4z"/>
		
			<linearGradient id="SVGID_00000030477527483377969680000014470123800944250272_" gradientUnits="userSpaceOnUse" x1="165.2835" y1="155.4438" x2="165.2835" y2="145.638">
			<stop  offset="0" style="stop-color:#8DA4E5"/>
			<stop  offset="1" style="stop-color:#755CBB"/>
		</linearGradient>
		<path style="opacity:0.5;fill:url(#SVGID_00000030477527483377969680000014470123800944250272_);" d="M163.9,154.4
			c0,0,0.7-5.9,0.1-8.7c0,0,2.3,6.1,2.7,9.8L163.9,154.4z"/>
		
			<linearGradient id="SVGID_00000029756443849114991930000008935950204819897274_" gradientUnits="userSpaceOnUse" x1="176.2634" y1="180.1678" x2="176.2634" y2="142.6969">
			<stop  offset="0" style="stop-color:#6FCAF4"/>
			<stop  offset="1" style="stop-color:#7DFFCF"/>
		</linearGradient>
		<path style="fill:url(#SVGID_00000029756443849114991930000008935950204819897274_);" d="M187.7,175.4l-3.3,0.2l2.7,0.5l-0.5,3.6
			c0,0-0.1,0-0.2,0c0,0-0.1,0-0.1,0c-0.6,0-2.1,0.1-4.1,0.2c-4.7,0.2-12.3,0.4-18-0.3c0,0,3-18.1,0-32.3l-0.3-2.9l-0.1-0.5l11.7-1.3
			c0,0,6.1,10.1,10.5,20.9c0.9,2.2,1.8,4.5,2.5,6.7L187.7,175.4z"/>
		
			<linearGradient id="SVGID_00000026150667113875228770000002863079988352541100_" gradientUnits="userSpaceOnUse" x1="175.8463" y1="166.5306" x2="175.8463" y2="147.7496">
			<stop  offset="0" style="stop-color:#755CBB"/>
			<stop  offset="1" style="stop-color:#CCEDFF"/>
		</linearGradient>
		<path style="opacity:0.5;fill:url(#SVGID_00000026150667113875228770000002863079988352541100_);" d="M186.1,163.6l-17.1,2.9
			l-3.5-18.8l14.7,5.3C180.2,153.1,185.5,161.9,186.1,163.6z"/>
		
			<linearGradient id="SVGID_00000155134066393256809040000005879937069904256178_" gradientUnits="userSpaceOnUse" x1="176.2928" y1="180.2178" x2="176.2928" y2="143.865">
			<stop  offset="0" style="stop-color:#755CBB"/>
			<stop  offset="1" style="stop-color:#CCEDFF"/>
		</linearGradient>
		<path style="opacity:0.5;fill:url(#SVGID_00000155134066393256809040000005879937069904256178_);" d="M166,178.4
			c0,0,10.6,1.3,20.7,1.3c0,0-0.1,0-0.2,0c0,0-0.1,0-0.1,0c-0.6,0-2.1,0.1-4.1,0.2c-5.1,0.3-13.5,0.5-18-0.3c0,0,3-18.1,0-32.3
			l-0.3-2.9l1-0.6l19.5,17.6l1.7,2.2c0.9,2.2,1.8,4.5,2.5,6.7h-17.9l-1.6,3.5l15.4,1.7l-15.7-1L166,178.4z"/>
		
			<linearGradient id="SVGID_00000073691989788067421880000009636767026708488084_" gradientUnits="userSpaceOnUse" x1="177.9955" y1="162.0414" x2="177.9955" y2="140.2591">
			<stop  offset="0" style="stop-color:#6FCAF4"/>
			<stop  offset="1" style="stop-color:#7DFFCF"/>
		</linearGradient>
		<path style="fill:url(#SVGID_00000073691989788067421880000009636767026708488084_);" d="M163.9,144c0,0,4.6-3.1,13.9-3.7
			c0,0,8.9,9.8,14.3,21.2l-22.7,0.6C169.3,162,167.1,150,163.9,144z"/>
		
			<linearGradient id="SVGID_00000063597945931778101830000018324659567978971039_" gradientUnits="userSpaceOnUse" x1="165.5931" y1="145.5822" x2="181.6205" y2="145.5822">
			<stop  offset="0" style="stop-color:#755CBB"/>
			<stop  offset="1" style="stop-color:#CCEDFF"/>
		</linearGradient>
		<path style="opacity:0.5;fill:url(#SVGID_00000063597945931778101830000018324659567978971039_);" d="M165.6,143.1
			c0,0,3.7,4,8.5,5.2c4.8,1.2,7.6-3.4,7.6-3.4l-1.7-2.1L165.6,143.1z"/>
		
			<linearGradient id="SVGID_00000114774938081070142790000015858843284596098694_" gradientUnits="userSpaceOnUse" x1="178.8351" y1="189.6674" x2="180.1342" y2="179.3236" gradientTransform="matrix(0.9451 0.3269 -0.3269 0.9451 61.6352 -92.736)">
			<stop  offset="0" style="stop-color:#FF9200"/>
			<stop  offset="1" style="stop-color:#FFC400"/>
		</linearGradient>
		<path style="fill:url(#SVGID_00000114774938081070142790000015858843284596098694_);" d="M160.8,140.4c-1.2-3.7,15.4-3.6,17.6-2.2
			c1,0.6,2.6,2.8,2,4.1c-0.7,1.3-6.1,2.1-8.4,1.9C169.7,144,161.6,142.8,160.8,140.4z"/>
		
			<linearGradient id="SVGID_00000020370630279883076410000013041371154806443153_" gradientUnits="userSpaceOnUse" x1="177.2128" y1="144.2854" x2="176.6137" y2="138.4036">
			<stop  offset="0" style="stop-color:#CBC1F7"/>
			<stop  offset="1" style="stop-color:#D4BEF1"/>
		</linearGradient>
		<path style="fill:url(#SVGID_00000020370630279883076410000013041371154806443153_);" d="M173.5,144.3c0,0-0.2-3.6,1.7-5.1
			c1.9-1.4,3.6-0.7,3.6-0.7s2.5,1.8,1.5,3.8C179.5,144.3,174.8,144.8,173.5,144.3z"/>
		<path class="st47" d="M173.6,147.4c-3.5,1.6-2.2,9.3,2.2,11.3c4.4,2.1,7.8-2.8,7.2-7S175.9,146.3,173.6,147.4z"/>
		<g>
			<path class="st3" d="M176.5,149.6c0.2,0,0.4-0.1,0.6-0.1c0.2,0,0.5,0,0.7,0l0.3,1.3c-0.1-0.1-0.3-0.1-0.4-0.1c-0.1,0-0.3,0-0.4,0
				c-0.1,0-0.2,0-0.4,0c-0.2,0.1-0.3,0.2-0.3,0.3c-0.1,0.2-0.1,0.3,0,0.5c0.1,0.2,0.1,0.3,0.3,0.4c0.1,0.1,0.3,0.2,0.4,0.3
				c0.2,0.1,0.3,0.2,0.5,0.2c0.2,0.1,0.4,0.2,0.5,0.3c0.2,0.1,0.3,0.2,0.5,0.4c0.1,0.2,0.3,0.4,0.4,0.6c0.1,0.3,0.1,0.5,0.1,0.7
				c0,0.2-0.1,0.4-0.1,0.6c-0.1,0.2-0.2,0.3-0.3,0.5c-0.1,0.1-0.3,0.2-0.4,0.3l1.4,2.5h-1.2l-0.6-2.3c0,0-0.1,0-0.2,0s-0.2,0-0.3,0
				c-0.1,0-0.2,0-0.4,0c-0.1,0-0.3,0-0.4-0.1l-0.3-1.3c0.2,0.1,0.4,0.1,0.5,0.1c0.2,0,0.3,0,0.4,0c0.2,0,0.3,0,0.4-0.1
				c0.2-0.2,0.3-0.4,0.2-0.7c0-0.1-0.1-0.2-0.2-0.3c-0.1-0.1-0.3-0.2-0.4-0.3c-0.2-0.1-0.3-0.2-0.5-0.3c-0.2-0.1-0.4-0.2-0.6-0.3
				c-0.2-0.1-0.3-0.3-0.5-0.5c-0.1-0.2-0.3-0.4-0.3-0.7c-0.1-0.4-0.1-0.8,0-1.2c0.1-0.4,0.3-0.6,0.7-0.8l-1.1-2.7l1,0.3L176.5,149.6
				z"/>
		</g>
		<path class="st3" d="M122.8,30.1c-0.7,0.8,7.1,4.2,8.1,3.7C131.9,33.3,125,27.5,122.8,30.1z"/>
		
			<linearGradient id="SVGID_00000083808834426014329800000004670030543598669459_" gradientUnits="userSpaceOnUse" x1="83.5391" y1="51.1796" x2="146.1389" y2="51.1796">
			<stop  offset="0" style="stop-color:#000000"/>
			<stop  offset="1" style="stop-color:#6A9BFF"/>
		</linearGradient>
		<path style="opacity:0.5;fill:url(#SVGID_00000083808834426014329800000004670030543598669459_);" d="M83.6,53.9
			c-0.7,4.4,7.6,3.9,20.9,3.5c16-0.5,32.1,13.3,41.5,3.4c1.5-1.6-13.8-23.1-32.3-22.6C95.2,38.6,84.2,50,83.6,53.9z"/>
		
			<linearGradient id="SVGID_00000064337725627869832150000000627515500489145511_" gradientUnits="userSpaceOnUse" x1="91.7713" y1="101.2416" x2="137.2855" y2="101.2416">
			<stop  offset="0" style="stop-color:#000000"/>
			<stop  offset="1" style="stop-color:#6A9BFF"/>
		</linearGradient>
		<path style="opacity:0.5;fill:url(#SVGID_00000064337725627869832150000000627515500489145511_);" d="M91.8,99.8
			c-0.8,3.2,5.8,6.4,22.2,5.6c19.8-1,24.1-5.1,23.1-6.3c-0.6-0.7-6.5,3.1-22.8-0.5C103.6,96.2,92.7,96.4,91.8,99.8z"/>
		
			<linearGradient id="SVGID_00000168824197495685258490000015332978456462218927_" gradientUnits="userSpaceOnUse" x1="76.5457" y1="68.9967" x2="76.5457" y2="45.7801" gradientTransform="matrix(0.9977 6.840000e-02 -6.840000e-02 0.9977 5.1535 18.4769)">
			<stop  offset="0" style="stop-color:#000000"/>
			<stop  offset="1" style="stop-color:#00E3FF"/>
		</linearGradient>
		<path style="opacity:0.2;fill:url(#SVGID_00000168824197495685258490000015332978456462218927_);" d="M74.1,89.9
			c0,0-0.7-4.6,0.1-10.8c0.8-6.2,2.5-10.2,3.5-9.7c1,0.6,0.8,6.6,1.4,12.6c0.5,4.7,1.4,9,1.4,9S76.2,95.2,74.1,89.9z"/>
		
			<linearGradient id="SVGID_00000010284950493767245860000008587382670806467497_" gradientUnits="userSpaceOnUse" x1="78.9489" y1="104.4744" x2="78.9489" y2="93.5926">
			<stop  offset="0" style="stop-color:#8DA4E5"/>
			<stop  offset="1" style="stop-color:#755CBB"/>
		</linearGradient>
		<path style="opacity:0.5;fill:url(#SVGID_00000010284950493767245860000008587382670806467497_);" d="M75.5,104.5
			c0,0,1-1.1,6.3-4.2c3.6-2.1,7.3-4.6,7.8-5.5c0.8-2.1-15.2-0.9-15.2-0.9l-6.1,2.9C68.3,96.9,70.7,101.6,75.5,104.5z"/>
		
			<linearGradient id="SVGID_00000021809664571548440600000014612915218464359346_" gradientUnits="userSpaceOnUse" x1="58.9288" y1="98.4634" x2="64.0795" y2="57.4525">
			<stop  offset="0" style="stop-color:#2370B9"/>
			<stop  offset="1" style="stop-color:#0053A4"/>
		</linearGradient>
		<path style="fill:url(#SVGID_00000021809664571548440600000014612915218464359346_);" d="M63.3,57.4c0,0,4.1,2.7,1.4,8.8
			c0,0-19.3,10.5-18.1,21.9c0.9,9.5,27.5,4.9,27.5,4.9l1,3.2c0,0-22.6,4.4-30.4-0.9c0,0-2.7-6.3,3.9-17.7
			C55.1,66.3,63.3,57.4,63.3,57.4z"/>
		
			<linearGradient id="SVGID_00000163763416621133420400000002189248040654383288_" gradientUnits="userSpaceOnUse" x1="71.9127" y1="20.0161" x2="71.9127" y2="8.4557" gradientTransform="matrix(0.9734 0.2292 -0.2292 0.9734 13.5164 62.7407)">
			<stop  offset="0" style="stop-color:#DD1A8F"/>
			<stop  offset="1" style="stop-color:#FE117E"/>
		</linearGradient>
		<path style="fill:url(#SVGID_00000163763416621133420400000002189248040654383288_);" d="M70.7,92.1c-2.4,2.7,2.7,5.7,7,6.2
			c4.7,0.5,13.2-1.4,12.7-6.1C89.8,87.4,76.4,85.7,70.7,92.1z"/>
		
			<linearGradient id="SVGID_00000052797283301966098530000015824531491700657292_" gradientUnits="userSpaceOnUse" x1="79.6424" y1="93.1084" x2="79.6424" y2="88.2002">
			<stop  offset="0" style="stop-color:#D93DE3"/>
			<stop  offset="1" style="stop-color:#FF6DBA"/>
		</linearGradient>
		<path style="fill:url(#SVGID_00000052797283301966098530000015824531491700657292_);" d="M71,92.6c-0.1,0.8,16.8,1,17.2-2
			C88.6,87.6,72.2,86.6,71,92.6z"/>
		
			<linearGradient id="SVGID_00000105395751321409252320000010071053126481582988_" gradientUnits="userSpaceOnUse" x1="151.9404" y1="41.108" x2="160.9765" y2="41.108">
			<stop  offset="0" style="stop-color:#000000"/>
			<stop  offset="1" style="stop-color:#D4E2FF"/>
		</linearGradient>
		<path style="opacity:0.72;fill:url(#SVGID_00000105395751321409252320000010071053126481582988_);" d="M159.9,37.9
			c0,0-2.2-2.8-5.3-2c-3.1,0.7-3.3,10.4-1.4,10.6c1.8,0.2,2.6-5.3,4-6.2c1.4-0.9,3.9-0.5,3.9-0.5L159.9,37.9z"/>
		
			<linearGradient id="SVGID_00000183939107206727020270000003386179446437863348_" gradientUnits="userSpaceOnUse" x1="64.4638" y1="40.4783" x2="74.4221" y2="40.4783">
			<stop  offset="0" style="stop-color:#D4E2FF"/>
			<stop  offset="1" style="stop-color:#000000"/>
		</linearGradient>
		<path style="opacity:0.72;fill:url(#SVGID_00000183939107206727020270000003386179446437863348_);" d="M64.5,42
			c0,0,1.2-1.3,3.8-0.9c2.7,0.4,4.2,5.9,5.5,5.3c1.4-0.5,0.4-9.4-3.2-12C70.6,34.5,66,38.4,64.5,42z"/>
		
			<linearGradient id="SVGID_00000078004465652203272290000003775002363903786940_" gradientUnits="userSpaceOnUse" x1="70.0426" y1="187.689" x2="68.4138" y2="171.6998">
			<stop  offset="0" style="stop-color:#8DA4E5"/>
			<stop  offset="1" style="stop-color:#755CBB"/>
		</linearGradient>
		<path style="opacity:0.5;fill:url(#SVGID_00000078004465652203272290000003775002363903786940_);" d="M65.8,179.8
			c0,0,1.3,6.8,5.4,7.8l0.6-16.2C71.8,171.4,67,177.7,65.8,179.8z"/>
		
			<linearGradient id="SVGID_00000085247567039542701080000012331070786544848571_" gradientUnits="userSpaceOnUse" x1="72.1486" y1="188.4739" x2="74.6963" y2="168.1889">
			<stop  offset="0" style="stop-color:#FF9200"/>
			<stop  offset="1" style="stop-color:#FFC400"/>
		</linearGradient>
		<path style="fill:url(#SVGID_00000085247567039542701080000012331070786544848571_);" d="M69.8,175.2c-0.6,1.6,0.6,11.8,1.7,12.9
			c1.1,1.2,3.7-0.8,4.4-2.9c0.7-2.1,3.9-13.3-0.2-17C75.7,168.3,72.3,168.7,69.8,175.2z"/>
		<path class="st3" d="M71.7,176.6c-0.5,0.1-1,3.6-0.6,4.2c0.4,0.6,1.1,0.6,1.5-0.2C72.9,179.8,72.4,176.5,71.7,176.6z"/>
		
			<linearGradient id="SVGID_00000024699596807050957520000005156711059824320164_" gradientUnits="userSpaceOnUse" x1="55.258" y1="75.0143" x2="55.258" y2="63.5377">
			<stop  offset="0" style="stop-color:#FF9200"/>
			<stop  offset="1" style="stop-color:#FFC400"/>
		</linearGradient>
		<path style="fill:url(#SVGID_00000024699596807050957520000005156711059824320164_);" d="M59.6,63.5c0,0-9.2,10.7-8.6,11.4
			C51.5,75.7,60.2,64.6,59.6,63.5z"/>
	</g>
	
		<radialGradient id="SVGID_00000092444151425478668760000008038936714442653602_" cx="113.812" cy="126.7094" r="40.1487" gradientTransform="matrix(1 0 0 0.2225 0 200.886)" gradientUnits="userSpaceOnUse">
		<stop  offset="0" style="stop-color:#4C5354"/>
		<stop  offset="8.237104e-02" style="stop-color:#626768"/>
		<stop  offset="0.2824" style="stop-color:#919494"/>
		<stop  offset="0.4356" style="stop-color:#AFB0B0"/>
		<stop  offset="0.5225" style="stop-color:#BABABA"/>
		<stop  offset="0.6312" style="stop-color:#C4C4C4"/>
		<stop  offset="0.8141" style="stop-color:#DEDEDE"/>
		<stop  offset="1" style="stop-color:#FFFFFF"/>
	</radialGradient>
	
		<ellipse style="opacity:0.5;fill:url(#SVGID_00000092444151425478668760000008038936714442653602_);" cx="113.8" cy="229.1" rx="40.1" ry="8.9"/>
</g>
</svg>
