<?xml version="1.0" encoding="utf-8"?>
<!-- Generator: Adobe Illustrator 26.5.0, SVG Export Plug-In . SVG Version: 6.00 Build 0)  -->
<svg version="1.1" id="Layer_1" xmlns="http://www.w3.org/2000/svg" xmlns:xlink="http://www.w3.org/1999/xlink" x="0px" y="0px"
	 viewBox="0 0 219 242.8" style="enable-background:new 0 0 219 242.8;" xml:space="preserve">
<style type="text/css">
	.st0{opacity:0.4;}
	.st1{fill:#A4A3A3;}
	.st2{opacity:0.3;fill:url(#SVGID_1_);}
	.st3{fill:url(#SVGID_00000100372799464884362920000004417010397362415277_);}
	.st4{fill:url(#SVGID_00000155146172888371782340000002570327325787648701_);}
	.st5{fill:url(#SVGID_00000137132217532972163160000008677496922665676947_);}
	.st6{fill:url(#SVGID_00000008142535449882886120000005996456797526117307_);}
	.st7{opacity:0.3;fill:url(#SVGID_00000151544811197471759080000015792939174407247754_);}
	.st8{opacity:0.3;fill:url(#SVGID_00000105412029023651855420000003714246639897941656_);}
	.st9{fill:url(#SVGID_00000113325699543297050840000017390596284809613230_);}
	.st10{fill:url(#SVGID_00000036962566614476274880000005982995331133772710_);}
	.st11{opacity:0.3;fill:url(#SVGID_00000116916143656878070610000015261042243541307566_);}
	.st12{fill:#FFFFFF;}
	.st13{fill:url(#SVGID_00000137121500399253351560000001325647791864593557_);}
	.st14{fill:url(#SVGID_00000170960854497566317840000009602041087183229590_);}
	.st15{opacity:0.3;fill:url(#SVGID_00000011740140205524199130000007568958640855374765_);}
	.st16{fill:url(#SVGID_00000161611483460576817750000002558041243286083499_);}
	.st17{fill:url(#SVGID_00000062166502023595784940000011375723432096776073_);}
	.st18{fill:url(#SVGID_00000121262418274746551520000004974738366781646749_);}
	.st19{fill:url(#SVGID_00000031198107759282402510000010180530755652260742_);}
	.st20{fill:url(#SVGID_00000160873392943880861260000003390014182051868569_);}
	.st21{fill:url(#SVGID_00000011714930827763459830000007805478604754484878_);}
	.st22{fill:url(#SVGID_00000075883614171263650310000017149736786592491192_);}
	.st23{fill:#DFE3FB;}
	.st24{fill:url(#SVGID_00000181787268854484821130000003546666241135718313_);}
	.st25{opacity:0.3;fill:url(#SVGID_00000042717270238438297750000001244329358162615462_);}
	.st26{fill:url(#SVGID_00000075848925319641384540000000553482519061734841_);}
	.st27{opacity:0.5;fill:url(#SVGID_00000088101796120130073760000002098695596558450078_);}
	.st28{fill:url(#SVGID_00000098915559157574580010000005887453815012502424_);}
	.st29{opacity:0.5;fill:url(#SVGID_00000082370678642102344010000007380749331201086650_);}
	.st30{fill:url(#SVGID_00000014598423279350871230000013278376092035251620_);}
	.st31{fill:url(#SVGID_00000127007104534565681920000007952802657937739928_);}
	.st32{fill:#2F95CD;}
	.st33{fill:url(#SVGID_00000001663675131218280330000008941818244313399229_);}
	.st34{fill:url(#SVGID_00000182530263334866864180000010961319687527700893_);}
	.st35{opacity:0.5;fill:url(#SVGID_00000157308282433223508790000002323925560582127770_);}
	.st36{opacity:0.5;fill:url(#SVGID_00000170964320196802167500000004853483352405192594_);}
	.st37{fill:url(#SVGID_00000096048171365071925880000001817391891701326230_);}
	.st38{opacity:0.2;fill:url(#SVGID_00000096055162528354846590000005862879053994039990_);}
	.st39{opacity:0.72;fill:url(#SVGID_00000175294057585535619910000009291877614931848086_);}
	.st40{opacity:0.72;fill:url(#SVGID_00000070118852809486206430000010552222912466609570_);}
	.st41{fill:url(#SVGID_00000131332631717762008310000007841353173930867346_);}
	.st42{fill:url(#SVGID_00000096048250525556344680000002615230234373898657_);}
	.st43{fill:url(#SVGID_00000105422180557314954880000004128861508394935205_);}
	.st44{fill:url(#SVGID_00000112618083988505764410000018127686956820057272_);}
	.st45{opacity:0.5;fill:url(#SVGID_00000000938771187844174790000015540068626171780785_);}
	.st46{opacity:0.72;fill:url(#SVGID_00000026885129204912438140000007476666643903122584_);}
	.st47{opacity:0.5;fill:url(#SVGID_00000180343093487950041780000012113791819019004835_);}
	.st48{opacity:0.8;}
	.st49{fill:url(#SVGID_00000067935899976155008250000011449490472605337522_);}
</style>
<g>
	<g class="st0">
		<path class="st1" d="M33.8,186.9c10.6,22.3,112.9,19,138.7,1.7S141,26.1,71.7,29.1C21.1,31.3,6.5,129.8,33.8,186.9z"/>
		<path class="st1" d="M184.8,176.7c-4.4-0.7-7.1-24-1.9-28.5c5.2-4.5,15.8,5.8,15.8,13.6S192.4,177.9,184.8,176.7z"/>
		<path class="st1" d="M60.7,22.8c1.1,3.3-9.5,10.3-13.3,7.6c-3.7-2.7-1.5-11,1.8-12.7C52.6,16,59.2,18.1,60.7,22.8z"/>
	</g>
	<linearGradient id="SVGID_1_" gradientUnits="userSpaceOnUse" x1="179.2883" y1="238" x2="179.2883" y2="237.9554">
		<stop  offset="0" style="stop-color:#9D68C2"/>
		<stop  offset="1" style="stop-color:#CCEDFF"/>
	</linearGradient>
	<path class="st2" d="M179.3,238C179.3,238,179.3,238,179.3,238C179.3,238,179.3,238,179.3,238z"/>
	
		<linearGradient id="SVGID_00000106114628758125102550000006156133325573477264_" gradientUnits="userSpaceOnUse" x1="71.888" y1="180.9011" x2="79.7042" y2="118.6683">
		<stop  offset="0" style="stop-color:#FF9200"/>
		<stop  offset="1" style="stop-color:#FFC400"/>
	</linearGradient>
	<path style="fill:url(#SVGID_00000106114628758125102550000006156133325573477264_);" d="M85.4,182.6c-0.6,0-1.1-0.1-1.8-0.2
		c-10.4-1.7-25.4-11.7-21.6-30.9c0.2-0.8,0.3-1.6,0.6-2.3c0.1-0.4,0.2-0.7,0.2-0.8c0,0,0-0.1,0-0.1c4.4-14.8,18.2-29.5,18.2-29.5
		c2.6,2.9,2.2,8.2,1,13c0,0,0,0,0,0c-0.6,2.4-1.3,4.6-2,6.4c-0.9,2.3-1.6,3.9-1.6,3.9C75.3,149.6,76,159,76,159l9.1,23L85.4,182.6z"
		/>
	
		<linearGradient id="SVGID_00000158732580081711655470000007347922180173703339_" gradientUnits="userSpaceOnUse" x1="82.2017" y1="132.089" x2="76.1179" y2="131.5482">
		<stop  offset="0" style="stop-color:#2370B9"/>
		<stop  offset="1" style="stop-color:#238FB9"/>
	</linearGradient>
	<path style="fill:url(#SVGID_00000158732580081711655470000007347922180173703339_);" d="M81,118.8c0,0-7.2,12.2-5,25.9
		c0,0,3.6-5.9,5.5-12.6C83.4,125.5,83.2,120.6,81,118.8z"/>
	
		<linearGradient id="SVGID_00000133512207494927905980000012968240334729005200_" gradientUnits="userSpaceOnUse" x1="128.0928" y1="181.5852" x2="136.0421" y2="118.2922">
		<stop  offset="0" style="stop-color:#FF9200"/>
		<stop  offset="1" style="stop-color:#FFC400"/>
	</linearGradient>
	<path style="fill:url(#SVGID_00000133512207494927905980000012968240334729005200_);" d="M120.2,180.6l7.4-22.7
		c0,0,1.6-6.3,0.8-12.6c-0.2-1.8-0.6-3.6-1.3-5.2c0,0-2.3-4.8-3.6-10.3c0,0,0,0,0,0c-1.2-4.8-1.6-10.1,1-13c0,0,13.6,14.5,18.1,29.1
		c0.4,1.2,0.7,2.4,0.9,3.6C147.5,169.7,130.5,179.8,120.2,180.6z"/>
	
		<linearGradient id="SVGID_00000179631759641948557750000004093949384691457679_" gradientUnits="userSpaceOnUse" x1="1468.3052" y1="130.5776" x2="1462.369" y2="130.0499" gradientTransform="matrix(-1 0 0 1 1591.6561 0)">
		<stop  offset="0" style="stop-color:#2370B9"/>
		<stop  offset="1" style="stop-color:#238FB9"/>
	</linearGradient>
	<path style="fill:url(#SVGID_00000179631759641948557750000004093949384691457679_);" d="M124.5,116.8c0,0,7.6,12.9,4.4,26.9
		c0,0-3.1-6.9-5-13.5C122.1,123.5,122.3,118.6,124.5,116.8z"/>
	
		<linearGradient id="SVGID_00000063594506907727736490000005503159924922093447_" gradientUnits="userSpaceOnUse" x1="132.1398" y1="180.5887" x2="132.1398" y2="142.7187">
		<stop  offset="0" style="stop-color:#9D68C2"/>
		<stop  offset="1" style="stop-color:#CCEDFF"/>
	</linearGradient>
	<path style="opacity:0.3;fill:url(#SVGID_00000063594506907727736490000005503159924922093447_);" d="M120.2,180.6l7.4-22.7
		c0,0,1.6-6.3,0.8-12.6l1.1-2.6c0,0,0.5,15.6,5.3,19.7c6,5.1,9.5-6.8,7.8-16.5c0.4,1.2,0.7,2.4,0.9,3.6
		C147.5,169.7,130.5,179.8,120.2,180.6z"/>
	
		<linearGradient id="SVGID_00000102512864473262909760000009188093229856619179_" gradientUnits="userSpaceOnUse" x1="73.2392" y1="182.3566" x2="73.2392" y2="137.2585">
		<stop  offset="0" style="stop-color:#9D68C2"/>
		<stop  offset="1" style="stop-color:#CCEDFF"/>
	</linearGradient>
	<path style="opacity:0.3;fill:url(#SVGID_00000102512864473262909760000009188093229856619179_);" d="M85.1,181.9l-1.5,0.4
		c-10.4-1.7-25.4-11.7-21.6-30.9c0.2-0.8,0.3-1.6,0.6-2.3c-0.4,2-1,12,2.6,15.8c4.6,4.9,9.7-12.2,10.8-24.4c0.3-3.8,2-4,4-2.4
		c-0.9,2.3-1.6,3.9-1.6,3.9C75.3,149.6,76,159,76,159L85.1,181.9z"/>
	
		<linearGradient id="SVGID_00000132051707525337522630000002097920994836292252_" gradientUnits="userSpaceOnUse" x1="69.8615" y1="355.5428" x2="75.5109" y2="310.5622" gradientTransform="matrix(0.998 -6.270000e-02 6.270000e-02 0.998 26.8199 -136.9984)">
		<stop  offset="0" style="stop-color:#FF9200"/>
		<stop  offset="1" style="stop-color:#FFC400"/>
	</linearGradient>
	<path style="fill:url(#SVGID_00000132051707525337522630000002097920994836292252_);" d="M132.2,177.4c0,0.6-0.1,1.3-0.1,2
		c-0.8,10.6-2.7,26.2-5.5,32.1c-0.7,1.4-1.4,2.2-2.1,2.3c-0.2,0-0.4,0-0.6-0.1c-0.7-0.2-1.5-0.7-2.3-1.5l0,0c-5.1-5-11.5-21-12-25.8
		c-0.1-0.6,0-1,0.1-1.2c2.5-3.9,21.4-17.7,22.6-16.2C132.5,169.3,132.5,172.7,132.2,177.4z"/>
	
		<linearGradient id="SVGID_00000147178077617730842010000004489116099851404966_" gradientUnits="userSpaceOnUse" x1="74.072" y1="328.3061" x2="74.072" y2="311.604" gradientTransform="matrix(0.998 -6.270000e-02 6.270000e-02 0.998 26.8199 -136.9984)">
		<stop  offset="0" style="stop-color:#2370B9"/>
		<stop  offset="1" style="stop-color:#233050"/>
	</linearGradient>
	<path style="fill:url(#SVGID_00000147178077617730842010000004489116099851404966_);" d="M109.5,186.4c-0.5,1.5,20.1-3.2,22.7-17.5
		c0,0-1.2-0.6-3.1,0C123.7,170.6,113,175.9,109.5,186.4z"/>
	
		<linearGradient id="SVGID_00000102524517515407513660000017173584631241544637_" gradientUnits="userSpaceOnUse" x1="74.1407" y1="354.4796" x2="74.1407" y2="311.8347" gradientTransform="matrix(0.998 -6.270000e-02 6.270000e-02 0.998 26.8199 -136.9984)">
		<stop  offset="0" style="stop-color:#9D68C2"/>
		<stop  offset="1" style="stop-color:#CCEDFF"/>
	</linearGradient>
	<path style="opacity:0.3;fill:url(#SVGID_00000102524517515407513660000017173584631241544637_);" d="M132.2,177.4
		c0,0-11.2,4.1-13.5,9.7c-2.3,5.6-0.5,18.3,2.8,25.2c-5.1-5-11.5-21-12-25.8c-0.1-0.6,0-1,0.1-1.2c2.5-3.9,21.4-17.7,22.6-16.2
		C132.5,169.3,132.5,172.7,132.2,177.4z"/>
	<path class="st12" d="M120.5,203.7c0.9,0.2,1.7,3.5,0.3,3.9C119.4,208.1,118.5,203.2,120.5,203.7z"/>
	
		<linearGradient id="SVGID_00000169529504801059516650000004159432806086903945_" gradientUnits="userSpaceOnUse" x1="1291.0127" y1="432.2624" x2="1296.662" y2="387.2818" gradientTransform="matrix(-0.998 -6.270000e-02 -6.270000e-02 0.998 1402.226 -136.9984)">
		<stop  offset="0" style="stop-color:#FF9200"/>
		<stop  offset="1" style="stop-color:#FFC400"/>
	</linearGradient>
	<path style="fill:url(#SVGID_00000169529504801059516650000004159432806086903945_);" d="M73.3,177.4c0,0.6,0.1,1.3,0.1,2
		c0.8,10.6,2.7,26.2,5.5,32.1c0.7,1.4,1.4,2.2,2.1,2.3c0.2,0,0.4,0,0.6-0.1c0.7-0.2,1.5-0.7,2.3-1.5l0,0c5.1-5,11.5-21,12-25.8
		c0.1-0.6,0-1-0.1-1.2c-2.5-3.9-21.4-17.7-22.6-16.2C73.1,169.3,73.1,172.7,73.3,177.4z"/>
	
		<linearGradient id="SVGID_00000140727500470701309120000004763161344944147384_" gradientUnits="userSpaceOnUse" x1="1295.2231" y1="405.0257" x2="1295.2231" y2="388.3338" gradientTransform="matrix(-0.998 -6.270000e-02 -6.270000e-02 0.998 1402.226 -136.9984)">
		<stop  offset="0" style="stop-color:#2370B9"/>
		<stop  offset="1" style="stop-color:#233050"/>
	</linearGradient>
	<path style="fill:url(#SVGID_00000140727500470701309120000004763161344944147384_);" d="M96,186.4c0.5,1.5-20.1-3.2-22.7-17.5
		c0,0,0.8-0.6,2.7,0C81.5,170.6,92.5,176,96,186.4z"/>
	
		<linearGradient id="SVGID_00000151513714460227611100000001737487815537978247_" gradientUnits="userSpaceOnUse" x1="1295.2919" y1="431.1993" x2="1295.2919" y2="388.5544" gradientTransform="matrix(-0.998 -6.270000e-02 -6.270000e-02 0.998 1402.226 -136.9984)">
		<stop  offset="0" style="stop-color:#9D68C2"/>
		<stop  offset="1" style="stop-color:#CCEDFF"/>
	</linearGradient>
	<path style="opacity:0.3;fill:url(#SVGID_00000151513714460227611100000001737487815537978247_);" d="M73.3,177.4
		c0,0,11.2,4.1,13.5,9.7c2.3,5.6,0.5,18.3-2.8,25.2c5.1-5,11.5-21,12-25.8c0.1-0.6,0-1-0.1-1.2c-2.5-3.9-21.4-17.7-22.6-16.2
		C73.1,169.3,73.1,172.7,73.3,177.4z"/>
	<path class="st12" d="M86.2,197.4c-0.9,0.2-2.8,9.8-1.4,10.2C86.2,208.1,88.2,196.9,86.2,197.4z"/>
	
		<linearGradient id="SVGID_00000052797546978317951370000008989963798402782867_" gradientUnits="userSpaceOnUse" x1="-672.7963" y1="71.9363" x2="-672.7963" y2="37.2611" gradientTransform="matrix(-1 0 0 1 -604.5355 0)">
		<stop  offset="0" style="stop-color:#FF9200"/>
		<stop  offset="1" style="stop-color:#FFC400"/>
	</linearGradient>
	<path style="fill:url(#SVGID_00000052797546978317951370000008989963798402782867_);" d="M78.1,43.6c0,0-6.3-5.4-13.9-6.3
		c0,0-2.3,1.1-5.1,9.6c-2.7,8.4,2.3,25.1,2.3,25.1L78.1,43.6z"/>
	
		<linearGradient id="SVGID_00000160883028702280134290000008901400886314965668_" gradientUnits="userSpaceOnUse" x1="65.7781" y1="58.8366" x2="65.7781" y2="37.2611">
		<stop  offset="0" style="stop-color:#2370B9"/>
		<stop  offset="1" style="stop-color:#233050"/>
	</linearGradient>
	<path style="fill:url(#SVGID_00000160883028702280134290000008901400886314965668_);" d="M61.3,41.5c0,0,1.2-2.9,3-4.2
		c0,0,6.3,5.8,6,19.7l-1.8,1.9L61.3,41.5z"/>
	
		<linearGradient id="SVGID_00000080903540642453806270000012779061725444308609_" gradientUnits="userSpaceOnUse" x1="139.7841" y1="71.9363" x2="139.7841" y2="37.2611">
		<stop  offset="0" style="stop-color:#FF9200"/>
		<stop  offset="1" style="stop-color:#FFC400"/>
	</linearGradient>
	<path style="fill:url(#SVGID_00000080903540642453806270000012779061725444308609_);" d="M129.9,43.6c0,0,6.3-5.4,13.9-6.3
		c0,0,2.3,1.1,5.1,9.6s-2.3,25.1-2.3,25.1L129.9,43.6z"/>
	
		<linearGradient id="SVGID_00000104666180103400085480000002348258413189984686_" gradientUnits="userSpaceOnUse" x1="142.3023" y1="56.1086" x2="142.3023" y2="37.2585">
		<stop  offset="0" style="stop-color:#2370B9"/>
		<stop  offset="1" style="stop-color:#233050"/>
	</linearGradient>
	<path style="fill:url(#SVGID_00000104666180103400085480000002348258413189984686_);" d="M143.8,37.3c0,0-6.2,6.6-6.2,17.3l2.4,1.5
		l7-14.4C147,41.7,144.7,37.1,143.8,37.3z"/>
	
		<linearGradient id="SVGID_00000070834779247869339210000017058924720274539689_" gradientUnits="userSpaceOnUse" x1="146.9885" y1="73.5954" x2="146.9885" y2="39.5259">
		<stop  offset="0" style="stop-color:#45FFCD"/>
		<stop  offset="1" style="stop-color:#22E0FF"/>
	</linearGradient>
	<path style="fill:url(#SVGID_00000070834779247869339210000017058924720274539689_);" d="M139.8,55.4c0,0-1.6-9.1,4.4-15.9
		c0,0,6.8,3.2,9.6,15.1s-4.5,19-4.5,19L139.8,55.4z"/>
	
		<linearGradient id="SVGID_00000029044624752342324620000011312061729588485249_" gradientUnits="userSpaceOnUse" x1="-665.5919" y1="73.5954" x2="-665.5919" y2="39.5259" gradientTransform="matrix(-1 0 0 1 -604.5355 0)">
		<stop  offset="0" style="stop-color:#45FFCD"/>
		<stop  offset="1" style="stop-color:#22E0FF"/>
	</linearGradient>
	<path style="fill:url(#SVGID_00000029044624752342324620000011312061729588485249_);" d="M68.3,55.4c0,0,1.6-9.1-4.4-15.9
		c0,0-6.8,3.2-9.6,15.1s4.5,19,4.5,19L68.3,55.4z"/>
	
		<linearGradient id="SVGID_00000047045547671174424560000013894219665567541693_" gradientUnits="userSpaceOnUse" x1="100.2823" y1="121.1192" x2="111.3063" y2="33.3454">
		<stop  offset="0" style="stop-color:#FF9200"/>
		<stop  offset="1" style="stop-color:#FFC400"/>
	</linearGradient>
	<path style="fill:url(#SVGID_00000047045547671174424560000013894219665567541693_);" d="M148.1,105.9c-14,19.6-79.6,18.1-88.1,2.3
		c-5.6-10.3-5-25.9,0.4-40.2c7-18.8,22.3-35.4,42.5-35.4c23.8,0,42.1,23.7,47.6,45.3C153.3,88.9,152.8,99.3,148.1,105.9z"/>
	<path class="st23" d="M64.9,87.7c3.1,13.3,60.8,14.8,74.9,2.7c14.2-12.1-6.2-55-37.5-53.1C73.8,39,59.8,65.9,64.9,87.7z"/>
	
		<linearGradient id="SVGID_00000011749122820789025890000008808856804435711910_" gradientUnits="userSpaceOnUse" x1="103.8794" y1="97.0568" x2="103.8794" y2="35.6396">
		<stop  offset="0" style="stop-color:#0665BD"/>
		<stop  offset="1" style="stop-color:#1A1F77"/>
	</linearGradient>
	<path style="fill:url(#SVGID_00000011749122820789025890000008808856804435711910_);" d="M64.6,86.1c3.1,13.3,60.8,14.8,74.9,2.7
		c14.2-12.1-6.2-55-37.5-53.1C73.5,37.4,59.5,64.3,64.6,86.1z"/>
	
		<linearGradient id="SVGID_00000090996044457368436380000017884713286768512181_" gradientUnits="userSpaceOnUse" x1="104.1814" y1="120.3078" x2="104.1814" y2="67.9898">
		<stop  offset="0" style="stop-color:#9D68C2"/>
		<stop  offset="1" style="stop-color:#CCEDFF"/>
	</linearGradient>
	<path style="opacity:0.3;fill:url(#SVGID_00000090996044457368436380000017884713286768512181_);" d="M148.1,105.9
		c-14,19.6-79.6,18.1-88.1,2.3c-5.6-10.3-5-25.9,0.4-40.2c0,0,0,0,0,0c-0.2,0.8-5.7,20.9-0.1,29.7c5.7,9,28.4,7.8,52.8,6.7
		c24.4-1,32.4-4.6,36.5-11.5c3.2-5.4,0-17.3-1.5-22.2l2.4,7.1C153.3,88.9,152.8,99.3,148.1,105.9z"/>
	
		<linearGradient id="SVGID_00000109017443616732723530000003242450913620610231_" gradientUnits="userSpaceOnUse" x1="68.9197" y1="113.508" x2="137.0968" y2="113.508">
		<stop  offset="0" style="stop-color:#2370B9"/>
		<stop  offset="1" style="stop-color:#238FB9"/>
	</linearGradient>
	<path style="fill:url(#SVGID_00000109017443616732723530000003242450913620610231_);" d="M129.9,116.4c-7.5,2.3-19.2,3.9-26.9,3.9
		c-13.6,0-23.5-1.6-29-3.8h0c-3.6-1.4-5.4-3.2-5.1-4.9c0.2-1.1,2.8-2,7.1-2.8c12.4-2.2,38-2.9,51.8-0.8c1.2,0.2,2.3,0.4,3.3,0.6
		c0.2,0.1,0.4,0.1,0.6,0.2c0.1,0,0.1,0,0.1,0c2.4,0.6,4.1,1.3,4.8,2.2c0.2,0.2,0.3,0.5,0.4,0.7C137.5,113.3,134.5,114.9,129.9,116.4
		z"/>
	
		<linearGradient id="SVGID_00000102509373431045959620000011023488469153348786_" gradientUnits="userSpaceOnUse" x1="103.0082" y1="116.5466" x2="103.0082" y2="106.7193">
		<stop  offset="0" style="stop-color:#2370B9"/>
		<stop  offset="1" style="stop-color:#233050"/>
	</linearGradient>
	<path style="opacity:0.5;fill:url(#SVGID_00000102509373431045959620000011023488469153348786_);" d="M129.9,116.4
		c-3-1.3-22.2-9.3-37.7-5.8c-16.9,3.8-18.2,6-18.2,6h0c-3.6-1.4-5.4-3.2-5.1-4.9c0.2-1.1,2.8-2,7.1-2.8c12.4-2.2,38-2.9,51.8-0.8
		c1.4,0.3,2.8,0.5,3.9,0.8c0.1,0,0.1,0,0.1,0c2.4,0.6,4.1,1.3,4.8,2.2c0.2,0.2,0.3,0.5,0.4,0.7C137.5,113.3,134.5,114.9,129.9,116.4
		z"/>
	
		<linearGradient id="SVGID_00000083783720044483145040000002329980638413644474_" gradientUnits="userSpaceOnUse" x1="75.9925" y1="110.5184" x2="131.1011" y2="110.5184">
		<stop  offset="0" style="stop-color:#232D87"/>
		<stop  offset="1" style="stop-color:#2370B9"/>
	</linearGradient>
	<path style="fill:url(#SVGID_00000083783720044483145040000002329980638413644474_);" d="M131.1,108.6c-3.2,3.1-18.7,5.7-27.5,5.7
		c-15.8,0-25.4-2.5-27.6-5.5C89.4,106.4,118.5,105.8,131.1,108.6z"/>
	
		<linearGradient id="SVGID_00000072259766314445753820000004835098977682756224_" gradientUnits="userSpaceOnUse" x1="68.1059" y1="108.1775" x2="68.1059" y2="94.3898">
		<stop  offset="0" style="stop-color:#2370B9"/>
		<stop  offset="1" style="stop-color:#233050"/>
	</linearGradient>
	<path style="opacity:0.5;fill:url(#SVGID_00000072259766314445753820000004835098977682756224_);" d="M60,108.2
		c0,0,2.8-3.2,8.2-5.8c5.4-2.6,10.4-4.6,11.2-6.7c0.8-2.1-14.9-0.9-14.9-0.9l-7.8,3.4C56.7,98.1,58,104.4,60,108.2z"/>
	
		<linearGradient id="SVGID_00000009551886998667052700000012340378774321898926_" gradientUnits="userSpaceOnUse" x1="123.7834" y1="69.4145" x2="123.7834" y2="51.4886">
		<stop  offset="0" style="stop-color:#45FFCD"/>
		<stop  offset="1" style="stop-color:#22E0FF"/>
	</linearGradient>
	<path style="fill:url(#SVGID_00000009551886998667052700000012340378774321898926_);" d="M115.3,66.3c2.1,3.7,14.7,4.5,17.3,0
		c1.6-2.7-4.2-15.7-11.5-14.8C113.8,52.4,114.3,64.6,115.3,66.3z"/>
	
		<linearGradient id="SVGID_00000067206328244149768020000002123711832445981600_" gradientUnits="userSpaceOnUse" x1="-586.2654" y1="69.4796" x2="-586.2654" y2="51.4781" gradientTransform="matrix(-1 0 0 1 -502.0395 0)">
		<stop  offset="0" style="stop-color:#45FFCD"/>
		<stop  offset="1" style="stop-color:#22E0FF"/>
	</linearGradient>
	<path style="fill:url(#SVGID_00000067206328244149768020000002123711832445981600_);" d="M92.7,66.2C90.6,69.9,76,70.9,75.4,67
		c-0.9-6.3,3.7-16.3,11-15.5C93.7,52.4,93.7,64.4,92.7,66.2z"/>
	<path class="st32" d="M94.2,73.4c0,0,2.7,0.7,10.3,0.7s11.5-1.1,11.5-1.1s-3.3,4.5-11.5,4.5S94.2,73.4,94.2,73.4z"/>
	
		<linearGradient id="SVGID_00000096760574188738443050000007283025830269171100_" gradientUnits="userSpaceOnUse" x1="49.3878" y1="99.168" x2="54.4407" y2="58.9365">
		<stop  offset="0" style="stop-color:#2370B9"/>
		<stop  offset="1" style="stop-color:#233050"/>
	</linearGradient>
	<path style="fill:url(#SVGID_00000096760574188738443050000007283025830269171100_);" d="M53.6,58.8c0,0,4,2.6,1.4,8.6
		c0,0-18.9,10.3-17.8,21.5c0.9,9.4,27,4.8,27,4.8l0.9,3.1c0,0-22.2,4.3-29.8-0.9c0,0-2.6-6.2,3.9-17.3
		C45.7,67.6,53.6,58.8,53.6,58.8z"/>
	
		<linearGradient id="SVGID_00000062875703487325399300000001822327949961299125_" gradientUnits="userSpaceOnUse" x1="62.4163" y1="22.9712" x2="62.4163" y2="11.6306" gradientTransform="matrix(0.9734 0.2292 -0.2292 0.9734 13.5164 62.7407)">
		<stop  offset="0" style="stop-color:#DD1A8F"/>
		<stop  offset="1" style="stop-color:#FE117E"/>
	</linearGradient>
	<path style="fill:url(#SVGID_00000062875703487325399300000001822327949961299125_);" d="M61,92.9c-2.4,2.7,2.7,5.6,6.8,6.1
		c4.7,0.5,12.9-1.3,12.4-6C79.7,88.3,66.5,86.6,61,92.9z"/>
	
		<linearGradient id="SVGID_00000083808126801245761180000009449677475236057220_" gradientUnits="userSpaceOnUse" x1="74.059" y1="50.0898" x2="136.8893" y2="50.0898">
		<stop  offset="0" style="stop-color:#000000"/>
		<stop  offset="1" style="stop-color:#6A9BFF"/>
	</linearGradient>
	<path style="opacity:0.5;fill:url(#SVGID_00000083808126801245761180000009449677475236057220_);" d="M74.1,52.4
		c-0.7,4.3,8.9,4.1,22,3.7c15.7-0.5,31.5,13,40.7,3.3c1.5-1.6-13.5-22.6-31.7-22.2C86.9,37.7,74.7,48.7,74.1,52.4z"/>
	
		<linearGradient id="SVGID_00000170258483443659095910000016352408915977534626_" gradientUnits="userSpaceOnUse" x1="82.9414" y1="91.444" x2="127.5908" y2="91.444">
		<stop  offset="0" style="stop-color:#000000"/>
		<stop  offset="1" style="stop-color:#6A9BFF"/>
	</linearGradient>
	<path style="opacity:0.5;fill:url(#SVGID_00000170258483443659095910000016352408915977534626_);" d="M83,90
		c-0.8,3.1,5.7,6.3,21.8,5.5c19.5-1,23.6-5,22.6-6.2c-0.6-0.7-6.4,3-22.4-0.5C94.5,86.5,83.9,86.7,83,90z"/>
	<path class="st12" d="M114.1,35.3c-1.4,0.3,10.2,6.5,10.7,5.7C125.2,40.3,117.9,34.4,114.1,35.3z"/>
	<path class="st12" d="M136.3,39.9c-1.2,0.6-1.1,1.9,1.3,1.6c2.4-0.3,3.7-2.2,3.4-2.6C140.8,38.6,137.6,39.2,136.3,39.9z"/>
	
		<linearGradient id="SVGID_00000103953941870723902190000006252606878000010904_" gradientUnits="userSpaceOnUse" x1="69.7079" y1="93.9148" x2="69.7079" y2="89.0998">
		<stop  offset="0" style="stop-color:#D93DE3"/>
		<stop  offset="1" style="stop-color:#FF6DBA"/>
	</linearGradient>
	<path style="fill:url(#SVGID_00000103953941870723902190000006252606878000010904_);" d="M61.3,93.4c-0.1,0.8,16.5,1,16.9-2
		C78.5,88.5,62.4,87.5,61.3,93.4z"/>
	
		<linearGradient id="SVGID_00000098217835044122707710000012454186300079104424_" gradientUnits="userSpaceOnUse" x1="67.1972" y1="61.4219" x2="67.1972" y2="38.6465" gradientTransform="matrix(0.9977 6.840000e-02 -6.840000e-02 0.9977 5.1535 18.4769)">
		<stop  offset="0" style="stop-color:#000000"/>
		<stop  offset="1" style="stop-color:#00E3FF"/>
	</linearGradient>
	<path style="opacity:0.2;fill:url(#SVGID_00000098217835044122707710000012454186300079104424_);" d="M65.4,81.7
		c0,0-0.7-4.5,0.1-10.6c0.8-6.1,2.4-10,3.4-9.5c1,0.6,0.8,6.5,1.4,12.4c0.4,4.6,1.3,8.9,1.3,8.9S67.4,86.9,65.4,81.7z"/>
	
		<linearGradient id="SVGID_00000045576583162367256100000011895475686077514125_" gradientUnits="userSpaceOnUse" x1="141.5734" y1="48.0489" x2="150.4377" y2="48.0489">
		<stop  offset="0" style="stop-color:#000000"/>
		<stop  offset="1" style="stop-color:#D4E2FF"/>
	</linearGradient>
	<path style="opacity:0.72;fill:url(#SVGID_00000045576583162367256100000011895475686077514125_);" d="M149.3,44.9
		c0,0-2.2-2.7-5.2-2c-3,0.7-3.2,10.2-1.4,10.4c1.8,0.2,2.6-5.2,3.9-6.1c1.4-0.9,3.8-0.5,3.8-0.5L149.3,44.9z"/>
	
		<linearGradient id="SVGID_00000178204342518841064930000015313484010127013560_" gradientUnits="userSpaceOnUse" x1="56.5401" y1="46.6806" x2="66.3092" y2="46.6806">
		<stop  offset="0" style="stop-color:#D4E2FF"/>
		<stop  offset="1" style="stop-color:#000000"/>
	</linearGradient>
	<path style="opacity:0.72;fill:url(#SVGID_00000178204342518841064930000015313484010127013560_);" d="M56.5,48.2
		c0,0,1.2-1.3,3.8-0.9c2.6,0.4,4.1,5.8,5.4,5.2c1.3-0.5,0.4-9.2-3.2-11.7C62.6,40.8,58,44.7,56.5,48.2z"/>
	
		<linearGradient id="SVGID_00000122715215978370891260000013115279559718786480_" gradientUnits="userSpaceOnUse" x1="48.42" y1="66.0592" x2="48.42" y2="54.8011" gradientTransform="matrix(0.9999 1.650000e-02 -1.650000e-02 0.9999 1.2638 5.1245)">
		<stop  offset="0" style="stop-color:#2370B9"/>
		<stop  offset="1" style="stop-color:#238FB9"/>
	</linearGradient>
	<path style="fill:url(#SVGID_00000122715215978370891260000013115279559718786480_);" d="M53,60.8c0,0-9.2,10.3-8.6,11.1
		C44.9,72.6,53.6,61.9,53,60.8z"/>
	<g>
		
			<linearGradient id="SVGID_00000122698238235225058100000011085029153551389108_" gradientUnits="userSpaceOnUse" x1="99.0156" y1="185.1671" x2="108.5926" y2="108.914">
			<stop  offset="0" style="stop-color:#FF9200"/>
			<stop  offset="1" style="stop-color:#FFC400"/>
		</linearGradient>
		<path style="fill:url(#SVGID_00000122698238235225058100000011085029153551389108_);" d="M129.4,166.6
			c-1.9,11.2-12,18.7-26.4,18.7c-12.6,0-23.2-4.7-26-15c-2.8-10.3-1.7-29.4,2-41.2c0.6-1.8,1.2-3.5,2-5.1l0,0
			c0.7-1.5,1.5-2.9,2.4-4.2c0,0,0,0,0,0c4.6-6.9,11.3-11.4,18.9-11.4c7.9,0,13.9,3.2,18.1,8.1c1.9,2.2,3.4,4.8,4.5,7.5
			c1.2,3.1,2.3,6.5,3.1,9.9c0,0,0,0.1,0,0.1C130.6,144.8,131.1,156.5,129.4,166.6z"/>
		
			<linearGradient id="SVGID_00000116939398931607039690000005626693231281679282_" gradientUnits="userSpaceOnUse" x1="102.3207" y1="184.05" x2="102.3207" y2="135.7317">
			<stop  offset="0" style="stop-color:#2370B9"/>
			<stop  offset="1" style="stop-color:#233050"/>
		</linearGradient>
		<path style="fill:url(#SVGID_00000116939398931607039690000005626693231281679282_);" d="M77.5,159.9c2.1-15.1,14.3-25.3,27.7-24
			c14.5,1.4,22.3,15.2,22.1,27.1c-0.2,11.9-8.9,21.1-24.4,21.1S75.5,174,77.5,159.9z"/>
		
			<radialGradient id="SVGID_00000152972029651495950180000009669267602349043871_" cx="103.2892" cy="177.8013" r="36.8712" gradientUnits="userSpaceOnUse">
			<stop  offset="0" style="stop-color:#45FFCD"/>
			<stop  offset="1" style="stop-color:#2370B9"/>
		</radialGradient>
		<path style="fill:url(#SVGID_00000152972029651495950180000009669267602349043871_);" d="M77.7,161.1
			c2.1-15.1,14.3-25.3,27.7-24.1c14.5,1.4,22.3,15.2,22.1,27.1c-0.2,11.9-8.9,21.1-24.4,21.1C87.5,185.3,75.7,175.2,77.7,161.1z"/>
		
			<linearGradient id="SVGID_00000022518922438733899110000007672138952453032109_" gradientUnits="userSpaceOnUse" x1="101.8496" y1="123.2988" x2="101.8496" y2="108.3432">
			<stop  offset="0" style="stop-color:#2370B9"/>
			<stop  offset="1" style="stop-color:#233050"/>
		</linearGradient>
		<path style="opacity:0.5;fill:url(#SVGID_00000022518922438733899110000007672138952453032109_);" d="M120.4,116.4
			c-3.1,4.8-20,7.6-29.8,6.7c-8.5-0.8-7.2-3.1-7.2-3.4c0,0,0,0,0,0c4.6-6.9,11.3-11.4,18.9-11.4
			C110.2,108.3,116.3,111.6,120.4,116.4z"/>
		<path class="st12" d="M114.4,124.8c-0.8,0.3-0.8,6.6,0,7.6c0.8,1,2.1,0.7,2.6-0.8C117.4,130.1,115.5,124.4,114.4,124.8z"/>
		<path class="st12" d="M115.8,134.1c-0.7,0.2-0.7,1.7-0.4,2.3c0.3,0.6,1.4,0.4,1.6-0.2C117.2,135.4,116.5,133.9,115.8,134.1z"/>
		
			<linearGradient id="SVGID_00000033331414047394245780000002842244426684924550_" gradientUnits="userSpaceOnUse" x1="82.7667" y1="148.9509" x2="124.7836" y2="148.9509">
			<stop  offset="0" style="stop-color:#000000"/>
			<stop  offset="1" style="stop-color:#D4E2FF"/>
		</linearGradient>
		<path style="opacity:0.72;fill:url(#SVGID_00000033331414047394245780000002842244426684924550_);" d="M82.8,151.6
			c2.6,4.1,13.1,1.9,24.9,3.1s13.9,5,16.4,4.2c2.5-0.8-1.4-18.6-19.2-19.8C87.3,137.8,82.2,150.5,82.8,151.6z"/>
	</g>
	<path class="st12" d="M68.2,141.5c-1.3-0.4-3.4,5.6-3.3,6.3c0.1,0.8,2.6-1.6,3.1-2.6C68.8,143.9,69.5,141.8,68.2,141.5z"/>
	<path class="st12" d="M131.4,138c-0.7,0-0.8,3.3-0.6,4.7c0.2,1.4,1.3,2.6,1.7,2.7C132.9,145.4,132.9,138,131.4,138z"/>
	
		<radialGradient id="SVGID_00000145760528625284293410000002163701996790386584_" cx="99.5922" cy="114.5566" r="39.3857" gradientTransform="matrix(1 0 0 0.2225 0 200.886)" gradientUnits="userSpaceOnUse">
		<stop  offset="0" style="stop-color:#4C5354"/>
		<stop  offset="8.237104e-02" style="stop-color:#626768"/>
		<stop  offset="0.2824" style="stop-color:#919494"/>
		<stop  offset="0.4356" style="stop-color:#AFB0B0"/>
		<stop  offset="0.5225" style="stop-color:#BABABA"/>
		<stop  offset="0.6312" style="stop-color:#C4C4C4"/>
		<stop  offset="0.8141" style="stop-color:#DEDEDE"/>
		<stop  offset="1" style="stop-color:#FFFFFF"/>
	</radialGradient>
	
		<ellipse style="opacity:0.5;fill:url(#SVGID_00000145760528625284293410000002163701996790386584_);" cx="99.6" cy="226.4" rx="39.4" ry="8.8"/>
	<g class="st48">
		<path class="st32" d="M40.1,9.5c-2.3,2.1-1.6,90.1,2.4,92.4s121,2.3,124.7-2.1c3.7-4.4,0.7-87.2-1.7-90.8
			C163.2,5.4,44.2,6,40.1,9.5z"/>
		
			<radialGradient id="SVGID_00000036964560816115368690000016759393917993601727_" cx="106.0475" cy="86.6211" r="94.2352" gradientUnits="userSpaceOnUse">
			<stop  offset="0" style="stop-color:#45FFCD"/>
			<stop  offset="1" style="stop-color:#2370B9"/>
		</radialGradient>
		<path style="fill:url(#SVGID_00000036964560816115368690000016759393917993601727_);" d="M40.1,7.7c-2.3,2.1-1.6,90.1,2.4,92.4
			s121,2.3,124.7-2.1c3.7-4.4,0.7-87.2-1.7-90.8C163.2,3.6,44.2,4.2,40.1,7.7z"/>
	</g>
	<g>
		<g>
			
				<rect x="40.2" y="14.2" transform="matrix(1 -7.799763e-03 7.799763e-03 1 -0.1095 0.8102)" class="st12" width="127.2" height="0.5"/>
		</g>
		<g>
			
				<rect x="40.2" y="23.5" transform="matrix(1 -7.799763e-03 7.799763e-03 1 -0.1822 0.8105)" class="st12" width="127.2" height="0.5"/>
		</g>
		<g>
			
				<rect x="40.2" y="32.8" transform="matrix(1 -7.799763e-03 7.799763e-03 1 -0.2549 0.8107)" class="st12" width="127.2" height="0.5"/>
		</g>
		<g>
			
				<rect x="40.2" y="42.2" transform="matrix(1 -7.799763e-03 7.799763e-03 1 -0.3276 0.811)" class="st12" width="127.2" height="0.5"/>
		</g>
		<g>
			
				<rect x="40.2" y="51.5" transform="matrix(1 -7.799763e-03 7.799763e-03 1 -0.4003 0.8113)" class="st12" width="127.2" height="0.5"/>
		</g>
		<g>
			
				<rect x="40.2" y="60.8" transform="matrix(1 -7.799763e-03 7.799763e-03 1 -0.473 0.8116)" class="st12" width="127.2" height="0.5"/>
		</g>
		<g>
			
				<rect x="40.2" y="70.1" transform="matrix(1 -7.799763e-03 7.799763e-03 1 -0.5457 0.8119)" class="st12" width="127.2" height="0.5"/>
		</g>
		<g>
			
				<rect x="40.2" y="79.4" transform="matrix(1 -7.799763e-03 7.799763e-03 1 -0.6184 0.8122)" class="st12" width="127.2" height="0.5"/>
		</g>
		<g>
			
				<rect x="40.2" y="88.8" transform="matrix(1 -7.799763e-03 7.799763e-03 1 -0.6911 0.8124)" class="st12" width="127.2" height="0.5"/>
		</g>
	</g>
	<path class="st12" d="M99.8,46.9c-3.4,0.8-2,22,0,22.2c2,0.2,13.6-7.4,14.2-11.2C114.5,54.2,103,46.2,99.8,46.9z"/>
	<g>
		<path class="st12" d="M105.1,74.5c-10.6,0-17.8-6.1-17.8-15.2c0-9.8,8-17.8,17.8-17.8c9.8,0,17.8,8,17.8,17.8
			C122.9,68.4,115.7,74.5,105.1,74.5z M105.1,42.5c-9.3,0-16.8,7.5-16.8,16.8c0,9.8,8.4,14.2,16.8,14.2c8.4,0,16.8-4.4,16.8-14.2
			C121.9,50,114.3,42.5,105.1,42.5z"/>
	</g>
</g>
</svg>
