<?xml version="1.0" encoding="utf-8"?>
<!-- Generator: Adobe Illustrator 26.5.0, SVG Export Plug-In . SVG Version: 6.00 Build 0)  -->
<svg version="1.1" id="Layer_1" xmlns="http://www.w3.org/2000/svg" xmlns:xlink="http://www.w3.org/1999/xlink" x="0px" y="0px"
	 viewBox="0 0 324.2 332.4" style="enable-background:new 0 0 324.2 332.4;" xml:space="preserve">
<style type="text/css">
	.st0{opacity:0.3;fill:url(#SVGID_1_);}
	.st1{opacity:0.4;}
	.st2{fill:#A4A3A3;}
	.st3{opacity:0.5;fill:#A4A3A3;}
	.st4{opacity:0.5;fill:url(#SVGID_00000155130644482217266760000005507615467573329561_);}
	.st5{fill:url(#SVGID_00000019659457401179207400000003394060939443528638_);}
	.st6{fill:url(#SVGID_00000010297819686965717570000009832928268532861578_);}
	.st7{fill:url(#SVGID_00000177443417023429589760000008979316906805799558_);}
	.st8{fill:url(#SVGID_00000156557521948355018340000018336683800860864435_);}
	.st9{fill:url(#SVGID_00000138536407894737234220000001433432783612840103_);}
	.st10{opacity:0.3;fill:url(#SVGID_00000097477499186738212860000018248391232092401575_);}
	.st11{fill:#FFFFFF;}
	.st12{opacity:0.3;fill:url(#SVGID_00000055699928875105055210000006204611540698864006_);}
	.st13{fill:url(#SVGID_00000097496667399126097740000014437714411971756190_);}
	.st14{fill:url(#SVGID_00000088101211235632680350000007210571110872374691_);}
	.st15{opacity:0.3;fill:url(#SVGID_00000106144414343108806370000017013852250133889425_);}
	.st16{fill:url(#SVGID_00000047037908122747369070000000318166817684333700_);}
	.st17{fill:url(#SVGID_00000128478548967536962710000012717165513305847484_);}
	.st18{opacity:0.5;fill:url(#SVGID_00000022531232723102382990000004184275958372972430_);}
	.st19{fill:url(#SVGID_00000102510473485682596770000009251777593768358297_);}
	.st20{fill:url(#SVGID_00000074415580531940825560000004438442790431962035_);}
	.st21{fill:url(#SVGID_00000165935460269338765260000010902552318638521505_);}
	.st22{fill:url(#SVGID_00000121982304822336832710000013712751770047114135_);}
	.st23{fill:url(#SVGID_00000062907919543466910570000012604366515394767024_);}
	.st24{fill:url(#SVGID_00000047774023612697701080000002195914710545552558_);}
	.st25{fill:url(#SVGID_00000028323582010302748190000006723487190980490422_);}
	.st26{fill:url(#SVGID_00000056408541821298594140000017505060874754790842_);}
	.st27{fill:#DFE3FB;}
	.st28{fill:url(#SVGID_00000091704080855675347550000007271980180715205780_);}
	.st29{opacity:0.3;fill:url(#SVGID_00000049916072048250834570000012737272442061467552_);}
	.st30{fill:url(#SVGID_00000013895383466208400870000013844342422152135091_);}
	.st31{opacity:0.5;fill:url(#SVGID_00000165202925452937350770000013899433327285629081_);}
	.st32{fill:url(#SVGID_00000112604416179849517240000001551939552923208858_);}
	.st33{fill:url(#SVGID_00000125584329359289477930000001574374008544342667_);}
	.st34{fill:url(#SVGID_00000029752931308052460950000008089596520817510334_);}
	.st35{fill:url(#SVGID_00000140718030958440924540000000044075885924426674_);}
	.st36{opacity:0.5;fill:url(#SVGID_00000148624210606815509290000012058163614721059518_);}
	.st37{fill:url(#SVGID_00000118375426651920145710000017731930461962634888_);}
	.st38{fill:url(#SVGID_00000127726803293048134940000017262103569649359257_);}
	.st39{fill:url(#SVGID_00000034083349016242207990000015121255475626067632_);}
	.st40{fill:#2F95CD;}
	.st41{fill:url(#SVGID_00000085971029494167471590000014064248966833754288_);}
	.st42{fill:url(#SVGID_00000123434151529293525520000011083965963881059495_);}
	.st43{opacity:0.5;fill:url(#SVGID_00000029036228406119117430000004685690348314490242_);}
	.st44{opacity:0.5;fill:url(#SVGID_00000116216609575947699770000014306059690937832092_);}
	.st45{opacity:0.3;fill:url(#SVGID_00000132054530628431736610000018052359430249721744_);}
	.st46{opacity:0.3;fill:url(#SVGID_00000101093624502998885210000008379373447889676677_);}
	.st47{fill:url(#SVGID_00000169537912988071729740000016905852072206089657_);}
	.st48{fill:url(#SVGID_00000165193069210406403250000017599416236095244463_);}
	.st49{opacity:0.5;fill:url(#SVGID_00000083063970328103268210000015331483045697238408_);}
	.st50{opacity:0.72;fill:url(#SVGID_00000074407988945433609980000004322519378466848661_);}
	.st51{opacity:0.3;fill:url(#SVGID_00000128474397122667949240000002882328539481993148_);}
	.st52{fill:url(#SVGID_00000092439443758519683970000013873517233029859728_);}
	.st53{fill:url(#SVGID_00000070837775484554875310000016302915202345461139_);}
	.st54{opacity:0.5;fill:url(#SVGID_00000101785959838809308480000009021907546424785801_);}
	.st55{fill:url(#SVGID_00000024716504481602664230000016510268354949210799_);}
	.st56{fill:url(#SVGID_00000146471353887916705820000015672826524067503036_);}
	.st57{fill:url(#SVGID_00000044893449560213963690000007116564966411090054_);}
	.st58{opacity:0.2;fill:url(#SVGID_00000044166317277606878140000008246054859176622750_);}
	.st59{opacity:0.72;fill:url(#SVGID_00000106136994506397724710000003772366401949756296_);}
	.st60{fill:url(#SVGID_00000045598411125902303130000000789287634404613516_);}
	.st61{opacity:0.72;fill:url(#SVGID_00000024709067808162087270000016745271148195145131_);}
	.st62{opacity:0.72;fill:url(#SVGID_00000031172532890147183730000002112653203088641692_);}
	.st63{fill:url(#SVGID_00000039820096022515341860000008943945129971726473_);}
</style>
<g>
	<linearGradient id="SVGID_1_" gradientUnits="userSpaceOnUse" x1="270.8365" y1="324.1362" x2="270.8365" y2="324.0728">
		<stop  offset="0" style="stop-color:#2370B9"/>
		<stop  offset="1" style="stop-color:#CCEDFF"/>
	</linearGradient>
	<path class="st0" d="M270.8,324.1C270.8,324.1,270.9,324.1,270.8,324.1C270.8,324.1,270.8,324.1,270.8,324.1z"/>
	<g class="st1">
		<path class="st2" d="M275.9,232.5c-3.7,7.4-8.1,13.6-13,18.1c-1.4,1.3-2.9,2.5-4.5,3.5c-1.4,0.9-2.9,1.7-4.5,2.4
			c-22.3,9.2-45.1-11.8-70.6-9.3c-21.4,2.1-36.8,14-50.4,23.9c-4.8,3.5-9.4,6.8-14,9.4c-1.3,0.7-2.6,1.4-3.9,2
			c-1.4,0.6-2.9,1.2-4.4,1.7c0,0,0,0,0,0l0,0c-19.8,6.8-53.1,6.5-67.9-8.1C27.2,260.8,8.4,211.3,51,147.5
			c47.3-70.9,176.6-80.7,211.2-57.2C297.9,114.5,296.5,191.8,275.9,232.5z"/>
		<g>
			<path class="st2" d="M278.6,119.3c3.9-3.1,7.1-7.2,9.2-11.8c0.3-0.7,0.7-1.5,0.7-2.3c0-1.6-1.1-2.9-2.5-3.8
				c-3.2-2-7.8-1.6-10.8,0.8c-3,2.4-4.6,6.4-4.3,10.2c0.1,2.1,0.9,4.3,2.5,5.6c1.6,1.4,4.2,1.7,5.8,0.2c0-0.7-0.9-1.1-1.5-0.7
				L278.6,119.3z"/>
			<path class="st2" d="M284,219.6c3.9-3.1,7.1-7.2,9.2-11.8c0.3-0.7,0.7-1.5,0.7-2.3c0-1.6-1.1-2.9-2.5-3.8
				c-3.2-2-7.8-1.6-10.8,0.8c-3,2.4-4.6,6.4-4.3,10.2c0.1,2.1,0.9,4.3,2.5,5.6c1.6,1.4,4.2,1.7,5.8,0.2c0-0.7-0.9-1.1-1.5-0.7
				L284,219.6z"/>
			<path class="st2" d="M279.5,103.8c2.1,0,4.1-1.2,5.1-3c-1.1-1.8-2.9-3.2-4.9-3.3c-2.1-0.1-4.2,1.6-4.1,3.6s3,3.5,4.4,2
				L279.5,103.8z"/>
			<path class="st2" d="M291.3,89.5c0.8,0.5,1.8,0.7,2.7,0.4c-0.1-0.4-0.2-0.8-0.5-1.2c-0.3-0.3-0.7-0.6-1.1-0.5
				c-0.6,0.2-0.8,0.8-0.9,1.4c-0.1-0.1-0.2-0.3-0.3-0.4L291.3,89.5z"/>
			<path class="st2" d="M289.5,92.9c-0.2,0.2-0.4,0.4-0.6,0.6c-0.2-0.7,0.3-1.4,0.8-2c0.3-0.3,0.6-0.7,1-0.5
				c0.3,0.1,0.4,0.4,0.6,0.6c0.4,0.4,1.3,0.4,1.3,1c0,0.3-0.3,0.6-0.6,0.7c-0.3,0.1-0.7,0-1-0.1c-0.7-0.2-1.4-0.3-2.1-0.5
				L289.5,92.9z"/>
			<path class="st3" d="M316,52.3c0.6-0.1,0.5-1.1-0.1-1.4c-0.6-0.2-1.2,0-1.7,0.3c0.2,0.8,1,1.4,1.8,1.4L316,52.3z"/>
			<path class="st2" d="M299.5,38.6c-0.3,0-0.5-0.3-0.5-0.5c0-0.3,0.2-0.5,0.4-0.7c0.1-0.1,0.3-0.2,0.4-0.3c0.4-0.1,0.8,0.2,0.8,0.6
				c0.1,0.4-0.3,0.8-0.6,0.8c-0.4,0.1-0.8-0.2-0.9-0.6L299.5,38.6z"/>
			<path class="st2" d="M288.9,80.9c-0.2,0.6,0.5,1.2,1.1,1c0.1-0.3,0.1-0.6,0-0.9c-0.1-0.3-0.4-0.5-0.7-0.4s-0.5,0.5-0.3,0.7
				L288.9,80.9z"/>
			<path class="st2" d="M286.9,94.2c0.4,0.6,1.2,0.9,1.9,0.9c-0.1-0.6-0.1-1.2-0.2-1.8c0-0.3-0.1-0.6-0.2-0.8
				c-0.3-0.4-1.1-0.4-1.4,0c-0.4,0.4-0.4,1.1-0.1,1.5L286.9,94.2z"/>
			<path class="st3" d="M299.5,46.8c0-0.2,0-0.4,0-0.6c-0.3-0.1-0.7-0.1-0.9,0.2c-0.2,0.3-0.1,0.7,0.2,0.9
				C299.1,47.5,299.5,47.2,299.5,46.8L299.5,46.8z"/>
			<path class="st2" d="M289.1,85.2c-0.3-0.2-0.8,0.2-0.8,0.6c-0.1,0.4,0.1,0.8,0.1,1.2c0,0.4-0.2,0.8-0.5,1
				c-0.2,0.1-0.4,0.2-0.7,0.2c-0.1-0.1-0.2-0.2-0.3-0.3c-0.4-0.6-0.8-1.3-0.9-2.1s0.3-1.6,1-1.9c0.5-0.2,1.1-0.2,1.5,0.2
				c0.4,0.3,0.7,0.9,0.6,1.4L289.1,85.2z"/>
			<path class="st2" d="M296.2,92.9c0.3,0.4,1,0.3,1.3,0c0.4-0.3,0.4-0.9,0.3-1.4c-0.1-0.2-0.2-0.4-0.4-0.4c-0.1,0-0.2,0.1-0.3,0.3
				c-0.3,0.5-0.7,1-1,1.5L296.2,92.9z"/>
			<path class="st2" d="M306.7,72.5c-0.9-0.3-1.3-1.7-0.6-2.4c0.7,0.3,1.4,0.7,1.8,1.4c0.4,0.7,0.2,1.7-0.5,2
				c-0.4-0.2-0.8-0.3-1.3-0.5L306.7,72.5z"/>
			<path class="st2" d="M262.3,135.6c-0.1,0.2-0.4,0.3-0.6,0.2c-0.2-0.1-0.3-0.3-0.4-0.5c-0.1-0.2-0.1-0.4-0.1-0.5
				c0-0.4,0.4-0.7,0.7-0.7c0.4,0,0.7,0.2,0.9,0.5c0.1,0.1,0.2,0.3,0.1,0.5c0,0.2-0.2,0.3-0.4,0.3L262.3,135.6z"/>
			<path class="st2" d="M294,78.8c0.2,0,0.4,0,0.6,0c0-0.3,0.1-0.7-0.1-0.9c-0.2-0.3-0.7-0.3-0.8,0c0,0.1,0,0.2,0,0.4
				c0.1,0.4,0.2,0.7,0.3,1.1L294,78.8z"/>
			<path class="st2" d="M298.4,68.5c0.5-0.1,1-0.3,1.4-0.6c0.4-0.3,0.7-0.9,0.5-1.4c-0.1-0.2-0.3-0.4-0.5-0.6
				c-0.6-0.4-1.6-0.2-2,0.5C297.4,67.2,297.7,68.1,298.4,68.5L298.4,68.5z"/>
			<path class="st2" d="M303.5,67c0.2-0.3,0.5-0.5,0.7-0.8c-0.2-0.2-0.4-0.4-0.6-0.5c-0.5,0.2-0.6,0.9-0.4,1.3L303.5,67z"/>
			<path class="st2" d="M312.2,99c0.9-1.8,1.4-3.8,1.4-5.8c0-0.3,0-0.7-0.1-1c-0.3-0.6-0.9-0.9-1.5-1c-1.5-0.2-3.1,0.7-3.8,2.1
				c-0.7,1.4-0.6,3.1,0.2,4.4c0.4,0.7,1,1.4,1.8,1.6s1.8-0.1,2.1-0.9c-0.1-0.2-0.5-0.2-0.7,0L312.2,99z"/>
			<path class="st2" d="M271.5,90.8c1,0,1.9-0.6,2.4-1.4c-0.3-0.3-0.7-0.5-1.1-0.7c-0.4-0.1-0.9,0-1.2,0.3c-0.4,0.5-0.1,1.1,0.1,1.7
				c-0.2-0.1-0.3-0.1-0.5-0.2L271.5,90.8z"/>
			<path class="st2" d="M272.8,84c0.2-0.1,0.5-0.3,0.6-0.5c0.1-0.2,0-0.5,0-0.8c-0.1-0.7-0.2-1.4-0.2-2.1c-0.7,0.9-1.5,1.8-2.2,2.8
				c-0.1,0.1-0.1,0.1-0.2,0.2c-0.3,0.2-0.6-0.1-0.9-0.2c-0.5,0-0.8,0.5-0.9,0.9C267.9,87.6,271.5,84.7,272.8,84z"/>
			<path class="st2" d="M270.7,97.1c0.7,0.2,1.5,0,2.1-0.4c-0.4-0.4-0.8-0.9-1.2-1.3c-0.2-0.2-0.4-0.4-0.7-0.5
				c-0.5-0.2-1.1,0.3-1.1,0.8c0,0.5,0.4,1.1,0.9,1.3L270.7,97.1z"/>
			<path class="st2" d="M277.4,90.5c0.5,0.1,1-0.3,1.1-0.8c0.1-0.5-0.2-1-0.6-1.3c-0.2-0.1-0.4-0.2-0.6-0.1
				c-0.1,0.1-0.1,0.3-0.1,0.4c0,0.6,0,1.2,0.1,1.8L277.4,90.5z"/>
			<path class="st2" d="M282.6,97.2c0.5-0.1,1-0.3,1.4-0.6c0.4-0.3,0.7-0.9,0.5-1.4c-0.1-0.2-0.3-0.4-0.5-0.6
				c-0.6-0.4-1.6-0.2-2,0.5C281.6,95.8,281.9,96.8,282.6,97.2L282.6,97.2z"/>
			<path class="st2" d="M303.6,82c0.1-0.5-0.4-0.9-0.9-1.2c-0.5-0.2-1-0.6-1-1.1c0-0.1,0-0.3,0.1-0.4c0.3-0.2,0.7,0.1,1,0.3
				c0.3,0.1,0.6,0.1,0.9,0.2c0.7,0.1,1.2,0.7,1.3,1.4c-0.1,0.4-0.5,0.6-0.8,0.6c-0.4,0-0.7-0.2-0.9-0.5L303.6,82z"/>
			<path class="st2" d="M302.1,69.2c0.1-0.5-0.4-0.9-0.9-1.2c-0.5-0.2-1-0.6-1-1.1c0-0.1,0-0.3,0.1-0.4c0.3-0.2,0.7,0.1,1,0.3
				c0.3,0.1,0.6,0.1,0.9,0.2c0.7,0.1,1.2,0.7,1.3,1.4c-0.1,0.4-0.5,0.6-0.8,0.6c-0.4,0-0.7-0.2-0.9-0.5L302.1,69.2z"/>
			<path class="st2" d="M308.5,62.1c0.3-0.3,0.6-0.6,0.7-1c0-0.1,0.1-0.1,0.1-0.2c0-0.1-0.1-0.2-0.2-0.3c-0.3-0.2-0.7-0.1-0.9,0.1
				c-0.2,0.2-0.4,0.5-0.3,0.9c0,0.2,0.1,0.4,0.2,0.5C308.2,62.1,308.4,62.1,308.5,62.1c0-0.1,0-0.2-0.1-0.1L308.5,62.1z"/>
			<path class="st2" d="M272.7,111.7c1,0,1.9-0.6,2.4-1.4c-0.3-0.3-0.7-0.5-1.1-0.7c-0.4-0.1-0.9,0-1.2,0.3
				c-0.4,0.5-0.1,1.1,0.1,1.7c-0.2-0.1-0.3-0.1-0.5-0.2L272.7,111.7z"/>
			<path class="st2" d="M265.6,106.2c0.2,0.6,1.1,0.6,1.4,0.1c-0.1-0.3-0.3-0.6-0.6-0.7c-0.3-0.2-0.7-0.1-0.9,0.1
				c-0.2,0.2-0.1,0.7,0.2,0.8L265.6,106.2z"/>
			<path class="st2" d="M279.4,98.1c0.2,0.6,1.1,0.6,1.4,0.1c-0.1-0.3-0.3-0.6-0.6-0.7c-0.3-0.2-0.7-0.1-0.9,0.1
				c-0.2,0.2-0.1,0.7,0.2,0.8L279.4,98.1z"/>
			<path class="st2" d="M268.3,109.6c-0.4,0-0.5,0.6-0.3,0.9c0.2,0.3,0.5,0.6,0.8,0.9c0.2,0.3,0.3,0.8,0.2,1.2
				c-0.1,0.2-0.2,0.5-0.4,0.5c-0.2,0-0.3,0-0.5-0.1c-0.7-0.2-1.5-0.6-2-1.2c-0.5-0.6-0.7-1.5-0.3-2.1c0.3-0.5,0.8-0.8,1.3-0.8
				c0.5,0,1.1,0.3,1.3,0.8L268.3,109.6z"/>
			<path class="st2" d="M300.7,77.6c-0.4,0-0.5,0.6-0.3,0.9c0.2,0.3,0.5,0.6,0.8,0.9c0.2,0.3,0.3,0.8,0.2,1.2
				c-0.1,0.2-0.2,0.5-0.4,0.5c-0.2,0-0.3,0-0.5-0.1c-0.7-0.2-1.5-0.6-2-1.2c-0.5-0.6-0.7-1.5-0.3-2.1c0.3-0.5,0.8-0.8,1.3-0.8
				c0.5,0,1.1,0.3,1.3,0.8L300.7,77.6z"/>
			<path class="st2" d="M304.7,80.6c-0.4,0-0.5,0.6-0.3,0.9s0.5,0.6,0.8,0.9c0.2,0.3,0.3,0.8,0.2,1.2c-0.1,0.2-0.2,0.5-0.4,0.5
				c-0.2,0-0.3,0-0.5-0.1c-0.7-0.2-1.5-0.6-2-1.2c-0.5-0.6-0.7-1.5-0.3-2.1c0.3-0.5,0.8-0.8,1.3-0.8c0.5,0,1.1,0.3,1.3,0.8
				L304.7,80.6z"/>
			<path class="st2" d="M298.9,85.8c-0.4,0-0.5,0.6-0.3,0.9c0.2,0.3,0.5,0.6,0.8,0.9c0.2,0.3,0.3,0.8,0.2,1.2
				c-0.1,0.2-0.2,0.5-0.4,0.5c-0.2,0-0.3,0-0.5-0.1c-0.7-0.2-1.5-0.6-2-1.2c-0.5-0.6-0.7-1.5-0.3-2.1c0.3-0.5,0.8-0.8,1.3-0.8
				c0.5,0,1.1,0.3,1.3,0.8L298.9,85.8z"/>
			<path class="st2" d="M271.7,38.3c-0.4,0-0.5,0.6-0.3,0.9c0.2,0.3,0.5,0.6,0.8,0.9c0.2,0.3,0.3,0.8,0.2,1.2
				c-0.1,0.2-0.2,0.5-0.4,0.5c-0.2,0-0.3,0-0.5-0.1c-0.7-0.2-1.5-0.6-2-1.2c-0.5-0.6-0.7-1.5-0.3-2.1c0.3-0.5,0.8-0.8,1.3-0.8
				c0.5,0,1.1,0.3,1.3,0.8L271.7,38.3z"/>
			<path class="st2" d="M268.4,101.5c0.2-0.1,0.3-0.3,0.5-0.4c-0.2-0.3-0.4-0.6-0.7-0.7c-0.3-0.1-0.7,0.2-0.6,0.5
				c0,0.1,0.1,0.2,0.2,0.3c0.3,0.2,0.6,0.5,0.9,0.7L268.4,101.5z"/>
			<path class="st2" d="M280.5,62.2c0.5-0.1,1-0.3,1.4-0.6c0.4-0.3,0.7-0.9,0.5-1.4c-0.1-0.2-0.3-0.4-0.5-0.6
				c-0.6-0.4-1.6-0.2-2,0.5C279.5,60.8,279.8,61.7,280.5,62.2L280.5,62.2z"/>
			<path class="st2" d="M283.9,105c-0.4,0.6-1.5,0.4-1.8-0.3c0.1-0.4,0.3-0.7,0.6-1c0.4,0.2,0.7,0.6,0.9,1L283.9,105z"/>
			<path class="st3" d="M286.5,59.6c0.3-0.1,0.5-0.3,0.7-0.5c0.2-0.2,0.3-0.6,0.1-0.8c-0.2-0.4-0.9-0.3-1.3-0.6
				c-0.4-0.3-0.6-0.9-1-1c-0.5-0.1-0.9,0.4-0.9,0.9c0,0.5,0.3,0.9,0.6,1.3c0.3,0.3,0.6,0.6,1,0.8c0.4,0.1,0.9,0,1.1-0.4L286.5,59.6z
				"/>
			<path class="st2" d="M292.7,85.3c1.7,1.2,4,1.5,5.9,0.6c0.2-2-0.4-4.3-1.9-5.6c-1.6-1.3-4.3-1.3-5.5,0.4
				c-1.2,1.7,0.3,4.6,2.3,4.3L292.7,85.3z"/>
			<path class="st2" d="M287.5,108c-0.2-0.1-0.3-0.5-0.1-0.8c0.2-0.2,0.4-0.3,0.7-0.4c0.2,0,0.3,0,0.5,0c0.4,0.1,0.5,0.6,0.3,1
				c-0.2,0.3-0.7,0.5-1,0.3c-0.3-0.2-0.5-0.6-0.3-1L287.5,108z"/>
			<path class="st2" d="M289.9,96.9c-0.1-0.5-0.7-0.7-1.2-0.8c-0.5-0.1-1.1-0.2-1.3-0.7c-0.1-0.1-0.1-0.3,0-0.4
				c0.2-0.3,0.7-0.1,1-0.1c0.3,0,0.6-0.1,0.9-0.1c0.7-0.1,1.4,0.3,1.7,0.9c0,0.4-0.2,0.7-0.6,0.9c-0.3,0.1-0.8,0.1-1-0.2L289.9,96.9
				z"/>
			<path class="st2" d="M287.2,80.6c0.1-0.2,0.2-0.3,0.3-0.5c-0.2-0.3-0.5-0.5-0.8-0.4c-0.3,0.1-0.5,0.5-0.4,0.8
				C286.5,80.9,287,80.9,287.2,80.6L287.2,80.6z"/>
			<path class="st2" d="M285.2,91.8c-0.2,0.1-0.5,0-0.6-0.2s-0.1-0.4,0-0.7c0-0.2,0.1-0.4,0.2-0.5c0.2-0.3,0.7-0.3,1-0.1
				c0.3,0.2,0.5,0.6,0.4,0.9c0,0.2-0.1,0.4-0.2,0.5c-0.1,0.1-0.4,0.1-0.5,0L285.2,91.8z"/>
			<path class="st2" d="M269.3,85.3c0.5,2,2.1,3.7,4,4.3c1.5-1.4,2.5-3.5,2.2-5.5c-0.3-2-2.4-3.8-4.4-3.3c-2,0.5-2.8,3.7-1,4.7
				L269.3,85.3z"/>
			<path class="st2" d="M271.6,101.3c0.6-0.1,0.5-1.1-0.1-1.4c-0.6-0.2-1.2,0-1.7,0.3c0.2,0.8,1,1.4,1.8,1.4L271.6,101.3z"/>
			<path class="st2" d="M293.2,104.4c0.1-0.2,0.2-0.3,0.3-0.5c-0.2-0.3-0.5-0.5-0.8-0.4c-0.3,0.1-0.5,0.5-0.4,0.8
				C292.5,104.6,293,104.7,293.2,104.4L293.2,104.4z"/>
			<path class="st2" d="M285.5,96.7c1.7-1.3,3.2-3,4.2-5c0.2-0.3,0.3-0.6,0.3-1c0-0.7-0.5-1.3-1-1.7c-1.4-0.9-3.3-0.8-4.7,0.2
				c-1.3,1-2.1,2.7-2,4.4c0,0.9,0.3,1.9,1,2.5c0.7,0.6,1.8,0.8,2.5,0.2c0-0.3-0.4-0.5-0.6-0.3L285.5,96.7z"/>
			<path class="st2" d="M265.5,66.8c2.1,0,4.1-1.2,5.1-3c-1.1-1.8-2.9-3.2-4.9-3.3c-2.1-0.1-4.2,1.6-4.1,3.6c0.1,2.1,3,3.5,4.4,2
				L265.5,66.8z"/>
			<path class="st2" d="M304.2,62.7c1,0,1.9-0.6,2.4-1.4c-0.3-0.3-0.7-0.5-1.1-0.7c-0.4-0.1-0.9,0-1.2,0.3c-0.4,0.5-0.1,1.1,0.1,1.7
				c-0.2-0.1-0.3-0.1-0.5-0.2L304.2,62.7z"/>
			<path class="st2" d="M305.5,55.9c0.2-0.1,0.5-0.3,0.6-0.5c0.1-0.2,0-0.5,0-0.8c-0.1-0.7-0.2-1.4-0.2-2.1
				c-0.7,0.9-1.5,1.8-2.2,2.8c-0.1,0.1-0.1,0.1-0.2,0.2c-0.3,0.2-0.6-0.1-0.9-0.2c-0.5,0-0.8,0.5-0.9,0.9
				C300.6,59.5,304.2,56.6,305.5,55.9z"/>
			<path class="st2" d="M291.8,95.5c0.2-0.3,0.5-0.5,0.7-0.8c-0.5-0.4-1.4-0.6-1.9-0.2c-0.6,0.4-0.5,1.5,0.1,1.7
				c0.4,0.1,1.1,0.2,1,0.6L291.8,95.5z"/>
			<path class="st2" d="M292.9,65.8c-0.2,0.2-0.4,0.4-0.6,0.6c-0.2-0.7,0.3-1.4,0.8-2c0.3-0.3,0.6-0.7,1-0.5
				c0.3,0.1,0.4,0.4,0.6,0.6c0.4,0.4,1.3,0.4,1.3,1c0,0.3-0.3,0.6-0.6,0.7c-0.3,0.1-0.7,0-1-0.1c-0.7-0.2-1.4-0.3-2.1-0.5
				L292.9,65.8z"/>
			<path class="st2" d="M283.4,59.6c0.6-0.1,0.5-1.1-0.1-1.4c-0.6-0.2-1.2,0-1.7,0.3c0.2,0.8,1,1.4,1.8,1.4L283.4,59.6z"/>
			<path class="st3" d="M295,54c-0.3,0-0.5-0.3-0.5-0.5c0-0.3,0.2-0.5,0.4-0.7c0.1-0.1,0.3-0.2,0.4-0.3c0.4-0.1,0.8,0.2,0.8,0.6
				c0.1,0.4-0.3,0.8-0.6,0.8c-0.4,0.1-0.8-0.2-0.9-0.6L295,54z"/>
			<path class="st2" d="M297.1,57.1c0.2,0.6,1.1,0.6,1.4,0.1c-0.1-0.3-0.3-0.6-0.6-0.7c-0.3-0.2-0.7-0.1-0.9,0.1
				c-0.2,0.2-0.1,0.7,0.2,0.8L297.1,57.1z"/>
			<path class="st2" d="M303.4,69.1c0.7,0.2,1.5,0,2.1-0.4c-0.4-0.4-0.8-0.9-1.2-1.3c-0.2-0.2-0.4-0.4-0.7-0.5
				c-0.5-0.2-1.1,0.3-1.1,0.8c0,0.5,0.4,1.1,0.9,1.3L303.4,69.1z"/>
			<path class="st3" d="M286.6,52.9c-0.4,0-0.8-0.2-1-0.6c-0.2-0.4-0.1-0.9,0.2-1.2c0.2-0.2,0.6-0.3,0.7-0.1
				c0.1,0.1,0.1,0.2,0.1,0.3c0.1,0.5,0.1,1,0.2,1.6C286.7,52.9,286.6,52.9,286.6,52.9L286.6,52.9z"/>
			<path class="st3" d="M282.7,45.7c0.1-0.5-0.4-0.9-0.9-1.2c-0.5-0.2-1-0.6-1-1.1c0-0.1,0-0.3,0.1-0.4c0.3-0.2,0.7,0.1,1,0.3
				c0.3,0.1,0.6,0.1,0.9,0.2c0.7,0.1,1.2,0.7,1.3,1.4c-0.1,0.4-0.5,0.6-0.8,0.6c-0.4,0-0.7-0.2-0.9-0.5L282.7,45.7z"/>
			<path class="st3" d="M306.8,86.2c0.1-0.5-0.4-0.9-0.9-1.2c-0.5-0.2-1-0.6-1-1.1c0-0.1,0-0.3,0.1-0.4c0.3-0.2,0.7,0.1,1,0.3
				c0.3,0.1,0.6,0.1,0.9,0.2c0.7,0.1,1.2,0.7,1.3,1.4c-0.1,0.4-0.5,0.6-0.8,0.6c-0.4,0-0.7-0.2-0.9-0.5L306.8,86.2z"/>
			<path class="st3" d="M287.3,43.3c0.2-0.1,0.3-0.2,0.5-0.3c-0.1-0.3-0.3-0.6-0.7-0.6c-0.3,0-0.6,0.3-0.6,0.6
				C286.5,43.3,287,43.5,287.3,43.3L287.3,43.3z"/>
			<path class="st2" d="M299.8,60.6c-0.4,0-0.5,0.6-0.3,0.9c0.2,0.3,0.5,0.6,0.8,0.9c0.2,0.3,0.3,0.8,0.2,1.2
				c-0.1,0.2-0.2,0.5-0.4,0.5c-0.2,0-0.3,0-0.5-0.1c-0.7-0.2-1.5-0.6-2-1.2c-0.5-0.6-0.7-1.5-0.3-2.1c0.3-0.5,0.8-0.8,1.3-0.8
				c0.5,0,1.1,0.3,1.3,0.8L299.8,60.6z"/>
			<path class="st2" d="M310.1,62.4c0.5,0.1,1-0.3,1.1-0.8c0.1-0.5-0.2-1-0.6-1.3c-0.2-0.1-0.4-0.2-0.6-0.1
				c-0.1,0.1-0.1,0.3-0.1,0.4c0,0.6,0,1.2,0.1,1.8L310.1,62.4z"/>
			<path class="st2" d="M283.8,68.1c-0.9-0.3-1.3-1.7-0.6-2.4c0.7,0.3,1.4,0.7,1.8,1.4c0.4,0.7,0.2,1.7-0.5,2
				c-0.4-0.2-0.8-0.3-1.3-0.5L283.8,68.1z"/>
			<path class="st3" d="M300,52.5c0.2-0.1,0.3-0.3,0.5-0.4c-0.2-0.3-0.4-0.6-0.7-0.7c-0.3-0.1-0.7,0.2-0.6,0.5
				c0,0.1,0.1,0.2,0.2,0.3c0.3,0.2,0.6,0.5,0.9,0.7L300,52.5z"/>
			<path class="st2" d="M279.3,103.5c0.5-0.1,1-0.3,1.4-0.6c0.4-0.3,0.7-0.9,0.5-1.4c-0.1-0.2-0.3-0.4-0.5-0.6
				c-0.6-0.4-1.6-0.2-2,0.5C278.3,102.1,278.6,103.1,279.3,103.5L279.3,103.5z"/>
			<path class="st2" d="M271,74.2c0.2-0.3,0.5-0.5,0.7-0.8c-0.2-0.2-0.4-0.4-0.6-0.5c-0.5,0.2-0.6,0.9-0.4,1.3L271,74.2z"/>
			<path class="st2" d="M262.7,124.9c-0.3,0-0.5-0.3-0.5-0.5c0-0.3,0.2-0.5,0.4-0.7c0.1-0.1,0.3-0.2,0.4-0.3
				c0.4-0.1,0.8,0.2,0.8,0.6c0.1,0.4-0.3,0.8-0.6,0.8c-0.4,0.1-0.8-0.2-0.9-0.6L262.7,124.9z"/>
			<path class="st2" d="M279.4,72.5c0.2-0.3,0.5-0.5,0.7-0.8c-0.2-0.2-0.4-0.4-0.6-0.5c-0.5,0.2-0.6,0.9-0.4,1.3L279.4,72.5z"/>
			<path class="st2" d="M301.5,90.6c0.4,0.1,0.7-0.4,0.6-0.8c-0.1-0.4-0.4-0.7-0.5-1.1c-0.1-0.4-0.1-0.8,0.1-1.2
				c0.1-0.2,0.3-0.4,0.6-0.4c0.2,0,0.3,0.1,0.4,0.2c0.6,0.4,1.2,1,1.5,1.7c0.3,0.7,0.2,1.6-0.3,2.2c-0.4,0.4-1,0.5-1.5,0.4
				c-0.5-0.2-0.9-0.6-1-1.1L301.5,90.6z"/>
			<path class="st2" d="M281,93.9c-0.3,0-0.6,0.1-0.8,0.3c-0.2,0.2-0.4,0.5-0.4,0.7c0.1,0.5,0.7,0.6,1,1c0.3,0.4,0.3,1,0.7,1.2
				c0.4,0.2,1-0.1,1.1-0.6c0.1-0.5,0-1-0.2-1.4c-0.2-0.4-0.4-0.8-0.7-1c-0.4-0.2-0.9-0.3-1.2,0.1L281,93.9z"/>
			<path class="st2" d="M295.9,77c-1,1.4-1.7,3.1-2,4.9c0,0.3-0.1,0.6,0,0.9c0.1,0.5,0.7,0.9,1.2,1c1.3,0.4,2.8-0.2,3.6-1.3
				c0.8-1.1,0.9-2.6,0.5-3.9c-0.3-0.7-0.7-1.4-1.4-1.7c-0.7-0.3-1.6-0.2-2,0.5c0.1,0.2,0.4,0.3,0.6,0.1L295.9,77z"/>
			<path class="st2" d="M303.5,87.4c0.2,0.1,0.5,0.3,0.7,0.3c0.3,0,0.5-0.2,0.7-0.4c0.5-0.5,1.1-0.9,1.7-1.3
				c-1.2-0.2-2.3-0.4-3.5-0.6c-0.1,0-0.2,0-0.3-0.1c-0.3-0.2-0.2-0.6-0.3-0.9c-0.2-0.4-0.8-0.5-1.3-0.3
				C297.9,84.9,302.2,86.6,303.5,87.4z"/>
			<path class="st2" d="M296.3,77.1c0.2-0.1,0.3-0.2,0.5-0.3c0-0.3-0.3-0.6-0.6-0.7c-0.3,0-0.7,0.3-0.6,0.6
				C295.5,77.1,295.9,77.3,296.3,77.1L296.3,77.1z"/>
			<path class="st2" d="M304.6,81.9c0.1,0.5,0.7,0.7,1.2,0.5c0.5-0.2,0.8-0.6,0.8-1.1c0-0.2,0-0.5-0.2-0.5c-0.1,0-0.3,0-0.4,0.1
				c-0.5,0.3-1,0.6-1.5,0.9L304.6,81.9z"/>
			<path class="st2" d="M299.9,77.4c0.5,0.8,1.4,1.3,2.4,1.4c0.1-0.4,0.1-0.9,0-1.3c-0.1-0.4-0.4-0.8-0.8-0.9c-0.6-0.1-1,0.5-1.4,1
				c0-0.2-0.1-0.3-0.1-0.5L299.9,77.4z"/>
			<path class="st2" d="M298.6,73.3c-0.3,0-0.6-0.1-0.8-0.3c0.5-0.5,1.4-0.5,2.1-0.3c0.4,0.1,0.9,0.2,1,0.6c0.1,0.3-0.1,0.6-0.2,0.8
				c-0.1,0.6,0.3,1.3-0.2,1.7c-0.3,0.2-0.7,0.1-0.9-0.2c-0.2-0.2-0.3-0.6-0.4-0.9c-0.2-0.7-0.4-1.4-0.6-2.1L298.6,73.3z"/>
			<path class="st2" d="M300.9,84.1c0.2,0.7,0.7,1.3,1.4,1.6c0.2-0.6,0.4-1.1,0.6-1.7c0.1-0.3,0.2-0.5,0.1-0.8
				c-0.1-0.5-0.8-0.8-1.3-0.6c-0.5,0.2-0.7,0.8-0.7,1.4L300.9,84.1z"/>
			<path class="st2" d="M306.5,76.7c-0.2-0.3-0.8-0.1-1,0.2c-0.2,0.3-0.2,0.8-0.4,1.1c-0.2,0.4-0.5,0.6-0.9,0.8
				c-0.2,0.1-0.5,0.1-0.7-0.1c-0.1-0.1-0.1-0.3-0.2-0.4c-0.2-0.8-0.2-1.6,0-2.3c0.3-0.7,0.9-1.3,1.7-1.4c0.5,0,1.1,0.3,1.3,0.7
				s0.3,1.1,0,1.5L306.5,76.7z"/>
			<path class="st2" d="M282.3,83.9c0.4,0.4,0.7,0.7,1.2,0.9c0.5,0.2,1.1,0.1,1.4-0.2c0.2-0.2,0.3-0.4,0.3-0.7
				c0-0.8-0.7-1.5-1.4-1.5C283,82.4,282.3,83.1,282.3,83.9L282.3,83.9z"/>
			<path class="st2" d="M289.2,93c0.5,0.8,1.4,1.3,2.4,1.4c0.1-0.4,0.1-0.9,0-1.3c-0.1-0.4-0.4-0.8-0.8-0.9c-0.6-0.1-1,0.5-1.4,1
				c0-0.2-0.1-0.3-0.1-0.5L289.2,93z"/>
			<path class="st2" d="M298.8,71.5c0.1-0.5-0.4-0.9-0.8-1.2c-0.4-0.3-1-0.6-1-1.1c0-0.1,0-0.3,0.2-0.4c0.3-0.2,0.6,0.2,1,0.3
				c0.3,0.1,0.6,0.1,0.8,0.2c0.7,0.2,1.2,0.8,1.2,1.5c-0.1,0.3-0.5,0.6-0.9,0.6c-0.4,0-0.7-0.2-0.9-0.6L298.8,71.5z"/>
			<path class="st2" d="M267.1,96c0.1-0.2,0.1-0.4,0.2-0.6c-0.2-0.2-0.6-0.3-0.9-0.2c-0.3,0.2-0.4,0.6-0.2,0.9
				C266.5,96.4,267,96.4,267.1,96L267.1,96z"/>
			<path class="st2" d="M296,84.2c0.2,0.1,0.4,0.2,0.6,0.2c0.2-0.3,0.3-0.6,0.2-0.9s-0.5-0.5-0.7-0.3c-0.1,0.1-0.1,0.2-0.1,0.3
				c0,0.4-0.1,0.8-0.1,1.2L296,84.2z"/>
		</g>
		<g>
			<path class="st2" d="M186.6,234c-2.7-2.1-5.9-3.6-9.2-4.4c-0.5-0.1-1.1-0.2-1.6-0.1c-1,0.2-1.8,1.2-2.1,2.2
				c-0.9,2.5,0.1,5.4,2.1,7.1c2,1.7,4.9,2.1,7.4,1.3c1.4-0.4,2.7-1.2,3.4-2.5s0.5-3.1-0.7-3.9c-0.4,0.1-0.6,0.8-0.3,1.1L186.6,234z"
				/>
			<path class="st2" d="M176.2,235.7c-0.3-1.4-1.4-2.5-2.8-2.9c-1,1-1.7,2.4-1.5,3.8c0.2,1.4,1.7,2.6,3,2.2c1.4-0.4,1.9-2.5,0.7-3.2
				L176.2,235.7z"/>
			<path class="st2" d="M164.9,230c0.2-0.6,0.2-1.3-0.2-1.9c-0.3,0.1-0.5,0.3-0.7,0.5c-0.2,0.2-0.3,0.6-0.1,0.8
				c0.2,0.4,0.7,0.4,1.1,0.4c-0.1,0.1-0.2,0.2-0.2,0.2L164.9,230z"/>
			<path class="st2" d="M167.4,230.7c0.2,0.1,0.4,0.2,0.5,0.3c-0.5,0.2-1,0-1.5-0.2c-0.3-0.1-0.5-0.3-0.5-0.6c0-0.2,0.2-0.3,0.3-0.5
				c0.2-0.4,0.1-0.9,0.5-1c0.2-0.1,0.4,0.1,0.5,0.3c0.1,0.2,0.1,0.4,0.1,0.7c0,0.5,0,1,0,1.5L167.4,230.7z"/>
			<path class="st3" d="M136.5,219.2c-0.2-0.4-0.8-0.1-0.9,0.3c-0.1,0.4,0.2,0.8,0.4,1.1c0.5-0.3,0.8-0.9,0.7-1.4L136.5,219.2z"/>
			<path class="st2" d="M129.8,232.2c0.1,0.2-0.1,0.4-0.3,0.4c-0.2,0.1-0.4,0-0.5-0.1c-0.1-0.1-0.2-0.1-0.2-0.2
				c-0.1-0.2,0-0.6,0.3-0.6c0.2-0.1,0.5,0.1,0.6,0.3c0.1,0.2,0,0.5-0.3,0.7L129.8,232.2z"/>
			<path class="st2" d="M159.5,232.9c0.4,0,0.7-0.5,0.5-0.9c-0.2,0-0.4,0-0.6,0.2c-0.2,0.1-0.3,0.4-0.2,0.6c0.1,0.2,0.4,0.3,0.5,0.1
				L159.5,232.9z"/>
			<path class="st2" d="M168.7,232.3c0.3-0.4,0.4-0.9,0.3-1.4c-0.4,0.1-0.8,0.2-1.2,0.4c-0.2,0.1-0.4,0.1-0.5,0.3
				c-0.2,0.3-0.1,0.8,0.2,0.9C167.9,232.6,168.3,232.5,168.7,232.3L168.7,232.3z"/>
			<path class="st3" d="M135.3,231c-0.1,0-0.3,0.1-0.4,0.1c0,0.2,0.1,0.5,0.3,0.6c0.2,0.1,0.5,0,0.5-0.3
				C135.8,231.2,135.6,231,135.3,231L135.3,231z"/>
			<path class="st2" d="M162.4,232.2c-0.1,0.3,0.2,0.5,0.5,0.5c0.3,0,0.5-0.2,0.8-0.2c0.3-0.1,0.6,0,0.8,0.2
				c0.1,0.1,0.2,0.3,0.2,0.4c0,0.1-0.1,0.2-0.2,0.3c-0.4,0.4-0.8,0.8-1.3,0.9c-0.5,0.1-1.1,0-1.4-0.4c-0.2-0.3-0.3-0.7-0.1-1
				C161.8,232.4,162.1,232.1,162.4,232.2L162.4,232.2z"/>
			<path class="st2" d="M166.4,226.3c0.2-0.3,0.1-0.7-0.2-0.9c-0.3-0.2-0.7-0.2-0.9,0c-0.1,0.1-0.3,0.2-0.2,0.3
				c0,0.1,0.1,0.1,0.2,0.2c0.4,0.2,0.8,0.3,1.1,0.5L166.4,226.3z"/>
			<path class="st2" d="M151.3,222.4c-0.1,0.7-0.9,1.1-1.5,0.8c0.1-0.5,0.3-1,0.7-1.4c0.4-0.4,1.1-0.4,1.4,0.1
				c0,0.3-0.1,0.6-0.1,0.9L151.3,222.4z"/>
			<path class="st2" d="M199.9,242.4c0.2,0,0.2,0.2,0.2,0.4c0,0.1-0.2,0.3-0.3,0.3c-0.1,0.1-0.2,0.1-0.3,0.2c-0.2,0-0.5-0.1-0.6-0.4
				c-0.1-0.2,0-0.5,0.2-0.7c0.1-0.1,0.2-0.2,0.3-0.2s0.2,0.1,0.2,0.2L199.9,242.4z"/>
			<path class="st2" d="M157.4,229.8c0-0.1-0.1-0.3-0.1-0.4c-0.2,0-0.5,0.1-0.6,0.2c-0.1,0.2-0.1,0.5,0.1,0.5c0.1,0,0.2,0,0.2-0.1
				c0.2-0.1,0.5-0.3,0.7-0.4L157.4,229.8z"/>
			<path class="st2" d="M149.9,228.5c-0.2-0.3-0.3-0.6-0.6-0.8c-0.3-0.2-0.7-0.3-1-0.1c-0.1,0.1-0.3,0.2-0.3,0.4
				c-0.2,0.5,0.1,1.1,0.6,1.3C149.1,229.3,149.7,229,149.9,228.5L149.9,228.5z"/>
			<path class="st2" d="M148.1,225.3c-0.2-0.1-0.4-0.2-0.6-0.3c-0.1,0.1-0.2,0.3-0.3,0.5c0.2,0.3,0.7,0.3,0.9,0.1L148.1,225.3z"/>
			<path class="st2" d="M168,214.7c-1.3-0.3-2.7-0.3-4.1,0c-0.2,0-0.4,0.1-0.6,0.2c-0.3,0.3-0.4,0.7-0.4,1.2c0.1,1,0.9,1.9,2,2.2
				c1,0.3,2.1-0.1,2.9-0.8c0.4-0.4,0.8-0.9,0.8-1.5c0-0.6-0.3-1.2-0.9-1.3c-0.1,0.1-0.1,0.4,0.1,0.4L168,214.7z"/>
			<path class="st2" d="M168.7,243c-0.2-0.6-0.7-1.2-1.3-1.4c-0.1,0.3-0.3,0.5-0.3,0.8c0,0.3,0.1,0.6,0.4,0.7
				c0.4,0.2,0.8-0.1,1.1-0.3c0,0.1,0,0.2,0,0.3L168.7,243z"/>
			<path class="st2" d="M164,243.2c-0.1-0.1-0.3-0.3-0.4-0.3c-0.2,0-0.3,0-0.5,0.1c-0.4,0.2-0.9,0.4-1.4,0.5
				c0.7,0.4,1.4,0.7,2.2,1.1c0.1,0,0.1,0.1,0.2,0.1c0.1,0.2,0,0.4,0,0.7c0,0.3,0.4,0.5,0.8,0.5C167.2,245.9,164.7,243.9,164,243.2z"
				/>
			<path class="st2" d="M173.1,242.6c0-0.5-0.2-1-0.6-1.3c-0.2,0.3-0.5,0.7-0.7,1c-0.1,0.2-0.2,0.3-0.2,0.5c0,0.4,0.4,0.7,0.7,0.6
				C172.7,243.3,173,243,173.1,242.6L173.1,242.6z"/>
			<path class="st2" d="M196.2,249.5c-0.1,0-0.3,0.1-0.4,0.1c0,0.2,0.1,0.5,0.3,0.6c0.2,0.1,0.5,0,0.5-0.3
				C196.7,249.7,196.5,249.4,196.2,249.5L196.2,249.5z"/>
			<path class="st2" d="M167.7,239.1c0-0.3-0.3-0.6-0.7-0.6c-0.3,0-0.6,0.3-0.8,0.6c-0.1,0.1-0.1,0.3,0,0.4c0.1,0.1,0.2,0,0.3,0
				C167,239.4,167.4,239.3,167.7,239.1L167.7,239.1z"/>
			<path class="st2" d="M171.3,234.7c-0.2-0.3-0.3-0.6-0.6-0.8c-0.3-0.2-0.7-0.3-1-0.1c-0.1,0.1-0.3,0.2-0.3,0.4
				c-0.2,0.5,0.1,1.1,0.6,1.3C170.5,235.5,171.1,235.2,171.3,234.7L171.3,234.7z"/>
			<path class="st2" d="M158.1,223c-0.4,0-0.5,0.4-0.6,0.8c-0.1,0.3-0.2,0.7-0.6,0.8c-0.1,0-0.2,0-0.3,0c-0.2-0.2,0-0.5,0-0.7
				c0-0.2,0-0.4,0-0.6c0-0.5,0.3-0.9,0.7-1.1c0.3,0,0.5,0.2,0.6,0.5s0,0.5-0.2,0.7L158.1,223z"/>
			<path class="st2" d="M149.8,225.9c-0.4,0-0.5,0.4-0.6,0.8c-0.1,0.3-0.2,0.7-0.6,0.8c-0.1,0-0.2,0-0.3,0c-0.2-0.2,0-0.5,0-0.7
				c0-0.2,0-0.4,0-0.6c0-0.5,0.3-0.9,0.7-1.1c0.3,0,0.5,0.2,0.6,0.5c0.1,0.2,0,0.5-0.2,0.7L149.8,225.9z"/>
			<path class="st2" d="M144.1,222.7c-0.2-0.2-0.5-0.3-0.8-0.3c0,0-0.1,0-0.1,0c-0.1,0-0.1,0.1-0.2,0.2c-0.1,0.2,0,0.5,0.2,0.6
				c0.2,0.1,0.4,0.2,0.6,0.1c0.1,0,0.2-0.1,0.3-0.2C144.1,222.9,144.1,222.8,144.1,222.7C144,222.7,144,222.8,144.1,222.7
				L144.1,222.7z"/>
			<path class="st2" d="M182.5,239.1c-0.2-0.6-0.7-1.2-1.3-1.4c-0.1,0.3-0.3,0.5-0.3,0.8c0,0.3,0.1,0.6,0.4,0.7
				c0.4,0.2,0.8-0.1,1.1-0.3c0,0.1,0,0.2,0,0.3L182.5,239.1z"/>
			<path class="st2" d="M179.9,244.6c0.3-0.2,0.3-0.9-0.1-1c-0.2,0.1-0.3,0.3-0.4,0.5c-0.1,0.2,0,0.5,0.2,0.6c0.2,0.1,0.5,0,0.5-0.2
				L179.9,244.6z"/>
			<path class="st2" d="M172.4,236.6c0.3-0.2,0.3-0.9-0.1-1c-0.2,0.1-0.3,0.3-0.4,0.5c-0.1,0.2,0,0.5,0.2,0.6c0.2,0.1,0.5,0,0.5-0.2
				L172.4,236.6z"/>
			<path class="st2" d="M181.7,242.3c0.1,0.3,0.5,0.2,0.7,0.1c0.2-0.2,0.3-0.4,0.5-0.6c0.2-0.2,0.5-0.3,0.7-0.3
				c0.2,0,0.3,0.1,0.4,0.2c0,0.1,0,0.2,0,0.3c0,0.5-0.2,1.1-0.5,1.5c-0.3,0.4-0.9,0.7-1.4,0.6c-0.4-0.1-0.6-0.4-0.7-0.8
				C181.4,242.8,181.5,242.4,181.7,242.3L181.7,242.3z"/>
			<path class="st2" d="M155.6,225.6c0.1,0.3,0.5,0.2,0.7,0.1s0.3-0.4,0.5-0.6c0.2-0.2,0.5-0.3,0.7-0.3c0.2,0,0.3,0.1,0.4,0.2
				c0,0.1,0,0.2,0,0.3c0,0.5-0.2,1.1-0.5,1.5c-0.3,0.4-0.9,0.7-1.4,0.6c-0.4-0.1-0.6-0.4-0.7-0.8
				C155.2,226.2,155.3,225.8,155.6,225.6L155.6,225.6z"/>
			<path class="st2" d="M156.9,222.4c0.1,0.3,0.5,0.2,0.7,0.1c0.2-0.2,0.3-0.4,0.5-0.6c0.2-0.2,0.5-0.3,0.7-0.3
				c0.2,0,0.3,0.1,0.4,0.2c0,0.1,0,0.2,0,0.3c0,0.5-0.2,1.1-0.5,1.5c-0.3,0.4-0.9,0.7-1.4,0.6c-0.4-0.1-0.6-0.4-0.7-0.8
				C156.6,223,156.7,222.6,156.9,222.4L156.9,222.4z"/>
			<path class="st2" d="M161.3,225.5c0.1,0.3,0.5,0.2,0.7,0.1s0.3-0.4,0.5-0.6c0.2-0.2,0.5-0.3,0.7-0.3c0.2,0,0.3,0.1,0.4,0.2
				c0,0.1,0,0.2,0,0.3c0,0.5-0.2,1.1-0.5,1.5c-0.3,0.4-0.9,0.7-1.4,0.6c-0.4-0.1-0.6-0.4-0.7-0.8C160.9,226.1,161,225.7,161.3,225.5
				L161.3,225.5z"/>
			<path class="st2" d="M133.8,250.8c0.1,0.3,0.5,0.2,0.7,0.1c0.2-0.2,0.3-0.4,0.5-0.6c0.2-0.2,0.5-0.3,0.7-0.3
				c0.2,0,0.3,0.1,0.4,0.2c0,0.1,0,0.2,0,0.3c0,0.5-0.2,1.1-0.5,1.5c-0.3,0.4-0.9,0.7-1.4,0.6c-0.4-0.1-0.6-0.4-0.7-0.8
				C133.4,251.3,133.6,250.9,133.8,250.8L133.8,250.8z"/>
			<path class="st2" d="M176.3,243.4c-0.1-0.1-0.2-0.2-0.3-0.3c-0.2,0.2-0.3,0.3-0.3,0.5c0,0.2,0.2,0.4,0.4,0.3
				c0.1,0,0.1-0.1,0.1-0.2c0.1-0.2,0.2-0.5,0.3-0.7L176.3,243.4z"/>
			<path class="st2" d="M148.3,241.3c-0.2-0.3-0.3-0.6-0.6-0.8c-0.3-0.2-0.7-0.3-1-0.1c-0.1,0.1-0.3,0.2-0.3,0.4
				c-0.2,0.5,0.1,1.1,0.6,1.3C147.6,242.2,148.2,241.8,148.3,241.3L148.3,241.3z"/>
			<path class="st2" d="M176.3,232.6c0.5,0.2,0.5,1,0.1,1.2c-0.3,0-0.5-0.1-0.8-0.2c0.1-0.3,0.3-0.6,0.5-0.7L176.3,232.6z"/>
			<path class="st3" d="M145.7,237.7c-0.1-0.2-0.3-0.3-0.4-0.4c-0.2-0.1-0.4-0.1-0.6,0c-0.2,0.2-0.1,0.6-0.2,0.9
				c-0.1,0.3-0.5,0.5-0.5,0.8c0,0.3,0.4,0.5,0.7,0.5c0.3-0.1,0.5-0.4,0.7-0.6c0.2-0.2,0.3-0.5,0.4-0.8c0-0.3-0.1-0.6-0.4-0.7
				L145.7,237.7z"/>
			<path class="st2" d="M161.9,229.7c0.5-1.3,0.4-2.9-0.5-4c-1.4,0.2-2.8,0.9-3.4,2.1c-0.6,1.3-0.2,3,1.1,3.6c1.3,0.5,3-0.9,2.5-2.2
				L161.9,229.7z"/>
			<path class="st2" d="M177.8,229.7c-0.1,0.2-0.3,0.3-0.5,0.2c-0.2-0.1-0.3-0.2-0.4-0.4c0-0.1-0.1-0.2,0-0.3c0-0.3,0.3-0.4,0.6-0.4
				s0.4,0.4,0.3,0.6c-0.1,0.3-0.4,0.4-0.6,0.4L177.8,229.7z"/>
			<path class="st2" d="M170.1,229.8c-0.3,0.1-0.4,0.6-0.4,0.9c0,0.4,0,0.8-0.2,1c-0.1,0.1-0.2,0.1-0.3,0.1
				c-0.2-0.1-0.2-0.4-0.2-0.7c0-0.2-0.1-0.4-0.2-0.6c-0.2-0.4,0-1,0.3-1.3c0.2-0.1,0.5,0,0.7,0.2c0.2,0.2,0.2,0.5,0,0.7L170.1,229.8
				z"/>
			<path class="st2" d="M159.6,234.1c-0.1-0.1-0.3-0.1-0.4-0.2c-0.2,0.1-0.2,0.4-0.1,0.6c0.1,0.2,0.4,0.3,0.6,0.1
				C159.9,234.5,159.9,234.2,159.6,234.1L159.6,234.1z"/>
			<path class="st2" d="M167.4,233.7c0.1,0.1,0.1,0.3,0,0.4c-0.1,0.1-0.3,0.1-0.4,0.1c-0.1,0-0.3,0-0.4-0.1
				c-0.2-0.1-0.3-0.4-0.2-0.6c0.1-0.2,0.3-0.4,0.5-0.4c0.1,0,0.2,0,0.3,0.1c0.1,0.1,0.1,0.2,0.1,0.3L167.4,233.7z"/>
			<path class="st2" d="M165.4,245.3c1.3-0.6,2.2-1.9,2.3-3.3c-1.2-0.8-2.7-1.2-4-0.6c-1.3,0.5-2.1,2.2-1.5,3.4
				c0.6,1.2,2.9,1.3,3.3,0L165.4,245.3z"/>
			<path class="st2" d="M175.7,241.4c-0.2-0.4-0.8-0.1-0.9,0.3c-0.1,0.4,0.2,0.8,0.4,1.1c0.5-0.3,0.8-0.9,0.7-1.4L175.7,241.4z"/>
			<path class="st2" d="M174.5,226.5c-0.1-0.1-0.3-0.1-0.4-0.2c-0.2,0.1-0.2,0.4-0.1,0.6c0.1,0.2,0.4,0.3,0.6,0.1
				C174.8,226.9,174.8,226.6,174.5,226.5L174.5,226.5z"/>
			<path class="st2" d="M170.5,232.8c-1.1-1-2.5-1.7-3.9-2c-0.2-0.1-0.5-0.1-0.7-0.1c-0.5,0.1-0.8,0.5-1,0.9c-0.4,1.1,0,2.3,0.8,3.1
				c0.9,0.7,2.1,1,3.2,0.7c0.6-0.2,1.2-0.5,1.5-1c0.3-0.5,0.2-1.3-0.3-1.7c-0.2,0-0.3,0.3-0.1,0.5L170.5,232.8z"/>
			<path class="st2" d="M153.7,250.6c-0.3-1.4-1.4-2.5-2.8-2.9c-1,1-1.7,2.4-1.5,3.8c0.2,1.4,1.7,2.6,3,2.2c1.4-0.4,1.9-2.5,0.7-3.2
				L153.7,250.6z"/>
			<path class="st2" d="M145.1,225.5c-0.2-0.6-0.7-1.2-1.3-1.4c-0.1,0.3-0.3,0.5-0.3,0.8c0,0.3,0.1,0.6,0.4,0.7
				c0.4,0.2,0.8-0.1,1.1-0.3c0,0.1,0,0.2,0,0.3L145.1,225.5z"/>
			<path class="st2" d="M140.4,225.6c-0.1-0.1-0.3-0.3-0.4-0.3c-0.2,0-0.3,0-0.5,0.1c-0.4,0.2-0.9,0.4-1.4,0.5
				c0.7,0.4,1.4,0.7,2.2,1.1c0.1,0,0.1,0.1,0.2,0.1c0.1,0.2,0,0.4,0,0.7c0,0.3,0.4,0.5,0.8,0.5C143.6,228.4,141.1,226.4,140.4,225.6
				z"/>
			<path class="st2" d="M168.8,228.8c-0.2-0.1-0.4-0.2-0.6-0.3c-0.2,0.4-0.2,1,0.2,1.3c0.4,0.3,1.1,0.1,1.1-0.3
				c0-0.3-0.1-0.8,0.2-0.7L168.8,228.8z"/>
			<path class="st2" d="M148.9,232.5c0.2,0.1,0.4,0.2,0.5,0.3c-0.5,0.2-1,0-1.5-0.2c-0.3-0.1-0.5-0.3-0.5-0.6c0-0.2,0.2-0.3,0.3-0.5
				c0.2-0.4,0.1-0.9,0.5-1c0.2-0.1,0.4,0.1,0.5,0.3c0.1,0.2,0.1,0.4,0.1,0.7c0,0.5,0,1,0,1.5L148.9,232.5z"/>
			<path class="st2" d="M146.2,239.8c-0.2-0.4-0.8-0.1-0.9,0.3c-0.1,0.4,0.2,0.8,0.4,1.1c0.5-0.3,0.8-0.9,0.7-1.4L146.2,239.8z"/>
			<path class="st3" d="M140.7,232.9c0.1,0.2-0.1,0.4-0.3,0.4c-0.2,0.1-0.4,0-0.5-0.1c-0.1-0.1-0.2-0.1-0.2-0.2
				c-0.1-0.2,0-0.6,0.3-0.6c0.2-0.1,0.5,0.1,0.6,0.3c0.1,0.2,0,0.5-0.3,0.7L140.7,232.9z"/>
			<path class="st2" d="M142.5,231.1c0.3-0.2,0.3-0.9-0.1-1c-0.2,0.1-0.3,0.3-0.4,0.5c-0.1,0.2,0,0.5,0.2,0.6c0.2,0.1,0.5,0,0.5-0.2
				L142.5,231.1z"/>
			<path class="st2" d="M149.5,225c0-0.5-0.2-1-0.6-1.3c-0.2,0.3-0.5,0.7-0.7,1c-0.1,0.2-0.2,0.3-0.2,0.5c0,0.4,0.4,0.7,0.7,0.6
				C149.1,225.8,149.4,225.5,149.5,225L149.5,225z"/>
			<path class="st3" d="M141.2,238.7c0.1,0.3,0,0.6-0.2,0.8c-0.2,0.2-0.6,0.2-0.8,0.1c-0.2-0.1-0.3-0.3-0.2-0.5
				c0-0.1,0.1-0.1,0.2-0.1c0.3-0.1,0.7-0.3,1-0.4C141.2,238.6,141.3,238.7,141.2,238.7L141.2,238.7z"/>
			<path class="st3" d="M137,242.4c-0.4,0-0.5,0.4-0.6,0.8c-0.1,0.3-0.2,0.7-0.6,0.8c-0.1,0-0.2,0-0.3,0c-0.2-0.2,0-0.5,0-0.7
				c0-0.2,0-0.4,0-0.6c0-0.5,0.3-0.9,0.7-1.1c0.3,0,0.5,0.2,0.6,0.5c0.1,0.2,0,0.5-0.2,0.7L137,242.4z"/>
			<path class="st3" d="M160.4,220.2c-0.4,0-0.5,0.4-0.6,0.8c-0.1,0.3-0.2,0.7-0.6,0.8c-0.1,0-0.2,0-0.3,0c-0.2-0.2,0-0.5,0-0.7
				c0-0.2,0-0.4,0-0.6c0-0.5,0.3-0.9,0.7-1.1c0.3,0,0.5,0.2,0.6,0.5s0,0.5-0.2,0.7L160.4,220.2z"/>
			<path class="st3" d="M134.8,239.7c-0.1-0.1-0.2-0.2-0.3-0.3c-0.2,0.1-0.4,0.3-0.3,0.5c0,0.2,0.3,0.4,0.5,0.3
				C134.9,240.2,135,239.9,134.8,239.7L134.8,239.7z"/>
			<path class="st2" d="M144.4,228.7c0.1,0.3,0.5,0.2,0.7,0.1c0.2-0.2,0.3-0.4,0.5-0.6c0.2-0.2,0.5-0.3,0.7-0.3
				c0.2,0,0.3,0.1,0.4,0.2c0,0.1,0,0.2,0,0.3c0,0.5-0.2,1.1-0.5,1.5c-0.3,0.4-0.9,0.7-1.4,0.6c-0.4-0.1-0.6-0.4-0.7-0.8
				C144,229.3,144.1,228.9,144.4,228.7L144.4,228.7z"/>
			<path class="st2" d="M144.1,221.6c0-0.3-0.3-0.6-0.7-0.6c-0.3,0-0.6,0.3-0.8,0.6c-0.1,0.1-0.1,0.3,0,0.4c0.1,0.1,0.2,0,0.3,0
				C143.4,221.9,143.8,221.8,144.1,221.6L144.1,221.6z"/>
			<path class="st2" d="M151.8,238.3c-0.1,0.7-0.9,1.1-1.5,0.8c0.1-0.5,0.3-1,0.7-1.4c0.4-0.4,1.1-0.4,1.4,0.1
				c0,0.3-0.1,0.6-0.1,0.9L151.8,238.3z"/>
			<path class="st3" d="M139,229.9c-0.1-0.1-0.2-0.2-0.3-0.3c-0.2,0.2-0.3,0.3-0.3,0.5c0,0.2,0.2,0.4,0.4,0.3c0.1,0,0.1-0.1,0.1-0.2
				c0.1-0.2,0.2-0.5,0.3-0.7L139,229.9z"/>
			<path class="st2" d="M176,235.9c-0.2-0.3-0.3-0.6-0.6-0.8c-0.3-0.2-0.7-0.3-1-0.1c-0.1,0.1-0.3,0.2-0.3,0.4
				c-0.2,0.5,0.1,1.1,0.6,1.3C175.3,236.8,175.9,236.4,176,235.9L176,235.9z"/>
			<path class="st2" d="M157.8,245.8c-0.2-0.1-0.4-0.2-0.6-0.3c-0.1,0.1-0.2,0.3-0.3,0.5c0.2,0.3,0.7,0.3,0.9,0.1L157.8,245.8z"/>
			<path class="st2" d="M192.7,243.7c0.1,0.2-0.1,0.4-0.3,0.4s-0.4,0-0.5-0.1c-0.1-0.1-0.2-0.1-0.2-0.2c-0.1-0.2,0-0.6,0.3-0.6
				c0.2-0.1,0.5,0.1,0.6,0.3c0.1,0.2,0,0.5-0.3,0.7L192.7,243.7z"/>
			<path class="st2" d="M155.4,240.5c-0.2-0.1-0.4-0.2-0.6-0.3c-0.1,0.1-0.2,0.3-0.3,0.5c0.2,0.3,0.7,0.3,0.9,0.1L155.4,240.5z"/>
			<path class="st2" d="M164.1,223.1c0-0.3-0.4-0.4-0.6-0.3c-0.2,0.1-0.4,0.3-0.6,0.5c-0.2,0.1-0.5,0.2-0.8,0.1
				c-0.2-0.1-0.3-0.2-0.3-0.3c0-0.1,0-0.2,0.1-0.3c0.2-0.5,0.5-1,0.9-1.3c0.4-0.3,1-0.4,1.5-0.1c0.3,0.2,0.5,0.6,0.5,0.9
				S164.3,223,164.1,223.1L164.1,223.1z"/>
			<path class="st2" d="M169.4,236.2c0.1,0.2,0.2,0.4,0.3,0.5c0.1,0.1,0.4,0.2,0.5,0.1c0.3-0.1,0.3-0.6,0.5-0.8
				c0.2-0.3,0.6-0.3,0.7-0.7c0.1-0.3-0.2-0.6-0.6-0.6c-0.3,0-0.6,0.2-0.9,0.4c-0.2,0.2-0.5,0.4-0.6,0.7c-0.1,0.3,0,0.6,0.2,0.8
				L169.4,236.2z"/>
			<path class="st2" d="M155.9,228.9c1.1,0.5,2.3,0.7,3.6,0.6c0.2,0,0.4,0,0.6-0.1c0.3-0.2,0.5-0.6,0.5-1c0.1-0.9-0.6-1.8-1.4-2.2
				c-0.8-0.4-1.9-0.2-2.6,0.3c-0.4,0.3-0.8,0.7-0.9,1.2c-0.1,0.5,0.1,1.1,0.6,1.2c0.1-0.1,0.1-0.3,0-0.4L155.9,228.9z"/>
			<path class="st2" d="M161.6,222.2c0.1-0.2,0.1-0.4,0.1-0.5c-0.1-0.2-0.2-0.3-0.4-0.4c-0.4-0.3-0.8-0.6-1.1-0.9
				c0.1,0.8,0.1,1.6,0.2,2.4c0,0.1,0,0.1,0,0.2c-0.1,0.2-0.4,0.2-0.5,0.4c-0.3,0.2-0.2,0.6,0,0.9
				C160.8,226.3,161.3,223.2,161.6,222.2z"/>
			<path class="st2" d="M155.9,228.6c-0.1-0.1-0.2-0.2-0.3-0.3c-0.2,0.1-0.4,0.3-0.3,0.5c0,0.2,0.3,0.4,0.5,0.3
				C156,229.1,156.1,228.8,155.9,228.6L155.9,228.6z"/>
			<path class="st2" d="M157.8,222.3c0.3-0.2,0.3-0.6,0.2-0.9c-0.2-0.3-0.5-0.4-0.9-0.4c-0.1,0-0.3,0.1-0.3,0.2
				c0,0.1,0.1,0.2,0.1,0.3c0.3,0.3,0.6,0.6,0.9,0.9L157.8,222.3z"/>
			<path class="st2" d="M155.6,226.1c0.5-0.5,0.7-1.2,0.6-1.8c-0.3,0-0.6,0-0.9,0.2c-0.3,0.1-0.5,0.4-0.4,0.7c0,0.4,0.5,0.6,0.8,0.8
				c-0.1,0-0.2,0.1-0.3,0.1L155.6,226.1z"/>
			<path class="st2" d="M153,227.6c0,0.2,0,0.4-0.1,0.6c-0.4-0.3-0.5-0.9-0.5-1.4c0-0.3,0-0.6,0.3-0.7c0.2-0.1,0.4,0,0.6,0
				c0.4,0,0.8-0.4,1.1-0.1c0.2,0.1,0.2,0.4,0,0.6c-0.1,0.2-0.3,0.3-0.5,0.4c-0.4,0.2-0.8,0.5-1.3,0.7L153,227.6z"/>
			<path class="st2" d="M159.8,224.5c0.4-0.2,0.8-0.7,0.9-1.1c-0.4,0-0.8-0.1-1.2-0.1c-0.2,0-0.4,0-0.6,0c-0.3,0.2-0.4,0.7-0.2,1
				C159,224.5,159.4,224.6,159.8,224.5L159.8,224.5z"/>
			<path class="st2" d="M154.1,221.8c-0.2,0.2,0,0.5,0.3,0.6c0.3,0.1,0.5,0,0.8,0.1c0.3,0.1,0.5,0.2,0.6,0.5c0.1,0.1,0.1,0.3,0,0.5
				c-0.1,0.1-0.2,0.1-0.3,0.2c-0.5,0.2-1,0.4-1.5,0.3s-1-0.4-1.2-0.9c-0.1-0.4,0-0.8,0.3-1S153.8,221.7,154.1,221.8L154.1,221.8z"/>
			<path class="st2" d="M162.5,236.9c0.2-0.3,0.4-0.6,0.4-0.9c0.1-0.3-0.1-0.7-0.4-0.9c-0.2-0.1-0.3-0.1-0.5-0.1
				c-0.5,0.1-0.9,0.7-0.8,1.2C161.4,236.6,162,237,162.5,236.9L162.5,236.9z"/>
			<path class="st2" d="M167.5,230.9c0.5-0.5,0.7-1.2,0.6-1.8c-0.3,0-0.6,0-0.9,0.2c-0.3,0.1-0.5,0.4-0.4,0.7c0,0.4,0.5,0.6,0.8,0.8
				c-0.1,0-0.2,0.1-0.3,0.1L167.5,230.9z"/>
			<path class="st2" d="M151.8,227.7c-0.4,0-0.6,0.4-0.7,0.7c-0.1,0.3-0.3,0.7-0.6,0.8c-0.1,0-0.2,0-0.3-0.1c-0.2-0.2,0-0.5,0.1-0.7
				c0.1-0.2,0-0.4,0-0.6c0-0.5,0.4-0.9,0.8-1.1c0.2,0,0.5,0.2,0.5,0.5c0.1,0.2,0,0.5-0.3,0.7L151.8,227.7z"/>
			<path class="st2" d="M172.9,245.1c-0.1,0-0.3,0-0.4-0.1c-0.1,0.2-0.1,0.5,0,0.6c0.2,0.2,0.5,0.2,0.6,0
				C173.2,245.5,173.1,245.2,172.9,245.1L172.9,245.1z"/>
			<path class="st2" d="M160.7,227.7c0-0.1,0-0.3,0.1-0.4c-0.2-0.1-0.4-0.1-0.6,0c-0.2,0.1-0.3,0.4-0.1,0.5c0.1,0,0.2,0,0.2,0
				c0.3,0,0.5-0.1,0.8-0.1L160.7,227.7z"/>
		</g>
	</g>
	
		<radialGradient id="SVGID_00000091723237913693317430000004910217086842436247_" cx="157.5709" cy="322.4303" r="57.9679" gradientTransform="matrix(1 0 0 0.2225 0 235.8735)" gradientUnits="userSpaceOnUse">
		<stop  offset="0" style="stop-color:#4C5354"/>
		<stop  offset="8.237104e-02" style="stop-color:#626768"/>
		<stop  offset="0.2824" style="stop-color:#919494"/>
		<stop  offset="0.4356" style="stop-color:#AFB0B0"/>
		<stop  offset="0.5225" style="stop-color:#BABABA"/>
		<stop  offset="0.6312" style="stop-color:#C4C4C4"/>
		<stop  offset="0.8141" style="stop-color:#DEDEDE"/>
		<stop  offset="1" style="stop-color:#FFFFFF"/>
	</radialGradient>
	
		<ellipse style="opacity:0.5;fill:url(#SVGID_00000091723237913693317430000004910217086842436247_);" cx="157.6" cy="307.6" rx="58" ry="12.9"/>
	
		<linearGradient id="SVGID_00000083056712905834375110000010170472230922216113_" gradientUnits="userSpaceOnUse" x1="50.2131" y1="72.9178" x2="54.5642" y2="11.6138">
		<stop  offset="0" style="stop-color:#A242EA"/>
		<stop  offset="1" style="stop-color:#FE117E"/>
	</linearGradient>
	<polygon style="fill:url(#SVGID_00000083056712905834375110000010170472230922216113_);" points="70,12.7 74.2,14.5 70,60.9 
		66.5,62.5 46.9,64.4 45.5,72.6 31.3,60.9 	"/>
	
		<linearGradient id="SVGID_00000075153495905064509000000000511056292216380841_" gradientUnits="userSpaceOnUse" x1="124.592" y1="287.1258" x2="130.8166" y2="237.5656">
		<stop  offset="0" style="stop-color:#FF9200"/>
		<stop  offset="1" style="stop-color:#FFC400"/>
	</linearGradient>
	<path style="fill:url(#SVGID_00000075153495905064509000000000511056292216380841_);" d="M146.2,257.5c-1.7,9.9-9.2,32.7-15.9,30.3
		c-1.5-0.5-3-2.4-4.5-5.1c-4.6-8.2-9.1-24.4-11.4-35.3c-1.2-6-1.8-10.4-1.3-11.1c3-4.4,31.5,14.8,33.2,17
		C146.7,253.6,146.6,255.2,146.2,257.5z"/>
	
		<linearGradient id="SVGID_00000129889618701928478550000005301419349052252074_" gradientUnits="userSpaceOnUse" x1="169.1489" y1="294.127" x2="177.1777" y2="230.2016">
		<stop  offset="0" style="stop-color:#FF9200"/>
		<stop  offset="1" style="stop-color:#FFC400"/>
	</linearGradient>
	<path style="fill:url(#SVGID_00000129889618701928478550000005301419349052252074_);" d="M191.3,244.2c-0.1,0.9-0.2,1.9-0.4,2.8
		c-2,15-6.2,37-10.6,45c-1.1,1.9-2.2,3-3.2,3.1c-0.3,0-0.6,0-0.9-0.1c-1-0.3-2.1-1.1-3.2-2.3v0c-6.8-7.6-14.4-30.7-14.7-37.6
		c0-0.9,0-1.5,0.3-1.8c3.9-5.2,31.9-23.2,33.4-21C192.4,232.8,192.1,237.5,191.3,244.2z"/>
	
		<linearGradient id="SVGID_00000060736815475784009660000002730957669452735650_" gradientUnits="userSpaceOnUse" x1="129.7056" y1="254.9672" x2="129.7056" y2="235.4356">
		<stop  offset="0" style="stop-color:#2370B9"/>
		<stop  offset="1" style="stop-color:#0053A4"/>
	</linearGradient>
	<path style="fill:url(#SVGID_00000060736815475784009660000002730957669452735650_);" d="M113.2,236.3
		c-3.2,4.1,22.5,22.8,33.4,17.9C146.5,254.2,117.3,230.8,113.2,236.3z"/>
	
		<linearGradient id="SVGID_00000060732924395805361250000008962148323740629897_" gradientUnits="userSpaceOnUse" x1="175.1325" y1="255.4197" x2="175.1325" y2="232.1888">
		<stop  offset="0" style="stop-color:#2370B9"/>
		<stop  offset="1" style="stop-color:#0053A4"/>
	</linearGradient>
	<path style="fill:url(#SVGID_00000060732924395805361250000008962148323740629897_);" d="M158.3,255c-0.9,2.1,28.8-2.7,33.7-22.8
		C192,232.2,166.3,235.2,158.3,255z"/>
	
		<linearGradient id="SVGID_00000109745549871325459310000010403302861571760296_" gradientUnits="userSpaceOnUse" x1="129.7533" y1="287.766" x2="129.7533" y2="235.5999">
		<stop  offset="0" style="stop-color:#2370B9"/>
		<stop  offset="1" style="stop-color:#CCEDFF"/>
	</linearGradient>
	<path style="opacity:0.3;fill:url(#SVGID_00000109745549871325459310000010403302861571760296_);" d="M124.4,253.6
		c-1.4,1.8,0.3,24.9,5.9,34.2c-1.5-0.5-3-2.4-4.5-5.1c-0.9-4-2.2-10-3.5-16c-1.6-7.7-5.7-15.6-7.8-19.3c-1.2-6-1.8-10.4-1.3-11.1
		c3-4.4,31.5,14.8,33.2,17c0.3,0.4,0.2,2-0.2,4.3C146.2,257.5,125.8,251.8,124.4,253.6z"/>
	<path class="st11" d="M174.6,262c-1.2,0.4-1.5,10,0.5,10.6C177.1,273.1,177.4,261.1,174.6,262z"/>
	
		<linearGradient id="SVGID_00000148628037760122092760000008803311901816429202_" gradientUnits="userSpaceOnUse" x1="175.2303" y1="292.6164" x2="175.2303" y2="232.01">
		<stop  offset="0" style="stop-color:#2370B9"/>
		<stop  offset="1" style="stop-color:#CCEDFF"/>
	</linearGradient>
	<path style="opacity:0.3;fill:url(#SVGID_00000148628037760122092760000008803311901816429202_);" d="M191.3,244.2
		c0,0-16.2,4.8-20,12.5c-3.7,7.7-2.3,26,1.7,35.9c-6.8-7.6-14.4-30.7-14.7-37.6c0-0.9,0-1.5,0.3-1.8c3.9-5.2,31.9-23.2,33.4-21
		C192.4,232.8,192.1,237.5,191.3,244.2z"/>
	
		<linearGradient id="SVGID_00000029030674287871445390000006126098093312294275_" gradientUnits="userSpaceOnUse" x1="95.0329" y1="241.9734" x2="105.7642" y2="156.5302">
		<stop  offset="0" style="stop-color:#FF9200"/>
		<stop  offset="1" style="stop-color:#FFC400"/>
	</linearGradient>
	<path style="fill:url(#SVGID_00000029030674287871445390000006126098093312294275_);" d="M121.2,168.6c0,8.6-1.2,20.9-5.1,31
		c-6.4,16.6-16.1,37.4-16.4,38.1l0,0c-5.9,3.6-13,3.4-17.5,2.8c-2.7-0.4-4.5-1-4.5-1s2-19,12.4-40.5c5.2-10.8,11.9-20.9,17.7-28.3
		c0,0,0.1-0.1,0.1-0.1c0.1-0.1,0.1-0.2,0.2-0.3c0-0.1,0.1-0.1,0.1-0.2c0,0,0.1-0.1,0.1-0.1c0.1-0.1,0.1-0.1,0.2-0.2c0,0,0,0,0,0
		c0,0,0,0,0,0c5.8-7.4,10.6-11.9,11.6-11.4C120.7,158.7,121.2,162.7,121.2,168.6z"/>
	
		<linearGradient id="SVGID_00000057841542012667420490000014439873383817579941_" gradientUnits="userSpaceOnUse" x1="88.7466" y1="241.1548" x2="88.7466" y2="227.5746">
		<stop  offset="0" style="stop-color:#2370B9"/>
		<stop  offset="1" style="stop-color:#0053A4"/>
	</linearGradient>
	<path style="fill:url(#SVGID_00000057841542012667420490000014439873383817579941_);" d="M77.8,238.6c0,0,7.6-12.5,15.4-10.9
		c7.8,1.6,6.4,9.9,6.4,9.9S89.6,244.9,77.8,238.6z"/>
	
		<linearGradient id="SVGID_00000080909605794610820880000002598927389635437745_" gradientUnits="userSpaceOnUse" x1="99.4171" y1="240.3514" x2="99.4171" y2="168.5559">
		<stop  offset="0" style="stop-color:#2370B9"/>
		<stop  offset="1" style="stop-color:#CCEDFF"/>
	</linearGradient>
	<path style="opacity:0.3;fill:url(#SVGID_00000080909605794610820880000002598927389635437745_);" d="M121.2,168.6
		c0,8.6-1.2,20.9-5.1,31c-6.4,16.6-16.1,37.4-16.4,38.1l0,0l-17.5,2.8c-2.7-0.4-4.5-1-4.5-1s2-19,12.4-40.5
		c5.2-10.8,11.9-20.9,17.7-28.3C104.5,175,90.7,193.9,87,210c-4.2,18.3,12.8,11.2,19.8,0c6.9-11.2,14.2-41.4,14.2-41.4H121.2z"/>
	<path class="st11" d="M102.2,197.8c-1.4-0.5,5.8-16.7,8-16.9C112.4,180.8,103.3,198.2,102.2,197.8z"/>
	<path class="st11" d="M101.4,199.5c-1.1-0.6-2.1,2.5-1.1,2.9C101.3,202.9,102.7,200.2,101.4,199.5z"/>
	
		<linearGradient id="SVGID_00000053534069561296166700000005539850079935842200_" gradientUnits="userSpaceOnUse" x1="85.4834" y1="278.1243" x2="91.3289" y2="231.5819">
		<stop  offset="0" style="stop-color:#FF9200"/>
		<stop  offset="1" style="stop-color:#FFC400"/>
	</linearGradient>
	<path style="fill:url(#SVGID_00000053534069561296166700000005539850079935842200_);" d="M90.7,231.5c-4.1-0.7-10,3.1-11.8,6.5
		c-1.8,3.4-2.8,23.1,1.8,39.3c0,0,6.5,1.8,11.5,0c4.9-1.8,8.3-16.1,8.6-26.9S97.4,232.6,90.7,231.5z"/>
	
		<linearGradient id="SVGID_00000041984439743569943140000001943586024165152417_" gradientUnits="userSpaceOnUse" x1="94.6542" y1="277.8841" x2="94.6542" y2="236.2467">
		<stop  offset="0" style="stop-color:#2370B9"/>
		<stop  offset="1" style="stop-color:#0053A4"/>
	</linearGradient>
	<path style="fill:url(#SVGID_00000041984439743569943140000001943586024165152417_);" d="M90.1,277.9c0,0-6-34.6,7.6-41.6
		c0,0,4,6.9,2.5,20.2C98.7,269.8,96.4,276.7,90.1,277.9z"/>
	
		<linearGradient id="SVGID_00000177447075963562397090000015212236622995895706_" gradientUnits="userSpaceOnUse" x1="94.1351" y1="264.9958" x2="94.1351" y2="248.8958">
		<stop  offset="0" style="stop-color:#8DA4E5"/>
		<stop  offset="1" style="stop-color:#755CBB"/>
	</linearGradient>
	<path style="opacity:0.5;fill:url(#SVGID_00000177447075963562397090000015212236622995895706_);" d="M89.1,258.7
		c0,0,3.5,5.1,5.9,5.9c2.4,0.8,4.3,0,4.3,0l-8.8-15.7C90.4,248.9,88.8,255.1,89.1,258.7z"/>
	
		<linearGradient id="SVGID_00000055673743842607618440000012057688539720493748_" gradientUnits="userSpaceOnUse" x1="95.2149" y1="264.2359" x2="98.6301" y2="237.0433">
		<stop  offset="0" style="stop-color:#FF9200"/>
		<stop  offset="1" style="stop-color:#FFC400"/>
	</linearGradient>
	<path style="fill:url(#SVGID_00000055673743842607618440000012057688539720493748_);" d="M90.4,248.9c0,0,1.9-9.6,7.7-11.9
		c0,0,5.4,5.3,4,25.9c0,0-3,4-7.2,0C94.9,262.9,91.4,255.9,90.4,248.9z"/>
	<path class="st11" d="M93.7,245.5c-2,0,1,8.7,2,8.5C96.8,253.8,95.3,245.5,93.7,245.5z"/>
	
		<linearGradient id="SVGID_00000096747569637644616170000015064532919539720844_" gradientUnits="userSpaceOnUse" x1="-600.5371" y1="87.0917" x2="-600.5371" y2="37.8105" gradientTransform="matrix(-1 0 0 1 -498.5355 0)">
		<stop  offset="0" style="stop-color:#FF9200"/>
		<stop  offset="1" style="stop-color:#FFD300"/>
	</linearGradient>
	<path style="fill:url(#SVGID_00000096747569637644616170000015064532919539720844_);" d="M116,46.8c0,0-8.9-7.7-19.8-9
		c0,0-3.3,1.6-7.2,13.6c-3.8,12,3.3,35.7,3.3,35.7L116,46.8z"/>
	
		<linearGradient id="SVGID_00000029015370157298322860000003610400322510354092_" gradientUnits="userSpaceOnUse" x1="98.4733" y1="68.474" x2="98.4733" y2="37.8105">
		<stop  offset="0" style="stop-color:#2370B9"/>
		<stop  offset="1" style="stop-color:#0053A4"/>
	</linearGradient>
	<path style="fill:url(#SVGID_00000029015370157298322860000003610400322510354092_);" d="M92.1,43.8c0,0,1.7-4.1,4.2-6
		c0,0,8.9,8.3,8.6,28l-2.6,2.7L92.1,43.8z"/>
	
		<linearGradient id="SVGID_00000027563941613051149490000017820559885281462167_" gradientUnits="userSpaceOnUse" x1="203.6518" y1="87.0917" x2="203.6518" y2="37.8105">
		<stop  offset="0" style="stop-color:#FF9200"/>
		<stop  offset="1" style="stop-color:#FFD300"/>
	</linearGradient>
	<path style="fill:url(#SVGID_00000027563941613051149490000017820559885281462167_);" d="M189.6,46.8c0,0,8.9-7.7,19.8-9
		c0,0,3.3,1.6,7.2,13.6c3.8,12-3.3,35.7-3.3,35.7L189.6,46.8z"/>
	
		<linearGradient id="SVGID_00000009571485789603561880000002070021510667023015_" gradientUnits="userSpaceOnUse" x1="207.2308" y1="64.5969" x2="207.2308" y2="37.8068">
		<stop  offset="0" style="stop-color:#2370B9"/>
		<stop  offset="1" style="stop-color:#0053A4"/>
	</linearGradient>
	<path style="fill:url(#SVGID_00000009571485789603561880000002070021510667023015_);" d="M209.4,37.8c0,0-8.8,9.4-8.8,24.6l3.4,2.1
		l9.9-20.5C213.9,44.1,210.6,37.6,209.4,37.8z"/>
	
		<linearGradient id="SVGID_00000006669080713546532390000016162151829448733861_" gradientUnits="userSpaceOnUse" x1="213.8909" y1="89.4496" x2="213.8909" y2="41.0293">
		<stop  offset="0" style="stop-color:#45FFCD"/>
		<stop  offset="1" style="stop-color:#22E0FF"/>
	</linearGradient>
	<path style="fill:url(#SVGID_00000006669080713546532390000016162151829448733861_);" d="M203.7,63.6c0,0-2.3-13,6.2-22.5
		c0,0,9.7,4.6,13.7,21.4c4,16.9-6.4,27-6.4,27L203.7,63.6z"/>
	
		<linearGradient id="SVGID_00000104696796031876257860000012157471910326399156_" gradientUnits="userSpaceOnUse" x1="-590.2981" y1="89.4496" x2="-590.2981" y2="41.0293" gradientTransform="matrix(-1 0 0 1 -498.5355 0)">
		<stop  offset="0" style="stop-color:#45FFCD"/>
		<stop  offset="1" style="stop-color:#22E0FF"/>
	</linearGradient>
	<path style="fill:url(#SVGID_00000104696796031876257860000012157471910326399156_);" d="M102,63.6c0,0,2.3-13-6.2-22.5
		c0,0-9.7,4.6-13.7,21.4c-4,16.9,6.4,27,6.4,27L102,63.6z"/>
	
		<linearGradient id="SVGID_00000126287833146389605570000010507438518352846780_" gradientUnits="userSpaceOnUse" x1="147.5112" y1="156.9911" x2="163.1787" y2="32.2455">
		<stop  offset="0" style="stop-color:#FF9200"/>
		<stop  offset="1" style="stop-color:#FFC400"/>
	</linearGradient>
	<path style="fill:url(#SVGID_00000126287833146389605570000010507438518352846780_);" d="M215.5,135.3
		c-19.8,27.8-113.1,25.8-125.2,3.3c-7.9-14.7-7.1-36.8,0.6-57.1c10-26.7,31.7-50.3,60.4-50.3c33.8,0,59.8,33.7,67.6,64.4
		C222.9,111.2,222.2,126,215.5,135.3z"/>
	<path class="st27" d="M97.3,109.5c4.4,18.9,86.4,21,106.5,3.8s-8.9-78.2-53.3-75.5C109.9,40.3,90,78.5,97.3,109.5z"/>
	
		<linearGradient id="SVGID_00000161604485042052462930000010566124117922741676_" gradientUnits="userSpaceOnUse" x1="152.6234" y1="122.7933" x2="152.6234" y2="35.5061">
		<stop  offset="0" style="stop-color:#2370B9"/>
		<stop  offset="1" style="stop-color:#233050"/>
	</linearGradient>
	<path style="fill:url(#SVGID_00000161604485042052462930000010566124117922741676_);" d="M96.9,107.2c4.4,18.9,86.4,21,106.5,3.8
		s-8.9-78.2-53.3-75.5C109.5,38,89.6,76.2,96.9,107.2z"/>
	
		<linearGradient id="SVGID_00000106833198984040702910000013641962998829092753_" gradientUnits="userSpaceOnUse" x1="153.0527" y1="155.838" x2="153.0527" y2="81.4829">
		<stop  offset="0" style="stop-color:#2370B9"/>
		<stop  offset="1" style="stop-color:#CCEDFF"/>
	</linearGradient>
	<path style="opacity:0.3;fill:url(#SVGID_00000106833198984040702910000013641962998829092753_);" d="M215.5,135.3
		c-19.8,27.8-113.1,25.8-125.2,3.3c-7.9-14.7-7.1-36.8,0.6-57.1c0,0,0,0,0,0c-0.3,1.2-8.1,29.7-0.2,42.2c8.2,12.8,40.4,11,75.1,9.6
		c34.6-1.5,46.1-6.5,51.9-16.3c4.6-7.7,0-24.7-2.2-31.5l3.4,10.1C222.9,111.2,222.2,126,215.5,135.3z"/>
	
		<linearGradient id="SVGID_00000111903471235607947090000011544074925910742960_" gradientUnits="userSpaceOnUse" x1="102.938" y1="146.1722" x2="199.8321" y2="146.1722">
		<stop  offset="0" style="stop-color:#2370B9"/>
		<stop  offset="1" style="stop-color:#238FB9"/>
	</linearGradient>
	<path style="fill:url(#SVGID_00000111903471235607947090000011544074925910742960_);" d="M151.4,155.8c-19.4,0-33.3-2.2-41.2-5.3h0
		c-5.1-2.1-7.6-4.5-7.3-7c0.2-1.5,4-2.9,10-4c17.6-3.2,54-4.1,73.6-1.2c1.7,0.3,3.3,0.5,4.7,0.9c0.3,0.1,0.6,0.1,0.9,0.2
		c0.1,0,0.1,0,0.2,0c3.4,0.8,5.8,1.9,6.9,3.1c0.3,0.3,0.5,0.6,0.6,1C201.6,149.8,168.9,155.8,151.4,155.8z"/>
	
		<linearGradient id="SVGID_00000170267451597994005940000000867891417584470709_" gradientUnits="userSpaceOnUse" x1="151.2433" y1="150.4898" x2="151.2433" y2="136.5237">
		<stop  offset="0" style="stop-color:#8DA4E5"/>
		<stop  offset="1" style="stop-color:#755CBB"/>
	</linearGradient>
	<path style="opacity:0.5;fill:url(#SVGID_00000170267451597994005940000000867891417584470709_);" d="M199.5,141.9
		c-0.1,0.2-0.2,0.4-0.3,0.6c-1.9,2.7-9.6,6.1-9.6,6.1s-29.6-12.1-53.6-6.7c-24,5.4-25.8,8.6-25.8,8.6h0c-5.1-2.1-7.6-4.5-7.3-7
		c0.2-1.5,4-2.9,10-4c17.6-3.2,54-4.1,73.6-1.2c2.1,0.4,3.9,0.7,5.6,1.1c0.1,0,0.1,0,0.2,0C197,140.4,199.8,141.3,199.5,141.9z"/>
	
		<linearGradient id="SVGID_00000075871066921668575530000010725048254879452602_" gradientUnits="userSpaceOnUse" x1="150.9974" y1="148.5135" x2="152.816" y2="134.0338">
		<stop  offset="0" style="stop-color:#232D87"/>
		<stop  offset="1" style="stop-color:#2370B9"/>
	</linearGradient>
	<path style="fill:url(#SVGID_00000075871066921668575530000010725048254879452602_);" d="M191.3,139.2c-4.6,4.4-26.5,8.2-39.1,8.2
		c-22.4,0-36.1-3.6-39.2-7.8C132.1,136,173.4,135.2,191.3,139.2z"/>
	
		<linearGradient id="SVGID_00000057869271137274970220000003180559634356976799_" gradientUnits="userSpaceOnUse" x1="146.6879" y1="253.3934" x2="160.2989" y2="145.0214">
		<stop  offset="0" style="stop-color:#FF9200"/>
		<stop  offset="1" style="stop-color:#FFC400"/>
	</linearGradient>
	<path style="fill:url(#SVGID_00000057869271137274970220000003180559634356976799_);" d="M189.9,226.9c-2.7,16-17,26.6-37.5,26.6
		c-17.9,0-33-6.7-37-21.3c-4-14.6-2.4-41.7,2.9-58.6c0.8-2.5,1.8-4.9,2.9-7.3l0,0c1-2.1,2.1-4.1,3.4-5.9c0,0,0,0,0,0
		c6.5-9.8,16.1-16.2,26.8-16.2c11.2,0,19.8,4.6,25.7,11.4c2.7,3.2,4.9,6.8,6.4,10.7c1.8,4.5,3.2,9.2,4.4,14.1c0,0,0,0.1,0,0.1
		C191.5,196,192.3,212.7,189.9,226.9z"/>
	
		<linearGradient id="SVGID_00000029724109024588452870000014141236317691012766_" gradientUnits="userSpaceOnUse" x1="175.8956" y1="169.6478" x2="188.7896" y2="169.6478">
		<stop  offset="0" style="stop-color:#2370B9"/>
		<stop  offset="1" style="stop-color:#238FB9"/>
	</linearGradient>
	<path style="fill:url(#SVGID_00000029724109024588452870000014141236317691012766_);" d="M175.9,154.4c0,0,1.7,19,12.9,30.5
		C188.8,184.9,185.7,167.2,175.9,154.4z"/>
	
		<linearGradient id="SVGID_00000132782522280078357250000000006865544279068842_" gradientUnits="userSpaceOnUse" x1="203.2904" y1="179.2506" x2="211.7639" y2="111.7846">
		<stop  offset="0" style="stop-color:#FF9200"/>
		<stop  offset="1" style="stop-color:#FFC400"/>
	</linearGradient>
	<path style="fill:url(#SVGID_00000132782522280078357250000000006865544279068842_);" d="M238.9,131.2
		c-17.5,34.6-48.3,46.5-48.3,46.5c-8.5-5.5-15.9-23.4-12.9-26.9l0,0c0.1-0.2,0.3-0.3,0.5-0.4c37.6-18,48.8-36.6,48.8-36.6
		c5.1,0.4,8,3.3,9.6,6.7C239.1,125.4,238.9,131.2,238.9,131.2z"/>
	
		<linearGradient id="SVGID_00000137099995844140280330000014473786334207679131_" gradientUnits="userSpaceOnUse" x1="101.7815" y1="138.5982" x2="101.7815" y2="119.0028">
		<stop  offset="0" style="stop-color:#8DA4E5"/>
		<stop  offset="1" style="stop-color:#755CBB"/>
	</linearGradient>
	<path style="opacity:0.5;fill:url(#SVGID_00000137099995844140280330000014473786334207679131_);" d="M90.3,138.6
		c0,0,3.9-4.6,11.7-8.3c7.7-3.7,14.8-6.6,15.9-9.6c1.1-3-21.2-1.2-21.2-1.2l-11.1,4.8C85.6,124.3,87.4,133.3,90.3,138.6z"/>
	
		<linearGradient id="SVGID_00000089563990511468572450000008064446026666414264_" gradientUnits="userSpaceOnUse" x1="231.9262" y1="137.7413" x2="231.9262" y2="113.4369">
		<stop  offset="0" style="stop-color:#2370B9"/>
		<stop  offset="1" style="stop-color:#0053A4"/>
	</linearGradient>
	<path style="fill:url(#SVGID_00000089563990511468572450000008064446026666414264_);" d="M227.1,113.7c-3.1,0.8-2.8,21.6,1.2,23.7
		c4,2.1,10.7-6.2,10.7-6.2S238.2,110.8,227.1,113.7z"/>
	
		<linearGradient id="SVGID_00000099659795161943187190000009087516764565790105_" gradientUnits="userSpaceOnUse" x1="179.3724" y1="78.9385" x2="179.3724" y2="58.0096">
		<stop  offset="0" style="stop-color:#45FFCD"/>
		<stop  offset="1" style="stop-color:#22E0FF"/>
	</linearGradient>
	<path style="fill:url(#SVGID_00000099659795161943187190000009087516764565790105_);" d="M167.7,76.6c3,5.2,22.6,0.6,23.7-2.5
		c1.5-4.1-4-17.2-14.4-16C166.7,59.3,166.3,74.1,167.7,76.6z"/>
	
		<linearGradient id="SVGID_00000124137440967770123960000003333453493285607048_" gradientUnits="userSpaceOnUse" x1="-521.4539" y1="78.9385" x2="-521.4539" y2="58.0096" gradientTransform="matrix(-1 0 0 1 -396.0395 0)">
		<stop  offset="0" style="stop-color:#45FFCD"/>
		<stop  offset="1" style="stop-color:#22E0FF"/>
	</linearGradient>
	<path style="fill:url(#SVGID_00000124137440967770123960000003333453493285607048_);" d="M137.1,76.6c-3,5.2-22.6,0.6-23.7-2.5
		c-1.5-4.1,4-17.2,14.4-16C138.1,59.3,138.5,74.1,137.1,76.6z"/>
	<path class="st40" d="M131.6,86.2c0,0,5.6,5.8,21.4,5.8c15.9,0,24-6.7,24-6.7s-7,9.5-24,9.5C136,94.8,131.6,86.2,131.6,86.2z"/>
	
		<linearGradient id="SVGID_00000070101272774234746610000001687486793840390812_" gradientUnits="userSpaceOnUse" x1="75.179" y1="125.7937" x2="82.3602" y2="68.6159">
		<stop  offset="0" style="stop-color:#2370B9"/>
		<stop  offset="1" style="stop-color:#0053A4"/>
	</linearGradient>
	<path style="fill:url(#SVGID_00000070101272774234746610000001687486793840390812_);" d="M81.2,68.5c0,0,5.7,3.7,2,12.3
		c0,0-26.9,14.6-25.3,30.6c1.3,13.3,38.4,6.9,38.4,6.9l1.3,4.4c0,0-31.5,6.2-42.4-1.2c0,0-3.7-8.8,5.5-24.6
		C69.9,80.9,81.2,68.5,81.2,68.5z"/>
	
		<linearGradient id="SVGID_00000151517476446947307920000013326127651288622741_" gradientUnits="userSpaceOnUse" x1="92.7882" y1="54.5262" x2="92.7882" y2="38.4087" gradientTransform="matrix(0.9734 0.2292 -0.2292 0.9734 25.2402 51.7901)">
		<stop  offset="0" style="stop-color:#DD1A8F"/>
		<stop  offset="1" style="stop-color:#FE117E"/>
	</linearGradient>
	<path style="fill:url(#SVGID_00000151517476446947307920000013326127651288622741_);" d="M91.6,116.9c-3.4,3.8,3.8,8,9.7,8.7
		c6.6,0.7,18.4-1.9,17.7-8.6C118.3,110.4,99.5,108,91.6,116.9z"/>
	
		<linearGradient id="SVGID_00000054967901671510979710000016803326598008488834_" gradientUnits="userSpaceOnUse" x1="110.2422" y1="56.0429" x2="199.5376" y2="56.0429">
		<stop  offset="0" style="stop-color:#000000"/>
		<stop  offset="1" style="stop-color:#6A9BFF"/>
	</linearGradient>
	<path style="opacity:0.5;fill:url(#SVGID_00000054967901671510979710000016803326598008488834_);" d="M110.3,59.3
		c-1,6.1,12.6,5.9,31.2,5.3c22.3-0.7,44.8,18.5,57.9,4.7c2.2-2.3-19.2-32.2-45.1-31.5C128.5,38.5,111.2,54,110.3,59.3z"/>
	
		<linearGradient id="SVGID_00000168835524330638249090000006013487338983847319_" gradientUnits="userSpaceOnUse" x1="122.8661" y1="114.8163" x2="186.3225" y2="114.8163">
		<stop  offset="0" style="stop-color:#000000"/>
		<stop  offset="1" style="stop-color:#6A9BFF"/>
	</linearGradient>
	<path style="opacity:0.5;fill:url(#SVGID_00000168835524330638249090000006013487338983847319_);" d="M123,112.8
		c-1.2,4.4,8.1,8.9,31,7.8c27.7-1.4,33.5-7.1,32.2-8.8c-0.8-1-9.1,4.3-31.8-0.7C139.3,107.8,124.2,108.1,123,112.8z"/>
	
		<linearGradient id="SVGID_00000155129175316733776210000003458765921349869998_" gradientUnits="userSpaceOnUse" x1="214.9834" y1="84.8804" x2="214.9834" y2="82.8653">
		<stop  offset="0" style="stop-color:#2370B9"/>
		<stop  offset="1" style="stop-color:#CCEDFF"/>
	</linearGradient>
	<path style="opacity:0.3;fill:url(#SVGID_00000155129175316733776210000003458765921349869998_);" d="M215.3,84.9l-0.7-2
		C214.8,83.3,215,83.9,215.3,84.9z"/>
	
		<linearGradient id="SVGID_00000003827318604399712920000013021161362040166297_" gradientUnits="userSpaceOnUse" x1="152.2203" y1="253.5787" x2="152.2203" y2="166.3884">
		<stop  offset="0" style="stop-color:#2370B9"/>
		<stop  offset="1" style="stop-color:#CCEDFF"/>
	</linearGradient>
	<path style="opacity:0.3;fill:url(#SVGID_00000003827318604399712920000013021161362040166297_);" d="M189.9,226.9
		c-2.7,16-17,26.6-37.5,26.6c-17.9,0-33-6.7-37-21.3c-4-14.6-2.4-41.7,2.9-58.6c0.8-2.5,1.8-4.9,2.9-7.3l0,0c0,0-10.8,35.8-2.2,58.6
		c8.6,22.8,48.9,22.3,62.5,7.2c13-14.4,7-48.3,6.4-51.6C191.5,196,192.3,212.7,189.9,226.9z"/>
	
		<linearGradient id="SVGID_00000053514805777783710880000009191782009369943212_" gradientUnits="userSpaceOnUse" x1="151.385" y1="251.806" x2="151.385" y2="183.135">
		<stop  offset="0" style="stop-color:#2370B9"/>
		<stop  offset="1" style="stop-color:#0053A4"/>
	</linearGradient>
	<path style="fill:url(#SVGID_00000053514805777783710880000009191782009369943212_);" d="M116.2,217.5c3.1-21.4,20.3-36,39.4-34.2
		c20.6,1.9,31.7,21.6,31.4,38.5c-0.3,16.9-12.6,30-34.7,30C130.1,251.8,113.3,237.5,116.2,217.5z"/>
	
		<radialGradient id="SVGID_00000017488822239298944910000002434615041369274779_" cx="152.7617" cy="242.925" r="52.402" gradientUnits="userSpaceOnUse">
		<stop  offset="0" style="stop-color:#45FFCD"/>
		<stop  offset="1" style="stop-color:#2370B9"/>
	</radialGradient>
	<path style="fill:url(#SVGID_00000017488822239298944910000002434615041369274779_);" d="M116.4,219.2c3.1-21.4,20.3-36,39.4-34.2
		c20.6,1.9,31.7,21.6,31.4,38.5c-0.3,16.9-12.6,30-34.7,30S113.5,239.3,116.4,219.2z"/>
	
		<linearGradient id="SVGID_00000087414203056216672080000003147843410881122231_" gradientUnits="userSpaceOnUse" x1="150.7155" y1="165.4652" x2="150.7155" y2="144.2102">
		<stop  offset="0" style="stop-color:#8DA4E5"/>
		<stop  offset="1" style="stop-color:#755CBB"/>
	</linearGradient>
	<path style="opacity:0.5;fill:url(#SVGID_00000087414203056216672080000003147843410881122231_);" d="M177,155.7
		c-4.4,6.9-28.4,10.8-42.3,9.6c-12.1-1.1-10.3-4.4-10.2-4.8c0,0,0,0,0,0c6.5-9.8,16.1-16.2,26.8-16.2
		C162.6,144.2,171.2,148.8,177,155.7z"/>
	<path class="st11" d="M168.5,167.5c-1.1,0.4-1.2,9.4,0,10.8c1.2,1.5,3.1,1,3.7-1.1C172.8,175.1,170.2,167,168.5,167.5z"/>
	<path class="st11" d="M170.6,180.8c-0.9,0.2-1,2.5-0.6,3.2c0.4,0.8,2.1,0.6,2.3-0.3C172.5,182.7,171.5,180.6,170.6,180.8z"/>
	
		<linearGradient id="SVGID_00000067923376631566153070000006018860333846300564_" gradientUnits="userSpaceOnUse" x1="153.0527" y1="249.7518" x2="153.0527" y2="237.8566">
		<stop  offset="0" style="stop-color:#D4E2FF"/>
		<stop  offset="1" style="stop-color:#000000"/>
	</linearGradient>
	<path style="opacity:0.72;fill:url(#SVGID_00000067923376631566153070000006018860333846300564_);" d="M128.5,241.1
		c0,0,4.9,8.6,23.3,8.7c18.4,0.1,25.9-10.9,25.9-10.9s-8.5,5.5-20.6,2.2C144.9,237.8,132.9,235.9,128.5,241.1z"/>
	
		<linearGradient id="SVGID_00000096781099659875909460000016105666249351774860_" gradientUnits="userSpaceOnUse" x1="207.9716" y1="177.6592" x2="207.9716" y2="115.3536">
		<stop  offset="0" style="stop-color:#2370B9"/>
		<stop  offset="1" style="stop-color:#CCEDFF"/>
	</linearGradient>
	<path style="opacity:0.3;fill:url(#SVGID_00000096781099659875909460000016105666249351774860_);" d="M238.9,131.2
		c-17.5,34.6-48.3,46.5-48.3,46.5c-8.5-5.5-15.9-23.4-12.9-26.9l0,0c0.2-0.2,0.3-0.3,0.5-0.4c0,0,5.5,20.2,21.6,14.6
		c19.1-6.6,26.9-39.9,26.9-39.9v-9.7l9.9,5.1C239.1,125.4,238.9,131.2,238.9,131.2z"/>
	
		<linearGradient id="SVGID_00000157282507173609662360000017441190593367411602_" gradientUnits="userSpaceOnUse" x1="236.6814" y1="132.9619" x2="243.0206" y2="82.4892">
		<stop  offset="0" style="stop-color:#FF9200"/>
		<stop  offset="1" style="stop-color:#FFC400"/>
	</linearGradient>
	<path style="fill:url(#SVGID_00000157282507173609662360000017441190593367411602_);" d="M225.9,119.6c0,0-0.1,11,6.1,12.7
		c6.2,1.8,14-9.8,16.9-14.6c2.9-4.8,7.3-26.5,3.1-31.7c-4.1-5.2-12.1-3.8-17.5,3.4C234.5,89.4,226.2,110.3,225.9,119.6z"/>
	
		<linearGradient id="SVGID_00000095297399615878126260000008998895451757877654_" gradientUnits="userSpaceOnUse" x1="235.8828" y1="116.3431" x2="235.8828" y2="82.8653">
		<stop  offset="0" style="stop-color:#2370B9"/>
		<stop  offset="1" style="stop-color:#0053A4"/>
	</linearGradient>
	<path style="fill:url(#SVGID_00000095297399615878126260000008998895451757877654_);" d="M226.3,116.3c0,0,7.2-5.5,8.8-13.9
		c1.6-8.4,10.4-19.6,10.4-19.6s-4.6-0.4-11,6.5C228.2,96.4,226.3,116.3,226.3,116.3z"/>
	
		<linearGradient id="SVGID_00000026865735059760528950000000881373631699496848_" gradientUnits="userSpaceOnUse" x1="234.8177" y1="110.2376" x2="234.8177" y2="90.8453">
		<stop  offset="0" style="stop-color:#8DA4E5"/>
		<stop  offset="1" style="stop-color:#755CBB"/>
	</linearGradient>
	<path style="opacity:0.5;fill:url(#SVGID_00000026865735059760528950000000881373631699496848_);" d="M233.4,90.8l5.5,2.1
		c0,0-2.4,4.1-3.4,8s-4.7,9.3-4.7,9.3L233.4,90.8z"/>
	
		<linearGradient id="SVGID_00000047039467473109844820000009523727093471050134_" gradientUnits="userSpaceOnUse" x1="227.324" y1="114.3957" x2="230.8558" y2="86.2748">
		<stop  offset="0" style="stop-color:#FF9200"/>
		<stop  offset="1" style="stop-color:#FFC400"/>
	</linearGradient>
	<path style="fill:url(#SVGID_00000047039467473109844820000009523727093471050134_);" d="M226.3,114.3c0,0-1.9-4.1-2.1-12.1
		c-0.3-8,1.6-14.3,2.5-15.4c0.9-1.1,4-1,5.5,0.8s2.5,10.6,2.5,10.6S232.7,112.3,226.3,114.3z"/>
	
		<linearGradient id="SVGID_00000018943186840896562970000015030990648489570993_" gradientUnits="userSpaceOnUse" x1="242.0018" y1="119.5163" x2="242.0018" y2="100.9589">
		<stop  offset="0" style="stop-color:#2370B9"/>
		<stop  offset="1" style="stop-color:#0053A4"/>
	</linearGradient>
	<path style="fill:url(#SVGID_00000018943186840896562970000015030990648489570993_);" d="M235.1,102.4c0,0,3.7,12.2,12.6,17.1
		l1.1-1.8c0,0-9.1-4.8-13.4-16.7L235.1,102.4z"/>
	<path class="st11" d="M228.6,92.7c-0.9-0.1-0.6,7.8,0.5,7.4C230.2,99.8,229.9,92.9,228.6,92.7z"/>
	
		<linearGradient id="SVGID_00000062169370940647930890000013300014731418960788_" gradientUnits="userSpaceOnUse" x1="104.0583" y1="118.3277" x2="104.0583" y2="111.4847">
		<stop  offset="0" style="stop-color:#D93DE3"/>
		<stop  offset="1" style="stop-color:#FF6DBA"/>
	</linearGradient>
	<path style="fill:url(#SVGID_00000062169370940647930890000013300014731418960788_);" d="M92.1,117.6c-0.2,1.1,23.4,1.4,24-2.8
		C116.6,110.6,93.6,109.2,92.1,117.6z"/>
	
		<linearGradient id="SVGID_00000108990118480143080800000005998235512503148454_" gradientUnits="userSpaceOnUse" x1="99.1888" y1="83.1912" x2="99.1888" y2="50.8225" gradientTransform="matrix(0.9977 6.840000e-02 -6.840000e-02 0.9977 8.3534 14.9552)">
		<stop  offset="0" style="stop-color:#000000"/>
		<stop  offset="1" style="stop-color:#00E3FF"/>
	</linearGradient>
	<path style="opacity:0.2;fill:url(#SVGID_00000108990118480143080800000005998235512503148454_);" d="M97.9,101c0,0-1-6.4,0.2-15.1
		c1.1-8.7,3.5-14.2,4.8-13.5c1.4,0.8,1.2,9.3,2,17.6c0.6,6.5,1.9,12.6,1.9,12.6S100.8,108.4,97.9,101z"/>
	
		<linearGradient id="SVGID_00000166667935746233816560000012018246850684259211_" gradientUnits="userSpaceOnUse" x1="123.5947" y1="201.9223" x2="183.3099" y2="201.9223">
		<stop  offset="0" style="stop-color:#000000"/>
		<stop  offset="1" style="stop-color:#D4E2FF"/>
	</linearGradient>
	<path style="opacity:0.72;fill:url(#SVGID_00000166667935746233816560000012018246850684259211_);" d="M123.7,205.6
		c3.6,5.8,18.6,2.7,35.4,4.4c16.8,1.6,19.7,7.1,23.3,6c3.6-1.1-2.1-26.5-27.2-28.2C130,186.1,122.8,204.2,123.7,205.6z"/>
	
		<linearGradient id="SVGID_00000149374524522801686750000017767466385166084029_" gradientUnits="userSpaceOnUse" x1="39.3784" y1="72.1488" x2="43.763" y2="10.3731">
		<stop  offset="0" style="stop-color:#D93DE3"/>
		<stop  offset="1" style="stop-color:#FF6DBA"/>
	</linearGradient>
	<path style="fill:url(#SVGID_00000149374524522801686750000017767466385166084029_);" d="M17.2,12.7c0,0-0.1,33.5,2.4,49.7
		l25.9,10.2l-4.1-7.3l25.2-2.9c0,0,2.7-37.6,3.6-49.8C70,12.7,50.2,8.9,17.2,12.7z"/>
	<g>
		<path class="st11" d="M36.2,27.7c-0.1,2-0.2,3.9-0.3,5.8c-0.1,1.9-0.1,3.9-0.1,5.8c0.2,0,0.5,0,0.7,0c0.3,0,0.5,0,0.7,0
			c0.3,0,0.6,0,1,0c0.3,0,0.7,0,1,0c0-0.4,0-0.9,0-1.3c0-0.4,0-0.9,0-1.3c0-1.5,0-3,0-4.5c0-1.5-0.1-3-0.1-4.5h3.6
			c-0.2,2.4-0.3,4.7-0.4,7.1c-0.1,2.3-0.1,4.7-0.1,7.1c0,1.2,0,2.3,0,3.5c0,1.2,0.1,2.3,0.1,3.5H39c0-1.2,0.1-2.3,0.1-3.5
			c0-1.2,0.1-2.3,0.1-3.5c-0.6,0-1.1-0.1-1.7-0.1c-0.6,0-1.1,0-1.7,0h-0.1v3.1c0,0.7,0,1.4,0,2c0,0.7,0,1.3,0,2h-3.4
			c0-1.4,0.1-2.8,0.1-4.2c0-1.4,0-2.8,0-4.2c0-4.3-0.1-8.5-0.3-12.8H36.2z"/>
		<path class="st11" d="M50.4,48.8c-0.4,0-0.8,0-1.2,0c-0.4,0-0.8,0-1.2,0c-0.7,0-1.3,0-2,0c-0.7,0-1.3,0.1-2,0.1l0-3.2
			c0.2,0,0.5,0.1,0.7,0.1c0.2,0,0.5,0,0.7,0.1c0.1-1.5,0.1-3.1,0.2-4.6c0.1-1.5,0.1-3,0.1-4.6c0-1,0-2,0-3c0-1-0.1-2-0.1-3
			c-0.3,0-0.5,0-0.8,0c-0.3,0-0.5,0-0.8,0l0-3.1c0.8,0,1.5,0.1,2.3,0.1c0.8,0,1.5,0,2.3,0c0.3,0,0.6,0,0.8,0c0.3,0,0.6,0,0.8,0
			l-0.1,3c-0.2,0-0.5,0-0.7,0c-0.2,0-0.4,0-0.7,0c-0.1,1.8-0.2,3.5-0.3,5.3c-0.1,1.8-0.1,3.5-0.1,5.3c0,1.6,0,3.1,0.1,4.6
			c0.3,0,0.6,0,1,0c0.3,0,0.7,0,1,0L50.4,48.8z"/>
		<path class="st11" d="M55.2,47.7c0,0.2,0,0.5-0.1,0.7c-0.1,0.2-0.2,0.4-0.4,0.5c-0.2,0.2-0.3,0.3-0.5,0.4
			c-0.2,0.1-0.4,0.1-0.7,0.1s-0.5,0-0.7-0.1c-0.2-0.1-0.4-0.2-0.5-0.4c-0.2-0.2-0.3-0.3-0.4-0.5c-0.1-0.2-0.1-0.4-0.1-0.7
			s0-0.5,0.1-0.7c0.1-0.2,0.2-0.4,0.4-0.5c0.2-0.2,0.3-0.3,0.5-0.4c0.2-0.1,0.4-0.1,0.7-0.1s0.5,0,0.7,0.1c0.2,0.1,0.4,0.2,0.5,0.4
			c0.2,0.2,0.3,0.3,0.4,0.5C55.1,47.3,55.2,47.5,55.2,47.7z M55.4,27.5c-0.3,2.7-0.5,5.5-0.7,8.3c-0.2,2.8-0.3,5.5-0.3,8.2l-2,0.1
			c-0.1-2.7-0.2-5.5-0.3-8.3c-0.1-2.8-0.2-5.6-0.4-8.3L55.4,27.5z"/>
	</g>
	
		<linearGradient id="SVGID_00000045596094699870437290000004836755012704639152_" gradientUnits="userSpaceOnUse" x1="206.1948" y1="53.1423" x2="218.7929" y2="53.1423">
		<stop  offset="0" style="stop-color:#000000"/>
		<stop  offset="1" style="stop-color:#D4E2FF"/>
	</linearGradient>
	<path style="opacity:0.72;fill:url(#SVGID_00000045596094699870437290000004836755012704639152_);" d="M217.2,48.7
		c0,0-3.1-3.9-7.4-2.8c-4.3,1-4.6,14.5-2,14.8c2.6,0.3,3.6-7.4,5.6-8.7c2-1.2,5.4-0.7,5.4-0.7L217.2,48.7z"/>
	
		<linearGradient id="SVGID_00000075861394721609400800000013820357500533982850_" gradientUnits="userSpaceOnUse" x1="85.344" y1="51.1978" x2="99.228" y2="51.1978">
		<stop  offset="0" style="stop-color:#D4E2FF"/>
		<stop  offset="1" style="stop-color:#000000"/>
	</linearGradient>
	<path style="opacity:0.72;fill:url(#SVGID_00000075861394721609400800000013820357500533982850_);" d="M85.3,53.3
		c0,0,1.6-1.9,5.3-1.3c3.7,0.6,5.8,8.2,7.7,7.4c1.9-0.8,0.5-13.1-4.5-16.7C93.9,42.8,87.5,48.3,85.3,53.3z"/>
	
		<linearGradient id="SVGID_00000182489968380941859270000015297008334675198381_" gradientUnits="userSpaceOnUse" x1="73.3874" y1="81.6909" x2="73.3874" y2="65.6906" gradientTransform="matrix(0.9999 1.650000e-02 -1.650000e-02 0.9999 2.0116 4.2545)">
		<stop  offset="0" style="stop-color:#2370B9"/>
		<stop  offset="1" style="stop-color:#238FB9"/>
	</linearGradient>
	<path style="fill:url(#SVGID_00000182489968380941859270000015297008334675198381_);" d="M80.3,71.2c0,0-13.1,14.7-12.3,15.8
		C68.8,88,81.1,72.8,80.3,71.2z"/>
</g>
</svg>
