<?xml version="1.0" encoding="utf-8"?>
<!-- Generator: Adobe Illustrator 26.5.0, SVG Export Plug-In . SVG Version: 6.00 Build 0)  -->
<svg version="1.1" id="Layer_1" xmlns="http://www.w3.org/2000/svg" xmlns:xlink="http://www.w3.org/1999/xlink" x="0px" y="0px"
	 viewBox="0 0 219 242.8" style="enable-background:new 0 0 219 242.8;" xml:space="preserve">
<style type="text/css">
	.st0{opacity:0.5;fill:url(#SVGID_1_);}
	.st1{opacity:0.4;}
	.st2{fill:#A4A3A3;}
	.st3{opacity:0.5;fill:#A4A3A3;}
	.st4{fill:#FFFFFF;}
	.st5{opacity:0.5;fill:#FFFFFF;}
	.st6{fill:url(#SVGID_00000112634899558850752460000005974887926805683344_);}
	.st7{opacity:0.5;fill:url(#SVGID_00000122700453272579665340000003210049893616390575_);}
	.st8{fill:url(#SVGID_00000030461674432669789600000003465568720123393172_);}
	.st9{fill:url(#SVGID_00000147180767860185863670000004285150653396743328_);}
	.st10{opacity:0.3;fill:url(#SVGID_00000113339243633282140060000018139279523372512642_);}
	.st11{fill:url(#SVGID_00000069364793200363068600000016828354473989579139_);}
	.st12{opacity:0.3;fill:url(#SVGID_00000057857598172736594310000006297205030191019653_);}
	.st13{fill:url(#SVGID_00000062887907616518268770000013231957986730674345_);}
	.st14{fill:url(#SVGID_00000079477817399660871890000007409138424474347452_);}
	.st15{fill:url(#SVGID_00000013159627253726469050000004743351101860550541_);}
	.st16{fill:#6340A2;}
	.st17{opacity:0.72;fill:url(#SVGID_00000113328142401578486770000011350363587886493360_);}
	.st18{opacity:0.72;fill:url(#SVGID_00000131334385884966181280000013407553884753163444_);}
	.st19{fill:url(#SVGID_00000022534391275292469370000005524733975406292155_);}
	.st20{fill:url(#SVGID_00000047054037371840384200000016433093768321910186_);}
	.st21{opacity:0.5;fill:url(#SVGID_00000155848782374838144760000006377666554208931229_);}
	.st22{fill:url(#SVGID_00000142879556007543736560000000092128784767401112_);}
	.st23{fill:url(#SVGID_00000016057655987265500760000012436121407031559081_);}
	.st24{fill:url(#SVGID_00000124847576075784790650000012775772220437072010_);}
	.st25{opacity:0.5;fill:url(#SVGID_00000158004517945089065260000015040168899032092041_);}
	.st26{fill:url(#SVGID_00000034779135618971767060000017123891447324446856_);}
	.st27{opacity:0.5;fill:url(#SVGID_00000034069190202591795500000010680794079282344121_);}
	.st28{fill:url(#SVGID_00000178189445739037770600000014323227885461801627_);}
	.st29{fill:url(#SVGID_00000118372556621038829220000006714152375496183964_);}
	.st30{fill:url(#SVGID_00000169554984305232558900000006876954162258502028_);}
	.st31{opacity:0.72;fill:url(#SVGID_00000048486609404451532810000009156560183167764886_);}
	.st32{opacity:0.72;fill:url(#SVGID_00000124139953109449616700000003339858400684999085_);}
	.st33{fill:url(#SVGID_00000008110075528530420930000015182928833444876690_);}
	.st34{fill:url(#SVGID_00000006682048445023391990000003085255478070226057_);}
	.st35{fill:#2F95CD;}
	.st36{opacity:0.5;fill:url(#SVGID_00000138543072317971502390000006757645489163301304_);}
	.st37{fill:url(#SVGID_00000035491099089446416290000001270722175187637894_);}
	.st38{fill:url(#SVGID_00000096744694437909111210000012336662890448149671_);}
	.st39{fill:url(#SVGID_00000013183931149414053500000012417608165207253670_);}
	.st40{fill:url(#SVGID_00000147932516039344409320000009926180798638463374_);}
	.st41{fill:url(#SVGID_00000085945576891423074560000015857102333758115492_);}
	.st42{fill:url(#SVGID_00000155146215849345279280000004764470711950211212_);}
	.st43{opacity:0.5;fill:url(#SVGID_00000171690435087240658820000009849622999551796912_);}
	.st44{fill:#FF91FF;}
	.st45{fill:url(#SVGID_00000147909178172777347650000010311354415374469519_);}
	.st46{fill:url(#SVGID_00000026122765237123548720000011263959891001074867_);}
	.st47{fill:url(#SVGID_00000078003778270528957860000017729399136219965314_);}
	.st48{fill:url(#SVGID_00000127011058179157072210000004417824676335256245_);}
	.st49{fill:url(#SVGID_00000073715250180629770280000001624348301116063927_);}
	.st50{fill:url(#SVGID_00000078755930539530055150000001182870295310822059_);}
	.st51{fill:url(#SVGID_00000104705310645124750350000012007111695129649585_);}
	.st52{opacity:0.5;fill:url(#SVGID_00000026139402651074995820000016972263683391039921_);}
	.st53{opacity:0.5;fill:url(#SVGID_00000099656196321459087010000009840026373888102590_);}
	.st54{opacity:0.3;fill:url(#SVGID_00000082358328794174914210000006819745353061586099_);}
	.st55{opacity:0.3;fill:url(#SVGID_00000096046870580531885400000001436075803006817421_);}
	.st56{fill:url(#SVGID_00000078008605298922752450000005404342849409184185_);}
	.st57{fill:url(#SVGID_00000157300017224963663300000007441836972628712857_);}
	.st58{fill:url(#SVGID_00000026158937800475962610000014318577511059501462_);}
	.st59{opacity:0.5;fill:url(#SVGID_00000182489897018206955540000006434911463941700030_);}
	.st60{fill:url(#SVGID_00000003824723480980815570000007777543516480329876_);}
</style>
<g>
	
		<radialGradient id="SVGID_1_" cx="95.9793" cy="127.7888" r="39.3857" gradientTransform="matrix(1 0 0 0.2225 0 200.886)" gradientUnits="userSpaceOnUse">
		<stop  offset="0" style="stop-color:#4C5354"/>
		<stop  offset="8.237104e-02" style="stop-color:#626768"/>
		<stop  offset="0.2824" style="stop-color:#919494"/>
		<stop  offset="0.4356" style="stop-color:#AFB0B0"/>
		<stop  offset="0.5225" style="stop-color:#BABABA"/>
		<stop  offset="0.6312" style="stop-color:#C4C4C4"/>
		<stop  offset="0.8141" style="stop-color:#DEDEDE"/>
		<stop  offset="1" style="stop-color:#FFFFFF"/>
	</radialGradient>
	<ellipse class="st0" cx="96" cy="229.3" rx="39.4" ry="8.8"/>
	<g class="st1">
		<path class="st2" d="M46.3,47.4C8,59.7-6,119.9,21.9,152.3s63.8,28.7,84.7,42.6c26.1,17.4,52.2,21.4,72.9-13.5
			C208,133.4,109.1,27.3,46.3,47.4z"/>
		<g>
			<path class="st2" d="M196.1,115c-3.3-0.3-6.8,0.1-9.9,1.3c-0.5,0.2-1,0.4-1.4,0.8c-0.7,0.7-0.8,1.9-0.6,3
				c0.6,2.5,2.9,4.4,5.5,4.7c2.5,0.3,5.2-0.9,6.8-2.8c0.9-1.1,1.6-2.4,1.5-3.8c-0.1-1.4-1.2-2.8-2.6-2.8c-0.3,0.3-0.1,1,0.4,1
				L196.1,115z"/>
			<path class="st2" d="M45.1,45.9c-3.3-0.3-6.8,0.1-9.9,1.3c-0.5,0.2-1,0.4-1.4,0.8c-0.7,0.7-0.8,1.9-0.6,3
				c0.6,2.5,2.9,4.4,5.5,4.7c2.5,0.3,5.2-0.9,6.8-2.8c0.9-1.1,1.6-2.4,1.5-3.8c-0.1-1.4-1.2-2.8-2.6-2.8c-0.3,0.3-0.1,1,0.4,1
				L45.1,45.9z"/>
			<path class="st2" d="M188.4,122c-1-0.9-2.5-1.3-3.8-0.9c-0.3,1.3-0.1,2.9,0.8,3.9c0.9,1,2.7,1.2,3.7,0.2c0.9-1,0.2-3.1-1.1-3
				L188.4,122z"/>
			<path class="st2" d="M176.1,123.3c-0.1-0.6-0.6-1.2-1.1-1.5c-0.1,0.2-0.3,0.5-0.3,0.8c0,0.3,0.1,0.6,0.3,0.7
				c0.3,0.2,0.8,0,1.1-0.3c0,0.1,0,0.2-0.1,0.3L176.1,123.3z"/>
			<path class="st2" d="M178.5,122.5c0.2,0,0.4,0,0.6,0c-0.2,0.4-0.8,0.6-1.3,0.6c-0.3,0-0.6,0-0.7-0.2c-0.1-0.2,0-0.4,0-0.6
				c0-0.4-0.4-0.8-0.2-1.1c0.1-0.2,0.4-0.2,0.6-0.1c0.2,0.1,0.3,0.3,0.4,0.5c0.3,0.4,0.5,0.8,0.8,1.2L178.5,122.5z"/>
			<path class="st3" d="M146.9,129.4c-0.3-0.2-0.7,0.3-0.6,0.7c0.2,0.4,0.6,0.5,1,0.7c0.3-0.5,0.2-1.1-0.2-1.6L146.9,129.4z"/>
			<path class="st2" d="M148.3,143.7c0.1,0.1,0.1,0.4,0,0.5c-0.1,0.1-0.3,0.2-0.5,0.2c-0.1,0-0.2,0-0.3-0.1
				c-0.2-0.1-0.3-0.5-0.1-0.7s0.5-0.2,0.7-0.1c0.2,0.2,0.3,0.5,0.1,0.7L148.3,143.7z"/>
			<path class="st2" d="M173.1,128.5c0.4-0.2,0.3-0.8-0.1-1c-0.2,0.1-0.3,0.3-0.4,0.5c-0.1,0.2,0,0.4,0.2,0.6c0.2,0.1,0.5,0,0.5-0.2
				L173.1,128.5z"/>
			<path class="st2" d="M180.4,123.1c0.1-0.5-0.1-1-0.5-1.3c-0.3,0.3-0.5,0.6-0.8,0.9c-0.1,0.1-0.2,0.3-0.3,0.5
				c-0.1,0.4,0.3,0.7,0.7,0.7C179.9,123.9,180.2,123.5,180.4,123.1L180.4,123.1z"/>
			<path class="st3" d="M152.2,139.8c-0.1,0.1-0.2,0.2-0.3,0.3c0.1,0.2,0.3,0.4,0.5,0.3c0.2,0,0.4-0.3,0.3-0.5
				C152.7,139.7,152.3,139.6,152.2,139.8L152.2,139.8z"/>
			<path class="st2" d="M175.1,126.4c0.1,0.3,0.4,0.3,0.6,0.1s0.3-0.4,0.5-0.6c0.2-0.2,0.5-0.3,0.7-0.3c0.2,0,0.3,0.1,0.4,0.2
				c0,0.1,0,0.2,0,0.3c-0.1,0.5-0.2,1-0.6,1.4c-0.3,0.4-0.9,0.6-1.4,0.4c-0.3-0.1-0.6-0.4-0.7-0.8
				C174.7,126.9,174.9,126.5,175.1,126.4L175.1,126.4z"/>
			<path class="st2" d="M175.3,119.4c0-0.3-0.3-0.6-0.6-0.6c-0.3,0-0.6,0.2-0.8,0.5c-0.1,0.1-0.1,0.3,0,0.4c0.1,0.1,0.2,0,0.3,0
				C174.6,119.6,175,119.6,175.3,119.4L175.3,119.4z"/>
			<path class="st2" d="M160.8,124.2c0.3,0.6-0.2,1.4-0.8,1.5c-0.2-0.5-0.3-1-0.2-1.5s0.7-0.9,1.2-0.7c0.1,0.3,0.2,0.5,0.4,0.8
				L160.8,124.2z"/>
			<path class="st2" d="M211.5,114.9c0.1-0.1,0.3,0,0.4,0.2c0,0.1,0,0.3-0.1,0.4c0,0.1-0.1,0.2-0.2,0.3c-0.2,0.2-0.5,0.1-0.7,0
				s-0.3-0.4-0.2-0.7c0-0.1,0.1-0.2,0.2-0.3c0.1-0.1,0.3,0,0.3,0L211.5,114.9z"/>
			<path class="st2" d="M169.7,127.1c-0.1-0.1-0.2-0.2-0.3-0.3c-0.2,0.1-0.3,0.3-0.4,0.5c0,0.2,0.2,0.5,0.4,0.3
				c0.1,0,0.1-0.1,0.1-0.2c0.1-0.2,0.2-0.5,0.4-0.7L169.7,127.1z"/>
			<path class="st2" d="M162.9,130c-0.3-0.2-0.6-0.3-0.9-0.4c-0.3,0-0.7,0.1-0.9,0.4c-0.1,0.2-0.1,0.3,0,0.5
				c0.1,0.5,0.7,0.8,1.2,0.7C162.7,131.1,163,130.5,162.9,130L162.9,130z"/>
			<path class="st2" d="M159.7,128.3c-0.2,0-0.5,0-0.7,0.1c0,0.2,0,0.4,0,0.5c0.3,0.1,0.7-0.1,0.8-0.4L159.7,128.3z"/>
			<path class="st2" d="M170.5,109c-1.3,0.4-2.4,1.2-3.4,2.1c-0.2,0.2-0.3,0.3-0.4,0.5c-0.1,0.4,0,0.8,0.3,1.2
				c0.6,0.8,1.8,1.1,2.8,0.8c1-0.3,1.7-1.2,2-2.2c0.2-0.5,0.2-1.2-0.1-1.6c-0.3-0.5-0.9-0.8-1.4-0.6c-0.1,0.2,0.1,0.4,0.3,0.3
				L170.5,109z"/>
			<path class="st2" d="M186.1,132c-0.5-0.4-1.2-0.6-1.8-0.5c0,0.3,0.1,0.6,0.2,0.8c0.1,0.2,0.4,0.4,0.7,0.4
				c0.4-0.1,0.6-0.5,0.7-0.9c0,0.1,0.1,0.2,0.1,0.3L186.1,132z"/>
			<path class="st2" d="M182.3,134.6c-0.2,0-0.4-0.1-0.5,0c-0.2,0.1-0.3,0.2-0.4,0.4c-0.3,0.4-0.6,0.8-0.9,1.1
				c0.8-0.1,1.6-0.2,2.4-0.3c0.1,0,0.1,0,0.2,0c0.2,0.1,0.2,0.4,0.4,0.5c0.2,0.2,0.6,0.1,0.9,0C186.3,135.2,183.2,134.9,182.3,134.6
				z"/>
			<path class="st2" d="M189.5,129.3c-0.2-0.4-0.7-0.7-1.2-0.8c0,0.4,0,0.8-0.1,1.2c0,0.2,0,0.4,0.1,0.5c0.2,0.3,0.7,0.4,0.9,0.1
				C189.5,130.1,189.6,129.7,189.5,129.3L189.5,129.3z"/>
			<path class="st2" d="M183.2,129.3c-0.2-0.3-0.6-0.3-0.9-0.1c-0.3,0.2-0.4,0.5-0.3,0.9c0,0.1,0.1,0.3,0.2,0.3
				c0.1,0,0.2-0.1,0.2-0.1c0.3-0.3,0.5-0.6,0.8-0.9L183.2,129.3z"/>
			<path class="st2" d="M183.8,123.7c-0.3-0.2-0.6-0.3-0.9-0.4s-0.7,0.1-0.9,0.4c-0.1,0.2-0.1,0.3,0,0.5c0.1,0.5,0.7,0.8,1.2,0.7
				C183.6,124.8,183.9,124.2,183.8,123.7L183.8,123.7z"/>
			<path class="st2" d="M166.7,121.1c-0.3,0.2-0.2,0.6-0.1,1c0.1,0.3,0.2,0.7,0,1c-0.1,0.1-0.2,0.1-0.2,0.1c-0.2,0-0.3-0.4-0.3-0.6
				c-0.1-0.2-0.2-0.3-0.3-0.5c-0.3-0.4-0.2-0.9,0-1.3c0.2-0.1,0.5-0.1,0.7,0.1c0.2,0.2,0.3,0.4,0.2,0.7L166.7,121.1z"/>
			<path class="st2" d="M161.4,127.9c-0.3,0.2-0.2,0.6-0.1,1c0.1,0.3,0.2,0.7,0,1c-0.1,0.1-0.2,0.1-0.2,0.1c-0.2,0-0.3-0.4-0.3-0.6
				c-0.1-0.2-0.2-0.3-0.3-0.5c-0.3-0.4-0.2-0.9,0-1.3c0.2-0.1,0.5-0.1,0.7,0.1c0.2,0.2,0.3,0.4,0.2,0.7L161.4,127.9z"/>
			<path class="st2" d="M155,128.3c-0.3,0-0.6,0-0.8,0.1c0,0-0.1,0-0.1,0.1c-0.1,0.1-0.1,0.2,0,0.2c0.1,0.2,0.3,0.4,0.5,0.4
				c0.2,0,0.4-0.1,0.6-0.3c0.1-0.1,0.1-0.2,0.1-0.3C155.2,128.4,155.1,128.3,155,128.3c-0.1,0-0.1,0.1,0,0.1L155,128.3z"/>
			<path class="st2" d="M195.4,121.4c-0.5-0.4-1.2-0.6-1.8-0.5c0,0.3,0.1,0.6,0.2,0.8c0.1,0.2,0.4,0.4,0.7,0.4
				c0.4-0.1,0.6-0.5,0.7-0.9c0,0.1,0.1,0.2,0.1,0.3L195.4,121.4z"/>
			<path class="st2" d="M196.1,127.4c0.2-0.4-0.2-0.8-0.6-0.7c-0.1,0.2-0.1,0.4-0.1,0.6c0.1,0.2,0.2,0.4,0.5,0.4
				c0.2,0,0.4-0.3,0.3-0.5L196.1,127.4z"/>
			<path class="st2" d="M185.8,124.8c0.2-0.4-0.2-0.8-0.6-0.7c-0.1,0.2-0.1,0.4-0.1,0.6s0.2,0.4,0.5,0.4c0.2,0,0.4-0.3,0.3-0.5
				L185.8,124.8z"/>
			<path class="st2" d="M196.4,124.5c0.2,0.2,0.5,0,0.6-0.3c0.1-0.3,0-0.5,0-0.8c0-0.3,0.2-0.5,0.4-0.6c0.1-0.1,0.3-0.1,0.4,0
				c0.1,0.1,0.1,0.1,0.2,0.2c0.2,0.5,0.4,1,0.4,1.5c0,0.5-0.4,1-0.8,1.2c-0.3,0.1-0.7,0-1-0.2C196.4,125.1,196.3,124.8,196.4,124.5
				L196.4,124.5z"/>
			<path class="st2" d="M166,124.6c0.2,0.2,0.5,0,0.6-0.3c0.1-0.3,0-0.5,0-0.8c0-0.3,0.2-0.5,0.4-0.6c0.1-0.1,0.3-0.1,0.4,0
				c0.1,0.1,0.1,0.1,0.2,0.2c0.2,0.5,0.4,1,0.4,1.5c0,0.5-0.4,1-0.8,1.2c-0.3,0.1-0.7,0-1-0.2C166,125.2,165.9,124.8,166,124.6
				L166,124.6z"/>
			<path class="st2" d="M165.5,121.2c0.2,0.2,0.5,0,0.6-0.3c0.1-0.3,0-0.5,0-0.8c0-0.3,0.2-0.5,0.4-0.6c0.1-0.1,0.3-0.1,0.4,0
				c0.1,0.1,0.1,0.1,0.2,0.2c0.2,0.5,0.4,1,0.4,1.5c0,0.5-0.4,1-0.8,1.2c-0.3,0.1-0.7,0-1-0.2C165.5,121.9,165.4,121.5,165.5,121.2
				L165.5,121.2z"/>
			<path class="st2" d="M170.7,121.5c0.2,0.2,0.5,0,0.6-0.3c0.1-0.3,0-0.5,0-0.8c0-0.3,0.2-0.5,0.4-0.6c0.1-0.1,0.3-0.1,0.4,0
				c0.1,0.1,0.1,0.1,0.2,0.2c0.2,0.5,0.4,1,0.4,1.5c0,0.5-0.4,1-0.8,1.2c-0.3,0.1-0.7,0-1-0.2C170.7,122.1,170.6,121.8,170.7,121.5
				L170.7,121.5z"/>
			<path class="st2" d="M161.4,156.9c0.2,0.2,0.5,0,0.6-0.3c0.1-0.3,0-0.5,0-0.8c0-0.3,0.2-0.5,0.4-0.6c0.1-0.1,0.3-0.1,0.4,0
				c0.1,0.1,0.1,0.1,0.2,0.2c0.2,0.5,0.4,1,0.4,1.5c0,0.5-0.4,1-0.8,1.2c-0.3,0.1-0.7,0-1-0.2C161.4,157.5,161.3,157.1,161.4,156.9
				L161.4,156.9z"/>
			<path class="st2" d="M192.6,128.3c-0.1,0-0.3,0-0.4,0c-0.1,0.2-0.1,0.4,0,0.6c0.1,0.2,0.4,0.2,0.5,0c0-0.1,0-0.2,0-0.2
				c0-0.3-0.1-0.5-0.1-0.8L192.6,128.3z"/>
			<path class="st2" d="M168.4,141.4c-0.3-0.2-0.6-0.3-0.9-0.4c-0.3,0-0.7,0.1-0.9,0.4c-0.1,0.2-0.1,0.3,0,0.5
				c0.1,0.5,0.7,0.8,1.2,0.7C168.2,142.5,168.5,141.9,168.4,141.4L168.4,141.4z"/>
			<path class="st2" d="M186.9,119.4c0.5-0.1,0.9,0.5,0.7,0.9c-0.2,0.1-0.5,0.2-0.8,0.2c-0.1-0.3-0.1-0.6,0-0.9L186.9,119.4z"/>
			<path class="st3" d="M164.3,139.8c-0.2-0.1-0.4-0.1-0.6-0.1c-0.2,0-0.4,0.1-0.4,0.3c-0.1,0.3,0.3,0.6,0.3,0.9
				c0.1,0.3-0.1,0.7,0,1c0.2,0.3,0.6,0.2,0.8,0c0.2-0.2,0.3-0.6,0.3-0.9c0-0.3,0-0.6-0.1-0.8s-0.4-0.4-0.7-0.3L164.3,139.8z"/>
			<path class="st2" d="M173.4,124.6c-0.2-1.4-1.2-2.6-2.5-3.1c-1.1,0.9-1.8,2.2-1.7,3.6c0.1,1.4,1.5,2.6,2.8,2.4
				c1.4-0.3,2-2.3,0.9-3.1L173.4,124.6z"/>
			<path class="st2" d="M186.5,116.2c0,0.2-0.1,0.4-0.3,0.4c-0.2,0-0.4,0-0.5-0.2c-0.1-0.1-0.2-0.1-0.2-0.3
				c-0.1-0.2,0.1-0.5,0.3-0.6c0.2-0.1,0.5,0.1,0.6,0.3c0.1,0.2-0.1,0.5-0.3,0.6L186.5,116.2z"/>
			<path class="st2" d="M180.2,120.4c-0.2,0.3,0,0.7,0.2,1c0.2,0.3,0.4,0.6,0.3,0.9c0,0.1-0.1,0.2-0.2,0.2c-0.2,0.1-0.4-0.3-0.5-0.4
				c-0.1-0.1-0.3-0.2-0.5-0.3c-0.4-0.3-0.5-0.8-0.4-1.2c0.2-0.2,0.5-0.2,0.7-0.2c0.2,0.1,0.4,0.3,0.4,0.6L180.2,120.4z"/>
			<path class="st2" d="M173.9,129.5c-0.1,0-0.3,0-0.4,0.1c-0.1,0.2,0,0.5,0.2,0.6c0.2,0.1,0.5,0,0.5-0.2
				C174.3,129.7,174.1,129.4,173.9,129.5L173.9,129.5z"/>
			<path class="st2" d="M180.1,125c0.1,0,0.2,0.2,0.2,0.4c0,0.1-0.2,0.2-0.3,0.3c-0.1,0.1-0.2,0.1-0.3,0.1c-0.2,0-0.5-0.2-0.5-0.4
				c-0.1-0.2,0-0.5,0.2-0.7c0.1-0.1,0.2-0.1,0.3-0.1c0.1,0,0.2,0.1,0.2,0.2L180.1,125z"/>
			<path class="st2" d="M184.6,135.6c0.7-1.2,0.8-2.7,0.1-4c-1.4,0-2.8,0.5-3.6,1.6c-0.8,1.1-0.6,2.9,0.6,3.6c1.2,0.7,3-0.4,2.7-1.8
				L184.6,135.6z"/>
			<path class="st2" d="M120.2,209.2c0.7-1.2,0.8-2.7,0.1-4c-1.4,0-2.8,0.5-3.6,1.6c-0.8,1.1-0.6,2.9,0.6,3.6c1.2,0.7,3-0.4,2.7-1.8
				L120.2,209.2z"/>
			<path class="st2" d="M191,126.9c-0.3-0.2-0.7,0.3-0.6,0.7c0.2,0.4,0.6,0.5,1,0.7c0.3-0.5,0.2-1.1-0.2-1.6L191,126.9z"/>
			<path class="st2" d="M182.1,115.3c-0.1,0-0.3,0-0.4,0.1c-0.1,0.2,0,0.5,0.2,0.6c0.2,0.1,0.5,0,0.5-0.2
				C182.6,115.5,182.4,115.2,182.1,115.3L182.1,115.3z"/>
			<path class="st2" d="M182.2,122.6c-1.4-0.2-2.9,0-4.3,0.4c-0.2,0.1-0.4,0.2-0.6,0.3c-0.3,0.3-0.4,0.8-0.3,1.3
				c0.2,1.1,1.2,1.9,2.3,2.1c1.1,0.2,2.2-0.3,3-1.1c0.4-0.5,0.7-1,0.7-1.6c0-0.6-0.5-1.2-1.1-1.3c-0.1,0.1,0,0.4,0.1,0.5
				L182.2,122.6z"/>
			<path class="st2" d="M177.7,146.2c-1-0.9-2.5-1.3-3.8-0.9c-0.3,1.3-0.1,2.9,0.8,3.9c0.9,1,2.7,1.2,3.7,0.2c0.9-1,0.2-3.1-1.1-3
				L177.7,146.2z"/>
			<path class="st2" d="M157.4,130c-0.5-0.4-1.2-0.6-1.8-0.5c0,0.3,0.1,0.6,0.2,0.8c0.1,0.2,0.4,0.4,0.7,0.4
				c0.4-0.1,0.6-0.5,0.7-0.9c0,0.1,0.1,0.2,0.1,0.3L157.4,130z"/>
			<path class="st2" d="M153.5,132.6c-0.2,0-0.4-0.1-0.5,0c-0.2,0.1-0.3,0.2-0.4,0.4c-0.3,0.4-0.6,0.8-0.9,1.1
				c0.8-0.1,1.6-0.2,2.4-0.3c0.1,0,0.1,0,0.2,0c0.2,0.1,0.2,0.4,0.4,0.5c0.2,0.2,0.6,0.1,0.9,0C157.6,133.2,154.5,132.9,153.5,132.6
				z"/>
			<path class="st2" d="M178.6,120.2c-0.2,0-0.5,0-0.7,0c0.1,0.5,0.4,0.9,0.8,1c0.5,0.1,0.9-0.4,0.7-0.9c-0.1-0.3-0.4-0.6-0.2-0.7
				L178.6,120.2z"/>
			<path class="st2" d="M164.1,133.8c0.2,0,0.4,0,0.6,0c-0.2,0.4-0.8,0.6-1.3,0.6c-0.3,0-0.6,0-0.7-0.2c-0.1-0.2,0-0.4,0-0.6
				c0-0.4-0.4-0.8-0.2-1.1c0.1-0.2,0.4-0.2,0.6-0.1c0.2,0.1,0.3,0.3,0.4,0.5c0.3,0.4,0.5,0.8,0.8,1.2L164.1,133.8z"/>
			<path class="st2" d="M165.8,141.2c-0.3-0.2-0.7,0.3-0.6,0.7c0.2,0.4,0.6,0.5,1,0.7c0.3-0.5,0.2-1.1-0.2-1.6L165.8,141.2z"/>
			<path class="st3" d="M157.7,138.5c0.1,0.1,0.1,0.4,0,0.5c-0.1,0.1-0.3,0.2-0.5,0.2c-0.1,0-0.2,0-0.3-0.1
				c-0.2-0.1-0.3-0.5-0.1-0.7c0.2-0.2,0.5-0.2,0.7-0.1c0.2,0.2,0.3,0.5,0.1,0.7L157.7,138.5z"/>
			<path class="st2" d="M158.1,136c0.2-0.4-0.2-0.8-0.6-0.7c-0.1,0.2-0.1,0.4-0.1,0.6c0.1,0.2,0.2,0.4,0.5,0.4
				c0.2,0,0.4-0.3,0.3-0.5L158.1,136z"/>
			<path class="st2" d="M160.7,127.3c-0.2-0.4-0.7-0.7-1.2-0.8c0,0.4,0,0.8-0.1,1.2c0,0.2,0,0.4,0.1,0.5c0.2,0.3,0.7,0.4,0.9,0.1
				C160.8,128.2,160.8,127.8,160.7,127.3L160.7,127.3z"/>
			<path class="st3" d="M161.1,142.9c0.2,0.2,0.3,0.5,0.2,0.8c-0.1,0.3-0.3,0.5-0.6,0.5c-0.2,0-0.4-0.1-0.4-0.3
				c0-0.1,0.1-0.1,0.1-0.2c0.2-0.3,0.4-0.6,0.6-0.8C161.1,142.9,161.1,142.9,161.1,142.9L161.1,142.9z"/>
			<path class="st3" d="M159.6,148.2c-0.3,0.2-0.2,0.6-0.1,1c0.1,0.3,0.2,0.7,0,1c-0.1,0.1-0.2,0.1-0.2,0.1c-0.2,0-0.3-0.4-0.3-0.6
				c-0.1-0.2-0.2-0.3-0.3-0.5c-0.3-0.4-0.2-0.9,0-1.3c0.2-0.1,0.5-0.1,0.7,0.1c0.2,0.2,0.3,0.4,0.2,0.7L159.6,148.2z"/>
			<path class="st3" d="M167.1,117.6c-0.3,0.2-0.2,0.6-0.1,1c0.1,0.3,0.2,0.7,0,1c-0.1,0.1-0.2,0.1-0.2,0.1c-0.2,0-0.3-0.4-0.3-0.6
				c-0.1-0.2-0.2-0.3-0.3-0.5c-0.3-0.4-0.2-0.9,0-1.3c0.2-0.1,0.5-0.1,0.7,0.1c0.2,0.2,0.3,0.4,0.2,0.7L167.1,117.6z"/>
			<path class="st3" d="M156.3,147.2c-0.1,0-0.3,0-0.4-0.1c-0.1,0.2-0.1,0.4,0,0.6s0.4,0.2,0.6,0
				C156.7,147.6,156.6,147.3,156.3,147.2L156.3,147.2z"/>
			<path class="st2" d="M158.4,133.1c0.2,0.2,0.5,0,0.6-0.3c0.1-0.3,0-0.5,0-0.8c0-0.3,0.2-0.5,0.4-0.6c0.1-0.1,0.3-0.1,0.4,0
				c0.1,0.1,0.1,0.1,0.2,0.2c0.2,0.5,0.4,1,0.4,1.5c0,0.5-0.4,1-0.8,1.2c-0.3,0.1-0.7,0-1-0.2C158.4,133.7,158.3,133.3,158.4,133.1
				L158.4,133.1z"/>
			<path class="st2" d="M154.4,127.4c-0.2-0.3-0.6-0.3-0.9-0.1c-0.3,0.2-0.4,0.5-0.3,0.9c0,0.1,0.1,0.3,0.2,0.3
				c0.1,0,0.2-0.1,0.2-0.1c0.3-0.3,0.5-0.6,0.8-0.9L154.4,127.4z"/>
			<path class="st2" d="M169.6,137c0.3,0.6-0.2,1.4-0.8,1.5c-0.2-0.5-0.3-1-0.2-1.5c0.1-0.5,0.7-0.9,1.2-0.7
				c0.1,0.3,0.2,0.5,0.4,0.8L169.6,137z"/>
			<path class="st3" d="M154.6,136.9c-0.1,0-0.3,0-0.4,0c-0.1,0.2-0.1,0.4,0,0.6c0.1,0.2,0.4,0.2,0.5,0c0-0.1,0-0.2,0-0.2
				c0-0.3-0.1-0.5-0.1-0.8L154.6,136.9z"/>
			<path class="st2" d="M188.4,122.3c-0.3-0.2-0.6-0.3-0.9-0.4c-0.3,0-0.7,0.1-0.9,0.4c-0.1,0.2-0.1,0.3,0,0.5
				c0.1,0.5,0.7,0.8,1.2,0.7C188.2,123.4,188.5,122.8,188.4,122.3L188.4,122.3z"/>
			<path class="st2" d="M178.6,140.1c-0.2,0-0.5,0-0.7,0.1c0,0.2,0,0.4,0,0.5c0.3,0.1,0.7-0.1,0.8-0.4L178.6,140.1z"/>
			<path class="st2" d="M206.3,119.9c0.1,0.1,0.1,0.4,0,0.5c-0.1,0.1-0.3,0.2-0.5,0.2c-0.1,0-0.2,0-0.3-0.1
				c-0.2-0.1-0.3-0.5-0.1-0.7c0.2-0.2,0.5-0.2,0.7-0.1c0.2,0.2,0.3,0.5,0.1,0.7L206.3,119.9z"/>
			<path class="st2" d="M173.7,137c-0.2,0-0.5,0-0.7,0.1c0,0.2,0,0.4,0,0.5c0.3,0.1,0.7-0.1,0.8-0.4L173.7,137z"/>
			<path class="st2" d="M171.7,118c-0.1-0.2-0.5-0.1-0.6,0.1c-0.1,0.2-0.2,0.5-0.3,0.7c-0.1,0.2-0.3,0.4-0.6,0.5
				c-0.2,0-0.3,0-0.4-0.1c-0.1-0.1-0.1-0.2-0.1-0.3c-0.1-0.5-0.1-1,0.1-1.5c0.2-0.5,0.6-0.9,1.2-0.9c0.4,0,0.7,0.2,0.9,0.5
				C171.9,117.4,171.9,117.8,171.7,118L171.7,118z"/>
			<path class="st2" d="M183,126c0.2,0.1,0.3,0.2,0.5,0.3c0.2,0,0.4,0,0.5-0.2c0.2-0.3-0.1-0.6,0-1c0-0.3,0.3-0.6,0.2-0.9
				c-0.1-0.3-0.5-0.4-0.8-0.2c-0.3,0.2-0.4,0.5-0.5,0.8c-0.1,0.3-0.2,0.6-0.1,0.8c0.1,0.3,0.3,0.5,0.6,0.5L183,126z"/>
			<path class="st2" d="M168,127.1c1.2-0.2,2.3-0.7,3.2-1.4c0.2-0.1,0.3-0.2,0.4-0.4c0.2-0.3,0.1-0.7-0.1-1.1
				c-0.4-0.8-1.4-1.2-2.3-1.1c-0.9,0.1-1.7,0.8-2,1.6c-0.2,0.5-0.3,1-0.1,1.4c0.2,0.5,0.7,0.8,1.2,0.7c0.1-0.1-0.1-0.3-0.2-0.3
				L168,127.1z"/>
			<path class="st2" d="M169.2,118.6c0-0.2-0.1-0.4-0.2-0.5c-0.1-0.1-0.3-0.1-0.5-0.1c-0.5,0-0.9-0.1-1.4-0.2
				c0.5,0.6,0.9,1.3,1.4,1.9c0,0.1,0.1,0.1,0.1,0.2c0.1,0.2-0.2,0.4-0.3,0.6c-0.1,0.3,0.2,0.6,0.4,0.8
				C170.7,122.4,169.5,119.5,169.2,118.6z"/>
			<path class="st2" d="M167.9,126.9c-0.1,0-0.3-0.1-0.4-0.1c-0.1,0.2-0.2,0.4,0,0.6c0.1,0.2,0.4,0.2,0.6,0
				C168.2,127.2,168.1,126.9,167.9,126.9L167.9,126.9z"/>
			<path class="st2" d="M166.1,120.7c0.1-0.3,0-0.7-0.3-0.8c-0.3-0.1-0.7,0-0.9,0.2c-0.1,0.1-0.2,0.2-0.1,0.4c0,0.1,0.2,0.1,0.3,0.1
				c0.4,0.1,0.8,0.2,1.2,0.3L166.1,120.7z"/>
			<path class="st2" d="M166.3,125c0.1-0.6,0-1.3-0.5-1.8c-0.2,0.2-0.5,0.3-0.6,0.6c-0.1,0.2-0.2,0.6,0,0.8c0.2,0.3,0.7,0.3,1.1,0.2
				c-0.1,0.1-0.1,0.2-0.2,0.3L166.3,125z"/>
			<path class="st2" d="M165,127.6c0.1,0.1,0.2,0.3,0.3,0.5c-0.5,0-0.9-0.4-1.2-0.8c-0.2-0.2-0.3-0.5-0.2-0.8
				c0.1-0.2,0.3-0.2,0.5-0.3c0.3-0.2,0.5-0.8,0.9-0.7c0.2,0,0.4,0.3,0.4,0.5c0,0.2-0.1,0.4-0.2,0.6c-0.2,0.4-0.4,0.8-0.7,1.3
				L165,127.6z"/>
			<path class="st2" d="M168.9,121.4c0.2-0.4,0.3-0.9,0.1-1.4c-0.4,0.2-0.7,0.4-1.1,0.5c-0.2,0.1-0.3,0.2-0.4,0.3
				c-0.2,0.3,0,0.8,0.4,0.9C168.2,121.9,168.6,121.7,168.9,121.4L168.9,121.4z"/>
			<path class="st2" d="M162.8,122.3c0,0.3,0.3,0.4,0.6,0.4c0.3-0.1,0.5-0.3,0.7-0.4c0.3-0.1,0.5-0.1,0.8,0.1
				c0.1,0.1,0.3,0.2,0.3,0.4c0,0.1-0.1,0.2-0.1,0.3c-0.3,0.4-0.6,0.8-1.1,1.1c-0.5,0.2-1.1,0.2-1.4-0.1c-0.3-0.2-0.4-0.6-0.3-1
				S162.5,122.3,162.8,122.3L162.8,122.3z"/>
			<path class="st2" d="M177.7,130.2c0-0.3,0-0.7-0.1-1c-0.1-0.3-0.4-0.6-0.8-0.6c-0.2,0-0.3,0.1-0.5,0.2c-0.4,0.3-0.4,1,0,1.4
				C176.7,130.6,177.3,130.5,177.7,130.2L177.7,130.2z"/>
			<path class="st2" d="M178.7,122.6c0.1-0.6,0-1.3-0.5-1.8c-0.2,0.2-0.5,0.3-0.6,0.6c-0.1,0.2-0.2,0.6,0,0.8
				c0.2,0.3,0.7,0.3,1.1,0.2c-0.1,0.1-0.1,0.2-0.2,0.3L178.7,122.6z"/>
			<path class="st2" d="M164,128.3c-0.3,0.2-0.3,0.6-0.2,1c0.1,0.3,0.2,0.7-0.1,1c-0.1,0.1-0.2,0.1-0.3,0.1c-0.2,0-0.2-0.4-0.3-0.6
				c-0.1-0.2-0.2-0.3-0.3-0.5c-0.2-0.4-0.2-0.9,0.1-1.3c0.2-0.1,0.5,0,0.7,0.1c0.2,0.2,0.2,0.5,0.2,0.7L164,128.3z"/>
			<path class="st2" d="M190.6,131.5c-0.1,0.1-0.2,0.1-0.4,0.2c0,0.2,0.1,0.4,0.4,0.5c0.2,0,0.5-0.1,0.5-0.3
				C191.1,131.6,190.9,131.4,190.6,131.5L190.6,131.5z"/>
			<path class="st2" d="M171.3,123.6c-0.1-0.1-0.1-0.3-0.2-0.4c-0.2,0.1-0.4,0.1-0.5,0.3c-0.1,0.2,0,0.5,0.2,0.5
				c0.1,0,0.1-0.1,0.2-0.1c0.2-0.2,0.4-0.3,0.6-0.5L171.3,123.6z"/>
		</g>
		<g>
			<path class="st4" d="M44.2,172.6c2.1,0.9,4.5,1.2,6.7,1c0.4,0,0.7-0.1,1.1-0.3c0.6-0.3,0.9-1.1,0.9-1.8c0.1-1.7-1.1-3.4-2.7-4.1
				c-1.6-0.7-3.5-0.4-5,0.6c-0.8,0.5-1.5,1.3-1.7,2.2c-0.2,0.9,0.3,2,1.2,2.3c0.3-0.2,0.2-0.6,0-0.7L44.2,172.6z"/>
			<path class="st4" d="M50.6,169.5c0.5,0.8,1.4,1.3,2.3,1.3c0.5-0.8,0.6-1.9,0.2-2.7c-0.4-0.8-1.6-1.3-2.4-0.8
				c-0.8,0.5-0.7,2,0.2,2.2L50.6,169.5z"/>
			<path class="st4" d="M58.9,170.9c0,0.4,0.1,0.9,0.5,1.2c0.1-0.1,0.3-0.3,0.4-0.5c0.1-0.2,0.1-0.4-0.1-0.5c-0.2-0.2-0.5-0.1-0.8,0
				c0-0.1,0.1-0.1,0.1-0.2L58.9,170.9z"/>
			<path class="st4" d="M57.1,171c-0.1,0-0.3,0-0.4-0.1c0.2-0.2,0.6-0.2,1-0.1c0.2,0,0.4,0.1,0.4,0.3c0,0.1-0.1,0.3-0.1,0.4
				c0,0.3,0.1,0.6-0.1,0.8c-0.1,0.1-0.3,0-0.4-0.1c-0.1-0.1-0.1-0.3-0.2-0.4c-0.1-0.3-0.2-0.6-0.3-0.9L57.1,171z"/>
			<path class="st5" d="M79.2,172.4c0.2,0.2,0.6-0.1,0.5-0.3c0-0.3-0.3-0.5-0.5-0.6c-0.3,0.3-0.3,0.7-0.2,1.1L79.2,172.4z"/>
			<path class="st4" d="M80.9,162.8c-0.1-0.1,0-0.3,0.1-0.3c0.1-0.1,0.3-0.1,0.4,0c0.1,0,0.1,0.1,0.2,0.1c0.1,0.1,0.1,0.4,0,0.5
				c-0.1,0.1-0.4,0.1-0.5-0.1c-0.1-0.1-0.1-0.4,0-0.5L80.9,162.8z"/>
			<path class="st4" d="M61.8,168c-0.3,0.1-0.4,0.5-0.1,0.6c0.1,0,0.3-0.1,0.4-0.2c0.1-0.1,0.1-0.3,0-0.4c-0.1-0.1-0.3-0.1-0.4,0
				L61.8,168z"/>
			<path class="st4" d="M56,170.2c-0.1,0.3-0.1,0.7,0.1,1c0.2-0.2,0.4-0.3,0.7-0.5c0.1-0.1,0.2-0.1,0.3-0.3c0.1-0.2-0.1-0.5-0.3-0.6
				C56.5,169.8,56.2,170,56,170.2L56,170.2z"/>
			<path class="st5" d="M77.7,164.6c0.1,0,0.2-0.1,0.2-0.1c0-0.1-0.1-0.3-0.3-0.3c-0.1,0-0.3,0.1-0.3,0.3
				C77.3,164.6,77.5,164.7,77.7,164.6L77.7,164.6z"/>
			<path class="st4" d="M60.1,169.1c0-0.2-0.2-0.3-0.4-0.2c-0.2,0.1-0.3,0.2-0.4,0.3c-0.2,0.1-0.4,0.1-0.5,0c-0.1,0-0.2-0.1-0.2-0.2
				c0-0.1,0-0.1,0.1-0.2c0.2-0.3,0.3-0.6,0.6-0.8c0.3-0.2,0.7-0.2,1,0c0.2,0.1,0.3,0.4,0.3,0.6C60.4,168.8,60.3,169,60.1,169.1
				L60.1,169.1z"/>
			<path class="st4" d="M58.6,173.6c-0.1,0.2,0.1,0.5,0.3,0.5s0.5,0,0.6-0.2c0.1-0.1,0.1-0.2,0.1-0.3c0-0.1-0.1-0.1-0.2-0.1
				C59.2,173.6,58.9,173.6,58.6,173.6L58.6,173.6z"/>
			<path class="st4" d="M69.1,173.2c-0.1-0.4,0.4-0.9,0.8-0.8c0,0.4,0,0.7-0.2,1c-0.2,0.3-0.6,0.5-0.9,0.2c0-0.2-0.1-0.4-0.1-0.6
				L69.1,173.2z"/>
			<path class="st4" d="M34.1,169.7c-0.1,0-0.2-0.1-0.2-0.2c0-0.1,0.1-0.2,0.1-0.3c0.1-0.1,0.1-0.1,0.2-0.2c0.1-0.1,0.3,0,0.4,0.1
				c0.1,0.1,0.1,0.3,0,0.5c0,0.1-0.1,0.1-0.2,0.2c-0.1,0-0.2,0-0.2-0.1L34.1,169.7z"/>
			<path class="st4" d="M63.7,169.6c0,0.1,0.1,0.2,0.1,0.2c0.1-0.1,0.3-0.1,0.3-0.3c0.1-0.1,0-0.3-0.2-0.3c-0.1,0-0.1,0.1-0.1,0.1
				c-0.1,0.1-0.2,0.3-0.4,0.4L63.7,169.6z"/>
			<path class="st4" d="M68.8,169c0.2,0.2,0.3,0.3,0.6,0.4c0.2,0.1,0.5,0.1,0.6-0.1c0.1-0.1,0.1-0.2,0.1-0.3c0-0.4-0.3-0.7-0.6-0.7
				C69.1,168.3,68.8,168.7,68.8,169L68.8,169z"/>
			<path class="st4" d="M70.6,170.7c0.2,0,0.3,0.1,0.5,0.1c0.1-0.1,0.1-0.2,0.1-0.4c-0.2-0.1-0.5-0.1-0.6,0.1L70.6,170.7z"/>
			<path class="st4" d="M59.8,181.4c0.9,0,1.8-0.3,2.6-0.8c0.1-0.1,0.3-0.2,0.3-0.3c0.2-0.2,0.1-0.6,0-0.8c-0.3-0.6-1-1.1-1.7-1
				c-0.7,0-1.4,0.5-1.7,1.1c-0.2,0.3-0.3,0.7-0.2,1.1c0.1,0.4,0.5,0.7,0.8,0.7c0.1-0.1,0-0.3-0.1-0.3L59.8,181.4z"/>
			<path class="st4" d="M53.9,163.3c0.2,0.4,0.6,0.6,1.1,0.7c0-0.2,0.1-0.4,0-0.6c0-0.2-0.2-0.4-0.4-0.4c-0.3,0-0.5,0.2-0.6,0.4
				c0-0.1,0-0.1,0-0.2L53.9,163.3z"/>
			<path class="st4" d="M56.9,162.3c0.1,0.1,0.2,0.1,0.3,0.1c0.1,0,0.2-0.1,0.3-0.2c0.2-0.2,0.5-0.4,0.8-0.6
				c-0.5-0.1-1.1-0.2-1.6-0.3c0,0-0.1,0-0.1,0c-0.1-0.1-0.1-0.3-0.1-0.4c-0.1-0.2-0.4-0.2-0.6-0.2C54.4,161.2,56.4,162,56.9,162.3z"
				/>
			<path class="st4" d="M51.2,164.5c0.1,0.3,0.3,0.6,0.6,0.7c0.1-0.3,0.2-0.5,0.3-0.8c0-0.1,0.1-0.2,0.1-0.4
				c-0.1-0.2-0.4-0.4-0.6-0.3C51.3,163.9,51.2,164.2,51.2,164.5L51.2,164.5z"/>
			<path class="st4" d="M35.1,164.5c0.1,0,0.2-0.1,0.2-0.1c0-0.1-0.1-0.3-0.3-0.3c-0.1,0-0.3,0.1-0.3,0.3
				C34.8,164.5,35,164.6,35.1,164.5L35.1,164.5z"/>
			<path class="st4" d="M55.4,165.6c0.1,0.2,0.3,0.3,0.5,0.2c0.2-0.1,0.3-0.3,0.4-0.5c0-0.1,0-0.2-0.1-0.2c-0.1,0-0.1,0-0.2,0.1
				C55.8,165.3,55.5,165.4,55.4,165.6L55.4,165.6z"/>
			<path class="st4" d="M53.9,169.2c0.2,0.2,0.3,0.3,0.6,0.4c0.2,0.1,0.5,0.1,0.6-0.1c0.1-0.1,0.1-0.2,0.1-0.3
				c0-0.4-0.3-0.7-0.6-0.7C54.2,168.5,53.9,168.8,53.9,169.2L53.9,169.2z"/>
			<path class="st4" d="M64.6,174.1c0.2-0.1,0.3-0.4,0.3-0.6c0-0.2,0-0.5,0.2-0.7c0.1,0,0.1-0.1,0.2,0c0.2,0.1,0.1,0.3,0.1,0.5
				c0,0.1,0.1,0.3,0.1,0.4c0.1,0.3,0,0.7-0.3,0.9c-0.2,0-0.3,0-0.4-0.2c-0.1-0.1-0.1-0.3,0-0.5L64.6,174.1z"/>
			<path class="st4" d="M69.4,170.6c0.2-0.1,0.3-0.4,0.3-0.6c0-0.2,0-0.5,0.2-0.7c0.1,0,0.1-0.1,0.2,0c0.2,0.1,0.1,0.3,0.1,0.5
				c0,0.1,0.1,0.3,0.1,0.4c0.1,0.3,0,0.7-0.3,0.9c-0.2,0-0.3,0-0.4-0.2c-0.1-0.1-0.1-0.3,0-0.5L69.4,170.6z"/>
			<path class="st4" d="M73.6,171.6c0.2,0.1,0.4,0.1,0.6,0.1c0,0,0.1,0,0.1,0c0.1,0,0.1-0.1,0.1-0.2c0-0.1-0.1-0.3-0.2-0.3
				c-0.1-0.1-0.3,0-0.4,0.1c-0.1,0-0.1,0.1-0.1,0.2C73.6,171.5,73.6,171.6,73.6,171.6C73.7,171.6,73.7,171.5,73.6,171.6L73.6,171.6z
				"/>
			<path class="st4" d="M45.9,168.5c0.2,0.4,0.6,0.6,1.1,0.7c0-0.2,0.1-0.4,0-0.6c0-0.2-0.2-0.4-0.4-0.4c-0.3,0-0.5,0.2-0.6,0.4
				c0-0.1,0-0.1,0-0.2L45.9,168.5z"/>
			<path class="st4" d="M46.5,164.5c-0.2,0.2,0,0.6,0.3,0.6c0.1-0.1,0.2-0.2,0.2-0.4c0-0.1-0.1-0.3-0.2-0.3c-0.1,0-0.3,0.1-0.3,0.2
				L46.5,164.5z"/>
			<path class="st4" d="M52.8,168.1c-0.2,0.2,0,0.6,0.3,0.6c0.1-0.1,0.2-0.2,0.2-0.4c0-0.1-0.1-0.3-0.2-0.3c-0.1,0-0.3,0.1-0.3,0.2
				L52.8,168.1z"/>
			<path class="st4" d="M45.8,166.3c-0.1-0.1-0.3-0.1-0.4,0.1c-0.1,0.2-0.1,0.3-0.2,0.5c-0.1,0.2-0.2,0.3-0.4,0.3
				c-0.1,0-0.2,0-0.3-0.1c0-0.1-0.1-0.1-0.1-0.2c-0.1-0.3-0.1-0.7,0-1c0.1-0.3,0.4-0.6,0.8-0.6c0.2,0,0.5,0.1,0.6,0.3
				C45.9,165.9,45.9,166.2,45.8,166.3L45.8,166.3z"/>
			<path class="st4" d="M65.7,172c-0.1-0.1-0.3-0.1-0.4,0.1c-0.1,0.2-0.1,0.3-0.2,0.5c-0.1,0.2-0.2,0.3-0.4,0.3
				c-0.1,0-0.2,0-0.3-0.1c0-0.1-0.1-0.1-0.1-0.2c-0.1-0.3-0.1-0.7,0-1c0.1-0.3,0.4-0.6,0.8-0.6c0.2,0,0.5,0.1,0.6,0.3
				C65.8,171.5,65.8,171.8,65.7,172L65.7,172z"/>
			<path class="st4" d="M65.4,174.3c-0.1-0.1-0.3-0.1-0.4,0.1c-0.1,0.2-0.1,0.3-0.2,0.5c-0.1,0.2-0.2,0.3-0.4,0.3
				c-0.1,0-0.2,0-0.3-0.1c0-0.1-0.1-0.1-0.1-0.2c-0.1-0.3-0.1-0.7,0-1c0.1-0.3,0.4-0.6,0.8-0.6c0.2,0,0.5,0.1,0.6,0.3
				C65.6,173.8,65.6,174.1,65.4,174.3L65.4,174.3z"/>
			<path class="st4" d="M62.1,173.1c-0.1-0.1-0.3-0.1-0.4,0.1c-0.1,0.2-0.1,0.3-0.2,0.5c-0.1,0.2-0.2,0.3-0.4,0.3
				c-0.1,0-0.2,0-0.3-0.1c0-0.1-0.1-0.1-0.1-0.2c-0.1-0.3-0.1-0.7,0-1c0.1-0.3,0.4-0.6,0.8-0.6c0.2,0,0.5,0.1,0.6,0.3
				C62.2,172.7,62.2,173,62.1,173.1L62.1,173.1z"/>
			<path class="st4" d="M74.8,151.7c-0.1-0.1-0.3-0.1-0.4,0.1c-0.1,0.2-0.1,0.3-0.2,0.5c-0.1,0.2-0.2,0.3-0.4,0.3
				c-0.1,0-0.2,0-0.3-0.1c0-0.1-0.1-0.1-0.1-0.2c-0.1-0.3-0.1-0.7,0-1c0.1-0.3,0.4-0.6,0.8-0.6c0.2,0,0.5,0.1,0.6,0.3
				C74.9,151.2,74.9,151.5,74.8,151.7L74.8,151.7z"/>
			<path class="st4" d="M49,164.5c0.1,0,0.2,0.1,0.3,0.1c0.1-0.1,0.1-0.3,0.1-0.4c0-0.1-0.2-0.2-0.3-0.1c0,0,0,0.1,0,0.2
				c0,0.2,0,0.4-0.1,0.5L49,164.5z"/>
			<path class="st4" d="M67.3,160.5c0.2,0.2,0.3,0.3,0.6,0.4c0.2,0.1,0.5,0.1,0.6-0.1c0.1-0.1,0.1-0.2,0.1-0.3
				c0-0.4-0.3-0.7-0.6-0.7C67.6,159.8,67.3,160.1,67.3,160.5L67.3,160.5z"/>
			<path class="st4" d="M51.1,171.4c-0.3,0-0.5-0.5-0.3-0.8c0.2,0,0.4,0,0.6,0c0,0.2-0.1,0.4-0.2,0.6L51.1,171.4z"/>
			<path class="st5" d="M69.7,162.3c0.1,0.1,0.2,0.2,0.4,0.2c0.1,0,0.3,0,0.4-0.1c0.1-0.2-0.1-0.4,0-0.6c0-0.2,0.2-0.4,0.2-0.6
				c-0.1-0.2-0.4-0.3-0.5-0.2c-0.2,0.1-0.3,0.3-0.4,0.5c-0.1,0.2-0.1,0.4-0.1,0.6c0,0.2,0.2,0.4,0.4,0.3L69.7,162.3z"/>
			<path class="st4" d="M60.9,170.5c-0.1,0.9,0.3,1.9,1.1,2.5c0.9-0.4,1.6-1.1,1.8-2c0.2-0.9-0.5-2-1.4-2.1
				c-0.9-0.1-1.8,1.1-1.2,1.9L60.9,170.5z"/>
			<path class="st4" d="M50.7,173.6c0-0.1,0.1-0.2,0.3-0.2c0.1,0,0.2,0.1,0.3,0.2c0,0.1,0.1,0.1,0.1,0.2c0,0.2-0.1,0.3-0.3,0.3
				c-0.2,0-0.3-0.2-0.3-0.3c0-0.2,0.1-0.3,0.3-0.4L50.7,173.6z"/>
			<path class="st4" d="M55.6,172.1c0.2-0.2,0.1-0.4,0-0.7c-0.1-0.2-0.2-0.5,0-0.7c0-0.1,0.1-0.1,0.2-0.1c0.2,0,0.2,0.2,0.3,0.4
				c0.1,0.1,0.2,0.2,0.2,0.3c0.2,0.3,0.2,0.6,0,0.9c-0.1,0.1-0.3,0.1-0.5,0c-0.1-0.1-0.2-0.3-0.2-0.5L55.6,172.1z"/>
			<path class="st4" d="M61.5,167.3c0.1,0,0.2,0,0.3,0c0.1-0.1,0.1-0.3,0-0.4c-0.1-0.1-0.3-0.1-0.4,0
				C61.2,167.1,61.3,167.3,61.5,167.3L61.5,167.3z"/>
			<path class="st4" d="M56.6,169c-0.1,0-0.1-0.2,0-0.3c0.1-0.1,0.2-0.1,0.3-0.2c0.1,0,0.2,0,0.2,0c0.2,0,0.3,0.2,0.3,0.4
				c0,0.2-0.1,0.3-0.3,0.4c-0.1,0-0.2,0.1-0.2,0c-0.1,0-0.1-0.1-0.1-0.2L56.6,169z"/>
			<path class="st4" d="M55.6,161.2c-0.7,0.6-1,1.7-0.8,2.6c0.9,0.3,1.9,0.2,2.7-0.4c0.7-0.6,1-1.8,0.3-2.5
				c-0.6-0.7-2.1-0.3-2.1,0.7L55.6,161.2z"/>
			<path class="st4" d="M49.8,165.7c0.2,0.2,0.6-0.1,0.5-0.3c0-0.3-0.3-0.5-0.5-0.6c-0.3,0.3-0.3,0.7-0.2,1.1L49.8,165.7z"/>
			<path class="st4" d="M53.4,175c0.1,0,0.2,0,0.3,0c0.1-0.1,0.1-0.3,0-0.4c-0.1-0.1-0.3-0.1-0.4,0C53.2,174.8,53.2,175,53.4,175
				L53.4,175z"/>
			<path class="st4" d="M54.7,170.2c0.9,0.4,1.9,0.6,2.9,0.5c0.2,0,0.3,0,0.5-0.1c0.3-0.1,0.4-0.5,0.4-0.8c0.1-0.8-0.4-1.5-1.1-1.8
				c-0.7-0.3-1.5-0.2-2.2,0.2c-0.4,0.2-0.7,0.5-0.8,1c-0.1,0.4,0.1,0.9,0.5,1c0.1-0.1,0.1-0.3,0-0.3L54.7,170.2z"/>
			<path class="st4" d="M62.1,155.6c0.5,0.8,1.4,1.3,2.3,1.3c0.5-0.8,0.6-1.9,0.2-2.7c-0.4-0.8-1.6-1.3-2.4-0.8
				c-0.8,0.5-0.7,2,0.2,2.2L62.1,155.6z"/>
			<path class="st4" d="M72.4,170c0.2,0.4,0.6,0.6,1.1,0.7c0-0.2,0.1-0.4,0-0.6c0-0.2-0.2-0.4-0.4-0.4c-0.3,0-0.5,0.2-0.6,0.4
				c0-0.1,0-0.1,0-0.2L72.4,170z"/>
			<path class="st4" d="M75.4,169c0.1,0.1,0.2,0.1,0.3,0.1c0.1,0,0.2-0.1,0.3-0.2c0.2-0.2,0.5-0.4,0.8-0.6c-0.5-0.1-1.1-0.2-1.6-0.3
				c0,0-0.1,0-0.1,0c-0.1-0.1-0.1-0.3-0.1-0.4c-0.1-0.2-0.4-0.2-0.6-0.2C72.9,167.9,74.8,168.7,75.4,169z"/>
			<path class="st4" d="M56.6,172.5c0.2,0,0.3,0.1,0.5,0.1c0-0.3-0.1-0.7-0.4-0.8c-0.3-0.1-0.7,0.1-0.6,0.4c0,0.2,0.2,0.5,0,0.5
				L56.6,172.5z"/>
			<path class="st4" d="M68.7,166.2c-0.1,0-0.3,0-0.4-0.1c0.2-0.2,0.6-0.2,1-0.1c0.2,0,0.4,0.1,0.4,0.3c0,0.1-0.1,0.3-0.1,0.4
				c0,0.3,0.1,0.6-0.1,0.8c-0.1,0.1-0.3,0-0.4-0.1c-0.1-0.1-0.1-0.3-0.2-0.4c-0.1-0.3-0.2-0.6-0.3-0.9L68.7,166.2z"/>
			<path class="st4" d="M69,161.1c0.2,0.2,0.6-0.1,0.5-0.3c0-0.3-0.3-0.5-0.5-0.6c-0.3,0.3-0.3,0.7-0.2,1.1L69,161.1z"/>
			<path class="st5" d="M73.8,164.4c-0.1-0.1,0-0.3,0.1-0.3c0.1-0.1,0.3-0.1,0.4,0c0.1,0,0.1,0.1,0.2,0.1c0.1,0.1,0.1,0.4,0,0.5
				c-0.1,0.1-0.4,0.1-0.5-0.1c-0.1-0.1-0.1-0.4,0-0.5L73.8,164.4z"/>
			<path class="st4" d="M73,166c-0.2,0.2,0,0.6,0.3,0.6c0.1-0.1,0.2-0.2,0.2-0.4c0-0.1-0.1-0.3-0.2-0.3c-0.1,0-0.3,0.1-0.3,0.2
				L73,166z"/>
			<path class="st4" d="M69.7,171.1c0.1,0.3,0.3,0.6,0.6,0.7c0.1-0.3,0.2-0.5,0.3-0.8c0-0.1,0.1-0.2,0.1-0.4
				c-0.1-0.2-0.4-0.4-0.6-0.3C69.8,170.6,69.7,170.9,69.7,171.1L69.7,171.1z"/>
			<path class="st5" d="M72.4,160.8c-0.1-0.2-0.1-0.4,0-0.5c0.1-0.2,0.3-0.2,0.5-0.2c0.1,0,0.3,0.1,0.2,0.3c0,0.1-0.1,0.1-0.1,0.1
				C72.8,160.6,72.6,160.8,72.4,160.8C72.4,160.9,72.4,160.9,72.4,160.8L72.4,160.8z"/>
			<path class="st5" d="M74.3,157.7c0.2-0.1,0.3-0.4,0.3-0.6c0-0.2,0-0.5,0.2-0.7c0.1,0,0.1-0.1,0.2,0c0.2,0.1,0.1,0.3,0.1,0.5
				c0,0.1,0.1,0.3,0.1,0.4c0.1,0.3,0,0.7-0.3,0.9c-0.2,0-0.3,0-0.4-0.2c-0.1-0.1-0.1-0.3,0-0.5L74.3,157.7z"/>
			<path class="st5" d="M63.7,176.3c0.2-0.1,0.3-0.4,0.3-0.6c0-0.2,0-0.5,0.2-0.7c0.1,0,0.1-0.1,0.2,0c0.2,0.1,0.1,0.3,0.1,0.5
				c0,0.1,0.1,0.3,0.1,0.4c0.1,0.3,0,0.7-0.3,0.9c-0.2,0-0.3,0-0.4-0.2c-0.1-0.1-0.1-0.3,0-0.5L63.7,176.3z"/>
			<path class="st5" d="M76.3,158.9c0.1,0,0.2,0.1,0.2,0.1c0.1-0.1,0.2-0.3,0.1-0.4c-0.1-0.1-0.3-0.2-0.4-0.1
				C76.2,158.7,76.2,158.9,76.3,158.9L76.3,158.9z"/>
			<path class="st4" d="M72.3,167.8c-0.1-0.1-0.3-0.1-0.4,0.1c-0.1,0.2-0.1,0.3-0.2,0.5c-0.1,0.2-0.2,0.3-0.4,0.3
				c-0.1,0-0.2,0-0.3-0.1c0-0.1-0.1-0.1-0.1-0.2c-0.1-0.3-0.1-0.7,0-1c0.1-0.3,0.4-0.6,0.8-0.6c0.2,0,0.5,0.1,0.6,0.3
				C72.4,167.4,72.4,167.7,72.3,167.8L72.3,167.8z"/>
			<path class="st4" d="M73.8,172.3c0.1,0.2,0.3,0.3,0.5,0.2c0.2-0.1,0.3-0.3,0.4-0.5c0-0.1,0-0.2-0.1-0.2c-0.1,0-0.1,0-0.2,0.1
				C74.2,172,74,172.1,73.8,172.3L73.8,172.3z"/>
			<path class="st4" d="M65.7,163.1c-0.1-0.4,0.4-0.9,0.8-0.8c0,0.4,0,0.7-0.2,1c-0.2,0.3-0.6,0.5-0.9,0.2c0-0.2-0.1-0.4-0.1-0.6
				L65.7,163.1z"/>
			<path class="st5" d="M75.5,166c0.1,0,0.2,0.1,0.3,0.1c0.1-0.1,0.1-0.3,0.1-0.4s-0.2-0.2-0.3-0.1c0,0,0,0.1,0,0.2
				c0,0.2,0,0.4-0.1,0.5L75.5,166z"/>
			<path class="st4" d="M50.6,169.3c0.2,0.2,0.3,0.3,0.6,0.4c0.2,0.1,0.5,0.1,0.6-0.1c0.1-0.1,0.1-0.2,0.1-0.3
				c0-0.4-0.3-0.7-0.6-0.7C51,168.6,50.6,168.9,50.6,169.3L50.6,169.3z"/>
			<path class="st4" d="M60.4,159.4c0.2,0,0.3,0.1,0.5,0.1c0.1-0.1,0.1-0.2,0.1-0.4c-0.2-0.1-0.5-0.1-0.6,0.1L60.4,159.4z"/>
			<path class="st4" d="M38.4,167.5c-0.1-0.1,0-0.3,0.1-0.3c0.1-0.1,0.3-0.1,0.4,0c0.1,0,0.1,0.1,0.2,0.1c0.1,0.1,0.1,0.4,0,0.5
				c-0.1,0.1-0.4,0.1-0.5-0.1c-0.1-0.1-0.1-0.4,0-0.5L38.4,167.5z"/>
			<path class="st4" d="M63,162.4c0.2,0,0.3,0.1,0.5,0.1c0.1-0.1,0.1-0.2,0.1-0.4c-0.2-0.1-0.5-0.1-0.6,0.1L63,162.4z"/>
			<path class="st4" d="M60.8,175.2c0.1,0.2,0.3,0.2,0.4,0c0.1-0.1,0.2-0.3,0.3-0.4c0.1-0.1,0.3-0.2,0.5-0.2c0.1,0,0.2,0,0.3,0.1
				c0,0.1,0,0.1,0,0.2c0,0.3-0.1,0.7-0.3,1c-0.2,0.3-0.6,0.5-0.9,0.4c-0.2-0.1-0.4-0.3-0.5-0.5C60.5,175.6,60.6,175.3,60.8,175.2
				L60.8,175.2z"/>
			<path class="st4" d="M54.8,167.8c-0.1-0.1-0.2-0.2-0.3-0.3c-0.1-0.1-0.3-0.1-0.4,0c-0.2,0.1-0.1,0.4-0.1,0.6
				c-0.1,0.2-0.3,0.3-0.3,0.6c0,0.2,0.3,0.4,0.5,0.3c0.2-0.1,0.4-0.2,0.5-0.4c0.1-0.2,0.2-0.3,0.2-0.5c0-0.2-0.1-0.4-0.3-0.5
				L54.8,167.8z"/>
			<path class="st4" d="M64.9,169.9c-0.8-0.1-1.6,0-2.4,0.3c-0.1,0-0.2,0.1-0.3,0.2c-0.2,0.2-0.2,0.5-0.1,0.7
				c0.1,0.6,0.7,1.1,1.3,1.1c0.6,0.1,1.2-0.2,1.6-0.7c0.2-0.3,0.4-0.6,0.4-0.9c0-0.3-0.3-0.7-0.6-0.7c-0.1,0.1,0,0.2,0.1,0.2
				L64.9,169.9z"/>
			<path class="st4" d="M62.5,175.3c0,0.1,0,0.3,0.1,0.4c0.1,0.1,0.2,0.1,0.3,0.2c0.3,0.1,0.6,0.2,0.9,0.4c-0.2-0.5-0.4-1-0.6-1.5
				c0,0,0-0.1,0-0.1c0-0.1,0.2-0.2,0.3-0.3c0.1-0.2,0-0.4-0.1-0.6C62.2,172.5,62.5,174.6,62.5,175.3z"/>
			<path class="st4" d="M64.9,170.1c0.1,0,0.2,0.1,0.2,0.1c0.1-0.1,0.2-0.3,0.1-0.4c-0.1-0.1-0.3-0.2-0.4-0.1
				C64.8,169.8,64.8,170,64.9,170.1L64.9,170.1z"/>
			<path class="st4" d="M64.9,174.5c-0.2,0.2-0.1,0.4,0.1,0.6c0.2,0.1,0.4,0.2,0.6,0.1c0.1,0,0.2-0.1,0.2-0.2c0-0.1-0.1-0.1-0.1-0.1
				C65.4,174.7,65.1,174.5,64.9,174.5L64.9,174.5z"/>
			<path class="st4" d="M65.6,171.6c-0.2,0.4-0.2,0.9,0,1.3c0.2-0.1,0.4-0.1,0.5-0.3c0.1-0.1,0.2-0.3,0.2-0.5
				c-0.1-0.2-0.4-0.3-0.7-0.3c0.1,0,0.1-0.1,0.2-0.1L65.6,171.6z"/>
			<path class="st4" d="M67,170.2c-0.1-0.1-0.1-0.3-0.1-0.4c0.3,0.1,0.5,0.4,0.6,0.8c0.1,0.2,0.1,0.4,0,0.5
				c-0.1,0.1-0.2,0.1-0.4,0.1c-0.2,0.1-0.5,0.4-0.7,0.3c-0.1-0.1-0.2-0.2-0.1-0.4c0-0.1,0.1-0.3,0.3-0.4c0.2-0.2,0.5-0.5,0.7-0.7
				L67,170.2z"/>
			<path class="st4" d="M63.2,173.5c-0.2,0.2-0.4,0.6-0.3,0.9c0.3-0.1,0.5-0.1,0.8-0.2c0.1,0,0.3-0.1,0.4-0.1
				c0.2-0.2,0.1-0.5-0.1-0.6C63.8,173.3,63.5,173.4,63.2,173.5L63.2,173.5z"/>
			<path class="st4" d="M67.4,174.1c0.1-0.2-0.1-0.3-0.3-0.3c-0.2,0-0.3,0.1-0.5,0.1c-0.2,0-0.4-0.1-0.5-0.2
				c-0.1-0.1-0.1-0.2-0.1-0.3c0-0.1,0.1-0.1,0.1-0.2c0.3-0.2,0.6-0.4,0.9-0.5c0.3-0.1,0.7,0.1,0.9,0.4c0.1,0.2,0.1,0.5,0,0.7
				C67.8,174,67.6,174.1,67.4,174.1L67.4,174.1z"/>
			<path class="st4" d="M59.1,166.1c-0.1,0.2-0.1,0.5-0.1,0.7c0,0.2,0.2,0.5,0.4,0.5c0.1,0,0.2,0,0.3-0.1c0.3-0.2,0.4-0.6,0.3-0.9
				C59.9,166,59.4,165.9,59.1,166.1L59.1,166.1z"/>
			<path class="st4" d="M57,170.9c-0.2,0.4-0.2,0.9,0,1.3c0.2-0.1,0.4-0.1,0.5-0.3s0.2-0.3,0.2-0.5c-0.1-0.2-0.4-0.3-0.7-0.3
				c0.1,0,0.1-0.1,0.2-0.1L57,170.9z"/>
			<path class="st4" d="M67.7,169.9c0.2-0.1,0.3-0.4,0.3-0.6c0-0.2,0-0.5,0.2-0.6c0.1,0,0.1,0,0.2,0c0.2,0.1,0.1,0.3,0.1,0.5
				c0,0.1,0.1,0.3,0.1,0.4c0.1,0.3-0.1,0.7-0.3,0.8c-0.2,0-0.3-0.1-0.4-0.2c-0.1-0.1-0.1-0.3,0-0.5L67.7,169.9z"/>
			<path class="st4" d="M50.9,162.8c0.1,0,0.2,0,0.3,0c0-0.1,0-0.3-0.1-0.4c-0.1-0.1-0.3,0-0.4,0.1
				C50.6,162.6,50.7,162.8,50.9,162.8L50.9,162.8z"/>
			<path class="st4" d="M62,171.6c0,0.1,0,0.2,0,0.3c0.1,0,0.3,0,0.4-0.1c0.1-0.1,0.1-0.3-0.1-0.4c-0.1,0-0.1,0-0.2,0
				c-0.2,0.1-0.3,0.1-0.5,0.2L62,171.6z"/>
		</g>
	</g>
	<g>
		
			<linearGradient id="SVGID_00000130629375249366997910000007209263917666702250_" gradientUnits="userSpaceOnUse" x1="100.5041" y1="206.3787" x2="108.5465" y2="178.5244">
			<stop  offset="0" style="stop-color:#CBC1F7"/>
			<stop  offset="1" style="stop-color:#D4BEF1"/>
		</linearGradient>
		<path style="fill:url(#SVGID_00000130629375249366997910000007209263917666702250_);" d="M117.2,184.7c0,0-1.9,2.8-4.4,6.4
			c-4.1,5.9-9.8,13.8-12,15.2c-1,0.7-1.7-1.8-2-5.5c-0.8-8.8-0.1-24.9-0.1-24.9S112.4,178.7,117.2,184.7z"/>
		
			<linearGradient id="SVGID_00000006675912912269359050000011799755471371559829_" gradientUnits="userSpaceOnUse" x1="107.9009" y1="200.759" x2="107.9009" y2="175.822">
			<stop  offset="0" style="stop-color:#8DA4E5"/>
			<stop  offset="1" style="stop-color:#755CBB"/>
		</linearGradient>
		<path style="opacity:0.5;fill:url(#SVGID_00000006675912912269359050000011799755471371559829_);" d="M117.2,184.7
			c0,0-1.9,2.8-4.4,6.4c0,0-3.7-0.6-9.9,3.1c-2.4,1.4-3.5,3.9-4.1,6.5c-0.8-8.8-0.1-24.9-0.1-24.9S112.4,178.7,117.2,184.7z"/>
		
			<linearGradient id="SVGID_00000160174615979385577830000018418634618709721779_" gradientUnits="userSpaceOnUse" x1="131.4253" y1="168.0738" x2="137.7086" y2="118.0459">
			<stop  offset="0" style="stop-color:#FF9200"/>
			<stop  offset="1" style="stop-color:#FFC400"/>
		</linearGradient>
		<path style="fill:url(#SVGID_00000160174615979385577830000018418634618709721779_);" d="M142.9,169.4L142.9,169.4
			c-4-1.1-8.9-4.9-12.6-10.5c-8.1-12.1-16.8-37.4-6.4-42.6c1-0.5,5.9,5.7,11.2,13.9c6.2,9.7,12.9,22.3,14.3,30.1
			C150.7,168.2,147.4,170.6,142.9,169.4z"/>
		
			<linearGradient id="SVGID_00000152262124681098422380000016362146950037704868_" gradientUnits="userSpaceOnUse" x1="150.2453" y1="96.3824" x2="148.6625" y2="80.8447" gradientTransform="matrix(0.9773 -0.212 0.212 0.9773 -21.766 107.1423)">
			<stop  offset="0" style="stop-color:#2370B9"/>
			<stop  offset="1" style="stop-color:#0053A4"/>
		</linearGradient>
		<path style="fill:url(#SVGID_00000152262124681098422380000016362146950037704868_);" d="M137.5,166.6c0,0,3.5-13.6,7.8-13.4
			c4.3,0.2,4.9,12.7,2.1,15.3C144.6,171,139.1,168.2,137.5,166.6z"/>
		
			<linearGradient id="SVGID_00000070108009572472664830000003596740453438294950_" gradientUnits="userSpaceOnUse" x1="130.9827" y1="169.425" x2="130.9827" y2="116.3231">
			<stop  offset="0" style="stop-color:#2370B9"/>
			<stop  offset="1" style="stop-color:#CCEDFF"/>
		</linearGradient>
		<path style="opacity:0.3;fill:url(#SVGID_00000070108009572472664830000003596740453438294950_);" d="M142.9,169.4L142.9,169.4
			c-4-1.1-8.9-4.9-12.6-10.5c-8.1-12.1-16.8-37.4-6.4-42.6c1-0.5,5.9,5.7,11.2,13.9v0c0,0-2.4,18.1-0.7,24.5
			c1.7,6.4,7.5,10.4,7.5,10.4L142.9,169.4z"/>
		
			<linearGradient id="SVGID_00000090282436846032479370000000039690873664403901_" gradientUnits="userSpaceOnUse" x1="680.6442" y1="272.7749" x2="690.437" y2="194.8043" gradientTransform="matrix(-0.9689 -0.2474 -0.2474 0.9689 829.911 91.2986)">
			<stop  offset="0" style="stop-color:#FF9200"/>
			<stop  offset="1" style="stop-color:#FFC400"/>
		</linearGradient>
		<path style="fill:url(#SVGID_00000090282436846032479370000000039690873664403901_);" d="M80.6,157.9
			c-0.6,16.4,6.6,25.4,22.6,29.2c15.7,3.8,29.6-10.7,29.6-31.9c0-13.5-0.8-25.7-5.7-34.4c0,0,0,0,0,0l0,0c-2.8-4.9-6.8-8.7-12.7-11
			c-4.6-1.8-9.3-0.2-13.5,3.3C89.8,122.4,81,145.2,80.6,157.9z"/>
		
			<linearGradient id="SVGID_00000118390798508441705550000002580060896050732168_" gradientUnits="userSpaceOnUse" x1="703.7764" y1="260.022" x2="703.7764" y2="219.7844" gradientTransform="matrix(-0.9689 -0.2474 -0.2474 0.9689 829.911 91.2986)">
			<stop  offset="0" style="stop-color:#2370B9"/>
			<stop  offset="1" style="stop-color:#CCEDFF"/>
		</linearGradient>
		<path style="opacity:0.3;fill:url(#SVGID_00000118390798508441705550000002580060896050732168_);" d="M96.4,130.8
			c0,0-4.8,11.7-6.8,19.8c-2.4,9.6,1,20.2,1,20.2l-9.1-2.9c0,0-2.5-13.2,0.7-20.4c2.7-6.1,3.5-9.1,3.5-9.1L96.4,130.8z"/>
		
			<linearGradient id="SVGID_00000093163341593609165520000018064465067378463879_" gradientUnits="userSpaceOnUse" x1="658.3458" y1="248.0956" x2="696.5811" y2="248.0956" gradientTransform="matrix(-0.9689 -0.2474 -0.2474 0.9689 829.911 91.2986)">
			<stop  offset="0" style="stop-color:#2370B9"/>
			<stop  offset="1" style="stop-color:#0053A4"/>
		</linearGradient>
		<path style="fill:url(#SVGID_00000093163341593609165520000018064465067378463879_);" d="M133,158c0,0-0.6-12.7-11.9-15.5
			c-13.5-3.4-26.3,9.1-28.1,19.4c-1.8,10.3-1.1,20.5,11.5,24.2C104.5,186,128.5,191.6,133,158z"/>
		
			<radialGradient id="SVGID_00000003084372749902341820000018001687456369474472_" cx="678.1004" cy="265.4247" r="28.896" gradientTransform="matrix(-0.9689 -0.2474 -0.2474 0.9689 829.911 91.2986)" gradientUnits="userSpaceOnUse">
			<stop  offset="0" style="stop-color:#45FFCD"/>
			<stop  offset="1" style="stop-color:#2370B9"/>
		</radialGradient>
		<path style="fill:url(#SVGID_00000003084372749902341820000018001687456369474472_);" d="M132.6,159.3c0,0-0.6-12.7-11.9-15.5
			c-13.5-3.4-26.3,9.1-28.1,19.4c-1.8,10.3-1.1,20.5,11.5,24.2C104.2,187.4,128.1,192.9,132.6,159.3z"/>
		
			<linearGradient id="SVGID_00000132766439196592344070000018094131702668831375_" gradientUnits="userSpaceOnUse" x1="699.6761" y1="219.7844" x2="709.5206" y2="219.7844" gradientTransform="matrix(-0.9689 -0.2474 -0.2474 0.9689 829.911 91.2986)">
			<stop  offset="0" style="stop-color:#2370B9"/>
			<stop  offset="1" style="stop-color:#238FB9"/>
		</linearGradient>
		<path style="fill:url(#SVGID_00000132766439196592344070000018094131702668831375_);" d="M86.7,142.3c0.6,0.1,1.3-0.2,2.2-0.9
			c3.8-3,9.5-13.1,11-19.1c0.6-2.3,0.5-4.1-0.5-4.5c-1.7-0.8-6.9,4.4-10.9,12.4C86.2,134.8,84.2,141.6,86.7,142.3z"/>
		<path class="st16" d="M88.9,141.4c3.8-3,9.5-13.1,11-19.1c-2.3,1.8-5.6,6-8.3,11.4C90.4,136.1,89.3,139,88.9,141.4z"/>
		
			<linearGradient id="SVGID_00000049933180637382322190000001620432425574282934_" gradientUnits="userSpaceOnUse" x1="660.3348" y1="234.6596" x2="692.0604" y2="234.6596" gradientTransform="matrix(-0.9689 -0.2474 -0.2474 0.9689 829.911 91.2986)">
			<stop  offset="0" style="stop-color:#000000"/>
			<stop  offset="1" style="stop-color:#D4E2FF"/>
		</linearGradient>
		<path style="opacity:0.72;fill:url(#SVGID_00000049933180637382322190000001620432425574282934_);" d="M131.3,158
			c-2.5,2.8-7.8-3-15.9-4.1c-8.1-1.1-13.4,2-15.4,0.3c-2-1.7,8.2-11.7,20.4-9.1C130.2,147.2,132.2,157,131.3,158z"/>
		
			<linearGradient id="SVGID_00000018235188022631345020000001366612194005087150_" gradientUnits="userSpaceOnUse" x1="677.6386" y1="271.1975" x2="677.6386" y2="267.5339" gradientTransform="matrix(-0.9689 -0.2474 -0.2474 0.9689 829.911 91.2986)">
			<stop  offset="0" style="stop-color:#D4E2FF"/>
			<stop  offset="1" style="stop-color:#000000"/>
		</linearGradient>
		<path style="opacity:0.72;fill:url(#SVGID_00000018235188022631345020000001366612194005087150_);" d="M115.2,184.9
			c0,0-4.2,2.5-9.7,1.3c-5.5-1.2-6.7-4.3-6.7-4.3s2.7-0.4,6.4,1.3C108.9,184.9,112.5,185.3,115.2,184.9z"/>
		<path class="st4" d="M106.2,130.8c0.9,0.3,0.7,8.1-0.2,8.2c-0.8,0.1-2.4-0.2-2.3-3.5C103.7,132.3,105.3,130.6,106.2,130.8z"/>
		
			<linearGradient id="SVGID_00000042735421150975509420000000504118537407120279_" gradientUnits="userSpaceOnUse" x1="82.8248" y1="198.1583" x2="96.2398" y2="151.6966" gradientTransform="matrix(0.9985 -5.400000e-02 5.400000e-02 0.9985 -10.5982 23.7148)">
			<stop  offset="0" style="stop-color:#FF9200"/>
			<stop  offset="1" style="stop-color:#FFC400"/>
		</linearGradient>
		<path style="fill:url(#SVGID_00000042735421150975509420000000504118537407120279_);" d="M97.9,220.6
			c-5.2,0.1-26.8-47.6-21.6-51.4c8.8-6.4,20.9,6.4,25.4,13.7c1,1.7,1.7,3.1,1.8,3.9C104,191,103.1,220.4,97.9,220.6z"/>
		
			<linearGradient id="SVGID_00000162321967940720583240000001888374882428000701_" gradientUnits="userSpaceOnUse" x1="74.3794" y1="144.5323" x2="77.6448" y2="118.5333">
			<stop  offset="0" style="stop-color:#FF9200"/>
			<stop  offset="1" style="stop-color:#FFC400"/>
		</linearGradient>
		<path style="fill:url(#SVGID_00000162321967940720583240000001888374882428000701_);" d="M96.4,121.5c2.9,2.9-5.5,19.1-12.7,21.8
			c-7.3,2.7-23-0.6-25.5-1.6c-2.5-1-3.4-9.4-1.1-12.6C59.4,125.8,92.4,117.5,96.4,121.5z"/>
		
			<linearGradient id="SVGID_00000107568468007618698350000001932758194798981806_" gradientUnits="userSpaceOnUse" x1="105.4098" y1="129.2928" x2="110.1046" y2="110.906">
			<stop  offset="0" style="stop-color:#8DA4E5"/>
			<stop  offset="1" style="stop-color:#755CBB"/>
		</linearGradient>
		<path style="opacity:0.5;fill:url(#SVGID_00000107568468007618698350000001932758194798981806_);" d="M84.6,121
			c0,0,11.2,8.9,27.7,8s17.7-6.2,17.7-6.2s-5.4-8-9.8-9.4c-1.7-0.5-19.9-3.8-25.8,7C90.4,120.5,84.6,121,84.6,121z"/>
		
			<linearGradient id="SVGID_00000163044321200104210500000018434967036245839520_" gradientUnits="userSpaceOnUse" x1="997.3391" y1="-16.9153" x2="997.3391" y2="-42.553" gradientTransform="matrix(-0.9758 0.2188 0.2188 0.9758 1106.8721 -142.7061)">
			<stop  offset="0" style="stop-color:#45FFCD"/>
			<stop  offset="1" style="stop-color:#22E0FF"/>
		</linearGradient>
		<path style="fill:url(#SVGID_00000163044321200104210500000018434967036245839520_);" d="M124.1,34c0,0,8.4,5.6,12.1,18.7
			c3.7,13-15.9-2.6-15.9-2.6L124.1,34z"/>
		
			<linearGradient id="SVGID_00000083781376801258855550000015561769053129646513_" gradientUnits="userSpaceOnUse" x1="1004.233" y1="-25.7614" x2="1004.233" y2="-47.8048" gradientTransform="matrix(-0.9758 0.2188 0.2188 0.9758 1106.8721 -142.7061)">
			<stop  offset="0" style="stop-color:#FF9200"/>
			<stop  offset="1" style="stop-color:#FFD300"/>
		</linearGradient>
		<path style="fill:url(#SVGID_00000083781376801258855550000015561769053129646513_);" d="M130,49.9c0,0-2.3-17.4-8.1-19.7
			c-5.8-2.3-13.4,6.2-13.4,6.2L130,49.9z"/>
		
			<linearGradient id="SVGID_00000169547638304170121050000007972603777797993369_" gradientUnits="userSpaceOnUse" x1="101.7985" y1="119.9212" x2="112.3282" y2="36.0827">
			<stop  offset="0" style="stop-color:#FF9200"/>
			<stop  offset="1" style="stop-color:#FFC400"/>
		</linearGradient>
		<path style="fill:url(#SVGID_00000169547638304170121050000007972603777797993369_);" d="M83.3,40.3
			c-26.1,15.9-24.7,55.5-14.7,69.9c11.7,16.7,72.9,6.2,81.5-21.3C158.9,61.2,115.8,20.6,83.3,40.3z"/>
		
			<linearGradient id="SVGID_00000057105854578145252860000011888434421784552098_" gradientUnits="userSpaceOnUse" x1="68.7506" y1="99.7463" x2="68.7506" y2="81.8221">
			<stop  offset="0" style="stop-color:#8DA4E5"/>
			<stop  offset="1" style="stop-color:#755CBB"/>
		</linearGradient>
		<path style="opacity:0.5;fill:url(#SVGID_00000057105854578145252860000011888434421784552098_);" d="M75.4,81.8
			c0,0-3.2,14.3-11.4,17.9c0,0-1.9-7-1.9-11.4C62.1,84,75.4,81.8,75.4,81.8z"/>
		
			<linearGradient id="SVGID_00000038374254747261245400000012619434511276938936_" gradientUnits="userSpaceOnUse" x1="115.9695" y1="113.7115" x2="115.9695" y2="41.3307">
			<stop  offset="0" style="stop-color:#2370B9"/>
			<stop  offset="1" style="stop-color:#233050"/>
		</linearGradient>
		<path style="fill:url(#SVGID_00000038374254747261245400000012619434511276938936_);" d="M98.7,44.1
			c-20.2,10.1-23.3,50.8-9.9,64.4c13.4,13.5,59-0.8,62.2-25C153.9,61.9,122.9,32,98.7,44.1z"/>
		
			<linearGradient id="SVGID_00000173859378026187212240000009797273084737084094_" gradientUnits="userSpaceOnUse" x1="94.1547" y1="108.7177" x2="95.8041" y2="95.5851">
			<stop  offset="0" style="stop-color:#000000"/>
			<stop  offset="1" style="stop-color:#6A9BFF"/>
		</linearGradient>
		<path style="opacity:0.5;fill:url(#SVGID_00000173859378026187212240000009797273084737084094_);" d="M103,109.1
			c0,0-9.6,1.5-13.8-4.1c-4.2-5.6-2.3-10-0.9-10.3c1.3-0.3,5.6,8.1,9,11.1C100.7,108.8,103,109.1,103,109.1z"/>
		
			<linearGradient id="SVGID_00000054243431432824877500000017048067160594503812_" gradientUnits="userSpaceOnUse" x1="671.1517" y1="89.5" x2="671.1517" y2="47.2888" gradientTransform="matrix(-1 0 0 1 739.3517 0)">
			<stop  offset="0" style="stop-color:#FF9200"/>
			<stop  offset="1" style="stop-color:#FFD300"/>
		</linearGradient>
		<path style="fill:url(#SVGID_00000054243431432824877500000017048067160594503812_);" d="M80.3,56.1c0,0,2.7,24.6-12.5,33.4
			c0,0-7.5,0.8-11.8-3.7c0,0,6.8,6.3,13.9-0.3c7.1-6.6,5.4-24.8,0-30.8c-5.4-5.9-13.2-4.4-13.2-4.4l3.1-2.8
			C59.7,47.5,71.2,45.2,80.3,56.1z"/>
		
			<linearGradient id="SVGID_00000176022908340258127940000000911463869748192643_" gradientUnits="userSpaceOnUse" x1="674.3853" y1="87.897" x2="674.3853" y2="47.485" gradientTransform="matrix(-1 0 0 1 739.3517 0)">
			<stop  offset="0" style="stop-color:#2370B9"/>
			<stop  offset="1" style="stop-color:#0053A4"/>
		</linearGradient>
		<path style="fill:url(#SVGID_00000176022908340258127940000000911463869748192643_);" d="M59.7,47.5c0,0,8.5-0.8,14.4,9
			C80.4,67,75.8,85,68.2,87.7c-7.6,2.7-15.3-26.4-15.3-26.4l4.4-11.6C57.3,49.7,58.2,48.1,59.7,47.5z"/>
		
			<linearGradient id="SVGID_00000152966519980962016800000016911144645929509260_" gradientUnits="userSpaceOnUse" x1="677.4354" y1="88.9008" x2="677.4354" y2="49.289" gradientTransform="matrix(-1 0 0 1 739.3517 0)">
			<stop  offset="0" style="stop-color:#45FFCD"/>
			<stop  offset="1" style="stop-color:#22E0FF"/>
		</linearGradient>
		<path style="fill:url(#SVGID_00000152966519980962016800000016911144645929509260_);" d="M48.8,72.3c1.1,5.6,3.4,10.2,6.4,13.1
			l0,0l0.9,0.8h0c2.5,2,5.4,3,8.6,2.6C75,87.5,76.4,72.6,75.2,64.1c-1.4-9.8-9.8-15.6-16.4-14.8C50.9,50.4,46.7,61.3,48.8,72.3z"/>
		
			<linearGradient id="SVGID_00000070087295407589742460000001193606115070726311_" gradientUnits="userSpaceOnUse" x1="676.6771" y1="87.6065" x2="676.6771" y2="76.0376" gradientTransform="matrix(-1 0 0 1 739.3517 0)">
			<stop  offset="0" style="stop-color:#D4E2FF"/>
			<stop  offset="1" style="stop-color:#000000"/>
		</linearGradient>
		<path style="opacity:0.72;fill:url(#SVGID_00000070087295407589742460000001193606115070726311_);" d="M73.5,76
			c0,0-1.1,9.1-7.8,11.1c-6.7,2-12.2-2.9-13.9-9.7c0,0,2.1,5.9,10.9,4.4C71.4,80.3,73.5,76,73.5,76z"/>
		
			<linearGradient id="SVGID_00000159471047502803131530000007628976965201920405_" gradientUnits="userSpaceOnUse" x1="667.06" y1="56.5347" x2="689.7271" y2="56.5347" gradientTransform="matrix(-1 0 0 1 739.3517 0)">
			<stop  offset="0" style="stop-color:#000000"/>
			<stop  offset="1" style="stop-color:#D4E2FF"/>
		</linearGradient>
		<path style="opacity:0.72;fill:url(#SVGID_00000159471047502803131530000007628976965201920405_);" d="M72.3,58.8
			c-0.1,1.7-12.4-1.8-16.3-1.3c-3.9,0.5-5.6,5.3-6.2,5.2c-0.6-0.1,1-11.4,8.3-12.2C65.4,49.6,72.3,57.6,72.3,58.8z"/>
		
			<linearGradient id="SVGID_00000090999942483977888550000002785560664614785667_" gradientUnits="userSpaceOnUse" x1="186.6214" y1="-113.8432" x2="186.6214" y2="-133.6566" gradientTransform="matrix(0.8373 -0.5467 0.5467 0.8373 47.3143 271.6883)">
			<stop  offset="0" style="stop-color:#45FFCD"/>
			<stop  offset="1" style="stop-color:#22E0FF"/>
		</linearGradient>
		<path style="fill:url(#SVGID_00000090999942483977888550000002785560664614785667_);" d="M135,75.4c4.2,2.3,10.3-2.9,8.8-9
			c-1.5-6.2-8.7-11.2-12.3-9.2C127.9,59.1,128,71.6,135,75.4z"/>
		
			<linearGradient id="SVGID_00000113337907073441909560000008047058888800068031_" gradientUnits="userSpaceOnUse" x1="211.7177" y1="-83.0778" x2="211.7177" y2="-105.4388" gradientTransform="matrix(1.2215 -0.5971 0.4392 0.8984 -115.8749 290.1248)">
			<stop  offset="0" style="stop-color:#45FFCD"/>
			<stop  offset="1" style="stop-color:#22E0FF"/>
		</linearGradient>
		<path style="fill:url(#SVGID_00000113337907073441909560000008047058888800068031_);" d="M97.1,89.3c6.6,4.6,13.7-2.9,13.7-9.6
			c-0.1-6.7-6.2-13.2-12.3-11.6C91.8,69.9,90.3,84.6,97.1,89.3z"/>
		<path class="st35" d="M117.3,91.6c-0.6,1.1,7.4,6.5,11.2,4.9c4.5-1.8,3.8-11.4,3-12C130.6,83.9,118.3,89.7,117.3,91.6z"/>
		
			<linearGradient id="SVGID_00000165196530322132843170000005239639510368551321_" gradientUnits="userSpaceOnUse" x1="83.6978" y1="61.6618" x2="141.6919" y2="61.6618">
			<stop  offset="0" style="stop-color:#000000"/>
			<stop  offset="1" style="stop-color:#6A9BFF"/>
		</linearGradient>
		<path style="opacity:0.5;fill:url(#SVGID_00000165196530322132843170000005239639510368551321_);" d="M84.6,79.2
			c3.6,4.9,13.8-11.9,24.9-17.6c12.6-6.5,30.9,0.4,32.1-1.6c1.2-2-14.4-19.6-34.6-16.5C86.9,46.7,81.3,74.7,84.6,79.2z"/>
		
			<linearGradient id="SVGID_00000089547949475165513240000000339154408885683881_" gradientUnits="userSpaceOnUse" x1="73.9379" y1="162.2703" x2="78.8768" y2="122.9469" gradientTransform="matrix(0.9938 0.1112 -0.1112 0.9938 12.4862 -46.0679)">
			<stop  offset="0" style="stop-color:#2370B9"/>
			<stop  offset="1" style="stop-color:#0053A4"/>
		</linearGradient>
		<path style="fill:url(#SVGID_00000089547949475165513240000000339154408885683881_);" d="M56.7,87.3c0,0-0.7-4.9,2.4-6.5
			c0,0,4.7-0.2,5.8,4.3c0,0-9.2,29.5-1.7,34.2c7,4.4,25.5-4.6,25.5-4.6l1.5,1.2c0,0-15.7,9.8-25.6,6.8
			C54.8,119.6,56.7,87.3,56.7,87.3z"/>
		
			<linearGradient id="SVGID_00000108286493786888986660000000683599518909075885_" gradientUnits="userSpaceOnUse" x1="76.2578" y1="-61.9132" x2="76.2578" y2="-73.2531" gradientTransform="matrix(0.9993 -3.870000e-02 3.870000e-02 0.9993 19.8387 183.9694)">
			<stop  offset="0" style="stop-color:#DD1A8F"/>
			<stop  offset="1" style="stop-color:#FE117E"/>
		</linearGradient>
		<path style="fill:url(#SVGID_00000108286493786888986660000000683599518909075885_);" d="M84.2,115.1c-1.6,3.2,4.1,4.7,8.2,4
			c4.6-0.8,12.1-4.7,10.4-9.1C101,105.6,87.9,107.5,84.2,115.1z"/>
		
			<linearGradient id="SVGID_00000037687634749370484130000011475660475281653911_" gradientUnits="userSpaceOnUse" x1="103.7236" y1="14.1658" x2="103.7236" y2="9.3507" gradientTransform="matrix(0.9638 -0.2666 0.2666 0.9638 -10.888 127.6685)">
			<stop  offset="0" style="stop-color:#D93DE3"/>
			<stop  offset="1" style="stop-color:#FF6DBA"/>
		</linearGradient>
		<path style="fill:url(#SVGID_00000037687634749370484130000011475660475281653911_);" d="M84.6,115.5c0.1,0.8,16.1-3.5,15.7-6.4
			C99.9,106.1,84.1,109.4,84.6,115.5z"/>
		<g>
			
				<linearGradient id="SVGID_00000096757229963895866430000008065469811939959212_" gradientUnits="userSpaceOnUse" x1="47.8999" y1="128.9132" x2="47.2751" y2="122.7802">
				<stop  offset="0" style="stop-color:#2370B9"/>
				<stop  offset="1" style="stop-color:#0053A4"/>
			</linearGradient>
			<path style="fill:url(#SVGID_00000096757229963895866430000008065469811939959212_);" d="M45.2,125.7c0,0,0.6-2.1,3.3-3.1l1.7,6
				L45.2,125.7z"/>
			
				<linearGradient id="SVGID_00000033368533046046499280000009159220956873221294_" gradientUnits="userSpaceOnUse" x1="58.6069" y1="154.744" x2="68.5674" y2="104.6883">
				<stop  offset="0" style="stop-color:#D93DE3"/>
				<stop  offset="1" style="stop-color:#FF6DBA"/>
			</linearGradient>
			<path style="fill:url(#SVGID_00000033368533046046499280000009159220956873221294_);" d="M45.9,110.2c0,0,8.5-5.2,26.4-4.8
				c0,0,7.5,27.3,8.4,46.8c0,0-10.5,2.9-22,2.5C58.8,154.8,50.4,134.6,45.9,110.2z"/>
			
				<linearGradient id="SVGID_00000072976806292184176250000002648289191926724999_" gradientUnits="userSpaceOnUse" x1="75.9471" y1="151.9353" x2="79.3407" y2="104.1222">
				<stop  offset="0" style="stop-color:#A242EA"/>
				<stop  offset="1" style="stop-color:#FE117E"/>
			</linearGradient>
			<path style="fill:url(#SVGID_00000072976806292184176250000002648289191926724999_);" d="M72.3,105.4l4.1-1.5
				c0,0,6.1,27.4,6.6,47.8l-2.2,0.6L72.3,105.4z"/>
			
				<linearGradient id="SVGID_00000150088629269120309600000005954303034046106279_" gradientUnits="userSpaceOnUse" x1="53.5836" y1="139.1894" x2="61.1367" y2="139.1894">
				<stop  offset="0" style="stop-color:#8DA4E5"/>
				<stop  offset="1" style="stop-color:#755CBB"/>
			</linearGradient>
			<path style="opacity:0.5;fill:url(#SVGID_00000150088629269120309600000005954303034046106279_);" d="M53.6,140.3l2.2,6
				c0,0,6-7.3,5.3-14.3L53.6,140.3z"/>
			<path class="st44" d="M45.9,110.2c0,0,6.3-5.1,30.5-6.3l-4.1,1.5C72.3,105.4,61.3,105.2,45.9,110.2z"/>
			
				<linearGradient id="SVGID_00000088811491230051441580000000761743249005560469_" gradientUnits="userSpaceOnUse" x1="65.9068" y1="220.3124" x2="64.335" y2="204.8826" gradientTransform="matrix(0.972 0.2348 -0.2348 0.972 40.3552 -87.82)">
				<stop  offset="0" style="stop-color:#2370B9"/>
				<stop  offset="1" style="stop-color:#0053A4"/>
			</linearGradient>
			<path style="fill:url(#SVGID_00000088811491230051441580000000761743249005560469_);" d="M47.2,129c0,0,0.5,10.4,4.4,12.6
				c0,0,11.2-6.3,9.6-12.8C60.2,124.3,47.2,129,47.2,129z"/>
			
				<linearGradient id="SVGID_00000080187882260023461660000006429163322425417893_" gradientUnits="userSpaceOnUse" x1="61.6477" y1="218.5548" x2="63.5934" y2="203.0637" gradientTransform="matrix(0.972 0.2348 -0.2348 0.972 40.3552 -87.82)">
				<stop  offset="0" style="stop-color:#FF9200"/>
				<stop  offset="1" style="stop-color:#FFC400"/>
			</linearGradient>
			<path style="fill:url(#SVGID_00000080187882260023461660000006429163322425417893_);" d="M45.2,125.7c0,0,0,8.5,4.9,13.8
				c0,0,6.5-2.6,8.7-5.3c3.5-4.3,2.1-6.7,0.9-7.7C57.9,125,45.2,125.7,45.2,125.7z"/>
			
				<linearGradient id="SVGID_00000000192436220252355040000008908610663820587137_" gradientUnits="userSpaceOnUse" x1="76.118" y1="125.1115" x2="78.5703" y2="112.7879">
				<stop  offset="0" style="stop-color:#D93DE3"/>
				<stop  offset="1" style="stop-color:#FF6DBA"/>
			</linearGradient>
			<path style="fill:url(#SVGID_00000000192436220252355040000008908610663820587137_);" d="M75.1,113.5c0,0,1.2-1.1,2.5-0.9
				c0,0,2.4,6.8,1.9,12.3l-1.9,0.5L75.1,113.5z"/>
			
				<linearGradient id="SVGID_00000094596937824915642170000009879324719832433570_" gradientUnits="userSpaceOnUse" x1="77.225" y1="125.0584" x2="78.107" y2="112.6316">
				<stop  offset="0" style="stop-color:#B31A8F"/>
				<stop  offset="1" style="stop-color:#92117E"/>
			</linearGradient>
			<path style="fill:url(#SVGID_00000094596937824915642170000009879324719832433570_);" d="M75.1,113.5c0,0,2.9,6.6,3.4,11.7
				l1.7-0.6c0,0-1.2-8.7-2.6-11.9C77.6,112.6,75.9,112.6,75.1,113.5z"/>
			
				<linearGradient id="SVGID_00000084505765779937950580000010867502843551560360_" gradientUnits="userSpaceOnUse" x1="65.354" y1="57.0556" x2="65.9982" y2="47.9796" gradientTransform="matrix(0.9809 -0.1946 0.1946 0.9809 -14.1575 79.2359)">
				<stop  offset="0" style="stop-color:#B31A8F"/>
				<stop  offset="1" style="stop-color:#FE117E"/>
			</linearGradient>
			<path style="fill:url(#SVGID_00000084505765779937950580000010867502843551560360_);" d="M63.8,117.3c0.5,2.5-0.6,4.8-2.4,5.1
				c-1.8,0.4-3.7-1.3-4.2-3.8c-0.5-2.5,0.6-4.8,2.4-5.1C61.4,113.1,63.3,114.8,63.8,117.3z"/>
			
				<radialGradient id="SVGID_00000119800442078423755530000010108488149830772374_" cx="66.093" cy="52.6003" r="3.1158" gradientTransform="matrix(0.9809 -0.1946 0.1946 0.9809 -14.1575 79.2359)" gradientUnits="userSpaceOnUse">
				<stop  offset="0" style="stop-color:#45FFCD"/>
				<stop  offset="1" style="stop-color:#2370B9"/>
			</radialGradient>
			<path style="fill:url(#SVGID_00000119800442078423755530000010108488149830772374_);" d="M63.5,117.5c0.4,1.9-0.5,3.7-1.9,4
				c-1.4,0.3-2.9-1-3.3-3c-0.4-1.9,0.5-3.7,1.9-4C61.6,114.2,63.1,115.5,63.5,117.5z"/>
			
				<linearGradient id="SVGID_00000054261076828282311850000001784820117402769852_" gradientUnits="userSpaceOnUse" x1="61.7507" y1="150.2614" x2="74.7642" y2="150.2614">
				<stop  offset="0" style="stop-color:#B31A8F"/>
				<stop  offset="1" style="stop-color:#92117E"/>
			</linearGradient>
			<path style="fill:url(#SVGID_00000054261076828282311850000001784820117402769852_);" d="M61.8,152.2V150l12.1-1.6l0.9,1.9
				C74.8,150.3,67.9,151.7,61.8,152.2z"/>
			
				<linearGradient id="SVGID_00000052822951654506480250000008687473830966116752_" gradientUnits="userSpaceOnUse" x1="66.5391" y1="151.6837" x2="66.5391" y2="108.8465">
				<stop  offset="0" style="stop-color:#000000"/>
				<stop  offset="1" style="stop-color:#6A9BFF"/>
			</linearGradient>
			<path style="opacity:0.5;fill:url(#SVGID_00000052822951654506480250000008687473830966116752_);" d="M72.9,108.8L56,147.5
				l1.5,4.2c0,0,13.7-8.6,19.5-19.1C77.1,132.6,73.5,112.3,72.9,108.8z"/>
		</g>
		
			<linearGradient id="SVGID_00000159448529804129372510000011300124834120891570_" gradientUnits="userSpaceOnUse" x1="130.0119" y1="110.6362" x2="132.3624" y2="91.9218">
			<stop  offset="0" style="stop-color:#000000"/>
			<stop  offset="1" style="stop-color:#6A9BFF"/>
		</linearGradient>
		<path style="opacity:0.5;fill:url(#SVGID_00000159448529804129372510000011300124834120891570_);" d="M117.3,109
			c0,0,8.5-1.8,14.3-9.3c5.8-7.4,13.6-6.2,13.6-6.2S134.2,109,117.3,109z"/>
		<path class="st4" d="M80.7,48.5c0,1.6,10-6.5,8.7-7.1C88.2,40.7,80.7,46.6,80.7,48.5z"/>
		
			<linearGradient id="SVGID_00000001661103575872558490000001360461132307719100_" gradientUnits="userSpaceOnUse" x1="98.7222" y1="164.1161" x2="98.7222" y2="163.6298">
			<stop  offset="0" style="stop-color:#2370B9"/>
			<stop  offset="1" style="stop-color:#CCEDFF"/>
		</linearGradient>
		<path style="opacity:0.3;fill:url(#SVGID_00000001661103575872558490000001360461132307719100_);" d="M98.8,164.1l-0.3-0.5
			C98.6,163.7,98.7,163.9,98.8,164.1z"/>
		
			<linearGradient id="SVGID_00000125581804112444531960000012453333795612863640_" gradientUnits="userSpaceOnUse" x1="91.531" y1="202.4268" x2="91.531" y2="149.979" gradientTransform="matrix(0.9985 -5.400000e-02 5.400000e-02 0.9985 -10.5982 23.7148)">
			<stop  offset="0" style="stop-color:#2370B9"/>
			<stop  offset="1" style="stop-color:#CCEDFF"/>
		</linearGradient>
		<path style="opacity:0.3;fill:url(#SVGID_00000125581804112444531960000012453333795612863640_);" d="M97.9,220.6
			c-5.2,0.1-26.8-47.6-21.6-51.4c0,0,6.5,29.9,14.3,37.7c7.9,7.7,13-12.6,11.6-21.4c-0.1-0.9-0.3-1.8-0.5-2.6c1,1.7,1.7,3.1,1.8,3.9
			C104,191,103.1,220.4,97.9,220.6z"/>
		<path class="st4" d="M85.6,177.4c-0.8,1.3,1.2,9.1,2.3,9c1.1-0.2,1.3-4.3,0.8-5.6C88.1,179.4,85.7,177.1,85.6,177.4z"/>
		<path class="st4" d="M88.1,187.7c-0.9,0.5,0.2,2.8,0.8,2.8C89.6,190.4,88.9,187.3,88.1,187.7z"/>
		<path class="st4" d="M114.1,34c0.6,1.3,4.8-1.4,4.2-2.6C117.6,30.4,113.4,32.7,114.1,34z"/>
		<path class="st4" d="M46.4,127.8c0,0.8,4.2-0.1,3.9-0.8C49.9,126.3,46.4,126.5,46.4,127.8z"/>
		
			<linearGradient id="SVGID_00000085216257795867002000000005391926472999173528_" gradientUnits="userSpaceOnUse" x1="57.8661" y1="99.7485" x2="57.8661" y2="84.7012">
			<stop  offset="0" style="stop-color:#FF9200"/>
			<stop  offset="1" style="stop-color:#FFC400"/>
		</linearGradient>
		<path style="fill:url(#SVGID_00000085216257795867002000000005391926472999173528_);" d="M58.1,84.7c-1.1-0.4-1.6,14.8-0.7,15
			C58.2,100,59.7,85.3,58.1,84.7z"/>
		
			<linearGradient id="SVGID_00000117647484424833673160000014148864337928034729_" gradientUnits="userSpaceOnUse" x1="834.7211" y1="172.3955" x2="838.4564" y2="142.6556" gradientTransform="matrix(-0.9989 4.780000e-02 4.780000e-02 0.9989 979.8122 -25.7896)">
			<stop  offset="0" style="stop-color:#FF9200"/>
			<stop  offset="1" style="stop-color:#FFC400"/>
		</linearGradient>
		<path style="fill:url(#SVGID_00000117647484424833673160000014148864337928034729_);" d="M156.8,162.3c0,0-3.5-4.5-8.3-4.9
			c-4.8-0.4-6.4,1-7.2,4.4c-0.8,3.4,6.6,15.2,15.4,24c3.6,0.1,4.5-4.4,4.9-7.3C161.5,176,160.4,168,156.8,162.3z"/>
		
			<linearGradient id="SVGID_00000115479788326352305810000000592156870919906235_" gradientUnits="userSpaceOnUse" x1="838.6078" y1="171.3945" x2="835.7922" y2="143.7545" gradientTransform="matrix(-0.9989 4.780000e-02 4.780000e-02 0.9989 979.8122 -25.7896)">
			<stop  offset="0" style="stop-color:#2370B9"/>
			<stop  offset="1" style="stop-color:#0053A4"/>
		</linearGradient>
		<path style="fill:url(#SVGID_00000115479788326352305810000000592156870919906235_);" d="M145,157.5c0,0,9.5,12,12.7,19
			c1.7,3.8,2.7,6.3,2.7,6.3s-2,6-6.1,1.3c-5.8-6.7-13.6-16.8-12.5-22C142.6,157.8,143.4,156.9,145,157.5z"/>
		
			<linearGradient id="SVGID_00000061440226555937850130000012389623782358839704_" gradientUnits="userSpaceOnUse" x1="839.2448" y1="162.3658" x2="837.6471" y2="146.6812" gradientTransform="matrix(-0.9989 4.780000e-02 4.780000e-02 0.9989 979.8122 -25.7896)">
			<stop  offset="0" style="stop-color:#8DA4E5"/>
			<stop  offset="1" style="stop-color:#755CBB"/>
		</linearGradient>
		<path style="opacity:0.5;fill:url(#SVGID_00000061440226555937850130000012389623782358839704_);" d="M153,168.6
			c0,0-0.9,6.7-4.9,7.9l-1.4-15.9C146.8,160.6,151.7,166.6,153,168.6z"/>
		
			<linearGradient id="SVGID_00000151518682367016229060000009296456531690481079_" gradientUnits="userSpaceOnUse" x1="841.3107" y1="163.1358" x2="843.8099" y2="143.2371" gradientTransform="matrix(-0.9989 4.780000e-02 4.780000e-02 0.9989 979.8122 -25.7896)">
			<stop  offset="0" style="stop-color:#FF9200"/>
			<stop  offset="1" style="stop-color:#FFC400"/>
		</linearGradient>
		<path style="fill:url(#SVGID_00000151518682367016229060000009296456531690481079_);" d="M148.9,164.3c0.7,1.5,0,11.6-1,12.8
			c-1,1.2-3.6-0.6-4.4-2.6c-0.8-2-4.5-12.9-0.6-16.6C142.8,157.8,146.1,158,148.9,164.3z"/>
		<path class="st4" d="M147.1,165.7c0.4,0.1,1.1,3.5,0.8,4.1c-0.3,0.6-1.1,0.6-1.5-0.2C146.1,168.9,146.5,165.6,147.1,165.7z"/>
	</g>
</g>
</svg>
