<?xml version="1.0" encoding="utf-8"?>
<!-- Generator: Adobe Illustrator 26.5.0, SVG Export Plug-In . SVG Version: 6.00 Build 0)  -->
<svg version="1.1" id="Layer_1" xmlns="http://www.w3.org/2000/svg" xmlns:xlink="http://www.w3.org/1999/xlink" x="0px" y="0px"
	 viewBox="0 0 219 242.8" style="enable-background:new 0 0 219 242.8;" xml:space="preserve">
<style type="text/css">
	.st0{opacity:0.4;}
	.st1{fill:#A4A3A3;}
	.st2{fill:url(#SVGID_1_);}
	.st3{opacity:0.3;fill:url(#SVGID_00000122682337586988465280000016437864734957344438_);}
	.st4{fill:url(#SVGID_00000077288511256821356470000000930001396343399868_);}
	.st5{fill:url(#SVGID_00000071548644242916499670000018167900089286724246_);}
	.st6{fill:url(#SVGID_00000178187397353160288560000000344945461744780465_);}
	.st7{fill:url(#SVGID_00000034782778309026704860000008819110009836240819_);}
	.st8{fill:url(#SVGID_00000111876469347260991860000009737541750061843334_);}
	.st9{opacity:0.3;fill:url(#SVGID_00000170973827314489575960000013630944409315318947_);}
	.st10{opacity:0.5;fill:url(#SVGID_00000038393690613748707960000009107654823798915774_);}
	.st11{fill:url(#SVGID_00000072984911004622119160000002080168291710452398_);}
	.st12{fill:#DFE3FB;}
	.st13{fill:url(#SVGID_00000083057372516343539080000008918481046449920958_);}
	.st14{opacity:0.5;fill:url(#SVGID_00000060746096272367113880000009460899508455955129_);}
	.st15{opacity:0.5;fill:url(#SVGID_00000153698419334832539610000017562218303023264402_);}
	.st16{opacity:0.5;fill:url(#SVGID_00000080191560177765644300000015361560538275805616_);}
	.st17{fill:#2F95CD;}
	.st18{fill:url(#SVGID_00000037686521409829798750000001585553676726583477_);}
	.st19{opacity:0.3;fill:url(#SVGID_00000041276538149023435780000013736623741232005514_);}
	.st20{fill:url(#SVGID_00000015340316037567091320000010160636503473121200_);}
	.st21{fill:url(#SVGID_00000150786868275033510930000004617285838450183047_);}
	.st22{opacity:0.5;fill:url(#SVGID_00000098201994113926451020000010245777329463250051_);}
	.st23{opacity:0.72;fill:url(#SVGID_00000119076888535456712410000009827123983437691297_);}
	.st24{opacity:0.72;fill:url(#SVGID_00000081614947678577136510000004188407236256969634_);}
	.st25{fill:#FFFFFF;}
	.st26{fill:url(#SVGID_00000091010626481698610670000016471903069762608542_);}
	.st27{fill:url(#SVGID_00000053545381743641204500000002153040397549697967_);}
	.st28{opacity:0.5;fill:url(#SVGID_00000071522589343619956230000007047671455657461149_);}
	.st29{fill:url(#SVGID_00000142879077459574969070000002347116274119613612_);}
	.st30{fill:url(#SVGID_00000022531129670555241620000010625728987734780056_);}
	.st31{fill:url(#SVGID_00000176026273425858228720000015067199386791559326_);}
	.st32{fill:url(#SVGID_00000071535526970495785240000012318178835567282610_);}
	.st33{fill:url(#SVGID_00000173122951154126877210000013775745914707254713_);}
	.st34{fill:url(#SVGID_00000147186568307485876820000013382262645610372262_);}
	.st35{fill:url(#SVGID_00000107557694963306541100000015038333010503965333_);}
	.st36{fill:url(#SVGID_00000104673371220965463970000006803341854221588654_);}
	.st37{opacity:0.3;fill:url(#SVGID_00000093167883453386781490000012718031782149994422_);}
	.st38{opacity:0.5;fill:url(#SVGID_00000030478244815179931110000004028906801204093570_);}
	.st39{opacity:0.3;fill:url(#SVGID_00000012442308645573656600000005334289729578977175_);}
	.st40{fill:url(#SVGID_00000071534690716381783170000002582722809541573257_);}
	.st41{fill:url(#SVGID_00000048497635733700886600000011684286766726547089_);}
	.st42{fill:url(#SVGID_00000113338721888275101250000010518642852477469841_);}
	.st43{opacity:0.5;fill:url(#SVGID_00000124132529388534210060000000381290145112017083_);}
	.st44{fill:url(#SVGID_00000067211239310467371920000007701658121895700897_);}
	.st45{fill:url(#SVGID_00000078019427159311281120000001102008054440754342_);}
	.st46{fill:url(#SVGID_00000072972737231980349770000005954333357851813258_);}
	.st47{fill:url(#SVGID_00000134962777198723047370000003760225560924197033_);}
	.st48{opacity:0.72;fill:url(#SVGID_00000158021799200392583240000005028997023374437299_);}
	.st49{opacity:0.5;fill:url(#SVGID_00000066489684305834058090000004994731275249873597_);}
</style>
<g>
	<g class="st0">
		<path class="st1" d="M33.4,198.1c8.3,13.8,78.1,10,104.2-2.7c26.1-12.8,24-103.5,11.6-119.9C136.8,59.1,63.3,32,31,49.7
			S22.3,179.8,33.4,198.1z"/>
		<path class="st1" d="M121.3,44.1c0.1-6.7,19.3-15.1,28-12.9s10.1,32.3-3.2,33.3C132.8,65.5,121.2,52.5,121.3,44.1z"/>
		<path class="st1" d="M5.9,190.9c-1.6-7.1,7.9-16.3,12.9-15c5,1.3,10.7,25,3.1,25.6C14.2,202.1,7,195.6,5.9,190.9z"/>
	</g>
	<g>
		<linearGradient id="SVGID_1_" gradientUnits="userSpaceOnUse" x1="115.1688" y1="197.8647" x2="120.5157" y2="177.966">
			<stop  offset="0" style="stop-color:#FF9200"/>
			<stop  offset="1" style="stop-color:#FFC400"/>
		</linearGradient>
		<path class="st2" d="M103.2,193.4c0,0,21.2,9.2,25.1,5.5c4.2-4-10-22.7-14.6-22.7C106.9,176.2,102.5,190.7,103.2,193.4z"/>
		
			<linearGradient id="SVGID_00000157303215780626583800000005563693188549433508_" gradientUnits="userSpaceOnUse" x1="114.1462" y1="199.6644" x2="114.1462" y2="178.0186">
			<stop  offset="0" style="stop-color:#232D87"/>
			<stop  offset="1" style="stop-color:#2370B9"/>
		</linearGradient>
		<path style="opacity:0.3;fill:url(#SVGID_00000157303215780626583800000005563693188549433508_);" d="M117.2,178.5
			c0,0-6.5,5.2-5.7,9.9c0.8,4.6,11.8,11.3,11.8,11.3s-9.6-1.9-18.2-5.3l11-16.3L117.2,178.5z"/>
		
			<linearGradient id="SVGID_00000125575583799974416730000007553221509918878863_" gradientUnits="userSpaceOnUse" x1="114.8484" y1="139.207" x2="116.5406" y2="92.9678">
			<stop  offset="0" style="stop-color:#FF9200"/>
			<stop  offset="1" style="stop-color:#FFC400"/>
		</linearGradient>
		<path style="fill:url(#SVGID_00000125575583799974416730000007553221509918878863_);" d="M109.1,115.3c0,0,16.7-7.4,30.3-21.5
			c0,0,4.4,4.7,0.9,15.3c0,0-25.8,27.6-40.4,29.4c-14.6,1.8-9.1-18.4-9.1-18.4S103,119.5,109.1,115.3z"/>
		
			<linearGradient id="SVGID_00000057848490273647410190000000691104833671630730_" gradientUnits="userSpaceOnUse" x1="701.0961" y1="-112.9291" x2="701.0961" y2="-138.5677" gradientTransform="matrix(-0.8478 0.5303 0.5303 0.8478 748.17 -203.5378)">
			<stop  offset="0" style="stop-color:#45FFCD"/>
			<stop  offset="1" style="stop-color:#2370B9"/>
		</linearGradient>
		<path style="fill:url(#SVGID_00000057848490273647410190000000691104833671630730_);" d="M80.1,50.9c0,0,9.8,2.5,17.6,13.6
			c7.8,11.1-15.8,2.8-15.8,2.8L80.1,50.9z"/>
		
			<linearGradient id="SVGID_00000061434199754591611490000004853073289658347179_" gradientUnits="userSpaceOnUse" x1="708.29" y1="-123.7214" x2="708.29" y2="-145.6085" gradientTransform="matrix(-0.8478 0.5303 0.5303 0.8478 748.17 -203.5378)">
			<stop  offset="0" style="stop-color:#FF9200"/>
			<stop  offset="1" style="stop-color:#FFC400"/>
		</linearGradient>
		<path style="fill:url(#SVGID_00000061434199754591611490000004853073289658347179_);" d="M91.7,61.1c0,0-11.5-12.5-17.8-12.7
			c-6.3-0.3-12.5,7.4-12.5,7.4L91.7,61.1z"/>
		
			<linearGradient id="SVGID_00000149354271670206572720000004117049916522114211_" gradientUnits="userSpaceOnUse" x1="730.2448" y1="-65.6128" x2="740.5893" y2="-147.976" gradientTransform="matrix(-0.8478 0.5303 0.5303 0.8478 748.17 -203.5378)">
			<stop  offset="0" style="stop-color:#FF9200"/>
			<stop  offset="1" style="stop-color:#FFC400"/>
		</linearGradient>
		<path style="fill:url(#SVGID_00000149354271670206572720000004117049916522114211_);" d="M44.7,136.6c19.8,9.4,70.7-19,74.3-32.1
			c1.4-5.2,1-10.7-0.8-16l0,0C110.3,65.8,76.4,46,49,59.1C30.5,68,24.9,91.4,28.5,110.5C30.7,122.4,36.4,132.6,44.7,136.6z"/>
		
			<linearGradient id="SVGID_00000159442445461728458400000011228674296478995893_" gradientUnits="userSpaceOnUse" x1="705.1968" y1="-75.8345" x2="772.806" y2="-75.8345" gradientTransform="matrix(-0.8478 0.5303 0.5303 0.8478 748.17 -203.5378)">
			<stop  offset="0" style="stop-color:#232D87"/>
			<stop  offset="1" style="stop-color:#2370B9"/>
		</linearGradient>
		<path style="fill:url(#SVGID_00000159442445461728458400000011228674296478995893_);" d="M59.1,138.1c7.8-1.1,18.5-4.3,25.2-7.4
			c12.4-5.6,20.7-11.1,24.8-15.4l0,0c2.7-2.8,3.6-5.1,2.6-6.6c-0.6-0.9-3.4-0.7-7.6,0.4c-12.2,3.1-35.8,13-47.5,20.7
			c-1,0.7-1.9,1.3-2.7,1.9c-0.2,0.1-0.3,0.3-0.5,0.4c0,0-0.1,0-0.1,0.1c-1.9,1.5-3.2,2.9-3.5,4c-0.1,0.3-0.1,0.5-0.1,0.8
			C49.9,138.7,53.8,138.9,59.1,138.1z"/>
		
			<linearGradient id="SVGID_00000000218625932287257350000004022834616706235816_" gradientUnits="userSpaceOnUse" x1="734.6651" y1="-67.4407" x2="734.6651" y2="-121.2176" gradientTransform="matrix(-0.8478 0.5303 0.5303 0.8478 748.17 -203.5378)">
			<stop  offset="0" style="stop-color:#232D87"/>
			<stop  offset="1" style="stop-color:#2370B9"/>
		</linearGradient>
		<path style="opacity:0.3;fill:url(#SVGID_00000000218625932287257350000004022834616706235816_);" d="M44.7,136.6
			c19.8,9.4,70.7-19,74.3-32.1c1.4-5.2,1-10.7-0.8-16l0,0c0,0-0.4,8.5-10.5,14.7c-10.1,6.2-42.2,18.8-50.7,17
			c-8.5-1.8-15.8-24.4-15.8-24.4l-12.6,14.7C30.7,122.4,36.4,132.6,44.7,136.6z"/>
		
			<linearGradient id="SVGID_00000175300015114275803630000006143996690820208060_" gradientUnits="userSpaceOnUse" x1="739.0013" y1="-68.5921" x2="739.0013" y2="-84.2298" gradientTransform="matrix(-0.8478 0.5303 0.5303 0.8478 748.17 -203.5378)">
			<stop  offset="0" style="stop-color:#8DA4E5"/>
			<stop  offset="1" style="stop-color:#755CBB"/>
		</linearGradient>
		<path style="opacity:0.5;fill:url(#SVGID_00000175300015114275803630000006143996690820208060_);" d="M59.1,138.1
			c4.3-4.8,17.2-17.9,31-20.8c16.9-3.5,19-2,19-2l0,0c2.7-2.8,3.6-5.1,2.6-6.6c-0.6-0.9-3.4-0.7-7.6,0.4
			c-12.2,3.1-35.8,13-47.5,20.7c-1.2,0.8-2.3,1.6-3.2,2.3c0,0-0.1,0-0.1,0.1c-1.9,1.5-3.2,2.9-3.5,4c-0.1,0.3-0.1,0.5-0.1,0.8
			C49.9,138.7,53.8,138.9,59.1,138.1z"/>
		
			<linearGradient id="SVGID_00000165954307741346810030000009639456283575875745_" gradientUnits="userSpaceOnUse" x1="756.1891" y1="20.1414" x2="757.4684" y2="9.9552" gradientTransform="matrix(-0.9107 0.4131 0.4131 0.9107 762.7273 -204.8372)">
			<stop  offset="0" style="stop-color:#232D87"/>
			<stop  offset="1" style="stop-color:#2370B9"/>
		</linearGradient>
		<path style="fill:url(#SVGID_00000165954307741346810030000009639456283575875745_);" d="M53.8,131.6c4.2,1.5,19.4-2.5,27.4-6.1
			c14.4-6.5,22.1-12.8,22.9-16.4C90.9,112.4,64.1,123.9,53.8,131.6z"/>
		<path class="st12" d="M118.7,89.4C119.4,97,74.9,120.1,58,114c-16.9-6.2-23.2-49.3,2.5-56.8C85,50,117.4,75.7,118.7,89.4z"/>
		
			<linearGradient id="SVGID_00000144296369108580798860000006251959300842044042_" gradientUnits="userSpaceOnUse" x1="722.2218" y1="-83.3018" x2="722.2218" y2="-145.655" gradientTransform="matrix(-0.8478 0.5303 0.5303 0.8478 748.17 -203.5378)">
			<stop  offset="0" style="stop-color:#0665BD"/>
			<stop  offset="1" style="stop-color:#1A1F77"/>
		</linearGradient>
		<path style="fill:url(#SVGID_00000144296369108580798860000006251959300842044042_);" d="M118.1,88.5c0.7,7.6-43.8,30.7-60.7,24.5
			c-16.9-6.2-23.2-49.3,2.5-56.8C84.4,49.1,116.8,74.8,118.1,88.5z"/>
		
			<linearGradient id="SVGID_00000017484013705222842070000009852552643978572477_" gradientUnits="userSpaceOnUse" x1="696.7581" y1="-131.7957" x2="750.3463" y2="-131.7957" gradientTransform="matrix(-0.8478 0.5303 0.5303 0.8478 748.17 -203.5378)">
			<stop  offset="0" style="stop-color:#000000"/>
			<stop  offset="1" style="stop-color:#6A9BFF"/>
		</linearGradient>
		<path style="opacity:0.5;fill:url(#SVGID_00000017484013705222842070000009852552643978572477_);" d="M94.1,64.9
			c-0.4,2-11,0.8-20.3,5.6c-9.3,4.7-16.3,18.3-24.7,20.2c-6.7,1.5-7.1-24.4,8.2-32.6C72.6,49.9,94.6,63,94.1,64.9z"/>
		
			<linearGradient id="SVGID_00000076573992352581512560000013077614393484668852_" gradientUnits="userSpaceOnUse" x1="700.0668" y1="-88.5146" x2="739.3366" y2="-88.5146" gradientTransform="matrix(-0.8478 0.5303 0.5303 0.8478 748.17 -203.5378)">
			<stop  offset="0" style="stop-color:#000000"/>
			<stop  offset="1" style="stop-color:#6A9BFF"/>
		</linearGradient>
		<path style="opacity:0.5;fill:url(#SVGID_00000076573992352581512560000013077614393484668852_);" d="M108.8,94.4
			c0,0-11.1,1.2-23.1,7.4c-11.9,6.2-13.4,8.3-12.7,9.4c0.7,1.1,10.7,0,21.6-5.6C105.6,100,108.8,94.4,108.8,94.4z"/>
		
			<linearGradient id="SVGID_00000020364842464139450570000004246418006321855145_" gradientUnits="userSpaceOnUse" x1="691.2062" y1="-88.5161" x2="691.2062" y2="-114.1053" gradientTransform="matrix(-0.8478 0.5303 0.5303 0.8478 748.17 -203.5378)">
			<stop  offset="0" style="stop-color:#000000"/>
			<stop  offset="1" style="stop-color:#6A9BFF"/>
		</linearGradient>
		<path style="opacity:0.5;fill:url(#SVGID_00000020364842464139450570000004246418006321855145_);" d="M117.1,86.8
			c0,0-2.1-9.3-14.8-18.6c0,0-2.5-1.3-3-0.3C98.7,68.9,110.2,74.8,117.1,86.8z"/>
		<path class="st17" d="M95.9,83c0,0-11.6,6.4-18.7,7.2c0,0,7.2,9.7,14.6,6.8C99.3,94.2,95.9,83,95.9,83z"/>
		
			<linearGradient id="SVGID_00000099655956111958823670000012831374152829241755_" gradientUnits="userSpaceOnUse" x1="764.1694" y1="228.5433" x2="773.9617" y2="150.5764" gradientTransform="matrix(-0.9961 -8.860000e-02 -8.860000e-02 0.9961 874.814 36.9699)">
			<stop  offset="0" style="stop-color:#FF9200"/>
			<stop  offset="1" style="stop-color:#FFC400"/>
		</linearGradient>
		<path style="fill:url(#SVGID_00000099655956111958823670000012831374152829241755_);" d="M66.6,171.6c2.1,16.3,10.6,24,27,25.2
			c16.1,1.2,27.5-15.3,24.1-36.2c-2.1-13.3-5-25.3-11.2-33.1c0,0,0,0,0,0l0,0c-3.5-4.4-8.1-7.5-14.3-8.8c-4.9-1-9.2,1.3-12.8,5.5
			C70,135.1,65,159,66.6,171.6z"/>
		
			<linearGradient id="SVGID_00000075149179174426098180000006172201044804499090_" gradientUnits="userSpaceOnUse" x1="779.0682" y1="228.381" x2="779.0682" y2="166.0344" gradientTransform="matrix(-0.9961 -8.860000e-02 -8.860000e-02 0.9961 874.814 36.9699)">
			<stop  offset="0" style="stop-color:#232D87"/>
			<stop  offset="1" style="stop-color:#2370B9"/>
		</linearGradient>
		<path style="opacity:0.3;fill:url(#SVGID_00000075149179174426098180000006172201044804499090_);" d="M90.9,136.3
			c0,0-9.9,16.6-10,25c-0.2,28.4,12.7,35.5,12.7,35.5s-11.5-0.9-16.3-5.1c-5.2-4.6-12-13-10.8-30.5c0.9-13.8,7.7-28.7,7.7-28.7
			L90.9,136.3z"/>
		
			<linearGradient id="SVGID_00000049222908584295432320000001138851508906088585_" gradientUnits="userSpaceOnUse" x1="863.6483" y1="201.3672" x2="901.8853" y2="201.3672" gradientTransform="matrix(-0.7487 -6.660000e-02 -8.860000e-02 0.9961 782.0292 28.77)">
			<stop  offset="0" style="stop-color:#232D87"/>
			<stop  offset="1" style="stop-color:#2370B9"/>
		</linearGradient>
		<path style="fill:url(#SVGID_00000049222908584295432320000001138851508906088585_);" d="M118.2,160.8c0,0-1.7-12.3-10.4-13.1
			c-10.4-0.9-18.8,13.7-19.1,24.2c-0.3,10.4,1.2,20.4,11,21.6C99.8,193.5,118.2,194.6,118.2,160.8z"/>
		
			<radialGradient id="SVGID_00000114058166289267343570000014138500104454297261_" cx="883.5371" cy="218.8289" r="28.8969" gradientTransform="matrix(-0.7487 -6.660000e-02 -8.860000e-02 0.9961 782.0292 28.77)" gradientUnits="userSpaceOnUse">
			<stop  offset="0" style="stop-color:#45FFCD"/>
			<stop  offset="1" style="stop-color:#2370B9"/>
		</radialGradient>
		<path style="fill:url(#SVGID_00000114058166289267343570000014138500104454297261_);" d="M118,162.3c0,0-1.7-12.3-10.4-13.1
			c-10.4-0.9-18.8,13.7-19.1,24.2c-0.3,10.4,1.2,20.4,11,21.6C99.5,195,118,196.1,118,162.3z"/>
		
			<linearGradient id="SVGID_00000036235884354997681420000018378641709150439597_" gradientUnits="userSpaceOnUse" x1="770.4202" y1="162.8533" x2="770.4202" y2="150.4734" gradientTransform="matrix(-0.9961 -8.860000e-02 -8.860000e-02 0.9961 874.814 36.9699)">
			<stop  offset="0" style="stop-color:#8DA4E5"/>
			<stop  offset="1" style="stop-color:#755CBB"/>
		</linearGradient>
		<path style="opacity:0.5;fill:url(#SVGID_00000036235884354997681420000018378641709150439597_);" d="M79.6,124
			c0,0,16.3,7.9,22.9,7.7c6.4-0.1,4.3-4.1,4.2-4.4c0,0,0,0,0,0l0,0c-3.5-4.4-8.1-7.5-14.3-8.8C87.6,117.5,83.3,119.8,79.6,124z"/>
		
			<linearGradient id="SVGID_00000163072193070127476730000012282564945455300238_" gradientUnits="userSpaceOnUse" x1="865.6378" y1="187.9319" x2="897.3648" y2="187.9319" gradientTransform="matrix(-0.7487 -6.660000e-02 -8.860000e-02 0.9961 782.0292 28.77)">
			<stop  offset="0" style="stop-color:#000000"/>
			<stop  offset="1" style="stop-color:#D4E2FF"/>
		</linearGradient>
		<path style="opacity:0.72;fill:url(#SVGID_00000163072193070127476730000012282564945455300238_);" d="M117,161.1
			c-1.6,3.2-6.1-1.5-12.3-1.1s-9.8,4.4-11.5,3.1c-1.6-1.3,4.9-13,14.3-12.6C115.1,150.7,117.5,160,117,161.1z"/>
		
			<linearGradient id="SVGID_00000093876340683919519000000005619934766970186880_" gradientUnits="userSpaceOnUse" x1="883.0742" y1="224.6014" x2="883.0742" y2="220.9377" gradientTransform="matrix(-0.7487 -6.660000e-02 -8.860000e-02 0.9961 782.0292 28.77)">
			<stop  offset="0" style="stop-color:#D4E2FF"/>
			<stop  offset="1" style="stop-color:#000000"/>
		</linearGradient>
		<path style="opacity:0.72;fill:url(#SVGID_00000093876340683919519000000005619934766970186880_);" d="M107.5,190.6
			c0,0-2.9,3.2-7.1,3c-4.2-0.2-5.4-3-5.4-3s2-0.9,4.9,0.1C102.8,191.8,105.6,191.5,107.5,190.6z"/>
		<path class="st25" d="M89.6,134.9c1,0.1,1.8,9.8,1,10.1c-0.8,0.2-1.7-1.9-2.2-5.1C87.9,136.7,88.6,134.7,89.6,134.9z"/>
		
			<linearGradient id="SVGID_00000074436654827054975090000006113023479856018594_" gradientUnits="userSpaceOnUse" x1="83.0108" y1="141.4617" x2="71.7407" y2="140.4598">
			<stop  offset="0" style="stop-color:#232D87"/>
			<stop  offset="1" style="stop-color:#2370B9"/>
		</linearGradient>
		<path style="fill:url(#SVGID_00000074436654827054975090000006113023479856018594_);" d="M82.9,139.7c-1.1,5.3-4,11.2-6.5,13.7
			c-0.9,0.9-1.7,1.3-2.4,1.2c-2.7-0.4-4.3-7.9-0.7-17.1c3-7.6,7.1-10.5,8.6-10c0.7,0.2,1.4,1.3,1.7,3.6
			C83.8,133,83.7,135.8,82.9,139.7z"/>
		
			<linearGradient id="SVGID_00000082339927608993954940000009021140732792853416_" gradientUnits="userSpaceOnUse" x1="75.8347" y1="142.2098" x2="83.6851" y2="142.2098">
			<stop  offset="0" style="stop-color:#232D87"/>
			<stop  offset="1" style="stop-color:#2370B9"/>
		</linearGradient>
		<path style="fill:url(#SVGID_00000082339927608993954940000009021140732792853416_);" d="M82.9,139.7c-1.1,5.3-4,11.2-6.5,13.7
			c0,0-3.5-17.6,7.2-22.3C83.8,133,83.7,135.8,82.9,139.7z"/>
		
			<linearGradient id="SVGID_00000052099944433418648430000005386425278475380110_" gradientUnits="userSpaceOnUse" x1="96.3537" y1="155.2763" x2="96.3537" y2="141.3744">
			<stop  offset="0" style="stop-color:#8DA4E5"/>
			<stop  offset="1" style="stop-color:#755CBB"/>
		</linearGradient>
		<path style="opacity:0.5;fill:url(#SVGID_00000052099944433418648430000005386425278475380110_);" d="M78.4,151.5
			c0,0,13.3,5.7,24.8,3.1c11.5-2.6,11.2-10.4,11.2-10.4l-0.8-2.8L78.4,151.5z"/>
		
			<linearGradient id="SVGID_00000021824773324413969780000000092595042110504083_" gradientUnits="userSpaceOnUse" x1="65.8232" y1="213.4076" x2="76.8321" y2="172.4371">
			<stop  offset="0" style="stop-color:#FF9200"/>
			<stop  offset="1" style="stop-color:#FFC400"/>
		</linearGradient>
		<path style="fill:url(#SVGID_00000021824773324413969780000000092595042110504083_);" d="M85.6,184.2c0,0-3.5,28.9-10.9,31.1
			c-0.2,0.1-0.4,0.1-0.6,0.1c-5.9,0.7-12.6-28.2-11.7-38.3c0.2-2.6,1.3-4.3,2.8-5.3C70.5,168.3,81.6,173.6,85.6,184.2z"/>
		
			<linearGradient id="SVGID_00000120530100217050865430000005697815023696424345_" gradientUnits="userSpaceOnUse" x1="99.8707" y1="157.2425" x2="113.4441" y2="106.7278">
			<stop  offset="0" style="stop-color:#FF9200"/>
			<stop  offset="1" style="stop-color:#FFC400"/>
		</linearGradient>
		<path style="fill:url(#SVGID_00000120530100217050865430000005697815023696424345_);" d="M137.3,125.7
			C137.3,125.7,137.3,125.7,137.3,125.7c-30.1,25.3-58.9,25.8-58.9,25.8c-3.3-6.3-1.8-21.1,1.5-23.2c0.2-0.1,0.3-0.2,0.5-0.2
			c0,0,0,0,0,0c18.7-4.3,37.2-10,47.1-13.3l0.1,0c3.6-1.2,6-2,6.8-2.3l0.3-0.1c0,0,0,0,0.1,0.1c0.5,0.2,0.9,0.4,1.2,0.8c0,0,0,0,0,0
			C138.8,116.3,137.4,125.1,137.3,125.7z"/>
		
			<linearGradient id="SVGID_00000183230222179823883470000006678974545582748607_" gradientUnits="userSpaceOnUse" x1="138.3089" y1="120.498" x2="128.3484" y2="119.6125">
			<stop  offset="0" style="stop-color:#232D87"/>
			<stop  offset="1" style="stop-color:#2370B9"/>
		</linearGradient>
		<path style="fill:url(#SVGID_00000183230222179823883470000006678974545582748607_);" d="M134.6,112.4c0,0-6.2,4.9-6.6,10.9
			c-0.4,6,6.7,4.8,9.2,2.4C137.3,125.7,141.1,114.4,134.6,112.4z"/>
		
			<linearGradient id="SVGID_00000096756362199009319990000009804276644646259128_" gradientUnits="userSpaceOnUse" x1="162.1129" y1="134.4955" x2="179.2307" y2="48.4711">
			<stop  offset="0" style="stop-color:#D93DE3"/>
			<stop  offset="1" style="stop-color:#DB63C3"/>
		</linearGradient>
		<path style="fill:url(#SVGID_00000096756362199009319990000009804276644646259128_);" d="M213.4,99c0,0-0.4,0.8-1,2
			c-4,7.3-11.8,14.8-12.1,15.2c0,0,0,0,0,0c-24.8,10.4-52.1,15.5-52.1,15.5c-12.8-23.2-18.8-51.8-19.1-53.3c0,0,0-0.1,0-0.1
			C163.8,58.7,196,52.2,197,52l0,0c0,0,0,0,0.1,0.1c1.4,2.2,2.7,4.9,4,7.8c0,0,0,0.1,0,0.1c3.6,8.3,6.8,18.5,9.1,26.4
			C212,93.1,213.2,98.1,213.4,99C213.4,98.9,213.4,99,213.4,99z"/>
		
			<linearGradient id="SVGID_00000175296867467668492980000004312610200829938864_" gradientUnits="userSpaceOnUse" x1="164.254" y1="71.3684" x2="161.795" y2="59.0108">
			<stop  offset="0" style="stop-color:#E88AEE"/>
			<stop  offset="1" style="stop-color:#FF6DBA"/>
		</linearGradient>
		<path style="fill:url(#SVGID_00000175296867467668492980000004312610200829938864_);" d="M129.1,78.4c0,0,32.8-12.7,55.3-16.1
			L197,52C197,52,150.3,60.9,129.1,78.4z"/>
		
			<linearGradient id="SVGID_00000012453827403674851270000011463294094769445008_" gradientUnits="userSpaceOnUse" x1="98.2448" y1="75.0282" x2="96.3576" y2="65.697">
			<stop  offset="0" style="stop-color:#45FFCD"/>
			<stop  offset="1" style="stop-color:#2370B9"/>
		</linearGradient>
		<path style="fill:url(#SVGID_00000012453827403674851270000011463294094769445008_);" d="M93.3,75.9c-1.7-0.1-2.4-8.2,0.6-9.7
			c3-1.5,9.3,2.5,9.5,5.4c0.1,1.3-3.3,1-4.8,1.8C96.8,74.4,94.9,76,93.3,75.9z"/>
		
			<linearGradient id="SVGID_00000126304165318504716550000007045340184948223400_" gradientUnits="userSpaceOnUse" x1="61.8651" y1="91.4245" x2="59.1775" y2="78.136">
			<stop  offset="0" style="stop-color:#45FFCD"/>
			<stop  offset="1" style="stop-color:#2370B9"/>
		</linearGradient>
		<path style="fill:url(#SVGID_00000126304165318504716550000007045340184948223400_);" d="M71.6,83.7c1.5-2.6-13.3-8.1-18.7-3.4
			c-5.4,4.7-2.7,11.3-0.3,12.8c1.4,0.9,4.9-3.3,9.8-5.3C66.9,85.8,70.8,85.1,71.6,83.7z"/>
		
			<radialGradient id="SVGID_00000019679918584153966820000010875201263243158463_" cx="164.9354" cy="91.2927" r="25.4342" gradientUnits="userSpaceOnUse">
			<stop  offset="0" style="stop-color:#45FFCD"/>
			<stop  offset="1" style="stop-color:#2370B9"/>
		</radialGradient>
		<path style="fill:url(#SVGID_00000019679918584153966820000010875201263243158463_);" d="M175.2,125c0,0-18.7-25.2-22.8-54.7
			c0,0,7.3-5,19.8-12l2.3-0.7l-16.9,11.1c0,0,3.5,25.8,19.8,56L175.2,125z"/>
		
			<linearGradient id="SVGID_00000016786640226239468100000016576975338249657223_" gradientUnits="userSpaceOnUse" x1="75.4077" y1="215.3845" x2="75.4077" y2="170.7644">
			<stop  offset="0" style="stop-color:#232D87"/>
			<stop  offset="1" style="stop-color:#2370B9"/>
		</linearGradient>
		<path style="opacity:0.3;fill:url(#SVGID_00000016786640226239468100000016576975338249657223_);" d="M85.6,184.2
			c0,0-3.5,28.9-10.9,31.1c6.3-5.6,10.2-28,0-40.8c-2.9-3.6-7.6-3-9.4-2.7C70.5,168.3,81.6,173.6,85.6,184.2z"/>
		
			<linearGradient id="SVGID_00000011744113566905238030000000938269680856543652_" gradientUnits="userSpaceOnUse" x1="157.4633" y1="133.5703" x2="166.9356" y2="85.9678">
			<stop  offset="0" style="stop-color:#232D87"/>
			<stop  offset="1" style="stop-color:#2370B9"/>
		</linearGradient>
		<path style="opacity:0.5;fill:url(#SVGID_00000011744113566905238030000000938269680856543652_);" d="M200.3,116.2
			c-24.8,10.4-52.1,15.5-52.1,15.5c-12.8-23.2-18.8-51.8-19.1-53.3c0.4,1.3,6.2,21.6,12.3,24.3c6.3,2.8,18.5,1.3,18.5,1.3
			s9.6,7.2,22.2,10.1C194.7,116.9,200.3,116.2,200.3,116.2z"/>
		
			<linearGradient id="SVGID_00000175301162892938624120000014396277422347266473_" gradientUnits="userSpaceOnUse" x1="107.71" y1="151.4645" x2="107.71" y2="112.4145">
			<stop  offset="0" style="stop-color:#232D87"/>
			<stop  offset="1" style="stop-color:#2370B9"/>
		</linearGradient>
		<path style="opacity:0.3;fill:url(#SVGID_00000175301162892938624120000014396277422347266473_);" d="M137.3,125.7
			C137.3,125.7,137.3,125.7,137.3,125.7c-30.1,25.3-58.9,25.8-58.9,25.8c-3.3-6.3-1.8-21.1,1.5-23.2l0.5-0.2
			c-0.3,0.4-6.6,10.3-0.6,16.3c6.1,6.2,38-7.8,43.5-17.6c5.5-9.8,3.7-11.8,3.7-11.8l0.5-0.2l0.1,0l6.8-2.3l0.3-0.1c0,0,0,0,0.1,0.1
			c0.2,0.1,0.7,0.4,1.2,0.8c0,0,0,0,0,0C137.9,114.8,140.7,118.5,137.3,125.7z"/>
		
			<linearGradient id="SVGID_00000085967864590139034420000001481056975973855889_" gradientUnits="userSpaceOnUse" x1="141.5707" y1="128.012" x2="149.447" y2="98.6997">
			<stop  offset="0" style="stop-color:#FF9200"/>
			<stop  offset="1" style="stop-color:#FFC400"/>
		</linearGradient>
		<path style="fill:url(#SVGID_00000085967864590139034420000001481056975973855889_);" d="M130.9,120.5c-0.8,6.2,9.4,8.5,16.6,4.4
			c7.2-4.1,10.2-9.4,11.9-13.3c1.6-3.9-0.6-9.9-2.1-10.8c-1.5-0.9-16.1,4.7-18.6,5.9C130.9,110.6,131.4,116.8,130.9,120.5z"/>
		
			<linearGradient id="SVGID_00000023999922978598944950000001754585656023928466_" gradientUnits="userSpaceOnUse" x1="155.7455" y1="98.572" x2="132.1734" y2="115.8883">
			<stop  offset="0" style="stop-color:#232D87"/>
			<stop  offset="1" style="stop-color:#2370B9"/>
		</linearGradient>
		<path style="fill:url(#SVGID_00000023999922978598944950000001754585656023928466_);" d="M131.6,115.1c0,0,18.6-4.4,26-14
			c0,0-0.3-1.3-3.5-0.4l-16.2,5.9C137.9,106.7,131.9,111.1,131.6,115.1z"/>
		
			<linearGradient id="SVGID_00000115474871304764551570000014154631891497627788_" gradientUnits="userSpaceOnUse" x1="136.719" y1="115.1614" x2="141.9146" y2="95.8254">
			<stop  offset="0" style="stop-color:#FF9200"/>
			<stop  offset="1" style="stop-color:#FFC400"/>
		</linearGradient>
		<path style="fill:url(#SVGID_00000115474871304764551570000014154631891497627788_);" d="M132.3,114c0,0,0.2-4.6,1.7-7.7
			c3.7-7.5,9.7-10,9.7-10s1.8,1.7,2.2,3.9c0.4,2.2-4.5,10.5-4.5,10.5S136.8,114.1,132.3,114z"/>
		
			<linearGradient id="SVGID_00000177480264651511260910000006004961386842757010_" gradientUnits="userSpaceOnUse" x1="149.8019" y1="104.284" x2="141.3267" y2="110.5099">
			<stop  offset="0" style="stop-color:#8DA4E5"/>
			<stop  offset="1" style="stop-color:#755CBB"/>
		</linearGradient>
		<path style="opacity:0.5;fill:url(#SVGID_00000177480264651511260910000006004961386842757010_);" d="M144.6,104.5l6.9,2.2
			c0,0-5,3.1-10.1,4L144.6,104.5z"/>
		
			<radialGradient id="SVGID_00000136389063307681941510000004095889066298678946_" cx="165.6617" cy="76.1547" r="9.6113" gradientUnits="userSpaceOnUse">
			<stop  offset="0" style="stop-color:#45FFCD"/>
			<stop  offset="1" style="stop-color:#2370B9"/>
		</radialGradient>
		<path style="fill:url(#SVGID_00000136389063307681941510000004095889066298678946_);" d="M157.6,68.7c0,0,9.1,13.3,14.5,18.4
			l1.6-1.8c0,0-8-4.5-15.3-16.8l4.6-3.3C163,65.2,157.6,68.2,157.6,68.7z"/>
		<path class="st25" d="M74.1,187.1c-1.1-0.2-1.4,9.5,0,10.4C75.5,198.4,75.8,187.5,74.1,187.1z"/>
		<path class="st25" d="M85,131.9c0.2,1.2,8-0.2,8-1.8C93,128.5,84.8,130.7,85,131.9z"/>
		<path class="st25" d="M94.4,129.6c-0.2-0.5,2.9-1.4,3.4-1c0.5,0.4-0.7,1.1-1.5,1.4C95.5,130.3,94.6,130,94.4,129.6z"/>
		<path class="st25" d="M136.2,105.7c-1.5,0.2,1.2-4.3,2.1-4.3C139.3,101.4,137.3,105.5,136.2,105.7z"/>
		<path class="st25" d="M119.6,183.8c-0.7,0.3,1.2,3.7,2.3,3C123,186,121.4,183.1,119.6,183.8z"/>
		
			<linearGradient id="SVGID_00000061432933678698977340000005851017460114363302_" gradientUnits="userSpaceOnUse" x1="87.1911" y1="-115.9532" x2="92.2131" y2="-155.9388" gradientTransform="matrix(0.7722 -0.6354 0.6354 0.7722 56.8552 273.1907)">
			<stop  offset="0" style="stop-color:#232D87"/>
			<stop  offset="1" style="stop-color:#2370B9"/>
		</linearGradient>
		<path style="fill:url(#SVGID_00000061432933678698977340000005851017460114363302_);" d="M21,99.2c0,0,4.8-0.6,6.6,5.8
			c0,0-0.6,14,8.2,21c7.5,6,25.9-11,25.9-11l0.8,3.3c0,0-14.3,14.3-23.5,15.2c0,0-6.3,0.1-11.5-11.8C22.2,109.8,21,99.2,21,99.2z"/>
		
			<linearGradient id="SVGID_00000134954502250658923290000007668135211151477694_" gradientUnits="userSpaceOnUse" x1="55.1649" y1="-192.2751" x2="55.1649" y2="-203.6155" gradientTransform="matrix(0.8973 -0.4415 0.4415 0.8973 107.17 313.2316)">
			<stop  offset="0" style="stop-color:#DD1A8F"/>
			<stop  offset="1" style="stop-color:#FE117E"/>
		</linearGradient>
		<path style="fill:url(#SVGID_00000134954502250658923290000007668135211151477694_);" d="M61.4,116.5c-0.1,3.6,5.6,2.7,9.1,0.4
			c3.9-2.6,9.1-9.2,5.8-12.6C73,101,61.7,108.1,61.4,116.5z"/>
		
			<linearGradient id="SVGID_00000181058457555645899350000016829719364261855363_" gradientUnits="userSpaceOnUse" x1="111.8805" y1="-117.1198" x2="111.8805" y2="-121.9346" gradientTransform="matrix(0.7722 -0.6354 0.6354 0.7722 56.8552 273.1907)">
			<stop  offset="0" style="stop-color:#D93DE3"/>
			<stop  offset="1" style="stop-color:#FF6DBA"/>
		</linearGradient>
		<path style="fill:url(#SVGID_00000181058457555645899350000016829719364261855363_);" d="M62,116.7c0.4,0.7,13.3-9.7,11.8-12.3
			C72.2,101.9,59.1,111.4,62,116.7z"/>
		
			<linearGradient id="SVGID_00000172434655793671703040000010364186973969105548_" gradientUnits="userSpaceOnUse" x1="129.0777" y1="65.2216" x2="196.9903" y2="65.2216">
			<stop  offset="0" style="stop-color:#000000"/>
			<stop  offset="1" style="stop-color:#9295BB"/>
		</linearGradient>
		<path style="opacity:0.72;fill:url(#SVGID_00000172434655793671703040000010364186973969105548_);" d="M129.1,78.4
			c0,0,37.7-14.6,50-18.4C191.3,56.3,197,52,197,52l-12.6,10.3C184.4,62.3,149.9,68.9,129.1,78.4z"/>
	</g>
	
		<radialGradient id="SVGID_00000081645563890858955120000017446642729231850884_" cx="96.0027" cy="127.7723" r="39.3857" gradientTransform="matrix(1 0 0 0.2225 0 200.886)" gradientUnits="userSpaceOnUse">
		<stop  offset="0" style="stop-color:#4C5354"/>
		<stop  offset="8.237104e-02" style="stop-color:#626768"/>
		<stop  offset="0.2824" style="stop-color:#919494"/>
		<stop  offset="0.4356" style="stop-color:#AFB0B0"/>
		<stop  offset="0.5225" style="stop-color:#BABABA"/>
		<stop  offset="0.6312" style="stop-color:#C4C4C4"/>
		<stop  offset="0.8141" style="stop-color:#DEDEDE"/>
		<stop  offset="1" style="stop-color:#FFFFFF"/>
	</radialGradient>
	
		<ellipse style="opacity:0.5;fill:url(#SVGID_00000081645563890858955120000017446642729231850884_);" cx="96" cy="229.3" rx="39.4" ry="8.8"/>
</g>
</svg>
