<?xml version="1.0" encoding="utf-8"?>
<!-- Generator: Adobe Illustrator 26.5.0, SVG Export Plug-In . SVG Version: 6.00 Build 0)  -->
<svg version="1.1" id="Layer_1" xmlns="http://www.w3.org/2000/svg" xmlns:xlink="http://www.w3.org/1999/xlink" x="0px" y="0px"
	 viewBox="0 0 787.7 566.9" style="enable-background:new 0 0 787.7 566.9;" xml:space="preserve">
<style type="text/css">
	.st0{fill:none;stroke:#F3911B;stroke-width:0.3924;stroke-miterlimit:10;}
	.st1{fill:none;stroke:#F3911B;stroke-width:0.4097;stroke-miterlimit:10;}
	.st2{fill:#F3911B;}
	.st3{fill:#2571B8;}
	.st4{fill:url(#SVGID_1_);}
</style>
<g>
	<path class="st0" d="M249.3,35.4c73.3,0,133,46,206.2,36.3c68.6-9,133.1-51.2,200.9-44.6c16.7,1.6,31.7,7.1,44.9,15.2
		c28.5,17.7,47.7,48,54,79.5c3.7,18.6,1.3,35.8-0.4,54.3c-1.7,18.6-3.7,37.1-6.5,55.6c-5.8,37-15.3,74.6-35.1,106.7
		c-19.1,30.9-44.4,57.2-70.9,81.7c-24.9,23.1-49.9,46.9-79.2,64.5c-9.6,5.8-19.4,11-29.5,15.7c-47.1,21.9-99,31-150.7,30
		c-28.8-0.6-57.5-4.2-85.7-9.9C81.2,476.4,45.1,320.9,34.4,253.5C12.8,117.8,82.9,35.4,249.3,35.4z"/>
	<path class="st1" d="M702.8,137.1c23.2,163.4-73.5,292.9-186.3,357.1C272,633.4-149.4,439.6,117.9,160
		c109-114.1,276.1-12,427.7-101.4C613.9,18.3,679.5,73,702.8,137.1z"/>
	<g>
		<g>
			<g>
				<path class="st2" d="M669.6,276"/>
				<path class="st2" d="M669.5,293.8C669.5,293.8,669.5,293.8,669.5,293.8C669.5,293.9,669.5,293.9,669.5,293.8
					C669.5,293.9,669.5,293.9,669.5,293.8C669.5,293.8,669.5,293.8,669.5,293.8z"/>
				<path class="st2" d="M668.1,311.6C668.2,311.6,668.2,311.6,668.1,311.6c0.1,0.1,0,0.1,0,0.1
					C668.1,311.7,668.1,311.7,668.1,311.6C668.1,311.6,668.1,311.6,668.1,311.6z"/>
				<path class="st2" d="M665.5,329.2C665.6,329.2,665.6,329.2,665.5,329.2c0.1,0.1,0.1,0.2,0,0.2
					C665.5,329.4,665.5,329.3,665.5,329.2C665.5,329.2,665.5,329.2,665.5,329.2z"/>
				<path class="st2" d="M661.7,346.6c0.1,0,0.1,0,0.1,0.1c0,0.1,0,0.1-0.1,0.1c-0.1,0-0.1,0-0.1-0.1
					C661.6,346.6,661.7,346.6,661.7,346.6z"/>
				<path class="st2" d="M656.7,363.6c0.1,0,0.1,0.1,0.1,0.1c0,0.1-0.1,0.1-0.1,0.1c-0.1,0-0.1-0.1-0.1-0.1
					C656.5,363.7,656.6,363.6,656.7,363.6z"/>
				<path class="st2" d="M650.4,380.3c0.1,0,0.2,0.1,0.2,0.2c0,0.1-0.1,0.2-0.2,0.2c-0.1,0-0.2-0.1-0.2-0.2
					C650.3,380.4,650.3,380.3,650.4,380.3z"/>
				<path class="st2" d="M643.1,396.5c0.1,0,0.2,0.1,0.2,0.2c0,0.1-0.1,0.2-0.2,0.2c-0.1,0-0.2-0.1-0.2-0.2
					C642.9,396.6,642.9,396.5,643.1,396.5z"/>
				<path class="st2" d="M634.6,412.1c0.1,0,0.2,0.1,0.2,0.2c0,0.1-0.1,0.2-0.2,0.2s-0.2-0.1-0.2-0.2
					C634.3,412.2,634.4,412.1,634.6,412.1z"/>
				<path class="st2" d="M625,427.1c0.1,0,0.3,0.1,0.3,0.3c0,0.1-0.1,0.3-0.3,0.3c-0.1,0-0.3-0.1-0.3-0.3
					C624.7,427.2,624.8,427.1,625,427.1z"/>
				<path class="st2" d="M614.4,441.4c0.2,0,0.3,0.1,0.3,0.3c0,0.2-0.1,0.3-0.3,0.3c-0.2,0-0.3-0.1-0.3-0.3
					C614.1,441.6,614.2,441.4,614.4,441.4z"/>
				<path class="st2" d="M602.8,454.9c0.2,0,0.3,0.1,0.3,0.3c0,0.2-0.1,0.3-0.3,0.3c-0.2,0-0.3-0.1-0.3-0.3
					C602.5,455.1,602.6,455,602.8,454.9z"/>
				<path class="st2" d="M590.3,467.6c0.2,0,0.3,0.1,0.4,0.3c0,0.2-0.1,0.3-0.3,0.4c-0.2,0-0.3-0.1-0.4-0.3
					C590,467.8,590.2,467.7,590.3,467.6z"/>
				<path class="st2" d="M577,479.4c0.2,0,0.4,0.2,0.4,0.4c0,0.2-0.2,0.4-0.4,0.4c-0.2,0-0.4-0.2-0.4-0.4
					C576.6,479.6,576.8,479.4,577,479.4z"/>
				<path class="st2" d="M562.9,490.2c0.3,0,0.5,0.2,0.5,0.5c0,0.3-0.2,0.5-0.5,0.5c-0.3,0-0.5-0.2-0.5-0.5
					C562.4,490.4,562.6,490.2,562.9,490.2z"/>
				<path class="st2" d="M548,500c0.3,0,0.6,0.2,0.6,0.5c0,0.3-0.2,0.6-0.5,0.6c-0.3,0-0.6-0.2-0.6-0.5
					C547.5,500.3,547.7,500,548,500z"/>
				<path class="st2" d="M532.5,508.7c0.3,0,0.6,0.3,0.6,0.6c0,0.3-0.3,0.6-0.6,0.6c-0.3,0-0.6-0.3-0.6-0.6
					C531.9,509,532.2,508.7,532.5,508.7z"/>
				<path class="st2" d="M516.5,516.4c0.4,0,0.7,0.3,0.7,0.7c0,0.4-0.3,0.7-0.7,0.7c-0.4,0-0.7-0.3-0.7-0.7
					C515.8,516.7,516.1,516.4,516.5,516.4z"/>
				<path class="st2" d="M499.9,522.8c0.4,0,0.8,0.3,0.8,0.8c0,0.4-0.3,0.8-0.8,0.8c-0.4,0-0.8-0.3-0.8-0.8
					C499.1,523.2,499.5,522.9,499.9,522.8z"/>
				<path class="st2" d="M482.9,528.1c0.5,0,0.9,0.4,0.9,0.8c0,0.5-0.4,0.9-0.8,0.9c-0.5,0-0.9-0.4-0.9-0.8
					C482.1,528.5,482.4,528.1,482.9,528.1z"/>
				<path class="st2" d="M465.6,532.2c0.5,0,0.9,0.4,0.9,0.9c0,0.5-0.4,0.9-0.9,0.9c-0.5,0-0.9-0.4-0.9-0.9
					C464.7,532.7,465.1,532.2,465.6,532.2z"/>
				<path class="st2" d="M448,535.1c0.5,0,1,0.4,1,1c0,0.5-0.4,1-1,1c-0.5,0-1-0.4-1-1C447,535.6,447.4,535.1,448,535.1z"/>
				<path class="st2" d="M430.3,536.7c0.6,0,1.1,0.4,1.1,1c0,0.6-0.4,1.1-1,1.1c-0.6,0-1.1-0.4-1.1-1
					C429.2,537.2,429.7,536.7,430.3,536.7z"/>
				<path class="st2" d="M412.4,537.1c0.6,0,1.2,0.5,1.2,1.1c0,0.6-0.5,1.2-1.1,1.2c-0.6,0-1.2-0.5-1.2-1.1
					C411.3,537.7,411.8,537.2,412.4,537.1z"/>
				<path class="st2" d="M394.6,536.3c0.7,0,1.2,0.5,1.2,1.2c0,0.7-0.5,1.2-1.2,1.2c-0.7,0-1.2-0.5-1.2-1.2
					C393.4,536.9,393.9,536.3,394.6,536.3z"/>
				<path class="st2" d="M376.9,534.3c0.7,0,1.3,0.5,1.3,1.3c0,0.7-0.5,1.3-1.3,1.3c-0.7,0-1.3-0.5-1.3-1.3
					C375.6,534.9,376.2,534.3,376.9,534.3z"/>
				<path class="st2" d="M359.4,531c0.8,0,1.4,0.6,1.4,1.3c0,0.8-0.6,1.4-1.3,1.4c-0.8,0-1.4-0.6-1.4-1.3
					C358,531.6,358.6,531,359.4,531z"/>
				<path class="st2" d="M342.1,526.5c0.8,0,1.5,0.6,1.5,1.4c0,0.8-0.6,1.5-1.4,1.5c-0.8,0-1.5-0.6-1.5-1.4
					C340.7,527.2,341.3,526.5,342.1,526.5z"/>
				<path class="st2" d="M325.2,520.8c0.8,0,1.5,0.6,1.5,1.5c0,0.8-0.6,1.5-1.5,1.5c-0.8,0-1.5-0.6-1.5-1.5
					C323.7,521.5,324.4,520.8,325.2,520.8z"/>
				<path class="st2" d="M308.7,513.9c0.9,0,1.6,0.7,1.6,1.5c0,0.9-0.7,1.6-1.5,1.6c-0.9,0-1.6-0.7-1.6-1.5
					C307.2,514.6,307.9,513.9,308.7,513.9z"/>
				<path class="st2" d="M292.8,505.9c0.9,0,1.7,0.7,1.7,1.6c0,0.9-0.7,1.7-1.6,1.7c-0.9,0-1.7-0.7-1.7-1.6
					C291.1,506.6,291.9,505.9,292.8,505.9z"/>
				<path class="st2" d="M277.4,496.7c1,0,1.7,0.7,1.8,1.7c0,1-0.7,1.7-1.7,1.8c-1,0-1.7-0.7-1.8-1.7
					C275.7,497.6,276.5,496.8,277.4,496.7z"/>
				<path class="st2" d="M262.7,486.6c1,0,1.8,0.8,1.8,1.8c0,1-0.8,1.8-1.8,1.8c-1,0-1.8-0.8-1.8-1.8
					C261,487.4,261.7,486.6,262.7,486.6z"/>
				<path class="st2" d="M248.8,475.4c1,0,1.9,0.8,1.9,1.8c0,1-0.8,1.9-1.8,1.9c-1,0-1.9-0.8-1.9-1.8
					C246.9,476.3,247.7,475.4,248.8,475.4z"/>
				<path class="st2" d="M203.8,136.6c1.1,0,2,0.8,2,1.9c0,1.1-0.8,2-1.9,2c-1.1,0-2-0.8-2-1.9C201.9,137.6,202.7,136.7,203.8,136.6
					z"/>
				<path class="st2" d="M214.4,122.3c1.1,0,2,0.8,2,1.9c0,1.1-0.8,2-1.9,2c-1.1,0-2-0.8-2-1.9C212.5,123.2,213.4,122.4,214.4,122.3
					z"/>
				<path class="st2" d="M226,108.8c1.1,0,1.9,0.8,2,1.9c0,1.1-0.8,1.9-1.9,2c-1.1,0-1.9-0.8-2-1.9
					C224.1,109.7,224.9,108.8,226,108.8z"/>
				<path class="st2" d="M238.5,96.1c1,0,1.9,0.8,1.9,1.8c0,1-0.8,1.9-1.8,1.9c-1,0-1.9-0.8-1.9-1.8C236.6,97,237.4,96.1,238.5,96.1
					z"/>
				<path class="st2" d="M251.8,84.3c1,0,1.8,0.8,1.9,1.8c0,1-0.8,1.8-1.8,1.9c-1,0-1.8-0.8-1.9-1.8C250,85.2,250.8,84.4,251.8,84.3
					z"/>
				<path class="st2" d="M265.9,73.5c1,0,1.8,0.7,1.8,1.7c0,1-0.7,1.8-1.7,1.8c-1,0-1.8-0.7-1.8-1.7C264.2,74.4,265,73.6,265.9,73.5
					z"/>
				<path class="st2" d="M280.8,63.7c0.9,0,1.7,0.7,1.7,1.6c0,0.9-0.7,1.7-1.6,1.7c-0.9,0-1.7-0.7-1.7-1.6
					C279.1,64.5,279.8,63.8,280.8,63.7z"/>
				<path class="st2" d="M296.3,55c0.9,0,1.6,0.7,1.6,1.6c0,0.9-0.7,1.6-1.6,1.6c-0.9,0-1.6-0.7-1.6-1.6
					C294.7,55.8,295.4,55,296.3,55z"/>
				<path class="st2" d="M312.3,47.4c0.8,0,1.5,0.6,1.6,1.5c0,0.8-0.6,1.5-1.5,1.6c-0.8,0-1.5-0.6-1.6-1.5
					C310.8,48.1,311.5,47.4,312.3,47.4z"/>
				<path class="st2" d="M328.9,40.9c0.8,0,1.5,0.6,1.5,1.4c0,0.8-0.6,1.5-1.4,1.5c-0.8,0-1.5-0.6-1.5-1.4
					C327.5,41.6,328.1,40.9,328.9,40.9z"/>
				<path class="st2" d="M345.9,35.6c0.8,0,1.4,0.6,1.4,1.3c0,0.8-0.6,1.4-1.3,1.4c-0.8,0-1.4-0.6-1.4-1.3
					C344.6,36.3,345.2,35.6,345.9,35.6z"/>
				<path class="st2" d="M363.2,31.5c0.7,0,1.3,0.5,1.3,1.3c0,0.7-0.5,1.3-1.3,1.3c-0.7,0-1.3-0.5-1.3-1.3
					C362,32.1,362.5,31.6,363.2,31.5z"/>
				<path class="st2" d="M380.8,28.7c0.7,0,1.2,0.5,1.3,1.2c0,0.7-0.5,1.2-1.2,1.3c-0.7,0-1.2-0.5-1.3-1.2
					C379.6,29.3,380.1,28.7,380.8,28.7z"/>
				<path class="st2" d="M398.6,27c0.6,0,1.2,0.5,1.2,1.1c0,0.6-0.5,1.2-1.1,1.2c-0.6,0-1.2-0.5-1.2-1.1
					C397.4,27.6,397.9,27.1,398.6,27z"/>
				<path class="st2" d="M416.4,26.6c0.6,0,1.1,0.5,1.1,1c0,0.6-0.5,1.1-1,1.1c-0.6,0-1.1-0.5-1.1-1
					C415.3,27.1,415.8,26.6,416.4,26.6z"/>
				<path class="st2" d="M434.2,27.4c0.6,0,1,0.4,1,1c0,0.6-0.4,1-1,1c-0.6,0-1-0.4-1-1C433.2,27.9,433.6,27.5,434.2,27.4z"/>
				<path class="st2" d="M451.9,29.5c0.5,0,0.9,0.4,1,0.9c0,0.5-0.4,0.9-0.9,1c-0.5,0-0.9-0.4-1-0.9C451,29.9,451.4,29.5,451.9,29.5
					z"/>
				<path class="st2" d="M469.4,32.8c0.5,0,0.9,0.4,0.9,0.8c0,0.5-0.4,0.9-0.8,0.9c-0.5,0-0.9-0.4-0.9-0.8
					C468.6,33.2,469,32.8,469.4,32.8z"/>
				<path class="st2" d="M486.7,37.3c0.4,0,0.8,0.3,0.8,0.8c0,0.4-0.3,0.8-0.8,0.8c-0.4,0-0.8-0.3-0.8-0.8
					C485.9,37.7,486.3,37.3,486.7,37.3z"/>
				<path class="st2" d="M503.6,43c0.4,0,0.7,0.3,0.7,0.7c0,0.4-0.3,0.7-0.7,0.7c-0.4,0-0.7-0.3-0.7-0.7
					C502.9,43.3,503.2,43,503.6,43z"/>
				<path class="st2" d="M520.1,49.9c0.4,0,0.6,0.3,0.7,0.6c0,0.4-0.3,0.6-0.6,0.7c-0.4,0-0.6-0.3-0.7-0.6
					C519.5,50.2,519.7,49.9,520.1,49.9z"/>
				<path class="st2" d="M536,57.9c0.3,0,0.6,0.2,0.6,0.5c0,0.3-0.2,0.6-0.5,0.6c-0.3,0-0.6-0.2-0.6-0.5S535.7,57.9,536,57.9z"/>
				<path class="st2" d="M551.4,67c0.3,0,0.5,0.2,0.5,0.5c0,0.3-0.2,0.5-0.5,0.5c-0.3,0-0.5-0.2-0.5-0.5
					C550.9,67.3,551.1,67,551.4,67z"/>
				<path class="st2" d="M566.1,77.2c0.2,0,0.4,0.2,0.4,0.4c0,0.2-0.2,0.4-0.4,0.4c-0.2,0-0.4-0.2-0.4-0.4
					C565.7,77.4,565.8,77.2,566.1,77.2z"/>
				<path class="st2" d="M580,88.4c0.2,0,0.3,0.1,0.4,0.3c0,0.2-0.1,0.3-0.3,0.4c-0.2,0-0.3-0.1-0.4-0.3
					C579.7,88.5,579.8,88.4,580,88.4z"/>
				<path class="st2" d="M593.2,100.4c0.2,0,0.3,0.1,0.3,0.3c0,0.2-0.1,0.3-0.3,0.3s-0.3-0.1-0.3-0.3
					C592.9,100.6,593,100.4,593.2,100.4z"/>
				<path class="st2" d="M605.5,113.4c0.2,0,0.3,0.1,0.3,0.3c0,0.2-0.1,0.3-0.3,0.3c-0.2,0-0.3-0.1-0.3-0.3
					C605.2,113.5,605.3,113.4,605.5,113.4z"/>
				<path class="st2" d="M616.8,127.1c0.1,0,0.3,0.1,0.3,0.3c0,0.1-0.1,0.3-0.3,0.3c-0.1,0-0.3-0.1-0.3-0.3
					C616.6,127.2,616.7,127.1,616.8,127.1z"/>
				<path class="st2" d="M627.2,141.6c0.1,0,0.2,0.1,0.2,0.2c0,0.1-0.1,0.2-0.2,0.2c-0.1,0-0.2-0.1-0.2-0.2
					C627,141.7,627.1,141.6,627.2,141.6z"/>
				<path class="st2" d="M636.5,156.8c0.1,0,0.2,0.1,0.2,0.2c0,0.1-0.1,0.2-0.2,0.2c-0.1,0-0.2-0.1-0.2-0.2
					C636.3,156.9,636.4,156.8,636.5,156.8z"/>
				<path class="st2" d="M644.8,172.7c0.1,0,0.2,0.1,0.2,0.2c0,0.1-0.1,0.2-0.2,0.2c-0.1,0-0.2-0.1-0.2-0.2
					C644.6,172.8,644.7,172.7,644.8,172.7z"/>
				<path class="st2" d="M651.9,189c0.1,0,0.1,0.1,0.1,0.1c0,0.1-0.1,0.1-0.1,0.1s-0.1-0.1-0.1-0.1C651.8,189.1,651.9,189,651.9,189
					z"/>
				<path class="st2" d="M657.9,205.9c0.1,0,0.1,0,0.1,0.1c0,0.1,0,0.1-0.1,0.1c-0.1,0-0.1,0-0.1-0.1
					C657.8,205.9,657.8,205.9,657.9,205.9z"/>
				<path class="st2" d="M662.7,223.1C662.7,223.1,662.7,223.1,662.7,223.1c0.1,0.1,0.1,0.2,0,0.2
					C662.6,223.2,662.6,223.2,662.7,223.1C662.6,223.1,662.6,223.1,662.7,223.1z"/>
				<path class="st2" d="M666.2,240.6C666.2,240.5,666.3,240.6,666.2,240.6c0.1,0.1,0,0.1,0,0.1
					C666.2,240.7,666.2,240.6,666.2,240.6C666.2,240.6,666.2,240.6,666.2,240.6z"/>
				<path class="st2" d="M668.5,258.3C668.5,258.2,668.6,258.3,668.5,258.3C668.6,258.3,668.5,258.3,668.5,258.3
					C668.5,258.3,668.5,258.3,668.5,258.3C668.5,258.3,668.5,258.3,668.5,258.3z"/>
			</g>
			<g>
				<path class="st2" d="M217.3,138.9c0.1,0,0.3,0.1,0.3,0.3s-0.1,0.3-0.3,0.3s-0.3-0.1-0.3-0.3C217,139,217.1,138.9,217.3,138.9z"
					/>
				<path class="st2" d="M228.3,124.9c0.2,0,0.3,0.1,0.3,0.3c0,0.2-0.1,0.3-0.3,0.3c-0.2,0-0.3-0.1-0.3-0.3
					C228,125,228.1,124.9,228.3,124.9z"/>
				<path class="st2" d="M240.3,111.7c0.2,0,0.3,0.1,0.3,0.3c0,0.2-0.1,0.3-0.3,0.3c-0.2,0-0.3-0.1-0.3-0.3
					C240,111.8,240.1,111.7,240.3,111.7z"/>
				<path class="st2" d="M253.3,99.4c0.2,0,0.4,0.2,0.4,0.4c0,0.2-0.2,0.4-0.4,0.4c-0.2,0-0.4-0.2-0.4-0.4
					C252.9,99.6,253.1,99.4,253.3,99.4z"/>
				<path class="st2" d="M267.1,88c0.3,0,0.5,0.2,0.5,0.4c0,0.3-0.2,0.5-0.4,0.5c-0.3,0-0.5-0.2-0.5-0.4
					C266.6,88.2,266.8,88,267.1,88z"/>
				<path class="st2" d="M281.6,77.7c0.3,0,0.5,0.2,0.5,0.5c0,0.3-0.2,0.5-0.5,0.5c-0.3,0-0.5-0.2-0.5-0.5S281.3,77.7,281.6,77.7z"
					/>
				<path class="st2" d="M296.9,68.5c0.3,0,0.6,0.3,0.6,0.6c0,0.3-0.3,0.6-0.6,0.6c-0.3,0-0.6-0.3-0.6-0.6
					C296.3,68.8,296.6,68.5,296.9,68.5z"/>
				<path class="st2" d="M312.8,60.4c0.4,0,0.7,0.3,0.7,0.7c0,0.4-0.3,0.7-0.7,0.7s-0.7-0.3-0.7-0.7
					C312.2,60.7,312.5,60.4,312.8,60.4z"/>
				<path class="st2" d="M329.3,53.5c0.4,0,0.8,0.3,0.8,0.7c0,0.4-0.3,0.8-0.7,0.8c-0.4,0-0.8-0.3-0.8-0.7
					C328.6,53.8,328.9,53.5,329.3,53.5z"/>
				<path class="st2" d="M346.2,47.8c0.5,0,0.8,0.4,0.9,0.8c0,0.5-0.4,0.8-0.8,0.9c-0.5,0-0.8-0.4-0.9-0.8
					C345.4,48.2,345.8,47.8,346.2,47.8z"/>
				<path class="st2" d="M363.5,43.4c0.5,0,0.9,0.4,0.9,0.9c0,0.5-0.4,0.9-0.9,0.9c-0.5,0-0.9-0.4-0.9-0.9
					C362.6,43.8,363,43.4,363.5,43.4z"/>
				<path class="st2" d="M381.1,40.3c0.5,0,1,0.4,1,1c0,0.5-0.4,1-1,1c-0.5,0-1-0.4-1-1C380.1,40.7,380.5,40.3,381.1,40.3z"/>
				<path class="st2" d="M398.8,38.4c0.6,0,1.1,0.4,1.1,1c0,0.6-0.4,1.1-1,1.1c-0.6,0-1.1-0.4-1.1-1
					C397.7,38.9,398.2,38.4,398.8,38.4z"/>
				<path class="st2" d="M416.6,37.8c0.6,0,1.2,0.5,1.2,1.1c0,0.6-0.5,1.2-1.1,1.2c-0.6,0-1.2-0.5-1.2-1.1
					C415.5,38.4,416,37.9,416.6,37.8z"/>
				<path class="st2" d="M434.4,38.6c0.7,0,1.2,0.5,1.3,1.2c0,0.7-0.5,1.2-1.2,1.3c-0.7,0-1.2-0.5-1.3-1.2
					C433.2,39.1,433.8,38.6,434.4,38.6z"/>
				<path class="st2" d="M452.1,40.6c0.7,0,1.3,0.5,1.3,1.3c0,0.7-0.5,1.3-1.3,1.3c-0.7,0-1.3-0.5-1.3-1.3
					C450.9,41.2,451.4,40.6,452.1,40.6z"/>
				<path class="st2" d="M469.6,43.9c0.8,0,1.4,0.6,1.4,1.3c0,0.8-0.6,1.4-1.3,1.4c-0.8,0-1.4-0.6-1.4-1.3
					C468.3,44.5,468.9,43.9,469.6,43.9z"/>
				<path class="st2" d="M486.8,48.5c0.8,0,1.5,0.6,1.5,1.4c0,0.8-0.6,1.5-1.4,1.5s-1.5-0.6-1.5-1.4C485.4,49.2,486,48.5,486.8,48.5
					z"/>
				<path class="st2" d="M503.6,54.3c0.8,0,1.5,0.6,1.6,1.5c0,0.8-0.6,1.5-1.5,1.6c-0.8,0-1.5-0.6-1.6-1.5
					C502.1,55,502.8,54.3,503.6,54.3z"/>
				<path class="st2" d="M520,61.4c0.9,0,1.6,0.7,1.6,1.6c0,0.9-0.7,1.6-1.6,1.6s-1.6-0.7-1.6-1.6C518.4,62.1,519.1,61.4,520,61.4z"
					/>
				<path class="st2" d="M535.7,69.6c0.9,0,1.7,0.7,1.7,1.6c0,0.9-0.7,1.7-1.6,1.7c-0.9,0-1.7-0.7-1.7-1.6
					C534.1,70.4,534.8,69.6,535.7,69.6z"/>
				<path class="st2" d="M550.9,78.9c1,0,1.8,0.7,1.8,1.7c0,1-0.7,1.8-1.7,1.8c-1,0-1.8-0.7-1.8-1.7S549.9,79,550.9,78.9z"/>
				<path class="st2" d="M565.3,89.4c1,0,1.9,0.8,1.9,1.8c0,1-0.8,1.9-1.8,1.9c-1,0-1.9-0.8-1.9-1.8
					C563.4,90.2,564.2,89.4,565.3,89.4z"/>
				<path class="st2" d="M578.8,100.9c1,0,1.9,0.8,1.9,1.8c0,1-0.8,1.9-1.8,1.9c-1,0-1.9-0.8-1.9-1.8
					C577,101.7,577.8,100.9,578.8,100.9z"/>
				<path class="st2" d="M591.6,113.3c1.1,0,1.9,0.8,2,1.9c0,1.1-0.8,1.9-1.9,2c-1.1,0-1.9-0.8-2-1.9
					C589.7,114.2,590.5,113.3,591.6,113.3z"/>
				<path class="st2" d="M603.3,126.6c1.1,0,2,0.8,2,1.9c0,1.1-0.8,2-1.9,2c-1.1,0-2-0.8-2-1.9C601.4,127.6,602.3,126.7,603.3,126.6
					z"/>
				<path class="st2" d="M614.1,140.8c1.1,0,2,0.8,2,1.9c0,1.1-0.8,2-1.9,2c-1.1,0-2-0.8-2-1.9C612.2,141.8,613,140.8,614.1,140.8z"
					/>
				<path class="st2" d="M623.8,155.7c1.1,0,2,0.8,2.1,2c0,1.1-0.8,2-2,2.1c-1.1,0-2-0.8-2.1-2C621.8,156.7,622.7,155.8,623.8,155.7
					z"/>
				<path class="st2" d="M632.4,171.3c1.1,0,2.1,0.9,2.1,2c0,1.1-0.9,2.1-2,2.1c-1.1,0-2.1-0.9-2.1-2
					C630.4,172.3,631.3,171.3,632.4,171.3z"/>
				<path class="st2" d="M639.9,187.5c1.1,0,2.1,0.9,2.1,2c0,1.1-0.9,2.1-2,2.1c-1.1,0-2.1-0.9-2.1-2
					C637.8,188.5,638.7,187.5,639.9,187.5z"/>
				<path class="st2" d="M646.1,204.2c1.2,0,2.1,0.9,2.2,2c0,1.2-0.9,2.1-2,2.2c-1.2,0-2.1-0.9-2.2-2
					C644,205.2,644.9,204.2,646.1,204.2z"/>
				<path class="st2" d="M651,221.2c1.2,0,2.2,0.9,2.2,2.1c0,1.2-0.9,2.2-2.1,2.2c-1.2,0-2.2-0.9-2.2-2.1
					C648.9,222.3,649.9,221.3,651,221.2z"/>
				<path class="st2" d="M654.7,238.6c1.2,0,2.2,0.9,2.2,2.1c0,1.2-0.9,2.2-2.1,2.2c-1.2,0-2.2-0.9-2.2-2.1
					C652.6,239.7,653.5,238.7,654.7,238.6z"/>
				<path class="st2" d="M657.1,256.3c1.2,0,2.2,0.9,2.2,2.1c0,1.2-0.9,2.2-2.1,2.2c-1.2,0-2.2-0.9-2.2-2.1
					C655,257.3,655.9,256.3,657.1,256.3z"/>
				<path class="st2" d="M658.3,274c1.2,0,2.2,0.9,2.3,2.2c0,1.2-0.9,2.2-2.2,2.3c-1.2,0-2.2-0.9-2.3-2.2
					C656.1,275.1,657.1,274.1,658.3,274z"/>
				<path class="st2" d="M658.1,291.9c1.2,0,2.2,0.9,2.3,2.1c0,1.2-0.9,2.2-2.1,2.3c-1.2,0-2.2-0.9-2.3-2.1
					C656,292.9,656.9,291.9,658.1,291.9z"/>
				<path class="st2" d="M656.7,309.7c1.2,0,2.2,0.9,2.2,2.1c0,1.2-0.9,2.2-2.1,2.2c-1.2,0-2.2-0.9-2.2-2.1
					C654.6,310.7,655.5,309.7,656.7,309.7z"/>
				<path class="st2" d="M654,327.3c1.2,0,2.2,0.9,2.2,2.1c0,1.2-0.9,2.2-2.1,2.2c-1.2,0-2.2-0.9-2.2-2.1
					C651.9,328.3,652.8,327.4,654,327.3z"/>
				<path class="st2" d="M649.9,344.7c1.2,0,2.1,0.9,2.2,2c0,1.2-0.9,2.1-2,2.2c-1.2,0-2.1-0.9-2.2-2
					C647.9,345.7,648.8,344.8,649.9,344.7z"/>
				<path class="st2" d="M644.7,361.8c1.1,0,2.1,0.9,2.1,2c0,1.1-0.9,2.1-2,2.1c-1.1,0-2.1-0.9-2.1-2
					C642.6,362.8,643.5,361.8,644.7,361.8z"/>
				<path class="st2" d="M638.1,378.4c1.1,0,2.1,0.9,2.1,2c0,1.1-0.9,2.1-2,2.1c-1.1,0-2.1-0.9-2.1-2
					C636.1,379.4,637,378.4,638.1,378.4z"/>
				<path class="st2" d="M630.4,394.5c1.1,0,2,0.8,2.1,2c0,1.1-0.8,2-2,2.1c-1.1,0-2-0.8-2.1-2C628.4,395.5,629.3,394.5,630.4,394.5
					z"/>
				<path class="st2" d="M621.5,410c1.1,0,2,0.8,2,1.9c0,1.1-0.8,2-1.9,2c-1.1,0-2-0.8-2-1.9C619.6,410.9,620.4,410,621.5,410z"/>
				<path class="st2" d="M611.6,424.8c1.1,0,2,0.8,2,1.9c0,1.1-0.8,2-1.9,2c-1.1,0-2-0.8-2-1.9C609.6,425.7,610.5,424.8,611.6,424.8
					z"/>
				<path class="st2" d="M600.5,438.8c1.1,0,1.9,0.8,2,1.9c0,1.1-0.8,1.9-1.9,2c-1.1,0-1.9-0.8-2-1.9
					C598.6,439.7,599.5,438.8,600.5,438.8z"/>
				<path class="st2" d="M588.5,452c1,0,1.9,0.8,1.9,1.8c0,1-0.8,1.9-1.8,1.9c-1,0-1.9-0.8-1.9-1.8C586.7,452.9,587.5,452,588.5,452
					z"/>
				<path class="st2" d="M575.6,464.3c1,0,1.9,0.8,1.9,1.8c0,1-0.8,1.9-1.8,1.9c-1,0-1.9-0.8-1.9-1.8
					C573.8,465.2,574.6,464.3,575.6,464.3z"/>
				<path class="st2" d="M561.8,475.7c1,0,1.8,0.7,1.8,1.7c0,1-0.7,1.8-1.7,1.8c-1,0-1.8-0.7-1.8-1.7
					C560.1,476.5,560.8,475.7,561.8,475.7z"/>
				<path class="st2" d="M547.2,486c0.9,0,1.7,0.7,1.7,1.6c0,0.9-0.7,1.7-1.6,1.7c-0.9,0-1.7-0.7-1.7-1.6
					C545.6,486.8,546.3,486,547.2,486z"/>
				<path class="st2" d="M531.9,495.2c0.9,0,1.6,0.7,1.7,1.6c0,0.9-0.7,1.6-1.6,1.7s-1.6-0.7-1.7-1.6
					C530.4,496,531.1,495.3,531.9,495.2z"/>
				<path class="st2" d="M516,503.3c0.8,0,1.6,0.6,1.6,1.5c0,0.8-0.6,1.6-1.5,1.6c-0.8,0-1.6-0.6-1.6-1.5
					C514.5,504.1,515.2,503.4,516,503.3z"/>
				<path class="st2" d="M499.6,510.3c0.8,0,1.5,0.6,1.5,1.4c0,0.8-0.6,1.5-1.4,1.5c-0.8,0-1.5-0.6-1.5-1.4
					C498.1,510.9,498.8,510.3,499.6,510.3z"/>
				<path class="st2" d="M482.7,515.9c0.8,0,1.4,0.6,1.4,1.3c0,0.8-0.6,1.4-1.3,1.4c-0.8,0-1.4-0.6-1.4-1.3
					C481.3,516.6,481.9,515.9,482.7,515.9z"/>
				<path class="st2" d="M465.4,520.3c0.7,0,1.3,0.5,1.3,1.3s-0.5,1.3-1.3,1.3c-0.7,0-1.3-0.5-1.3-1.3
					C464.1,521,464.7,520.4,465.4,520.3z"/>
				<path class="st2" d="M447.8,523.5c0.7,0,1.2,0.5,1.3,1.2s-0.5,1.2-1.2,1.3s-1.2-0.5-1.3-1.2
					C446.6,524.1,447.1,523.5,447.8,523.5z"/>
				<path class="st2" d="M430.1,525.3c0.6,0,1.2,0.5,1.2,1.1c0,0.6-0.5,1.2-1.1,1.2c-0.6,0-1.2-0.5-1.2-1.1
					C428.9,525.9,429.4,525.4,430.1,525.3z"/>
				<path class="st2" d="M412.3,525.9c0.6,0,1.1,0.5,1.1,1c0,0.6-0.5,1.1-1,1.1c-0.6,0-1.1-0.5-1.1-1
					C411.2,526.4,411.7,525.9,412.3,525.9z"/>
				<path class="st2" d="M394.5,525.2c0.6,0,1,0.4,1,1c0,0.6-0.4,1-1,1c-0.6,0-1-0.4-1-1C393.5,525.7,393.9,525.2,394.5,525.2z"/>
				<path class="st2" d="M376.8,523.2c0.5,0,0.9,0.4,0.9,0.9c0,0.5-0.4,0.9-0.9,0.9c-0.5,0-0.9-0.4-0.9-0.9
					C375.8,523.6,376.2,523.2,376.8,523.2z"/>
				<path class="st2" d="M359.3,519.9c0.5,0,0.9,0.4,0.9,0.8c0,0.5-0.4,0.9-0.8,0.9c-0.5,0-0.9-0.4-0.9-0.8
					C358.4,520.3,358.8,519.9,359.3,519.9z"/>
				<path class="st2" d="M342,515.3c0.4,0,0.8,0.3,0.8,0.7c0,0.4-0.3,0.8-0.7,0.8c-0.4,0-0.8-0.3-0.8-0.7
					C341.3,515.7,341.6,515.3,342,515.3z"/>
				<path class="st2" d="M325.2,509.5c0.4,0,0.7,0.3,0.7,0.7c0,0.4-0.3,0.7-0.7,0.7c-0.4,0-0.7-0.3-0.7-0.7
					C324.5,509.8,324.8,509.5,325.2,509.5z"/>
				<path class="st2" d="M308.9,502.4c0.3,0,0.6,0.3,0.6,0.6c0,0.3-0.3,0.6-0.6,0.6c-0.3,0-0.6-0.3-0.6-0.6
					C308.3,502.7,308.6,502.5,308.9,502.4z"/>
				<path class="st2" d="M293.1,494.2c0.3,0,0.5,0.2,0.6,0.5c0,0.3-0.2,0.5-0.5,0.6c-0.3,0-0.5-0.2-0.6-0.5
					C292.6,494.5,292.8,494.2,293.1,494.2z"/>
				<path class="st2" d="M278,484.9c0.3,0,0.5,0.2,0.5,0.4c0,0.3-0.2,0.5-0.4,0.5c-0.3,0-0.5-0.2-0.5-0.4
					C277.6,485.1,277.8,484.9,278,484.9z"/>
				<path class="st2" d="M263.6,474.4c0.2,0,0.4,0.2,0.4,0.4s-0.2,0.4-0.4,0.4c-0.2,0-0.4-0.2-0.4-0.4
					C263.2,474.6,263.4,474.4,263.6,474.4z"/>
			</g>
			<g>
				<path class="st2" d="M647.1,276.6"/>
				<path class="st2" d="M646.9,294.5C646.9,294.5,646.9,294.5,646.9,294.5C646.9,294.5,646.9,294.5,646.9,294.5
					C646.9,294.5,646.8,294.5,646.9,294.5C646.8,294.5,646.9,294.5,646.9,294.5z"/>
				<path class="st2" d="M645.3,312.2C645.4,312.2,645.4,312.2,645.3,312.2c0.1,0.1,0,0.1,0,0.1
					C645.3,312.3,645.3,312.3,645.3,312.2C645.3,312.2,645.3,312.2,645.3,312.2z"/>
				<path class="st2" d="M642.4,329.7C642.5,329.7,642.5,329.8,642.4,329.7c0.1,0.1,0.1,0.2,0,0.2
					C642.4,329.9,642.3,329.9,642.4,329.7C642.3,329.8,642.4,329.8,642.4,329.7z"/>
				<path class="st2" d="M638.2,347c0.1,0,0.1,0.1,0.1,0.1c0,0.1-0.1,0.1-0.1,0.1c-0.1,0-0.1-0.1-0.1-0.1
					C638.1,347.1,638.1,347,638.2,347z"/>
				<path class="st2" d="M632.6,363.9c0.1,0,0.2,0.1,0.2,0.2c0,0.1-0.1,0.2-0.2,0.2c-0.1,0-0.2-0.1-0.2-0.2
					C632.5,364,632.5,363.9,632.6,363.9z"/>
				<path class="st2" d="M625.8,380.4c0.1,0,0.2,0.1,0.2,0.2c0,0.1-0.1,0.2-0.2,0.2c-0.1,0-0.2-0.1-0.2-0.2
					C625.6,380.5,625.7,380.4,625.8,380.4z"/>
				<path class="st2" d="M617.7,396.2c0.1,0,0.2,0.1,0.2,0.2c0,0.1-0.1,0.2-0.2,0.2c-0.1,0-0.2-0.1-0.2-0.2
					C617.4,396.3,617.5,396.2,617.7,396.2z"/>
				<path class="st2" d="M608.4,411.4c0.1,0,0.3,0.1,0.3,0.2c0,0.1-0.1,0.3-0.2,0.3c-0.1,0-0.3-0.1-0.3-0.2
					C608.1,411.5,608.2,411.4,608.4,411.4z"/>
				<path class="st2" d="M597.9,425.8c0.2,0,0.3,0.1,0.3,0.3c0,0.2-0.1,0.3-0.3,0.3s-0.3-0.1-0.3-0.3
					C597.7,426,597.8,425.8,597.9,425.8z"/>
				<path class="st2" d="M586.4,439.4c0.2,0,0.3,0.1,0.3,0.3c0,0.2-0.1,0.3-0.3,0.3c-0.2,0-0.3-0.1-0.3-0.3
					C586.1,439.6,586.3,439.4,586.4,439.4z"/>
				<path class="st2" d="M573.9,452.1c0.2,0,0.3,0.1,0.4,0.3c0,0.2-0.1,0.3-0.3,0.4c-0.2,0-0.3-0.1-0.4-0.3
					C573.6,452.3,573.7,452.1,573.9,452.1z"/>
				<path class="st2" d="M560.5,463.7c0.2,0,0.4,0.2,0.4,0.4c0,0.2-0.2,0.4-0.4,0.4c-0.2,0-0.4-0.2-0.4-0.4
					C560.1,463.9,560.3,463.7,560.5,463.7z"/>
				<path class="st2" d="M546.2,474.3c0.3,0,0.5,0.2,0.5,0.5c0,0.3-0.2,0.5-0.5,0.5c-0.3,0-0.5-0.2-0.5-0.5
					C545.7,474.6,545.9,474.3,546.2,474.3z"/>
				<path class="st2" d="M531.1,483.8c0.3,0,0.6,0.2,0.6,0.6s-0.2,0.6-0.6,0.6c-0.3,0-0.6-0.2-0.6-0.6
					C530.6,484.1,530.8,483.8,531.1,483.8z"/>
				<path class="st2" d="M515.4,492.1c0.4,0,0.7,0.3,0.7,0.6c0,0.4-0.3,0.7-0.6,0.7c-0.4,0-0.7-0.3-0.7-0.6
					C514.7,492.4,515,492.1,515.4,492.1z"/>
				<path class="st2" d="M499,499.1c0.4,0,0.8,0.3,0.8,0.7c0,0.4-0.3,0.8-0.7,0.8c-0.4,0-0.8-0.3-0.8-0.7
					C498.3,499.4,498.6,499.1,499,499.1z"/>
				<path class="st2" d="M482.2,504.9c0.5,0,0.8,0.3,0.8,0.8s-0.3,0.8-0.8,0.8c-0.5,0-0.8-0.3-0.8-0.8
					C481.4,505.2,481.7,504.9,482.2,504.9z"/>
				<path class="st2" d="M465,509.3c0.5,0,0.9,0.4,0.9,0.9c0,0.5-0.4,0.9-0.9,0.9c-0.5,0-0.9-0.4-0.9-0.9
					C464.1,509.7,464.5,509.3,465,509.3z"/>
				<path class="st2" d="M447.4,512.4c0.5,0,1,0.4,1,1c0,0.5-0.4,1-1,1c-0.5,0-1-0.4-1-1C446.4,512.9,446.9,512.4,447.4,512.4z"/>
				<path class="st2" d="M429.7,514.1c0.6,0,1.1,0.4,1.1,1c0,0.6-0.4,1.1-1,1.1c-0.6,0-1.1-0.4-1.1-1
					C428.6,514.7,429.1,514.2,429.7,514.1z"/>
				<path class="st2" d="M411.8,514.6c0.6,0,1.2,0.5,1.2,1.1c0,0.6-0.5,1.2-1.1,1.2c-0.6,0-1.2-0.5-1.2-1.1
					C410.7,515.1,411.2,514.6,411.8,514.6z"/>
				<path class="st2" d="M394,513.6c0.7,0,1.2,0.5,1.3,1.2c0,0.7-0.5,1.2-1.2,1.3c-0.7,0-1.2-0.5-1.3-1.2
					C392.8,514.2,393.3,513.6,394,513.6z"/>
				<path class="st2" d="M376.3,511.3c0.7,0,1.3,0.5,1.3,1.3c0,0.7-0.5,1.3-1.3,1.3c-0.7,0-1.3-0.5-1.3-1.3
					C375,511.9,375.6,511.3,376.3,511.3z"/>
				<path class="st2" d="M358.9,507.7c0.8,0,1.4,0.6,1.4,1.3c0,0.8-0.6,1.4-1.3,1.4c-0.8,0-1.4-0.6-1.4-1.3
					C357.5,508.3,358.1,507.7,358.9,507.7z"/>
				<path class="st2" d="M341.7,502.7c0.8,0,1.5,0.6,1.5,1.4s-0.6,1.5-1.4,1.5c-0.8,0-1.5-0.6-1.5-1.4
					C340.3,503.4,340.9,502.7,341.7,502.7z"/>
				<path class="st2" d="M325,496.4c0.9,0,1.6,0.7,1.6,1.5c0,0.9-0.6,1.6-1.5,1.6c-0.9,0-1.6-0.7-1.6-1.5
					C323.5,497.1,324.2,496.4,325,496.4z"/>
				<path class="st2" d="M308.8,488.8c0.9,0,1.6,0.7,1.7,1.6c0,0.9-0.7,1.6-1.6,1.7c-0.9,0-1.6-0.7-1.7-1.6
					C307.2,489.6,307.9,488.8,308.8,488.8z"/>
				<path class="st2" d="M293.3,480c0.9,0,1.7,0.7,1.8,1.7c0,0.9-0.7,1.7-1.7,1.8c-0.9,0-1.7-0.7-1.8-1.7
					C291.6,480.8,292.3,480.1,293.3,480z"/>
				<path class="st2" d="M230.8,138c1.1,0,2,0.8,2,1.9c0,1.1-0.8,2-1.9,2s-2-0.8-2-1.9C228.9,138.9,229.8,138,230.8,138z"/>
				<path class="st2" d="M242.3,124.4c1.1,0,1.9,0.8,2,1.9c0,1.1-0.8,1.9-1.9,2c-1.1,0-1.9-0.8-2-1.9
					C240.4,125.3,241.3,124.4,242.3,124.4z"/>
				<path class="st2" d="M254.8,111.7c1,0,1.9,0.8,1.9,1.8c0,1-0.8,1.9-1.8,1.9c-1,0-1.9-0.8-1.9-1.8
					C253,112.6,253.8,111.7,254.8,111.7z"/>
				<path class="st2" d="M268.3,100c1,0,1.8,0.8,1.9,1.8c0,1-0.8,1.8-1.8,1.9c-1,0-1.8-0.8-1.9-1.8
					C266.5,100.9,267.3,100.1,268.3,100z"/>
				<path class="st2" d="M282.5,89.5c1,0,1.7,0.7,1.8,1.7c0,1-0.7,1.7-1.7,1.8c-1,0-1.7-0.7-1.8-1.7
					C280.8,90.3,281.6,89.5,282.5,89.5z"/>
				<path class="st2" d="M297.6,80c0.9,0,1.7,0.7,1.7,1.6c0,0.9-0.7,1.7-1.6,1.7c-0.9,0-1.7-0.7-1.7-1.6C296,80.8,296.7,80,297.6,80
					z"/>
				<path class="st2" d="M313.4,71.7c0.9,0,1.6,0.7,1.6,1.5c0,0.9-0.7,1.6-1.5,1.6c-0.9,0-1.6-0.7-1.6-1.5
					C311.8,72.5,312.5,71.7,313.4,71.7z"/>
				<path class="st2" d="M329.7,64.7c0.8,0,1.5,0.6,1.5,1.4c0,0.8-0.6,1.5-1.4,1.5c-0.8,0-1.5-0.6-1.5-1.4
					C328.2,65.4,328.9,64.7,329.7,64.7z"/>
				<path class="st2" d="M346.5,58.9c0.8,0,1.4,0.6,1.4,1.4c0,0.8-0.6,1.4-1.4,1.4s-1.4-0.6-1.4-1.4
					C345.2,59.6,345.8,58.9,346.5,58.9z"/>
				<path class="st2" d="M363.8,54.5c0.7,0,1.3,0.6,1.4,1.3c0,0.7-0.6,1.3-1.3,1.4c-0.7,0-1.3-0.6-1.4-1.3
					C362.5,55.1,363.1,54.5,363.8,54.5z"/>
				<path class="st2" d="M381.3,51.4c0.7,0,1.3,0.5,1.3,1.2c0,0.7-0.5,1.3-1.2,1.3c-0.7,0-1.3-0.5-1.3-1.2
					C380.1,52,380.7,51.4,381.3,51.4z"/>
				<path class="st2" d="M399.1,49.6c0.6,0,1.2,0.5,1.2,1.1c0,0.6-0.5,1.2-1.1,1.2c-0.6,0-1.2-0.5-1.2-1.1
					C397.9,50.2,398.4,49.6,399.1,49.6z"/>
				<path class="st2" d="M416.9,49.2c0.6,0,1.1,0.5,1.1,1c0,0.6-0.5,1.1-1,1.1c-0.6,0-1.1-0.5-1.1-1
					C415.8,49.7,416.3,49.2,416.9,49.2z"/>
				<path class="st2" d="M434.7,50.1c0.5,0,1,0.4,1,1c0,0.5-0.4,1-1,1c-0.5,0-1-0.4-1-1C433.7,50.6,434.2,50.2,434.7,50.1z"/>
				<path class="st2" d="M452.4,52.4c0.5,0,0.9,0.4,0.9,0.9c0,0.5-0.4,0.9-0.9,0.9c-0.5,0-0.9-0.4-0.9-0.9
					C451.5,52.9,451.9,52.5,452.4,52.4z"/>
				<path class="st2" d="M469.9,56.1c0.5,0,0.8,0.3,0.9,0.8c0,0.5-0.4,0.8-0.8,0.9c-0.5,0-0.8-0.4-0.9-0.8
					C469.1,56.5,469.4,56.1,469.9,56.1z"/>
				<path class="st2" d="M487,61.1c0.4,0,0.8,0.3,0.8,0.7c0,0.4-0.3,0.8-0.7,0.8c-0.4,0-0.8-0.3-0.8-0.7
					C486.3,61.4,486.6,61.1,487,61.1z"/>
				<path class="st2" d="M503.7,67.4c0.4,0,0.7,0.3,0.7,0.7s-0.3,0.7-0.7,0.7c-0.4,0-0.7-0.3-0.7-0.7
					C503.1,67.7,503.4,67.4,503.7,67.4z"/>
				<path class="st2" d="M519.9,74.9c0.3,0,0.6,0.2,0.6,0.6c0,0.3-0.2,0.6-0.6,0.6c-0.3,0-0.6-0.2-0.6-0.6
					C519.3,75.2,519.6,74.9,519.9,74.9z"/>
				<path class="st2" d="M535.5,83.7c0.3,0,0.5,0.2,0.5,0.5c0,0.3-0.2,0.5-0.5,0.5c-0.3,0-0.5-0.2-0.5-0.5
					C535,83.9,535.2,83.7,535.5,83.7z"/>
				<path class="st2" d="M550.3,93.6c0.2,0,0.4,0.2,0.4,0.4c0,0.2-0.2,0.4-0.4,0.4c-0.2,0-0.4-0.2-0.4-0.4
					C549.9,93.8,550.1,93.7,550.3,93.6z"/>
				<path class="st2" d="M564.4,104.7c0.2,0,0.4,0.1,0.4,0.3s-0.1,0.4-0.3,0.4c-0.2,0-0.4-0.1-0.4-0.3
					C564,104.9,564.2,104.7,564.4,104.7z"/>
				<path class="st2" d="M577.6,116.7c0.2,0,0.3,0.1,0.3,0.3c0,0.2-0.1,0.3-0.3,0.3c-0.2,0-0.3-0.1-0.3-0.3
					C577.3,116.9,577.4,116.7,577.6,116.7z"/>
				<path class="st2" d="M589.8,129.7c0.2,0,0.3,0.1,0.3,0.3c0,0.2-0.1,0.3-0.3,0.3c-0.2,0-0.3-0.1-0.3-0.3
					C589.5,129.9,589.6,129.7,589.8,129.7z"/>
				<path class="st2" d="M601,143.6c0.1,0,0.3,0.1,0.3,0.2c0,0.1-0.1,0.3-0.2,0.3c-0.1,0-0.3-0.1-0.3-0.2
					C600.8,143.7,600.9,143.6,601,143.6z"/>
				<path class="st2" d="M611.1,158.3c0.1,0,0.2,0.1,0.2,0.2c0,0.1-0.1,0.2-0.2,0.2c-0.1,0-0.2-0.1-0.2-0.2
					C610.9,158.4,611,158.3,611.1,158.3z"/>
				<path class="st2" d="M620.1,173.8c0.1,0,0.2,0.1,0.2,0.2c0,0.1-0.1,0.2-0.2,0.2c-0.1,0-0.2-0.1-0.2-0.2
					C619.9,173.9,620,173.8,620.1,173.8z"/>
				<path class="st2" d="M627.8,189.9c0.1,0,0.2,0.1,0.2,0.2c0,0.1-0.1,0.2-0.2,0.2c-0.1,0-0.2-0.1-0.2-0.2
					C627.7,190,627.8,189.9,627.8,189.9z"/>
				<path class="st2" d="M634.3,206.5c0.1,0,0.1,0.1,0.1,0.1c0,0.1-0.1,0.1-0.1,0.1c-0.1,0-0.1-0.1-0.1-0.1
					C634.2,206.6,634.3,206.5,634.3,206.5z"/>
				<path class="st2" d="M639.5,223.6C639.6,223.6,639.6,223.6,639.5,223.6c0.1,0.1,0.1,0.2,0,0.2
					C639.5,223.8,639.4,223.7,639.5,223.6C639.4,223.6,639.5,223.6,639.5,223.6z"/>
				<path class="st2" d="M643.4,241C643.4,241,643.4,241.1,643.4,241c0.1,0.1,0,0.1,0,0.1S643.3,241.1,643.4,241
					C643.3,241.1,643.3,241,643.4,241z"/>
				<path class="st2" d="M645.9,258.7C645.9,258.7,645.9,258.7,645.9,258.7C645.9,258.8,645.9,258.8,645.9,258.7
					C645.9,258.8,645.9,258.8,645.9,258.7C645.9,258.7,645.9,258.7,645.9,258.7z"/>
			</g>
			<g>
				<path class="st2" d="M244.7,140.4c0.2,0,0.3,0.1,0.3,0.3c0,0.2-0.1,0.3-0.3,0.3c-0.2,0-0.3-0.1-0.3-0.3
					C244.4,140.6,244.6,140.4,244.7,140.4z"/>
				<path class="st2" d="M256.7,127.2c0.2,0,0.3,0.1,0.3,0.3c0,0.2-0.1,0.3-0.3,0.3c-0.2,0-0.3-0.1-0.3-0.3
					C256.4,127.4,256.5,127.2,256.7,127.2z"/>
				<path class="st2" d="M269.7,115c0.2,0,0.4,0.2,0.4,0.4c0,0.2-0.2,0.4-0.4,0.4c-0.2,0-0.4-0.2-0.4-0.4
					C269.4,115.1,269.5,115,269.7,115z"/>
				<path class="st2" d="M283.7,103.8c0.3,0,0.5,0.2,0.5,0.5c0,0.3-0.2,0.5-0.5,0.5c-0.3,0-0.5-0.2-0.5-0.5
					C283.2,104,283.4,103.8,283.7,103.8z"/>
				<path class="st2" d="M298.5,93.7c0.3,0,0.6,0.2,0.6,0.5c0,0.3-0.2,0.6-0.5,0.6c-0.3,0-0.6-0.2-0.6-0.5
					C297.9,94,298.2,93.7,298.5,93.7z"/>
				<path class="st2" d="M314,84.9c0.4,0,0.6,0.3,0.7,0.6c0,0.4-0.3,0.6-0.6,0.7c-0.4,0-0.6-0.3-0.7-0.6
					C313.4,85.2,313.7,84.9,314,84.9z"/>
				<path class="st2" d="M330.2,77.4c0.4,0,0.7,0.3,0.7,0.7c0,0.4-0.3,0.7-0.7,0.7c-0.4,0-0.7-0.3-0.7-0.7
					C329.5,77.7,329.8,77.4,330.2,77.4z"/>
				<path class="st2" d="M347,71.2c0.4,0,0.8,0.3,0.8,0.8c0,0.4-0.3,0.8-0.8,0.8c-0.4,0-0.8-0.3-0.8-0.8
					C346.2,71.6,346.6,71.2,347,71.2z"/>
				<path class="st2" d="M364.2,66.4c0.5,0,0.9,0.4,0.9,0.9c0,0.5-0.4,0.9-0.9,0.9c-0.5,0-0.9-0.4-0.9-0.9
					C363.3,66.8,363.7,66.4,364.2,66.4z"/>
				<path class="st2" d="M381.7,63c0.5,0,1,0.4,1,1c0,0.5-0.4,1-1,1c-0.5,0-1-0.4-1-1C380.7,63.4,381.2,63,381.7,63z"/>
				<path class="st2" d="M399.4,61c0.6,0,1.1,0.4,1.1,1c0,0.6-0.4,1.1-1,1.1c-0.6,0-1.1-0.4-1.1-1C398.4,61.5,398.9,61,399.4,61z"/>
				<path class="st2" d="M417.3,60.4c0.6,0,1.2,0.5,1.2,1.1c0,0.6-0.5,1.2-1.1,1.2c-0.6,0-1.2-0.5-1.2-1.1
					C416.1,61,416.6,60.4,417.3,60.4z"/>
				<path class="st2" d="M435.1,61.3c0.7,0,1.2,0.5,1.3,1.2c0,0.7-0.5,1.2-1.2,1.3s-1.2-0.5-1.3-1.2
					C433.9,61.9,434.4,61.3,435.1,61.3z"/>
				<path class="st2" d="M452.8,63.5c0.7,0,1.3,0.6,1.4,1.3c0,0.7-0.6,1.3-1.3,1.4c-0.7,0-1.3-0.6-1.4-1.3
					C451.5,64.2,452,63.6,452.8,63.5z"/>
				<path class="st2" d="M470.2,67.2c0.8,0,1.4,0.6,1.4,1.4c0,0.8-0.6,1.4-1.4,1.4c-0.8,0-1.4-0.6-1.4-1.4
					C468.8,67.9,469.4,67.3,470.2,67.2z"/>
				<path class="st2" d="M487.2,72.3c0.8,0,1.5,0.6,1.5,1.4c0,0.8-0.6,1.5-1.4,1.5c-0.8,0-1.5-0.6-1.5-1.4
					C485.8,73,486.4,72.4,487.2,72.3z"/>
				<path class="st2" d="M503.8,78.8c0.9,0,1.6,0.7,1.6,1.5c0,0.9-0.7,1.6-1.5,1.6c-0.9,0-1.6-0.7-1.6-1.5
					C502.3,79.5,503,78.8,503.8,78.8z"/>
				<path class="st2" d="M519.8,86.6c0.9,0,1.7,0.7,1.7,1.6c0,0.9-0.7,1.7-1.6,1.7c-0.9,0-1.7-0.7-1.7-1.6
					C518.2,87.4,518.9,86.6,519.8,86.6z"/>
				<path class="st2" d="M535.1,95.6c1,0,1.8,0.7,1.8,1.7c0,1-0.7,1.8-1.7,1.8c-1,0-1.8-0.7-1.8-1.7
					C533.4,96.5,534.2,95.7,535.1,95.6z"/>
				<path class="st2" d="M549.7,105.9c1,0,1.8,0.8,1.9,1.8c0,1-0.8,1.8-1.8,1.9c-1,0-1.8-0.8-1.9-1.8
					C547.9,106.7,548.7,105.9,549.7,105.9z"/>
				<path class="st2" d="M563.3,117.3c1,0,1.9,0.8,1.9,1.8c0,1-0.8,1.9-1.8,1.9c-1,0-1.9-0.8-1.9-1.8
					C561.5,118.2,562.3,117.3,563.3,117.3z"/>
				<path class="st2" d="M576,129.8c1.1,0,1.9,0.8,2,1.9c0,1.1-0.8,1.9-1.9,2c-1.1,0-1.9-0.8-2-1.9C574.1,130.7,575,129.8,576,129.8
					z"/>
				<path class="st2" d="M587.7,143.2c1.1,0,2,0.8,2,1.9c0,1.1-0.8,2-1.9,2c-1.1,0-2-0.8-2-1.9C585.8,144.1,586.6,143.2,587.7,143.2
					z"/>
				<path class="st2" d="M598.2,157.6c1.1,0,2,0.8,2,1.9c0,1.1-0.8,2-1.9,2c-1.1,0-2-0.8-2-1.9C596.3,158.5,597.1,157.6,598.2,157.6
					z"/>
				<path class="st2" d="M607.6,172.7c1.1,0,2,0.8,2.1,2c0,1.1-0.8,2-2,2.1c-1.1,0-2-0.8-2.1-2C605.6,173.7,606.5,172.7,607.6,172.7
					z"/>
				<path class="st2" d="M615.7,188.6c1.1,0,2.1,0.9,2.1,2c0,1.1-0.9,2.1-2,2.1c-1.1,0-2.1-0.9-2.1-2
					C613.7,189.6,614.6,188.6,615.7,188.6z"/>
				<path class="st2" d="M622.5,205c1.2,0,2.1,0.9,2.1,2c0,1.2-0.9,2.1-2,2.1c-1.2,0-2.1-0.9-2.1-2C620.4,206,621.3,205.1,622.5,205
					z"/>
				<path class="st2" d="M627.9,222c1.2,0,2.1,0.9,2.2,2.1c0,1.2-0.9,2.1-2.1,2.2c-1.2,0-2.1-0.9-2.2-2.1S626.7,222,627.9,222z"/>
				<path class="st2" d="M631.9,239.3c1.2,0,2.2,0.9,2.2,2.1c0,1.2-0.9,2.2-2.1,2.2c-1.2,0-2.2-0.9-2.2-2.1
					C629.8,240.3,630.7,239.4,631.9,239.3z"/>
				<path class="st2" d="M634.5,256.9c1.2,0,2.2,0.9,2.2,2.1c0,1.2-0.9,2.2-2.1,2.2s-2.2-0.9-2.2-2.1
					C632.4,258,633.3,257,634.5,256.9z"/>
				<path class="st2" d="M635.7,274.7c1.2,0,2.2,0.9,2.3,2.2c0,1.2-0.9,2.2-2.2,2.3c-1.2,0-2.2-0.9-2.3-2.2
					C633.5,275.7,634.5,274.7,635.7,274.7z"/>
				<path class="st2" d="M635.5,292.6c1.2,0,2.2,0.9,2.3,2.1c0,1.2-0.9,2.2-2.1,2.3c-1.2,0-2.2-0.9-2.3-2.1
					C633.3,293.6,634.3,292.6,635.5,292.6z"/>
				<path class="st2" d="M633.9,310.4c1.2,0,2.2,0.9,2.2,2.1c0,1.2-0.9,2.2-2.1,2.2c-1.2,0-2.2-0.9-2.2-2.1
					C631.7,311.4,632.7,310.4,633.9,310.4z"/>
				<path class="st2" d="M630.8,328c1.2,0,2.2,0.9,2.2,2.1c0,1.2-0.9,2.2-2.1,2.2c-1.2,0-2.2-0.9-2.2-2.1
					C628.7,329,629.6,328,630.8,328z"/>
				<path class="st2" d="M626.3,345.3c1.2,0,2.1,0.9,2.1,2c0,1.2-0.9,2.1-2,2.1c-1.2,0-2.1-0.9-2.1-2
					C624.2,346.2,625.2,345.3,626.3,345.3z"/>
				<path class="st2" d="M620.4,362.1c1.1,0,2.1,0.9,2.1,2c0,1.1-0.9,2.1-2,2.1c-1.1,0-2.1-0.9-2.1-2
					C618.4,363.1,619.3,362.2,620.4,362.1z"/>
				<path class="st2" d="M613.2,378.5c1.1,0,2,0.9,2.1,2s-0.9,2-2,2.1c-1.1,0-2-0.9-2.1-2C611.2,379.4,612.1,378.5,613.2,378.5z"/>
				<path class="st2" d="M604.7,394.2c1.1,0,2,0.8,2,1.9c0,1.1-0.8,2-1.9,2c-1.1,0-2-0.8-2-1.9C602.8,395.1,603.6,394.2,604.7,394.2
					z"/>
				<path class="st2" d="M595,409.2c1.1,0,2,0.8,2,1.9c0,1.1-0.8,2-1.9,2c-1.1,0-2-0.8-2-1.9C593.1,410.1,593.9,409.2,595,409.2z"/>
				<path class="st2" d="M584.1,423.3c1.1,0,1.9,0.8,2,1.9c0,1.1-0.8,1.9-1.9,2c-1.1,0-1.9-0.8-2-1.9
					C582.2,424.2,583,423.3,584.1,423.3z"/>
				<path class="st2" d="M572.1,436.5c1,0,1.9,0.8,1.9,1.8c0,1-0.8,1.9-1.8,1.9c-1,0-1.9-0.8-1.9-1.8
					C570.2,437.4,571.1,436.5,572.1,436.5z"/>
				<path class="st2" d="M559.1,448.8c1,0,1.9,0.8,1.9,1.8c0,1-0.8,1.9-1.8,1.9c-1,0-1.9-0.8-1.9-1.8
					C557.3,449.6,558.1,448.8,559.1,448.8z"/>
				<path class="st2" d="M545.1,460c1,0,1.8,0.7,1.8,1.7c0,1-0.7,1.8-1.7,1.8s-1.8-0.7-1.8-1.7C543.4,460.8,544.2,460,545.1,460z"/>
				<path class="st2" d="M530.3,470c0.9,0,1.7,0.7,1.7,1.6c0,0.9-0.7,1.7-1.6,1.7c-0.9,0-1.7-0.7-1.7-1.6
					C528.7,470.8,529.4,470,530.3,470z"/>
				<path class="st2" d="M514.8,478.8c0.9,0,1.6,0.7,1.6,1.5c0,0.9-0.7,1.6-1.5,1.6c-0.9,0-1.6-0.7-1.6-1.5
					C513.2,479.6,513.9,478.8,514.8,478.8z"/>
				<path class="st2" d="M498.6,486.4c0.8,0,1.5,0.6,1.5,1.5c0,0.8-0.6,1.5-1.5,1.5c-0.8,0-1.5-0.6-1.5-1.5
					C497.1,487.1,497.8,486.4,498.6,486.4z"/>
				<path class="st2" d="M481.8,492.5c0.8,0,1.4,0.6,1.5,1.4c0,0.8-0.6,1.4-1.4,1.5c-0.8,0-1.4-0.6-1.5-1.4
					C480.4,493.2,481.1,492.6,481.8,492.5z"/>
				<path class="st2" d="M464.7,497.4c0.7,0,1.3,0.6,1.4,1.3c0,0.7-0.6,1.3-1.3,1.4c-0.7,0-1.3-0.6-1.4-1.3
					C463.3,498,463.9,497.4,464.7,497.4z"/>
				<path class="st2" d="M447.1,500.8c0.7,0,1.3,0.5,1.3,1.2c0,0.7-0.5,1.3-1.2,1.3s-1.3-0.5-1.3-1.2S446.4,500.8,447.1,500.8z"/>
				<path class="st2" d="M429.4,502.8c0.6,0,1.2,0.5,1.2,1.1c0,0.6-0.5,1.2-1.1,1.2c-0.6,0-1.2-0.5-1.2-1.1
					C428.3,503.3,428.8,502.8,429.4,502.8z"/>
				<path class="st2" d="M411.6,503.3c0.6,0,1.1,0.5,1.1,1c0,0.6-0.5,1.1-1,1.1c-0.6,0-1.1-0.5-1.1-1
					C410.5,503.8,411,503.3,411.6,503.3z"/>
				<path class="st2" d="M393.8,502.5c0.5,0,1,0.4,1,1c0,0.5-0.4,1-1,1c-0.5,0-1-0.4-1-1C392.8,503,393.2,502.5,393.8,502.5z"/>
				<path class="st2" d="M376.1,500.2c0.5,0,0.9,0.4,0.9,0.9c0,0.5-0.4,0.9-0.9,0.9c-0.5,0-0.9-0.4-0.9-0.9
					C375.2,500.6,375.6,500.2,376.1,500.2z"/>
				<path class="st2" d="M358.7,496.5c0.5,0,0.8,0.3,0.8,0.8c0,0.5-0.3,0.8-0.8,0.8c-0.5,0-0.8-0.3-0.8-0.8
					C357.8,496.9,358.2,496.5,358.7,496.5z"/>
				<path class="st2" d="M341.6,491.4c0.4,0,0.7,0.3,0.8,0.7c0,0.4-0.3,0.7-0.7,0.8c-0.4,0-0.7-0.3-0.8-0.7
					C340.9,491.8,341.2,491.4,341.6,491.4z"/>
				<path class="st2" d="M325,485c0.4,0,0.7,0.3,0.7,0.6c0,0.4-0.3,0.7-0.6,0.7c-0.4,0-0.7-0.3-0.7-0.6
					C324.4,485.3,324.6,485,325,485z"/>
			</g>
		</g>
	</g>
	<path class="st3" d="M85.7,76.3c0-2.5,2-4.5,4.5-4.5s4.5,2,4.5,4.5s-2,4.5-4.5,4.5S85.7,78.8,85.7,76.3z"/>
	
		<linearGradient id="SVGID_1_" gradientUnits="userSpaceOnUse" x1="-378.1744" y1="4646.3379" x2="-378.1744" y2="4646.3379" gradientTransform="matrix(-1 0 0 -1 -128.9234 4776.6069)">
		<stop  offset="0" style="stop-color:#0D52A0"/>
		<stop  offset="1" style="stop-color:#1374BB"/>
	</linearGradient>
	<path class="st4" d="M249.3,130.3"/>
	<circle class="st3" cx="81.2" cy="448" r="4.5"/>
</g>
</svg>
