<?xml version="1.0" encoding="utf-8"?>
<!-- Generator: Adobe Illustrator 26.5.0, SVG Export Plug-In . SVG Version: 6.00 Build 0)  -->
<svg version="1.1" id="Layer_1" xmlns="http://www.w3.org/2000/svg" xmlns:xlink="http://www.w3.org/1999/xlink" x="0px" y="0px"
	 viewBox="0 0 787.7 566.9" style="enable-background:new 0 0 787.7 566.9;" xml:space="preserve">
<style type="text/css">
	.st0{fill:none;stroke:#F3911B;stroke-width:0.3924;stroke-miterlimit:10;}
	.st1{fill:none;stroke:#F3911B;stroke-width:0.4097;stroke-miterlimit:10;}
	.st2{fill:#2571B8;}
	.st3{fill:#F3911B;}
	.st4{fill:url(#SVGID_1_);}
</style>
<g>
	<path class="st0" d="M538.9,531.5c-73.3,0-133-46-206.2-36.3c-68.6,9-133.1,51.2-200.9,44.6c-16.7-1.6-31.7-7.1-44.9-15.2
		c-28.5-17.7-47.7-48-54-79.5c-3.5-17.6-3.4-35-1.5-52.2c6.4-59,17.3-120.6,47.1-173.4C149.9,93.1,302.7,24.6,443.7,39.1
		c15.9,1.6,31.7,4.1,47.3,7.3c215.8,44.1,252,199.5,262.7,266.9C775.3,449,705.2,531.5,538.9,531.5z"/>
	<path class="st1" d="M86,429.6c-4.1-17.3-4.3-35.7-4-53.1c0.7-47.7,12-94.9,32.6-137.9c33.4-69.8,90.1-127.8,157.2-165.9
		c244.5-139.2,665.8,54.6,398.5,334.2c-109,114.1-276.1,12-427.7,101.4c-31.5,18.6-68.3,17.5-98.9-2.3
		c-21.4-13.8-39.8-34.1-50.9-57.1C89.7,442.7,87.6,436.3,86,429.6z"/>
	<circle class="st2" cx="706.9" cy="118.9" r="4.5"/>
	<g>
		<g>
			<g>
				<path class="st3" d="M118.5,290.8"/>
				<path class="st3" d="M118.6,273C118.6,273,118.6,273,118.6,273C118.6,273,118.6,273,118.6,273C118.6,273,118.7,273,118.6,273
					C118.7,273,118.6,273,118.6,273z"/>
				<path class="st3" d="M120,255.3C120,255.3,119.9,255.3,120,255.3c-0.1-0.1,0-0.1,0-0.1C120,255.2,120,255.2,120,255.3
					C120,255.3,120,255.3,120,255.3z"/>
				<path class="st3" d="M122.6,237.7C122.5,237.7,122.5,237.6,122.6,237.7c-0.1-0.1-0.1-0.2,0-0.2
					C122.6,237.5,122.7,237.5,122.6,237.7C122.7,237.6,122.6,237.7,122.6,237.7z"/>
				<path class="st3" d="M126.4,220.3c-0.1,0-0.1,0-0.1-0.1c0-0.1,0-0.1,0.1-0.1c0.1,0,0.1,0,0.1,0.1
					C126.5,220.3,126.5,220.3,126.4,220.3z"/>
				<path class="st3" d="M131.5,203.2c-0.1,0-0.1-0.1-0.1-0.1c0-0.1,0.1-0.1,0.1-0.1s0.1,0.1,0.1,0.1
					C131.6,203.2,131.5,203.2,131.5,203.2z"/>
				<path class="st3" d="M137.7,186.6c-0.1,0-0.2-0.1-0.2-0.2c0-0.1,0.1-0.2,0.2-0.2c0.1,0,0.2,0.1,0.2,0.2
					C137.9,186.5,137.8,186.6,137.7,186.6z"/>
				<path class="st3" d="M145.1,170.4c-0.1,0-0.2-0.1-0.2-0.2c0-0.1,0.1-0.2,0.2-0.2c0.1,0,0.2,0.1,0.2,0.2
					C145.3,170.3,145.2,170.4,145.1,170.4z"/>
				<path class="st3" d="M153.6,154.7c-0.1,0-0.2-0.1-0.2-0.2c0-0.1,0.1-0.2,0.2-0.2c0.1,0,0.2,0.1,0.2,0.2
					C153.8,154.6,153.7,154.7,153.6,154.7z"/>
				<path class="st3" d="M163.1,139.7c-0.1,0-0.3-0.1-0.3-0.3c0-0.1,0.1-0.3,0.3-0.3c0.1,0,0.3,0.1,0.3,0.3
					C163.4,139.6,163.3,139.7,163.1,139.7z"/>
				<path class="st3" d="M173.7,125.4c-0.2,0-0.3-0.1-0.3-0.3c0-0.2,0.1-0.3,0.3-0.3c0.2,0,0.3,0.1,0.3,0.3
					C174,125.3,173.9,125.4,173.7,125.4z"/>
				<path class="st3" d="M185.3,111.9c-0.2,0-0.3-0.1-0.3-0.3c0-0.2,0.1-0.3,0.3-0.3c0.2,0,0.3,0.1,0.3,0.3
					C185.6,111.8,185.5,111.9,185.3,111.9z"/>
				<path class="st3" d="M197.8,99.2c-0.2,0-0.3-0.1-0.4-0.3c0-0.2,0.1-0.3,0.3-0.4c0.2,0,0.3,0.1,0.4,0.3
					C198.1,99.1,198,99.2,197.8,99.2z"/>
				<path class="st3" d="M211.1,87.5c-0.2,0-0.4-0.2-0.4-0.4c0-0.2,0.2-0.4,0.4-0.4c0.2,0,0.4,0.2,0.4,0.4
					C211.5,87.3,211.3,87.4,211.1,87.5z"/>
				<path class="st3" d="M225.2,76.6c-0.3,0-0.5-0.2-0.5-0.5c0-0.3,0.2-0.5,0.5-0.5c0.3,0,0.5,0.2,0.5,0.5
					C225.7,76.4,225.5,76.6,225.2,76.6z"/>
				<path class="st3" d="M240.1,66.9c-0.3,0-0.6-0.2-0.6-0.5c0-0.3,0.2-0.6,0.5-0.6c0.3,0,0.6,0.2,0.6,0.5
					C240.6,66.6,240.4,66.8,240.1,66.9z"/>
				<path class="st3" d="M255.6,58.1c-0.3,0-0.6-0.3-0.6-0.6c0-0.3,0.3-0.6,0.6-0.6c0.3,0,0.6,0.3,0.6,0.6
					C256.2,57.8,255.9,58.1,255.6,58.1z"/>
				<path class="st3" d="M271.7,50.5c-0.4,0-0.7-0.3-0.7-0.7c0-0.4,0.3-0.7,0.7-0.7c0.4,0,0.7,0.3,0.7,0.7
					C272.4,50.2,272,50.5,271.7,50.5z"/>
				<path class="st3" d="M288.2,44c-0.4,0-0.8-0.3-0.8-0.8c0-0.4,0.3-0.8,0.8-0.8c0.4,0,0.8,0.3,0.8,0.8C289,43.7,288.7,44,288.2,44
					z"/>
				<path class="st3" d="M305.2,38.7c-0.5,0-0.9-0.4-0.9-0.8c0-0.5,0.4-0.9,0.8-0.9c0.5,0,0.9,0.4,0.9,0.8
					C306.1,38.3,305.7,38.7,305.2,38.7z"/>
				<path class="st3" d="M322.6,34.6c-0.5,0-0.9-0.4-0.9-0.9c0-0.5,0.4-0.9,0.9-0.9c0.5,0,0.9,0.4,0.9,0.9
					C323.5,34.2,323.1,34.6,322.6,34.6z"/>
				<path class="st3" d="M340.1,31.8c-0.5,0-1-0.4-1-1c0-0.5,0.4-1,1-1c0.5,0,1,0.4,1,1C341.1,31.3,340.7,31.8,340.1,31.8z"/>
				<path class="st3" d="M357.9,30.1c-0.6,0-1.1-0.4-1.1-1c0-0.6,0.4-1.1,1-1.1c0.6,0,1.1,0.4,1.1,1
					C358.9,29.6,358.5,30.1,357.9,30.1z"/>
				<path class="st3" d="M375.7,29.7c-0.6,0-1.2-0.5-1.2-1.1c0-0.6,0.5-1.2,1.1-1.2c0.6,0,1.2,0.5,1.2,1.1
					C376.8,29.2,376.3,29.7,375.7,29.7z"/>
				<path class="st3" d="M393.5,30.5c-0.7,0-1.2-0.5-1.2-1.2c0-0.7,0.5-1.2,1.2-1.2c0.7,0,1.2,0.5,1.2,1.2
					C394.7,30,394.2,30.5,393.5,30.5z"/>
				<path class="st3" d="M411.2,32.6c-0.7,0-1.3-0.5-1.3-1.3c0-0.7,0.5-1.3,1.3-1.3c0.7,0,1.3,0.5,1.3,1.3
					C412.5,32,411.9,32.6,411.2,32.6z"/>
				<path class="st3" d="M428.8,35.9c-0.8,0-1.4-0.6-1.4-1.3c0-0.8,0.6-1.4,1.3-1.4c0.8,0,1.4,0.6,1.4,1.3
					C430.1,35.2,429.5,35.9,428.8,35.9z"/>
				<path class="st3" d="M446,40.4c-0.8,0-1.5-0.6-1.5-1.4c0-0.8,0.6-1.5,1.4-1.5c0.8,0,1.5,0.6,1.5,1.4
					C447.4,39.7,446.8,40.4,446,40.4z"/>
				<path class="st3" d="M462.9,46.1c-0.8,0-1.5-0.6-1.5-1.5c0-0.8,0.6-1.5,1.5-1.5c0.8,0,1.5,0.6,1.5,1.5
					C464.4,45.4,463.8,46.1,462.9,46.1z"/>
				<path class="st3" d="M479.4,53c-0.9,0-1.6-0.7-1.6-1.5c0-0.9,0.7-1.6,1.5-1.6c0.9,0,1.6,0.7,1.6,1.5C481,52.2,480.3,53,479.4,53
					z"/>
				<path class="st3" d="M495.3,61c-0.9,0-1.7-0.7-1.7-1.6c0-0.9,0.7-1.7,1.6-1.7c0.9,0,1.7,0.7,1.7,1.6C497,60.2,496.3,61,495.3,61
					z"/>
				<path class="st3" d="M510.7,70.1c-1,0-1.7-0.7-1.8-1.7c0-1,0.7-1.7,1.7-1.8c1,0,1.7,0.7,1.8,1.7
					C512.4,69.3,511.7,70.1,510.7,70.1z"/>
				<path class="st3" d="M525.4,80.3c-1,0-1.8-0.8-1.8-1.8c0-1,0.8-1.8,1.8-1.8c1,0,1.8,0.8,1.8,1.8
					C527.2,79.4,526.4,80.3,525.4,80.3z"/>
				<path class="st3" d="M539.3,91.4c-1,0-1.9-0.8-1.9-1.8c0-1,0.8-1.9,1.8-1.9c1,0,1.9,0.8,1.9,1.8
					C541.2,90.6,540.4,91.4,539.3,91.4z"/>
				<path class="st3" d="M584.3,430.2c-1.1,0-2-0.8-2-1.9c0-1.1,0.8-2,1.9-2c1.1,0,2,0.8,2,1.9C586.2,429.3,585.4,430.2,584.3,430.2
					z"/>
				<path class="st3" d="M573.7,444.5c-1.1,0-2-0.8-2-1.9c0-1.1,0.8-2,1.9-2c1.1,0,2,0.8,2,1.9C575.6,443.6,574.8,444.5,573.7,444.5
					z"/>
				<path class="st3" d="M562.1,458.1c-1.1,0-1.9-0.8-2-1.9c0-1.1,0.8-1.9,1.9-2c1.1,0,1.9,0.8,2,1.9
					C564,457.2,563.2,458,562.1,458.1z"/>
				<path class="st3" d="M549.7,470.8c-1,0-1.9-0.8-1.9-1.8c0-1,0.8-1.9,1.8-1.9c1,0,1.9,0.8,1.9,1.8
					C551.5,469.9,550.7,470.7,549.7,470.8z"/>
				<path class="st3" d="M536.3,482.5c-1,0-1.8-0.8-1.9-1.8c0-1,0.8-1.8,1.8-1.9c1,0,1.8,0.8,1.9,1.8
					C538.1,481.7,537.3,482.5,536.3,482.5z"/>
				<path class="st3" d="M522.2,493.3c-1,0-1.8-0.7-1.8-1.7c0-1,0.7-1.8,1.7-1.8c1,0,1.8,0.7,1.8,1.7
					C523.9,492.5,523.2,493.3,522.2,493.3z"/>
				<path class="st3" d="M507.4,503.1c-0.9,0-1.7-0.7-1.7-1.6c0-0.9,0.7-1.7,1.6-1.7c0.9,0,1.7,0.7,1.7,1.6
					C509,502.3,508.3,503.1,507.4,503.1z"/>
				<path class="st3" d="M491.9,511.9c-0.9,0-1.6-0.7-1.6-1.6c0-0.9,0.7-1.6,1.6-1.6c0.9,0,1.6,0.7,1.6,1.6
					C493.4,511.1,492.7,511.8,491.9,511.9z"/>
				<path class="st3" d="M475.8,519.5c-0.8,0-1.5-0.6-1.6-1.5c0-0.8,0.6-1.5,1.5-1.6c0.8,0,1.5,0.6,1.6,1.5
					C477.3,518.8,476.6,519.5,475.8,519.5z"/>
				<path class="st3" d="M459.2,526c-0.8,0-1.5-0.6-1.5-1.4c0-0.8,0.6-1.5,1.4-1.5c0.8,0,1.5,0.6,1.5,1.4
					C460.6,525.3,460,525.9,459.2,526z"/>
				<path class="st3" d="M442.2,531.2c-0.8,0-1.4-0.6-1.4-1.3c0-0.8,0.6-1.4,1.3-1.4c0.8,0,1.4,0.6,1.4,1.3
					C443.6,530.6,443,531.2,442.2,531.2z"/>
				<path class="st3" d="M424.9,535.3c-0.7,0-1.3-0.5-1.3-1.3c0-0.7,0.5-1.3,1.3-1.3c0.7,0,1.3,0.5,1.3,1.3
					C426.2,534.7,425.6,535.3,424.9,535.3z"/>
				<path class="st3" d="M407.3,538.2c-0.7,0-1.2-0.5-1.3-1.2c0-0.7,0.5-1.2,1.2-1.3c0.7,0,1.2,0.5,1.3,1.2
					C408.5,537.6,408,538.2,407.3,538.2z"/>
				<path class="st3" d="M389.6,539.8c-0.6,0-1.2-0.5-1.2-1.1c0-0.6,0.5-1.2,1.1-1.2c0.6,0,1.2,0.5,1.2,1.1
					C390.7,539.3,390.2,539.8,389.6,539.8z"/>
				<path class="st3" d="M371.7,540.2c-0.6,0-1.1-0.5-1.1-1c0-0.6,0.5-1.1,1-1.1c0.6,0,1.1,0.5,1.1,1
					C372.8,539.7,372.3,540.2,371.7,540.2z"/>
				<path class="st3" d="M353.9,539.4c-0.6,0-1-0.4-1-1c0-0.6,0.4-1,1-1c0.6,0,1,0.4,1,1C354.9,538.9,354.5,539.4,353.9,539.4z"/>
				<path class="st3" d="M336.2,537.4c-0.5,0-0.9-0.4-1-0.9c0-0.5,0.4-0.9,0.9-1c0.5,0,0.9,0.4,1,0.9
					C337.1,536.9,336.7,537.4,336.2,537.4z"/>
				<path class="st3" d="M318.7,534.1c-0.5,0-0.9-0.4-0.9-0.8c0-0.5,0.4-0.9,0.8-0.9c0.5,0,0.9,0.4,0.9,0.8
					C319.5,533.7,319.2,534.1,318.7,534.1z"/>
				<path class="st3" d="M301.4,529.6c-0.4,0-0.8-0.3-0.8-0.8c0-0.4,0.3-0.8,0.8-0.8c0.4,0,0.8,0.3,0.8,0.8
					C302.2,529.2,301.9,529.6,301.4,529.6z"/>
				<path class="st3" d="M284.5,523.9c-0.4,0-0.7-0.3-0.7-0.7c0-0.4,0.3-0.7,0.7-0.7c0.4,0,0.7,0.3,0.7,0.7
					C285.2,523.5,284.9,523.8,284.5,523.9z"/>
				<path class="st3" d="M268,517c-0.4,0-0.6-0.3-0.7-0.6c0-0.4,0.3-0.6,0.6-0.7c0.4,0,0.6,0.3,0.7,0.6
					C268.7,516.7,268.4,517,268,517z"/>
				<path class="st3" d="M252.1,508.9c-0.3,0-0.6-0.2-0.6-0.5c0-0.3,0.2-0.6,0.5-0.6c0.3,0,0.6,0.2,0.6,0.5
					C252.6,508.7,252.4,508.9,252.1,508.9z"/>
				<path class="st3" d="M236.7,499.8c-0.3,0-0.5-0.2-0.5-0.5c0-0.3,0.2-0.5,0.5-0.5c0.3,0,0.5,0.2,0.5,0.5
					C237.2,499.6,237,499.8,236.7,499.8z"/>
				<path class="st3" d="M222,489.7c-0.2,0-0.4-0.2-0.4-0.4c0-0.2,0.2-0.4,0.4-0.4c0.2,0,0.4,0.2,0.4,0.4
					C222.5,489.5,222.3,489.7,222,489.7z"/>
				<path class="st3" d="M208.1,478.5c-0.2,0-0.3-0.1-0.4-0.3c0-0.2,0.1-0.3,0.3-0.4c0.2,0,0.3,0.1,0.4,0.3
					C208.4,478.3,208.3,478.5,208.1,478.5z"/>
				<path class="st3" d="M194.9,466.4c-0.2,0-0.3-0.1-0.3-0.3c0-0.2,0.1-0.3,0.3-0.3c0.2,0,0.3,0.1,0.3,0.3
					C195.3,466.3,195.1,466.4,194.9,466.4z"/>
				<path class="st3" d="M182.7,453.5c-0.2,0-0.3-0.1-0.3-0.3c0-0.2,0.1-0.3,0.3-0.3c0.2,0,0.3,0.1,0.3,0.3
					C182.9,453.4,182.8,453.5,182.7,453.5z"/>
				<path class="st3" d="M171.3,439.7c-0.1,0-0.3-0.1-0.3-0.3c0-0.1,0.1-0.3,0.3-0.3c0.1,0,0.3,0.1,0.3,0.3
					C171.6,439.6,171.4,439.7,171.3,439.7z"/>
				<path class="st3" d="M160.9,425.2c-0.1,0-0.2-0.1-0.2-0.2c0-0.1,0.1-0.2,0.2-0.2c0.1,0,0.2,0.1,0.2,0.2
					C161.1,425.1,161,425.2,160.9,425.2z"/>
				<path class="st3" d="M151.6,410c-0.1,0-0.2-0.1-0.2-0.2c0-0.1,0.1-0.2,0.2-0.2c0.1,0,0.2,0.1,0.2,0.2
					C151.8,409.9,151.7,410,151.6,410z"/>
				<path class="st3" d="M143.3,394.2c-0.1,0-0.2-0.1-0.2-0.2c0-0.1,0.1-0.2,0.2-0.2c0.1,0,0.2,0.1,0.2,0.2
					C143.5,394.1,143.4,394.2,143.3,394.2z"/>
				<path class="st3" d="M136.2,377.8c-0.1,0-0.1-0.1-0.1-0.1c0-0.1,0.1-0.1,0.1-0.1c0.1,0,0.1,0.1,0.1,0.1
					C136.3,377.8,136.3,377.8,136.2,377.8z"/>
				<path class="st3" d="M130.2,361c-0.1,0-0.1,0-0.1-0.1c0-0.1,0-0.1,0.1-0.1c0.1,0,0.1,0,0.1,0.1C130.3,360.9,130.3,361,130.2,361
					z"/>
				<path class="st3" d="M125.5,343.8C125.4,343.8,125.4,343.8,125.5,343.8c-0.1-0.1-0.1-0.2,0-0.2
					C125.5,343.6,125.6,343.7,125.5,343.8C125.6,343.8,125.5,343.8,125.5,343.8z"/>
				<path class="st3" d="M121.9,326.3C121.9,326.3,121.9,326.3,121.9,326.3c-0.1-0.1,0-0.1,0-0.1C121.9,326.2,122,326.2,121.9,326.3
					C122,326.3,121.9,326.3,121.9,326.3z"/>
				<path class="st3" d="M119.6,308.6C119.6,308.6,119.6,308.6,119.6,308.6C119.6,308.6,119.6,308.6,119.6,308.6
					C119.6,308.6,119.6,308.6,119.6,308.6C119.6,308.6,119.6,308.6,119.6,308.6z"/>
			</g>
			<g>
				<path class="st3" d="M570.8,428c-0.1,0-0.3-0.1-0.3-0.3c0-0.1,0.1-0.3,0.3-0.3c0.1,0,0.3,0.1,0.3,0.3
					C571.1,427.8,571,428,570.8,428z"/>
				<path class="st3" d="M559.8,442c-0.2,0-0.3-0.1-0.3-0.3c0-0.2,0.1-0.3,0.3-0.3c0.2,0,0.3,0.1,0.3,0.3
					C560.1,441.8,560,442,559.8,442z"/>
				<path class="st3" d="M547.8,455.2c-0.2,0-0.3-0.1-0.3-0.3c0-0.2,0.1-0.3,0.3-0.3c0.2,0,0.3,0.1,0.3,0.3
					C548.1,455,548,455.2,547.8,455.2z"/>
				<path class="st3" d="M534.9,467.5c-0.2,0-0.4-0.2-0.4-0.4c0-0.2,0.2-0.4,0.4-0.4c0.2,0,0.4,0.2,0.4,0.4
					C535.2,467.3,535.1,467.5,534.9,467.5z"/>
				<path class="st3" d="M521.1,478.8c-0.3,0-0.5-0.2-0.5-0.4c0-0.3,0.2-0.5,0.4-0.5c0.3,0,0.5,0.2,0.5,0.4
					C521.5,478.6,521.3,478.8,521.1,478.8z"/>
				<path class="st3" d="M506.5,489.2c-0.3,0-0.5-0.2-0.5-0.5c0-0.3,0.2-0.5,0.5-0.5c0.3,0,0.5,0.2,0.5,0.5S506.8,489.2,506.5,489.2
					z"/>
				<path class="st3" d="M491.2,498.4c-0.3,0-0.6-0.3-0.6-0.6c0-0.3,0.3-0.6,0.6-0.6c0.3,0,0.6,0.3,0.6,0.6
					C491.8,498.1,491.5,498.4,491.2,498.4z"/>
				<path class="st3" d="M475.3,506.5c-0.4,0-0.7-0.3-0.7-0.7c0-0.4,0.3-0.7,0.7-0.7c0.4,0,0.7,0.3,0.7,0.7
					C476,506.2,475.7,506.5,475.3,506.5z"/>
				<path class="st3" d="M458.8,513.4c-0.4,0-0.8-0.3-0.8-0.7c0-0.4,0.3-0.8,0.7-0.8c0.4,0,0.8,0.3,0.8,0.7
					C459.6,513,459.2,513.4,458.8,513.4z"/>
				<path class="st3" d="M441.9,519.1c-0.5,0-0.8-0.4-0.9-0.8c0-0.5,0.4-0.8,0.8-0.9c0.5,0,0.8,0.4,0.9,0.8
					C442.7,518.7,442.4,519,441.9,519.1z"/>
				<path class="st3" d="M424.6,523.5c-0.5,0-0.9-0.4-0.9-0.9c0-0.5,0.4-0.9,0.9-0.9c0.5,0,0.9,0.4,0.9,0.9
					C425.5,523,425.1,523.5,424.6,523.5z"/>
				<path class="st3" d="M407.1,526.6c-0.5,0-1-0.4-1-1c0-0.5,0.4-1,1-1c0.5,0,1,0.4,1,1C408,526.1,407.6,526.6,407.1,526.6z"/>
				<path class="st3" d="M389.3,528.4c-0.6,0-1.1-0.4-1.1-1c0-0.6,0.4-1.1,1-1.1s1.1,0.4,1.1,1C390.4,527.9,389.9,528.4,389.3,528.4
					z"/>
				<path class="st3" d="M371.5,529c-0.6,0-1.2-0.5-1.2-1.1c0-0.6,0.5-1.2,1.1-1.2c0.6,0,1.2,0.5,1.2,1.1
					C372.6,528.5,372.1,529,371.5,529z"/>
				<path class="st3" d="M353.7,528.3c-0.7,0-1.2-0.5-1.3-1.2c0-0.7,0.5-1.2,1.2-1.3c0.7,0,1.2,0.5,1.3,1.2S354.4,528.3,353.7,528.3
					z"/>
				<path class="st3" d="M336,526.3c-0.7,0-1.3-0.5-1.3-1.3c0-0.7,0.5-1.3,1.3-1.3c0.7,0,1.3,0.5,1.3,1.3
					C337.3,525.7,336.7,526.3,336,526.3z"/>
				<path class="st3" d="M318.5,523c-0.8,0-1.4-0.6-1.4-1.3c0-0.8,0.6-1.4,1.3-1.4c0.8,0,1.4,0.6,1.4,1.3
					C319.9,522.3,319.3,523,318.5,523z"/>
				<path class="st3" d="M301.3,518.4c-0.8,0-1.5-0.6-1.5-1.4c0-0.8,0.6-1.5,1.4-1.5s1.5,0.6,1.5,1.4
					C302.7,517.7,302.1,518.4,301.3,518.4z"/>
				<path class="st3" d="M284.5,512.6c-0.8,0-1.5-0.6-1.6-1.5c0-0.8,0.6-1.5,1.5-1.6c0.8,0,1.5,0.6,1.6,1.5
					C286,511.8,285.3,512.5,284.5,512.6z"/>
				<path class="st3" d="M268.1,505.5c-0.9,0-1.6-0.7-1.6-1.6c0-0.9,0.7-1.6,1.6-1.6c0.9,0,1.6,0.7,1.6,1.6
					C269.7,504.7,269,505.5,268.1,505.5z"/>
				<path class="st3" d="M252.4,497.3c-0.9,0-1.7-0.7-1.7-1.6c0-0.9,0.7-1.7,1.6-1.7s1.7,0.7,1.7,1.6
					C254,496.5,253.3,497.2,252.4,497.3z"/>
				<path class="st3" d="M237.3,487.9c-1,0-1.8-0.7-1.8-1.7c0-1,0.7-1.8,1.7-1.8c1,0,1.8,0.7,1.8,1.7
					C239,487.1,238.2,487.9,237.3,487.9z"/>
				<path class="st3" d="M222.9,477.5c-1,0-1.9-0.8-1.9-1.8c0-1,0.8-1.9,1.8-1.9c1,0,1.9,0.8,1.9,1.8
					C224.7,476.6,223.9,477.5,222.9,477.5z"/>
				<path class="st3" d="M209.3,466c-1,0-1.9-0.8-1.9-1.8c0-1,0.8-1.9,1.8-1.9c1,0,1.9,0.8,1.9,1.8S210.3,466,209.3,466z"/>
				<path class="st3" d="M196.6,453.6c-1.1,0-1.9-0.8-2-1.9c0-1.1,0.8-1.9,1.9-2c1.1,0,1.9,0.8,2,1.9
					C198.5,452.6,197.6,453.5,196.6,453.6z"/>
				<path class="st3" d="M184.8,440.2c-1.1,0-2-0.8-2-1.9c0-1.1,0.8-2,1.9-2c1.1,0,2,0.8,2,1.9C186.7,439.3,185.9,440.2,184.8,440.2
					z"/>
				<path class="st3" d="M174,426c-1.1,0-2-0.8-2-1.9c0-1.1,0.8-2,1.9-2c1.1,0,2,0.8,2,1.9C176,425.1,175.1,426,174,426z"/>
				<path class="st3" d="M164.3,411.1c-1.1,0-2-0.8-2.1-2c0-1.1,0.8-2,2-2.1c1.1,0,2,0.8,2.1,2C166.3,410.2,165.4,411.1,164.3,411.1
					z"/>
				<path class="st3" d="M155.7,395.5c-1.1,0-2.1-0.9-2.1-2c0-1.1,0.9-2.1,2-2.1c1.1,0,2.1,0.9,2.1,2
					C157.7,394.6,156.8,395.5,155.7,395.5z"/>
				<path class="st3" d="M148.3,379.4c-1.1,0-2.1-0.9-2.1-2c0-1.1,0.9-2.1,2-2.1c1.1,0,2.1,0.9,2.1,2
					C150.3,378.4,149.4,379.3,148.3,379.4z"/>
				<path class="st3" d="M142.1,362.7c-1.2,0-2.1-0.9-2.2-2c0-1.2,0.9-2.1,2-2.2c1.2,0,2.1,0.9,2.2,2
					C144.1,361.7,143.2,362.7,142.1,362.7z"/>
				<path class="st3" d="M137.1,345.6c-1.2,0-2.2-0.9-2.2-2.1s0.9-2.2,2.1-2.2c1.2,0,2.2,0.9,2.2,2.1
					C139.2,344.6,138.3,345.6,137.1,345.6z"/>
				<path class="st3" d="M133.4,328.2c-1.2,0-2.2-0.9-2.2-2.1c0-1.2,0.9-2.2,2.1-2.2c1.2,0,2.2,0.9,2.2,2.1S134.6,328.2,133.4,328.2
					z"/>
				<path class="st3" d="M131,310.6c-1.2,0-2.2-0.9-2.2-2.1c0-1.2,0.9-2.2,2.1-2.2c1.2,0,2.2,0.9,2.2,2.1
					C133.1,309.5,132.2,310.6,131,310.6z"/>
				<path class="st3" d="M129.8,292.8c-1.2,0-2.2-0.9-2.3-2.2c0-1.2,0.9-2.2,2.2-2.3c1.2,0,2.2,0.9,2.3,2.2
					C132,291.8,131.1,292.8,129.8,292.8z"/>
				<path class="st3" d="M130,275c-1.2,0-2.2-0.9-2.3-2.1c0-1.2,0.9-2.2,2.1-2.3c1.2,0,2.2,0.9,2.3,2.1
					C132.2,273.9,131.2,274.9,130,275z"/>
				<path class="st3" d="M131.4,257.2c-1.2,0-2.2-0.9-2.2-2.1c0-1.2,0.9-2.2,2.1-2.2c1.2,0,2.2,0.9,2.2,2.1
					C133.6,256.1,132.6,257.1,131.4,257.2z"/>
				<path class="st3" d="M134.2,239.5c-1.2,0-2.2-0.9-2.2-2.1c0-1.2,0.9-2.2,2.1-2.2c1.2,0,2.2,0.9,2.2,2.1
					C136.3,238.5,135.3,239.5,134.2,239.5z"/>
				<path class="st3" d="M138.2,222.1c-1.2,0-2.1-0.9-2.2-2c0-1.2,0.9-2.1,2-2.2c1.2,0,2.1,0.9,2.2,2
					C140.3,221.1,139.3,222.1,138.2,222.1z"/>
				<path class="st3" d="M143.5,205.1c-1.1,0-2.1-0.9-2.1-2c0-1.1,0.9-2.1,2-2.1c1.1,0,2.1,0.9,2.1,2
					C145.5,204.1,144.6,205,143.5,205.1z"/>
				<path class="st3" d="M150,188.5c-1.1,0-2.1-0.9-2.1-2c0-1.1,0.9-2.1,2-2.1c1.1,0,2.1,0.9,2.1,2C152,187.5,151.1,188.4,150,188.5
					z"/>
				<path class="st3" d="M157.7,172.4c-1.1,0-2-0.8-2.1-2s0.8-2,2-2.1c1.1,0,2,0.8,2.1,2C159.7,171.4,158.8,172.3,157.7,172.4z"/>
				<path class="st3" d="M166.6,156.9c-1.1,0-2-0.8-2-1.9c0-1.1,0.8-2,1.9-2c1.1,0,2,0.8,2,1.9C168.5,155.9,167.7,156.9,166.6,156.9
					z"/>
				<path class="st3" d="M176.6,142.1c-1.1,0-2-0.8-2-1.9c0-1.1,0.8-2,1.9-2c1.1,0,2,0.8,2,1.9C178.5,141.2,177.6,142.1,176.6,142.1
					z"/>
				<path class="st3" d="M187.6,128.1c-1.1,0-1.9-0.8-2-1.9c0-1.1,0.8-1.9,1.9-2c1.1,0,1.9,0.8,2,1.9
					C189.5,127.1,188.6,128,187.6,128.1z"/>
				<path class="st3" d="M199.6,114.9c-1,0-1.9-0.8-1.9-1.8c0-1,0.8-1.9,1.8-1.9c1,0,1.9,0.8,1.9,1.8
					C201.5,114,200.6,114.8,199.6,114.9z"/>
				<path class="st3" d="M212.5,102.6c-1,0-1.9-0.8-1.9-1.8c0-1,0.8-1.9,1.8-1.9c1,0,1.9,0.8,1.9,1.8
					C214.3,101.7,213.5,102.5,212.5,102.6z"/>
				<path class="st3" d="M226.3,91.2c-1,0-1.8-0.7-1.8-1.7c0-1,0.7-1.8,1.7-1.8c1,0,1.8,0.7,1.8,1.7
					C228.1,90.3,227.3,91.2,226.3,91.2z"/>
				<path class="st3" d="M240.9,80.9c-0.9,0-1.7-0.7-1.7-1.6s0.7-1.7,1.6-1.7c0.9,0,1.7,0.7,1.7,1.6
					C242.6,80.1,241.8,80.8,240.9,80.9z"/>
				<path class="st3" d="M256.2,71.6c-0.9,0-1.6-0.7-1.7-1.6s0.7-1.6,1.6-1.7c0.9,0,1.6,0.7,1.7,1.6
					C257.8,70.8,257.1,71.6,256.2,71.6z"/>
				<path class="st3" d="M272.1,63.5c-0.8,0-1.6-0.6-1.6-1.5c0-0.8,0.6-1.6,1.5-1.6c0.8,0,1.6,0.6,1.6,1.5
					C273.6,62.8,272.9,63.5,272.1,63.5z"/>
				<path class="st3" d="M288.6,56.6c-0.8,0-1.5-0.6-1.5-1.4c0-0.8,0.6-1.5,1.4-1.5c0.8,0,1.5,0.6,1.5,1.4S289.4,56.6,288.6,56.6z"
					/>
				<path class="st3" d="M305.5,50.9c-0.8,0-1.4-0.6-1.4-1.3c0-0.8,0.6-1.4,1.3-1.4c0.8,0,1.4,0.6,1.4,1.3
					C306.8,50.3,306.2,50.9,305.5,50.9z"/>
				<path class="st3" d="M322.7,46.5c-0.7,0-1.3-0.5-1.3-1.3s0.5-1.3,1.3-1.3c0.7,0,1.3,0.5,1.3,1.3C324,45.9,323.5,46.5,322.7,46.5
					z"/>
				<path class="st3" d="M340.3,43.4c-0.7,0-1.2-0.5-1.3-1.2s0.5-1.2,1.2-1.3s1.2,0.5,1.3,1.2C341.5,42.8,341,43.4,340.3,43.4z"/>
				<path class="st3" d="M358,41.5c-0.6,0-1.2-0.5-1.2-1.1c0-0.6,0.5-1.2,1.1-1.2c0.6,0,1.2,0.5,1.2,1.1
					C359.2,41,358.7,41.5,358,41.5z"/>
				<path class="st3" d="M375.9,41c-0.6,0-1.1-0.5-1.1-1c0-0.6,0.5-1.1,1-1.1c0.6,0,1.1,0.5,1.1,1C376.9,40.4,376.5,40.9,375.9,41z"
					/>
				<path class="st3" d="M393.7,41.7c-0.6,0-1-0.4-1-1c0-0.6,0.4-1,1-1c0.6,0,1,0.4,1,1C394.7,41.2,394.2,41.6,393.7,41.7z"/>
				<path class="st3" d="M411.4,43.7c-0.5,0-0.9-0.4-0.9-0.9c0-0.5,0.4-0.9,0.9-0.9c0.5,0,0.9,0.4,0.9,0.9
					C412.3,43.2,411.9,43.7,411.4,43.7z"/>
				<path class="st3" d="M428.9,47c-0.5,0-0.9-0.4-0.9-0.8c0-0.5,0.4-0.9,0.8-0.9c0.5,0,0.9,0.4,0.9,0.8
					C429.7,46.6,429.3,47,428.9,47z"/>
				<path class="st3" d="M446.1,51.5c-0.4,0-0.8-0.3-0.8-0.7c0-0.4,0.3-0.8,0.7-0.8c0.4,0,0.8,0.3,0.8,0.7
					C446.8,51.2,446.5,51.5,446.1,51.5z"/>
				<path class="st3" d="M462.9,57.4c-0.4,0-0.7-0.3-0.7-0.7c0-0.4,0.3-0.7,0.7-0.7c0.4,0,0.7,0.3,0.7,0.7
					C463.6,57,463.3,57.4,462.9,57.4z"/>
				<path class="st3" d="M479.2,64.4c-0.3,0-0.6-0.3-0.6-0.6c0-0.3,0.3-0.6,0.6-0.6c0.3,0,0.6,0.3,0.6,0.6
					C479.8,64.1,479.6,64.4,479.2,64.4z"/>
				<path class="st3" d="M495,72.6c-0.3,0-0.5-0.2-0.6-0.5c0-0.3,0.2-0.5,0.5-0.6c0.3,0,0.5,0.2,0.6,0.5
					C495.5,72.4,495.3,72.6,495,72.6z"/>
				<path class="st3" d="M510.1,82c-0.3,0-0.5-0.2-0.5-0.4c0-0.3,0.2-0.5,0.4-0.5c0.3,0,0.5,0.2,0.5,0.4
					C510.6,81.8,510.4,82,510.1,82z"/>
				<path class="st3" d="M524.5,92.4c-0.2,0-0.4-0.2-0.4-0.4c0-0.2,0.2-0.4,0.4-0.4c0.2,0,0.4,0.2,0.4,0.4
					C524.9,92.2,524.7,92.4,524.5,92.4z"/>
			</g>
			<g>
				<path class="st3" d="M141.1,290.2"/>
				<path class="st3" d="M141.3,272.4C141.2,272.4,141.2,272.4,141.3,272.4C141.2,272.4,141.2,272.3,141.3,272.4
					C141.3,272.3,141.3,272.4,141.3,272.4C141.3,272.4,141.3,272.4,141.3,272.4z"/>
				<path class="st3" d="M142.8,254.7C142.8,254.7,142.7,254.6,142.8,254.7c-0.1-0.1,0-0.1,0-0.1
					C142.8,254.5,142.9,254.6,142.8,254.7C142.9,254.6,142.8,254.7,142.8,254.7z"/>
				<path class="st3" d="M145.7,237.1C145.6,237.1,145.6,237.1,145.7,237.1c-0.1-0.1-0.1-0.2,0-0.2
					C145.7,236.9,145.8,237,145.7,237.1C145.8,237.1,145.7,237.1,145.7,237.1z"/>
				<path class="st3" d="M149.9,219.8c-0.1,0-0.1-0.1-0.1-0.1c0-0.1,0.1-0.1,0.1-0.1c0.1,0,0.1,0.1,0.1,0.1
					C150.1,219.8,150,219.8,149.9,219.8z"/>
				<path class="st3" d="M155.5,202.9c-0.1,0-0.2-0.1-0.2-0.2c0-0.1,0.1-0.2,0.2-0.2c0.1,0,0.2,0.1,0.2,0.2
					C155.7,202.8,155.6,202.9,155.5,202.9z"/>
				<path class="st3" d="M162.4,186.5c-0.1,0-0.2-0.1-0.2-0.2c0-0.1,0.1-0.2,0.2-0.2c0.1,0,0.2,0.1,0.2,0.2
					C162.6,186.4,162.5,186.5,162.4,186.5z"/>
				<path class="st3" d="M170.5,170.6c-0.1,0-0.2-0.1-0.2-0.2c0-0.1,0.1-0.2,0.2-0.2c0.1,0,0.2,0.1,0.2,0.2S170.6,170.6,170.5,170.6
					z"/>
				<path class="st3" d="M179.8,155.5c-0.1,0-0.3-0.1-0.3-0.2c0-0.1,0.1-0.3,0.2-0.3c0.1,0,0.3,0.1,0.3,0.2
					C180,155.3,179.9,155.5,179.8,155.5z"/>
				<path class="st3" d="M190.2,141c-0.2,0-0.3-0.1-0.3-0.3c0-0.2,0.1-0.3,0.3-0.3c0.2,0,0.3,0.1,0.3,0.3S190.3,141,190.2,141z"/>
				<path class="st3" d="M201.7,127.4c-0.2,0-0.3-0.1-0.3-0.3c0-0.2,0.1-0.3,0.3-0.3c0.2,0,0.3,0.1,0.3,0.3
					C202,127.3,201.9,127.4,201.7,127.4z"/>
				<path class="st3" d="M214.2,114.8c-0.2,0-0.3-0.1-0.4-0.3c0-0.2,0.1-0.3,0.3-0.4c0.2,0,0.3,0.1,0.4,0.3
					C214.5,114.6,214.4,114.8,214.2,114.8z"/>
				<path class="st3" d="M227.6,103.1c-0.2,0-0.4-0.2-0.4-0.4c0-0.2,0.2-0.4,0.4-0.4c0.2,0,0.4,0.2,0.4,0.4
					C228,102.9,227.9,103.1,227.6,103.1z"/>
				<path class="st3" d="M241.9,92.5c-0.3,0-0.5-0.2-0.5-0.5c0-0.3,0.2-0.5,0.5-0.5c0.3,0,0.5,0.2,0.5,0.5
					C242.4,92.3,242.2,92.5,241.9,92.5z"/>
				<path class="st3" d="M257,83.1c-0.3,0-0.6-0.2-0.6-0.6c0-0.3,0.2-0.6,0.6-0.6s0.6,0.2,0.6,0.6C257.6,82.8,257.3,83.1,257,83.1z"
					/>
				<path class="st3" d="M272.7,74.8c-0.4,0-0.7-0.3-0.7-0.6c0-0.4,0.3-0.7,0.6-0.7c0.4,0,0.7,0.3,0.7,0.6
					C273.4,74.5,273.1,74.8,272.7,74.8z"/>
				<path class="st3" d="M289.1,67.8c-0.4,0-0.8-0.3-0.8-0.7c0-0.4,0.3-0.8,0.7-0.8c0.4,0,0.8,0.3,0.8,0.7
					C289.8,67.4,289.5,67.8,289.1,67.8z"/>
				<path class="st3" d="M305.9,62c-0.5,0-0.8-0.3-0.8-0.8s0.3-0.8,0.8-0.8c0.5,0,0.8,0.3,0.8,0.8C306.7,61.6,306.4,62,305.9,62z"/>
				<path class="st3" d="M323.2,57.6c-0.5,0-0.9-0.4-0.9-0.9c0-0.5,0.4-0.9,0.9-0.9c0.5,0,0.9,0.4,0.9,0.9
					C324.1,57.1,323.7,57.6,323.2,57.6z"/>
				<path class="st3" d="M340.7,54.5c-0.5,0-1-0.4-1-1c0-0.5,0.4-1,1-1c0.5,0,1,0.4,1,1C341.7,54,341.3,54.5,340.7,54.5z"/>
				<path class="st3" d="M358.5,52.7c-0.6,0-1.1-0.4-1.1-1c0-0.6,0.4-1.1,1-1.1c0.6,0,1.1,0.4,1.1,1C359.5,52.2,359,52.7,358.5,52.7
					z"/>
				<path class="st3" d="M376.3,52.3c-0.6,0-1.2-0.5-1.2-1.1c0-0.6,0.5-1.2,1.1-1.2c0.6,0,1.2,0.5,1.2,1.1
					C377.4,51.8,376.9,52.3,376.3,52.3z"/>
				<path class="st3" d="M394.1,53.3c-0.7,0-1.2-0.5-1.3-1.2c0-0.7,0.5-1.2,1.2-1.3c0.7,0,1.2,0.5,1.3,1.2
					C395.3,52.7,394.8,53.2,394.1,53.3z"/>
				<path class="st3" d="M411.8,55.5c-0.7,0-1.3-0.5-1.3-1.3c0-0.7,0.5-1.3,1.3-1.3c0.7,0,1.3,0.5,1.3,1.3
					C413.1,54.9,412.5,55.5,411.8,55.5z"/>
				<path class="st3" d="M429.3,59.2c-0.8,0-1.4-0.6-1.4-1.3c0-0.8,0.6-1.4,1.3-1.4c0.8,0,1.4,0.6,1.4,1.3
					C430.6,58.5,430,59.2,429.3,59.2z"/>
				<path class="st3" d="M446.4,64.2c-0.8,0-1.5-0.6-1.5-1.4c0-0.8,0.6-1.5,1.4-1.5c0.8,0,1.5,0.6,1.5,1.4
					C447.9,63.5,447.2,64.2,446.4,64.2z"/>
				<path class="st3" d="M463.1,70.5c-0.9,0-1.6-0.7-1.6-1.5c0-0.9,0.6-1.6,1.5-1.6c0.9,0,1.6,0.7,1.6,1.5
					C464.6,69.8,464,70.5,463.1,70.5z"/>
				<path class="st3" d="M479.3,78c-0.9,0-1.6-0.7-1.7-1.6c0-0.9,0.7-1.6,1.6-1.7c0.9,0,1.6,0.7,1.7,1.6
					C480.9,77.3,480.2,78,479.3,78z"/>
				<path class="st3" d="M494.9,86.8c-0.9,0-1.7-0.7-1.8-1.7c0-0.9,0.7-1.7,1.7-1.8c0.9,0,1.7,0.7,1.8,1.7
					C496.5,86,495.8,86.8,494.9,86.8z"/>
				<path class="st3" d="M557.3,428.9c-1.1,0-2-0.8-2-1.9c0-1.1,0.8-2,1.9-2c1.1,0,2,0.8,2,1.9C559.2,428,558.4,428.9,557.3,428.9z"
					/>
				<path class="st3" d="M545.8,442.5c-1.1,0-1.9-0.8-2-1.9c0-1.1,0.8-1.9,1.9-2c1.1,0,1.9,0.8,2,1.9
					C547.7,441.6,546.9,442.5,545.8,442.5z"/>
				<path class="st3" d="M533.3,455.2c-1,0-1.9-0.8-1.9-1.8c0-1,0.8-1.9,1.8-1.9c1,0,1.9,0.8,1.9,1.8
					C535.2,454.3,534.3,455.1,533.3,455.2z"/>
				<path class="st3" d="M519.9,466.8c-1,0-1.8-0.8-1.9-1.8c0-1,0.8-1.8,1.8-1.9c1,0,1.8,0.8,1.9,1.8
					C521.7,466,520.9,466.8,519.9,466.8z"/>
				<path class="st3" d="M505.6,477.4c-1,0-1.7-0.7-1.8-1.7c0-1,0.7-1.7,1.7-1.8c1,0,1.7,0.7,1.8,1.7
					C507.3,476.6,506.5,477.4,505.6,477.4z"/>
				<path class="st3" d="M490.5,486.9c-0.9,0-1.7-0.7-1.7-1.6c0-0.9,0.7-1.7,1.6-1.7c0.9,0,1.7,0.7,1.7,1.6
					C492.1,486.1,491.4,486.8,490.5,486.9z"/>
				<path class="st3" d="M474.8,495.1c-0.9,0-1.6-0.7-1.6-1.5c0-0.9,0.7-1.6,1.5-1.6c0.9,0,1.6,0.7,1.6,1.5
					C476.3,494.4,475.6,495.1,474.8,495.1z"/>
				<path class="st3" d="M458.4,502.2c-0.8,0-1.5-0.6-1.5-1.4c0-0.8,0.6-1.5,1.4-1.5c0.8,0,1.5,0.6,1.5,1.4
					C459.9,501.5,459.2,502.2,458.4,502.2z"/>
				<path class="st3" d="M441.6,507.9c-0.8,0-1.4-0.6-1.4-1.4c0-0.8,0.6-1.4,1.4-1.4s1.4,0.6,1.4,1.4
					C443,507.3,442.3,507.9,441.6,507.9z"/>
				<path class="st3" d="M424.3,512.4c-0.7,0-1.3-0.6-1.4-1.3c0-0.7,0.6-1.3,1.3-1.4c0.7,0,1.3,0.6,1.4,1.3
					C425.6,511.8,425.1,512.4,424.3,512.4z"/>
				<path class="st3" d="M406.8,515.5c-0.7,0-1.3-0.5-1.3-1.2c0-0.7,0.5-1.3,1.2-1.3c0.7,0,1.3,0.5,1.3,1.2
					C408,514.9,407.5,515.5,406.8,515.5z"/>
				<path class="st3" d="M389.1,517.2c-0.6,0-1.2-0.5-1.2-1.1c0-0.6,0.5-1.2,1.1-1.2c0.6,0,1.2,0.5,1.2,1.1
					C390.2,516.7,389.7,517.2,389.1,517.2z"/>
				<path class="st3" d="M371.2,517.7c-0.6,0-1.1-0.5-1.1-1c0-0.6,0.5-1.1,1-1.1c0.6,0,1.1,0.5,1.1,1
					C372.3,517.1,371.8,517.6,371.2,517.7z"/>
				<path class="st3" d="M353.4,516.7c-0.5,0-1-0.4-1-1c0-0.5,0.4-1,1-1c0.5,0,1,0.4,1,1C354.4,516.2,354,516.7,353.4,516.7z"/>
				<path class="st3" d="M335.7,514.4c-0.5,0-0.9-0.4-0.9-0.9c0-0.5,0.4-0.9,0.9-0.9c0.5,0,0.9,0.4,0.9,0.9
					C336.6,514,336.2,514.4,335.7,514.4z"/>
				<path class="st3" d="M318.2,510.8c-0.5,0-0.8-0.3-0.9-0.8c0-0.5,0.4-0.8,0.8-0.9c0.5,0,0.8,0.4,0.9,0.8
					C319.1,510.4,318.7,510.8,318.2,510.8z"/>
				<path class="st3" d="M301.1,505.8c-0.4,0-0.8-0.3-0.8-0.7c0-0.4,0.3-0.8,0.7-0.8c0.4,0,0.8,0.3,0.8,0.7
					C301.8,505.4,301.5,505.8,301.1,505.8z"/>
				<path class="st3" d="M284.4,499.5c-0.4,0-0.7-0.3-0.7-0.7c0-0.4,0.3-0.7,0.7-0.7c0.4,0,0.7,0.3,0.7,0.7
					C285.1,499.2,284.8,499.5,284.4,499.5z"/>
				<path class="st3" d="M268.2,491.9c-0.3,0-0.6-0.2-0.6-0.6c0-0.3,0.2-0.6,0.6-0.6s0.6,0.2,0.6,0.6S268.5,491.9,268.2,491.9z"/>
				<path class="st3" d="M252.6,483.2c-0.3,0-0.5-0.2-0.5-0.5c0-0.3,0.2-0.5,0.5-0.5c0.3,0,0.5,0.2,0.5,0.5
					C253.1,482.9,252.9,483.2,252.6,483.2z"/>
				<path class="st3" d="M237.8,473.2c-0.2,0-0.4-0.2-0.4-0.4c0-0.2,0.2-0.4,0.4-0.4c0.2,0,0.4,0.2,0.4,0.4
					C238.2,473,238,473.2,237.8,473.2z"/>
				<path class="st3" d="M223.7,462.2c-0.2,0-0.4-0.1-0.4-0.3c0-0.2,0.1-0.4,0.3-0.4c0.2,0,0.4,0.1,0.4,0.3
					C224.1,462,223.9,462.2,223.7,462.2z"/>
				<path class="st3" d="M210.6,450.1c-0.2,0-0.3-0.1-0.3-0.3c0-0.2,0.1-0.3,0.3-0.3c0.2,0,0.3,0.1,0.3,0.3
					C210.9,450,210.7,450.1,210.6,450.1z"/>
				<path class="st3" d="M198.3,437.1c-0.2,0-0.3-0.1-0.3-0.3c0-0.2,0.1-0.3,0.3-0.3c0.2,0,0.3,0.1,0.3,0.3
					C198.6,437,198.5,437.1,198.3,437.1z"/>
				<path class="st3" d="M187.1,423.2c-0.1,0-0.3-0.1-0.3-0.2c0-0.1,0.1-0.3,0.2-0.3c0.1,0,0.3,0.1,0.3,0.2
					C187.4,423.1,187.3,423.2,187.1,423.2z"/>
				<path class="st3" d="M177,408.5c-0.1,0-0.2-0.1-0.2-0.2c0-0.1,0.1-0.2,0.2-0.2c0.1,0,0.2,0.1,0.2,0.2
					C177.2,408.4,177.1,408.5,177,408.5z"/>
				<path class="st3" d="M168,393.1c-0.1,0-0.2-0.1-0.2-0.2c0-0.1,0.1-0.2,0.2-0.2c0.1,0,0.2,0.1,0.2,0.2
					C168.2,393,168.1,393.1,168,393.1z"/>
				<path class="st3" d="M160.3,377c-0.1,0-0.2-0.1-0.2-0.2c0-0.1,0.1-0.2,0.2-0.2c0.1,0,0.2,0.1,0.2,0.2
					C160.4,376.9,160.4,377,160.3,377z"/>
				<path class="st3" d="M153.8,360.3c-0.1,0-0.1-0.1-0.1-0.1c0-0.1,0.1-0.1,0.1-0.1c0.1,0,0.1,0.1,0.1,0.1
					C153.9,360.3,153.9,360.3,153.8,360.3z"/>
				<path class="st3" d="M148.6,343.3C148.6,343.3,148.5,343.2,148.6,343.3c-0.1-0.1-0.1-0.2,0-0.2
					C148.7,343.1,148.7,343.1,148.6,343.3C148.7,343.2,148.7,343.3,148.6,343.3z"/>
				<path class="st3" d="M144.7,325.8C144.7,325.8,144.7,325.8,144.7,325.8c-0.1-0.1,0-0.1,0-0.1
					C144.8,325.7,144.8,325.7,144.7,325.8C144.8,325.8,144.8,325.8,144.7,325.8z"/>
				<path class="st3" d="M142.2,308.1C142.2,308.1,142.2,308.1,142.2,308.1C142.2,308.1,142.2,308.1,142.2,308.1
					C142.3,308.1,142.3,308.1,142.2,308.1C142.3,308.1,142.3,308.1,142.2,308.1z"/>
			</g>
			<g>
				<path class="st3" d="M543.4,426.4c-0.2,0-0.3-0.1-0.3-0.3c0-0.2,0.1-0.3,0.3-0.3c0.2,0,0.3,0.1,0.3,0.3
					C543.7,426.3,543.6,426.4,543.4,426.4z"/>
				<path class="st3" d="M531.4,439.7c-0.2,0-0.3-0.1-0.3-0.3c0-0.2,0.1-0.3,0.3-0.3c0.2,0,0.3,0.1,0.3,0.3
					C531.7,439.5,531.6,439.7,531.4,439.7z"/>
				<path class="st3" d="M518.4,451.9c-0.2,0-0.4-0.2-0.4-0.4c0-0.2,0.2-0.4,0.4-0.4c0.2,0,0.4,0.2,0.4,0.4
					C518.8,451.7,518.6,451.9,518.4,451.9z"/>
				<path class="st3" d="M504.4,463.1c-0.3,0-0.5-0.2-0.5-0.5c0-0.3,0.2-0.5,0.5-0.5c0.3,0,0.5,0.2,0.5,0.5
					C504.9,462.9,504.7,463.1,504.4,463.1z"/>
				<path class="st3" d="M489.6,473.1c-0.3,0-0.6-0.2-0.6-0.5c0-0.3,0.2-0.6,0.5-0.6c0.3,0,0.6,0.2,0.6,0.5
					C490.2,472.9,489.9,473.1,489.6,473.1z"/>
				<path class="st3" d="M474.1,481.9c-0.4,0-0.6-0.3-0.7-0.6c0-0.4,0.3-0.6,0.6-0.7c0.4,0,0.6,0.3,0.7,0.6
					C474.7,481.6,474.4,481.9,474.1,481.9z"/>
				<path class="st3" d="M457.9,489.5c-0.4,0-0.7-0.3-0.7-0.7c0-0.4,0.3-0.7,0.7-0.7c0.4,0,0.7,0.3,0.7,0.7
					C458.6,489.1,458.3,489.5,457.9,489.5z"/>
				<path class="st3" d="M441.1,495.7c-0.4,0-0.8-0.3-0.8-0.8c0-0.4,0.3-0.8,0.8-0.8c0.4,0,0.8,0.3,0.8,0.8
					C441.9,495.3,441.6,495.7,441.1,495.7z"/>
				<path class="st3" d="M423.9,500.5c-0.5,0-0.9-0.4-0.9-0.9c0-0.5,0.4-0.9,0.9-0.9c0.5,0,0.9,0.4,0.9,0.9
					C424.8,500,424.4,500.5,423.9,500.5z"/>
				<path class="st3" d="M406.4,503.9c-0.5,0-1-0.4-1-1c0-0.5,0.4-1,1-1c0.5,0,1,0.4,1,1C407.4,503.4,407,503.9,406.4,503.9z"/>
				<path class="st3" d="M388.7,505.9c-0.6,0-1.1-0.4-1.1-1c0-0.6,0.4-1.1,1-1.1c0.6,0,1.1,0.4,1.1,1
					C389.7,505.4,389.3,505.8,388.7,505.9z"/>
				<path class="st3" d="M370.9,506.4c-0.6,0-1.2-0.5-1.2-1.1c0-0.6,0.5-1.2,1.1-1.2c0.6,0,1.2,0.5,1.2,1.1
					C372,505.9,371.5,506.4,370.9,506.4z"/>
				<path class="st3" d="M353,505.6c-0.7,0-1.2-0.5-1.3-1.2c0-0.7,0.5-1.2,1.2-1.3s1.2,0.5,1.3,1.2C354.3,505,353.7,505.6,353,505.6
					z"/>
				<path class="st3" d="M335.4,503.3c-0.7,0-1.3-0.6-1.4-1.3c0-0.7,0.6-1.3,1.3-1.4c0.7,0,1.3,0.6,1.4,1.3
					C336.7,502.7,336.1,503.3,335.4,503.3z"/>
				<path class="st3" d="M317.9,499.6c-0.8,0-1.4-0.6-1.4-1.4c0-0.8,0.6-1.4,1.4-1.4c0.8,0,1.4,0.6,1.4,1.4
					C319.3,499,318.7,499.6,317.9,499.6z"/>
				<path class="st3" d="M300.9,494.5c-0.8,0-1.5-0.6-1.5-1.4c0-0.8,0.6-1.5,1.4-1.5c0.8,0,1.5,0.6,1.5,1.4
					C302.3,493.8,301.7,494.5,300.9,494.5z"/>
				<path class="st3" d="M284.3,488.1c-0.9,0-1.6-0.7-1.6-1.5c0-0.9,0.7-1.6,1.5-1.6c0.9,0,1.6,0.7,1.6,1.5
					C285.8,487.3,285.2,488,284.3,488.1z"/>
				<path class="st3" d="M268.3,480.3c-0.9,0-1.7-0.7-1.7-1.6c0-0.9,0.7-1.7,1.6-1.7c0.9,0,1.7,0.7,1.7,1.6
					C269.9,479.5,269.2,480.3,268.3,480.3z"/>
				<path class="st3" d="M253,471.2c-1,0-1.8-0.7-1.8-1.7c0-1,0.7-1.8,1.7-1.8c1,0,1.8,0.7,1.8,1.7
					C254.7,470.4,253.9,471.2,253,471.2z"/>
				<path class="st3" d="M238.4,461c-1,0-1.8-0.8-1.9-1.8c0-1,0.8-1.8,1.8-1.9c1,0,1.8,0.8,1.9,1.8C240.2,460.1,239.5,461,238.4,461
					z"/>
				<path class="st3" d="M224.8,449.6c-1,0-1.9-0.8-1.9-1.8c0-1,0.8-1.9,1.8-1.9c1,0,1.9,0.8,1.9,1.8
					C226.6,448.7,225.8,449.6,224.8,449.6z"/>
				<path class="st3" d="M212.1,437.1c-1.1,0-1.9-0.8-2-1.9c0-1.1,0.8-1.9,1.9-2c1.1,0,1.9,0.8,2,1.9
					C214,436.2,213.1,437.1,212.1,437.1z"/>
				<path class="st3" d="M200.4,423.6c-1.1,0-2-0.8-2-1.9c0-1.1,0.8-2,1.9-2c1.1,0,2,0.8,2,1.9C202.4,422.7,201.5,423.6,200.4,423.6
					z"/>
				<path class="st3" d="M189.9,409.3c-1.1,0-2-0.8-2-1.9c0-1.1,0.8-2,1.9-2c1.1,0,2,0.8,2,1.9C191.8,408.4,191,409.3,189.9,409.3z"
					/>
				<path class="st3" d="M180.5,394.1c-1.1,0-2-0.8-2.1-2c0-1.1,0.8-2,2-2.1c1.1,0,2,0.8,2.1,2C182.5,393.2,181.6,394.1,180.5,394.1
					z"/>
				<path class="st3" d="M172.4,378.3c-1.1,0-2.1-0.9-2.1-2c0-1.1,0.9-2.1,2-2.1c1.1,0,2.1,0.9,2.1,2
					C174.5,377.3,173.6,378.3,172.4,378.3z"/>
				<path class="st3" d="M165.7,361.8c-1.2,0-2.1-0.9-2.1-2c0-1.2,0.9-2.1,2-2.1c1.2,0,2.1,0.9,2.1,2
					C167.7,360.8,166.8,361.8,165.7,361.8z"/>
				<path class="st3" d="M160.2,344.9c-1.2,0-2.1-0.9-2.2-2.1c0-1.2,0.9-2.1,2.1-2.2c1.2,0,2.1,0.9,2.2,2.1
					C162.3,343.9,161.4,344.8,160.2,344.9z"/>
				<path class="st3" d="M156.2,327.5c-1.2,0-2.2-0.9-2.2-2.1c0-1.2,0.9-2.2,2.1-2.2c1.2,0,2.2,0.9,2.2,2.1
					C158.3,326.5,157.4,327.5,156.2,327.5z"/>
				<path class="st3" d="M153.6,309.9c-1.2,0-2.2-0.9-2.2-2.1c0-1.2,0.9-2.2,2.1-2.2c1.2,0,2.2,0.9,2.2,2.1
					C155.8,308.9,154.8,309.9,153.6,309.9z"/>
				<path class="st3" d="M152.4,292.2c-1.2,0-2.2-0.9-2.3-2.2c0-1.2,0.9-2.2,2.2-2.3c1.2,0,2.2,0.9,2.3,2.2
					C154.6,291.1,153.6,292.1,152.4,292.2z"/>
				<path class="st3" d="M152.6,274.3c-1.2,0-2.2-0.9-2.3-2.1s0.9-2.2,2.1-2.3c1.2,0,2.2,0.9,2.3,2.1
					C154.8,273.3,153.8,274.3,152.6,274.3z"/>
				<path class="st3" d="M154.3,256.5c-1.2,0-2.2-0.9-2.2-2.1c0-1.2,0.9-2.2,2.1-2.2c1.2,0,2.2,0.9,2.2,2.1S155.5,256.5,154.3,256.5
					z"/>
				<path class="st3" d="M157.3,238.9c-1.2,0-2.2-0.9-2.2-2.1c0-1.2,0.9-2.2,2.1-2.2c1.2,0,2.2,0.9,2.2,2.1
					C159.4,237.9,158.5,238.9,157.3,238.9z"/>
				<path class="st3" d="M161.8,221.6c-1.2,0-2.1-0.9-2.1-2c0-1.2,0.9-2.1,2-2.1c1.2,0,2.1,0.9,2.1,2
					C163.9,220.6,163,221.6,161.8,221.6z"/>
				<path class="st3" d="M167.7,204.7c-1.1,0-2.1-0.9-2.1-2c0-1.1,0.9-2.1,2-2.1c1.1,0,2.1,0.9,2.1,2
					C169.7,203.8,168.8,204.7,167.7,204.7z"/>
				<path class="st3" d="M174.9,188.4c-1.1,0-2-0.9-2.1-2c0-1.1,0.9-2,2-2.1c1.1,0,2,0.9,2.1,2C176.9,187.4,176,188.4,174.9,188.4z"
					/>
				<path class="st3" d="M183.4,172.7c-1.1,0-2-0.8-2-1.9c0-1.1,0.8-2,1.9-2c1.1,0,2,0.8,2,1.9C185.4,171.7,184.5,172.7,183.4,172.7
					z"/>
				<path class="st3" d="M193.1,157.7c-1.1,0-2-0.8-2-1.9c0-1.1,0.8-2,1.9-2c1.1,0,2,0.8,2,1.9C195.1,156.8,194.2,157.7,193.1,157.7
					z"/>
				<path class="st3" d="M204,143.6c-1.1,0-1.9-0.8-2-1.9c0-1.1,0.8-1.9,1.9-2c1.1,0,1.9,0.8,2,1.9
					C205.9,142.7,205.1,143.5,204,143.6z"/>
				<path class="st3" d="M216,130.3c-1,0-1.9-0.8-1.9-1.8c0-1,0.8-1.9,1.8-1.9c1,0,1.9,0.8,1.9,1.8
					C217.9,129.4,217.1,130.3,216,130.3z"/>
				<path class="st3" d="M229,118.1c-1,0-1.9-0.8-1.9-1.8c0-1,0.8-1.9,1.8-1.9c1,0,1.9,0.8,1.9,1.8S230.1,118.1,229,118.1z"/>
				<path class="st3" d="M243,106.9c-1,0-1.8-0.7-1.8-1.7c0-1,0.7-1.8,1.7-1.8s1.8,0.7,1.8,1.7C244.7,106.1,244,106.9,243,106.9z"/>
				<path class="st3" d="M257.8,96.9c-0.9,0-1.7-0.7-1.7-1.6c0-0.9,0.7-1.7,1.6-1.7c0.9,0,1.7,0.7,1.7,1.6
					C259.4,96.1,258.7,96.8,257.8,96.9z"/>
				<path class="st3" d="M273.3,88c-0.9,0-1.6-0.7-1.6-1.5c0-0.9,0.7-1.6,1.5-1.6c0.9,0,1.6,0.7,1.6,1.5
					C274.9,87.3,274.2,88,273.3,88z"/>
				<path class="st3" d="M289.5,80.5c-0.8,0-1.5-0.6-1.5-1.5c0-0.8,0.6-1.5,1.5-1.5c0.8,0,1.5,0.6,1.5,1.5
					C291,79.8,290.4,80.5,289.5,80.5z"/>
				<path class="st3" d="M306.3,74.3c-0.8,0-1.4-0.6-1.5-1.4c0-0.8,0.6-1.4,1.4-1.5c0.8,0,1.4,0.6,1.5,1.4
					C307.7,73.6,307.1,74.3,306.3,74.3z"/>
				<path class="st3" d="M323.5,69.5c-0.7,0-1.3-0.6-1.4-1.3s0.6-1.3,1.3-1.4c0.7,0,1.3,0.6,1.4,1.3
					C324.8,68.9,324.2,69.5,323.5,69.5z"/>
				<path class="st3" d="M341,66.1c-0.7,0-1.3-0.5-1.3-1.2c0-0.7,0.5-1.3,1.2-1.3s1.3,0.5,1.3,1.2S341.7,66.1,341,66.1z"/>
				<path class="st3" d="M358.7,64.1c-0.6,0-1.2-0.5-1.2-1.1c0-0.6,0.5-1.2,1.1-1.2c0.6,0,1.2,0.5,1.2,1.1
					C359.9,63.6,359.4,64.1,358.7,64.1z"/>
				<path class="st3" d="M376.5,63.5c-0.6,0-1.1-0.5-1.1-1c0-0.6,0.5-1.1,1-1.1c0.6,0,1.1,0.5,1.1,1C377.6,63,377.1,63.5,376.5,63.5
					z"/>
				<path class="st3" d="M394.4,64.4c-0.5,0-1-0.4-1-1c0-0.5,0.4-1,1-1c0.5,0,1,0.4,1,1C395.3,63.9,394.9,64.4,394.4,64.4z"/>
				<path class="st3" d="M412,66.6c-0.5,0-0.9-0.4-0.9-0.9c0-0.5,0.4-0.9,0.9-0.9c0.5,0,0.9,0.4,0.9,0.9
					C412.9,66.2,412.5,66.6,412,66.6z"/>
				<path class="st3" d="M429.5,70.3c-0.5,0-0.8-0.3-0.8-0.8c0-0.5,0.3-0.8,0.8-0.8c0.5,0,0.8,0.3,0.8,0.8
					C430.3,69.9,429.9,70.3,429.5,70.3z"/>
				<path class="st3" d="M446.5,75.4c-0.4,0-0.7-0.3-0.8-0.7c0-0.4,0.3-0.7,0.7-0.8c0.4,0,0.7,0.3,0.8,0.7
					C447.3,75.1,446.9,75.4,446.5,75.4z"/>
				<path class="st3" d="M463.1,81.9c-0.4,0-0.7-0.3-0.7-0.6c0-0.4,0.3-0.7,0.6-0.7c0.4,0,0.7,0.3,0.7,0.6
					C463.8,81.6,463.5,81.9,463.1,81.9z"/>
			</g>
		</g>
	</g>
	<path class="st2" d="M702.4,490.6c0,2.5-2,4.5-4.5,4.5s-4.5-2-4.5-4.5c0-2.5,2-4.5,4.5-4.5S702.4,488.1,702.4,490.6z"/>
	<linearGradient id="SVGID_1_" gradientUnits="userSpaceOnUse" x1="538.8749" y1="436.5928" x2="538.8749" y2="436.5928">
		<stop  offset="0" style="stop-color:#0D52A0"/>
		<stop  offset="1" style="stop-color:#1374BB"/>
	</linearGradient>
	<path class="st4" d="M538.9,436.6"/>
	<path class="st2" d="M364,37.3c0.3,2.5-1.4,4.7-3.8,5.1c-2.5,0.3-4.7-1.4-5.1-3.8c-0.3-2.5,1.4-4.7,3.8-5.1
		C361.3,33.2,363.6,34.9,364,37.3z"/>
</g>
</svg>
