<?xml version="1.0" encoding="utf-8"?>
<!-- Generator: Adobe Illustrator 26.5.0, SVG Export Plug-In . SVG Version: 6.00 Build 0)  -->
<svg version="1.1" id="Layer_1" xmlns="http://www.w3.org/2000/svg" xmlns:xlink="http://www.w3.org/1999/xlink" x="0px" y="0px"
	 viewBox="0 0 262.7 168.5" style="enable-background:new 0 0 262.7 168.5;" xml:space="preserve">
<style type="text/css">
	.st0{fill:#2871B7;}
	.st1{enable-background:new    ;}
	.st2{fill:#474848;}
	.st3{fill:#FFFFFF;}
</style>
<g>
	<polygon class="st0" points="42.6,59.5 7.6,59.5 7.6,64.6 22.3,64.6 22.3,109.9 27.9,109.9 27.9,64.6 42.6,64.6 	"/>
	<path class="st0" d="M72.2,89c4.5-3,7.5-7.7,7.5-13.1l0,0c0-9-8.3-16.3-18.5-16.3s-18.5,7.3-18.5,16.3l0,0l0,0l0,0v34h5.2v-34l0,0
		l0,0l0,0c0-6.3,6-11.4,13.3-11.4c7.4,0,13.3,5.1,13.3,11.4l0,0c0,4.7-3.4,8.8-8.3,10.5H51.5v5.2h14.7c4.7,1.6,8,5.5,8.3,10l0,0v8.3
		h2.9h2.3v-7.8c0-0.5,0-1-0.1-1.5C79.1,95.8,76.3,91.6,72.2,89z"/>
	<path class="st0" d="M120.1,60.2L120.1,60.2L120.1,60.2L120.1,60.2c0-0.2,0-0.5,0-0.7H115c0,0.2,0,0.4,0,0.6l0,0l0,0l0,0v22.8v11.2
		l0,0c0,0.2,0,0.3,0,0.5c0,5.8-5.7,10.5-12.7,10.5s-12.7-4.7-12.7-10.5c0-0.2,0-0.3,0-0.5V83V60.2l0,0l0,0l0,0c0-0.2,0-0.4,0-0.6
		h-5.2c0,0.2,0,0.4,0,0.6l0,0l0,0l0,0v34c0,8.7,8,15.8,17.9,15.8s17.9-7.1,17.9-15.8c0-0.2,0-0.5,0-0.7V60.2H120.1z"/>
	<path class="st0" d="M184.3,71.4v-6.9v-5h-5.2v1.4v3.6V72l0,0c0,0.2,0,0.3,0,0.5c0,5-4.2,9.2-9.9,10.2c-0.9,0.2-1.9,0.3-2.8,0.3
		s-1.9-0.1-2.8-0.3c-5.7-1.1-9.9-5.2-9.9-10.2c0-0.2,0-0.3,0-0.5v-7.5v-3.6v-1.4h-5.2v5V72c0,7.9,6.5,14.4,15.1,15.6v22.1h5.6V87.8
		c8.6-1.2,15.1-7.7,15.1-15.6C184.3,71.9,184.3,71.6,184.3,71.4z"/>
	<path class="st0" d="M148.7,104.3h-10.4c-3.7,0-6.8-3-6.8-6.8V87.1V59.5h-5.6v38c0,2.5,0.7,4.8,2,6.8c0.9,1.4,2.2,2.7,3.6,3.6
		c1.9,1.3,4.3,2,6.8,2h19.3v-5.6H148.7z"/>
	<g class="st1">
		<path class="st2" d="M15.4,129v1.8h-2.8c-1.8,0-3.1-0.4-3.9-1.3c-0.8-0.8-1.2-2.2-1.2-4v-10h2v9.6c0,0.9,0.1,1.5,0.2,2
			c0.1,0.5,0.4,0.8,0.7,1.1c0.3,0.3,0.7,0.5,1.1,0.6c0.4,0.1,1,0.2,1.8,0.2C13.3,129,15.4,129,15.4,129z"/>
		<path class="st2" d="M21.9,120.2c1.5,0,2.8,0.5,3.8,1.6s1.6,2.4,1.6,3.9s-0.5,2.7-1.6,3.8s-2.3,1.6-3.8,1.6s-2.8-0.5-3.9-1.6
			s-1.6-2.3-1.6-3.9c0-1.5,0.5-2.7,1.6-3.8S20.4,120.2,21.9,120.2z M21.9,122c-1,0-1.8,0.3-2.5,1s-1.1,1.5-1.1,2.5s0.3,1.9,1,2.6
			c0.7,0.7,1.6,1,2.6,1c0.9,0,1.7-0.4,2.4-1.1c0.7-0.7,1-1.5,1-2.5s-0.3-1.9-1-2.6S22.9,122,21.9,122z"/>
		<path class="st2" d="M35.7,120.4h1.8v5.9c0,2.6-1.1,4.2-3.4,4.6v4.8h-1.8v-4.8c-2.4-0.3-3.6-1.8-3.6-4.5v-6h1.8v5.9
			c0,0.9,0.2,1.7,0.7,2.2s1.1,0.8,1.9,0.8s1.5-0.3,1.9-0.8s0.7-1.3,0.7-2.3V120.4z"/>
		<path class="st2" d="M49.9,130.8h-1.8v-4.6c0-1.3-0.3-2.3-1-3.1c-0.6-0.8-1.5-1.2-2.6-1.2c-1,0-1.8,0.4-2.5,1.1s-1,1.6-1,2.6
			s0.3,1.9,1,2.5c0.7,0.6,1.5,1,2.6,1c0.9,0,1.8-0.4,2.8-1.3v1.9c-0.5,0.4-1,0.7-1.4,0.9c-0.5,0.2-1,0.3-1.6,0.3
			c-1.5,0-2.7-0.5-3.7-1.6c-1-1-1.5-2.3-1.5-3.8s0.5-2.8,1.6-3.8c1.1-1.1,2.4-1.6,3.9-1.6c1.6,0,2.9,0.5,3.9,1.6s1.5,2.4,1.5,4.1v5
			H49.9z"/>
		<path class="st2" d="M54.2,130.8h-1.8v-15.3h1.8V130.8z"/>
		<path class="st2" d="M58.4,122v4.9c0,0.9,0.2,1.5,0.5,1.8c0.3,0.3,1,0.5,1.9,0.5h0.9v1.6h-1c-1.6,0-2.7-0.3-3.3-0.8
			c-0.6-0.6-0.9-1.6-0.9-3v-9.7h1.8v3.2h3.3v1.6L58.4,122L58.4,122z"/>
		<path class="st2" d="M70.4,120.4h1.8v5.9c0,2.6-1.1,4.2-3.4,4.6v4.8H67v-4.8c-2.4-0.3-3.6-1.8-3.6-4.5v-6h1.8v5.9
			c0,0.9,0.2,1.7,0.7,2.2s1.1,0.8,1.9,0.8s1.5-0.3,1.9-0.8s0.7-1.3,0.7-2.3V120.4z"/>
		<path class="st2" d="M83.9,130.8h-2v-15.3h2V130.8z"/>
		<path class="st2" d="M95.6,130.8h-1.8v-5.5c0-1.1-0.2-1.9-0.7-2.5s-1.1-0.9-2-0.9c-1.8,0-2.7,1.1-2.7,3.4v5.4h-1.8v-5.9
			c0-1.4,0.4-2.6,1.2-3.4c0.8-0.9,1.9-1.3,3.3-1.3c1.3,0,2.4,0.4,3.2,1.3s1.2,2,1.2,3.4v6H95.6z"/>
		<path class="st2" d="M99.4,122v4.9c0,0.9,0.2,1.5,0.5,1.8c0.3,0.3,1,0.5,1.9,0.5h0.9v1.6h-1c-1.6,0-2.7-0.3-3.3-0.8
			c-0.6-0.6-0.9-1.6-0.9-3v-9.7h1.8v3.2h3.3v1.6L99.4,122L99.4,122z"/>
		<path class="st2" d="M113.3,126l1.3,0.7c-0.8,2.9-2.6,4.3-5.4,4.3c-1.5,0-2.8-0.5-3.8-1.6c-1.1-1-1.6-2.3-1.6-3.8s0.5-2.8,1.6-3.9
			s2.3-1.6,3.9-1.6c2,0,3.7,1,4.8,3.1l-6.7,4.4l-0.8-1.4l5.1-3.4c-0.6-0.7-1.4-1.1-2.4-1.1s-1.9,0.3-2.5,1c-0.7,0.7-1,1.6-1,2.6
			s0.4,2,1.1,2.7c0.7,0.8,1.6,1.1,2.6,1.1s1.8-0.3,2.5-0.9C112.5,127.9,113,127.1,113.3,126z"/>
		<path class="st2" d="M118.2,130.8h-1.8v-15.3h1.8V130.8z"/>
		<path class="st2" d="M122.9,130.8H121v-15.3h1.8L122.9,130.8L122.9,130.8z"/>
		<path class="st2" d="M126.9,116c0.4,0,0.7,0.1,0.9,0.4c0.3,0.3,0.4,0.6,0.4,0.9c0,0.4-0.1,0.7-0.4,1s-0.6,0.4-0.9,0.4
			c-0.4,0-0.7-0.1-1-0.4s-0.4-0.6-0.4-1s0.1-0.7,0.4-0.9C126.2,116.1,126.6,116,126.9,116z M127.9,130.8h-1.8v-10.4h1.8V130.8z"/>
		<path class="st2" d="M131.9,135.4l0.2-1.7c1.2,0.4,2.2,0.5,3.1,0.5c1.5,0,2.4-0.3,2.9-0.9s0.7-1.1,0.8-1.5s0.1-0.9,0.1-1.6v-3.9
			c0-1.3-0.3-2.4-0.9-3.1c-0.6-0.8-1.5-1.1-2.6-1.1c-1,0-1.9,0.3-2.6,1c-0.7,0.7-1,1.6-1,2.6s0.3,1.9,1,2.5c0.7,0.6,1.5,1,2.5,1
			c0.5,0,1-0.1,1.4-0.3c0.4-0.2,0.9-0.5,1.5-1v1.9c-0.6,0.5-1.1,0.8-1.6,0.9c-0.5,0.1-1,0.3-1.5,0.3c-1.4,0-2.6-0.5-3.6-1.6
			s-1.5-2.3-1.5-3.8s0.5-2.8,1.6-3.8c1.1-1.1,2.4-1.6,3.9-1.6c1.6,0,2.9,0.5,3.9,1.6s1.5,2.5,1.5,4.2v4.5c0,1.7-0.5,3-1.4,4
			c-0.9,0.9-2.2,1.4-3.9,1.4C134.5,135.9,133.3,135.8,131.9,135.4z"/>
		<path class="st2" d="M151.8,126l1.3,0.7c-0.8,2.9-2.6,4.3-5.4,4.3c-1.5,0-2.8-0.5-3.8-1.6c-1-1.1-1.6-2.3-1.6-3.8s0.5-2.8,1.6-3.9
			c1-1,2.3-1.6,3.9-1.6c2,0,3.7,1,4.8,3.1l-6.7,4.4l-0.8-1.4l5.1-3.4c-0.6-0.7-1.4-1.1-2.4-1.1s-1.9,0.3-2.5,1c-0.7,0.7-1,1.6-1,2.6
			s0.4,2,1.1,2.7c0.7,0.7,1.6,1.1,2.6,1.1s1.8-0.3,2.5-0.9C151,127.9,151.5,127.1,151.8,126z"/>
		<path class="st2" d="M163.5,130.8h-1.8v-5.5c0-1.1-0.2-1.9-0.7-2.5s-1.1-0.9-2-0.9c-1.8,0-2.7,1.1-2.7,3.4v5.4h-1.8v-5.9
			c0-1.4,0.4-2.6,1.2-3.4c0.8-0.9,1.9-1.3,3.3-1.3c1.3,0,2.4,0.4,3.2,1.3s1.2,2,1.2,3.4v6H163.5z"/>
		<path class="st2" d="M167.3,122v4.9c0,0.9,0.2,1.5,0.5,1.8c0.3,0.3,1,0.5,1.9,0.5h0.9v1.6h-1c-1.6,0-2.7-0.3-3.3-0.8
			c-0.6-0.6-0.9-1.6-0.9-3v-9.7h1.8v3.2h3.3v1.6L167.3,122L167.3,122z"/>
		<path class="st2" d="M181.3,130.8h-2V121c0-1.8,0.5-3.2,1.4-4.2s2.2-1.5,3.7-1.5s2.7,0.5,3.7,1.4c1,1,1.5,2.1,1.5,3.5
			c0,1.5-0.5,2.6-1.4,3.5s-2.1,1.4-3.6,1.4h-2.5v-1.8h2.2c0.9,0,1.7-0.3,2.3-0.8s0.8-1.3,0.8-2.2c0-0.9-0.3-1.7-0.9-2.3
			c-0.6-0.6-1.3-0.9-2.2-0.9s-1.7,0.3-2.2,1s-0.8,1.6-0.8,2.8V130.8z"/>
		<path class="st2" d="M193.6,130.8h-1.8v-15.3h1.8V130.8z"/>
		<path class="st2" d="M206.3,130.8h-1.8v-4.6c0-1.3-0.3-2.3-1-3.1s-1.5-1.2-2.6-1.2c-1,0-1.8,0.4-2.5,1.1s-1,1.6-1,2.6
			s0.3,1.9,1,2.5c0.7,0.7,1.5,1,2.6,1c0.9,0,1.8-0.4,2.8-1.3v1.9c-0.5,0.4-1,0.7-1.4,0.9c-0.5,0.2-1,0.3-1.6,0.3
			c-1.5,0-2.7-0.5-3.7-1.6c-1-1-1.5-2.3-1.5-3.8s0.5-2.8,1.6-3.8c1.1-1.1,2.4-1.6,3.9-1.6c1.6,0,2.9,0.5,3.9,1.6s1.5,2.4,1.5,4.1v5
			H206.3z"/>
		<path class="st2" d="M210.2,122v4.9c0,0.9,0.2,1.5,0.5,1.8c0.3,0.3,1,0.5,1.9,0.5h0.9v1.6h-1c-1.6,0-2.7-0.3-3.3-0.8
			c-0.6-0.6-0.9-1.6-0.9-3v-9.7h1.8v3.2h3.3v1.6L210.2,122L210.2,122z"/>
		<path class="st2" d="M216.9,130.8h-1.8v-11.2c0-2.8,1.4-4.2,4.2-4.2h1.5v1.6h-1.2c-0.9,0-1.6,0.2-2,0.6s-0.6,1.1-0.6,1.9v0.8h3.9
			v1.6H217L216.9,130.8L216.9,130.8z"/>
		<path class="st2" d="M226.6,120.2c1.5,0,2.8,0.5,3.8,1.6s1.6,2.4,1.6,3.9s-0.5,2.7-1.6,3.8s-2.3,1.6-3.8,1.6s-2.8-0.5-3.9-1.6
			c-1.1-1.1-1.6-2.3-1.6-3.9c0-1.5,0.5-2.7,1.6-3.8C223.8,120.7,225.1,120.2,226.6,120.2z M226.6,122c-1,0-1.8,0.3-2.5,1
			s-1.1,1.5-1.1,2.5s0.3,1.9,1,2.6c0.7,0.7,1.6,1,2.6,1c0.9,0,1.7-0.4,2.4-1.1s1-1.5,1-2.5s-0.3-1.9-1-2.6
			C228.4,122.3,227.6,122,226.6,122z"/>
		<path class="st2" d="M235.6,130.8h-1.8v-10.4h1.8v1.8c0.7-1.4,1.8-2.1,3.4-2.1h0.7v1.7h-0.4c-1.3,0-2.2,0.3-2.8,1
			s-0.9,1.7-0.9,3.2V130.8z"/>
		<path class="st2" d="M255.3,130.8h-1.8v-6.2c0-0.8-0.2-1.4-0.6-1.9c-0.4-0.5-0.9-0.7-1.6-0.7c-0.8,0-1.4,0.2-1.7,0.7
			c-0.3,0.4-0.5,0.8-0.5,1.1c-0.1,0.3-0.1,0.7-0.1,1.2v5.9h-1.8v-6.1c0-1.8-0.8-2.7-2.3-2.7c-0.8,0-1.3,0.2-1.6,0.7s-0.5,0.8-0.5,1
			s-0.1,0.6-0.1,1.1v6h-1.8v-6.4c0-0.8,0.1-1.5,0.2-1.9c0.1-0.4,0.5-1,1.1-1.5c0.6-0.6,1.5-0.9,2.7-0.9c1.5,0,2.6,0.6,3.3,1.9
			c0.7-1.3,1.8-1.9,3.3-1.9c1.2,0,2.2,0.4,2.9,1.1c0.7,0.8,1.1,1.8,1.1,3v6.5H255.3z"/>
	</g>
	<g>
		<path class="st0" d="M244.1,40.8L205,32.3c-8.2-1.8-16.4,3.5-18.2,11.7l-8.5,39.1c-1.8,8.2,3.5,16.4,11.7,18.2l39.1,8.5
			c8.2,1.8,16.4-3.5,18.2-11.7l8.5-39.1C257.6,50.8,252.4,42.6,244.1,40.8z"/>
		<polygon class="st3" points="243,71.6 223,67.2 227.4,47.2 217.7,45.1 213.3,65.1 193.3,60.8 191.2,70.5 211.2,74.8 206.9,94.8 
			216.6,96.9 220.9,76.9 240.9,81.3 		"/>
	</g>
</g>
</svg>
